G04 #@! TF.GenerationSoftware,KiCad,Pcbnew,(5.1.9)-1*
G04 #@! TF.CreationDate,2021-12-15T22:13:59+01:00*
G04 #@! TF.ProjectId,AudioCodecModule_WM8960,41756469-6f43-46f6-9465-634d6f64756c,rev?*
G04 #@! TF.SameCoordinates,Original*
G04 #@! TF.FileFunction,Soldermask,Top*
G04 #@! TF.FilePolarity,Negative*
%FSLAX46Y46*%
G04 Gerber Fmt 4.6, Leading zero omitted, Abs format (unit mm)*
G04 Created by KiCad (PCBNEW (5.1.9)-1) date 2021-12-15 22:13:59*
%MOMM*%
%LPD*%
G01*
G04 APERTURE LIST*
%ADD10O,2.300000X2.600000*%
%ADD11O,2.100000X2.600000*%
%ADD12C,1.200000*%
%ADD13O,2.600000X2.100000*%
%ADD14C,2.350000*%
%ADD15C,2.150000*%
%ADD16O,1.800000X1.800000*%
G04 APERTURE END LIST*
D10*
X163039000Y-56105000D03*
X156239000Y-56105000D03*
D11*
X162489000Y-64205000D03*
X156789000Y-64205000D03*
D12*
X159639000Y-61705000D03*
X159639000Y-54705000D03*
D13*
X159639000Y-65105000D03*
D10*
X187550000Y-56105000D03*
X180750000Y-56105000D03*
D11*
X187000000Y-64205000D03*
X181300000Y-64205000D03*
D12*
X184150000Y-61705000D03*
X184150000Y-54705000D03*
D13*
X184150000Y-65105000D03*
G36*
G01*
X185212000Y-74176500D02*
X185212000Y-73651500D01*
G75*
G02*
X185474500Y-73389000I262500J0D01*
G01*
X186099500Y-73389000D01*
G75*
G02*
X186362000Y-73651500I0J-262500D01*
G01*
X186362000Y-74176500D01*
G75*
G02*
X186099500Y-74439000I-262500J0D01*
G01*
X185474500Y-74439000D01*
G75*
G02*
X185212000Y-74176500I0J262500D01*
G01*
G37*
G36*
G01*
X183462000Y-74176500D02*
X183462000Y-73651500D01*
G75*
G02*
X183724500Y-73389000I262500J0D01*
G01*
X184349500Y-73389000D01*
G75*
G02*
X184612000Y-73651500I0J-262500D01*
G01*
X184612000Y-74176500D01*
G75*
G02*
X184349500Y-74439000I-262500J0D01*
G01*
X183724500Y-74439000D01*
G75*
G02*
X183462000Y-74176500I0J262500D01*
G01*
G37*
G36*
G01*
X186990000Y-75700500D02*
X186990000Y-75175500D01*
G75*
G02*
X187252500Y-74913000I262500J0D01*
G01*
X187877500Y-74913000D01*
G75*
G02*
X188140000Y-75175500I0J-262500D01*
G01*
X188140000Y-75700500D01*
G75*
G02*
X187877500Y-75963000I-262500J0D01*
G01*
X187252500Y-75963000D01*
G75*
G02*
X186990000Y-75700500I0J262500D01*
G01*
G37*
G36*
G01*
X185240000Y-75700500D02*
X185240000Y-75175500D01*
G75*
G02*
X185502500Y-74913000I262500J0D01*
G01*
X186127500Y-74913000D01*
G75*
G02*
X186390000Y-75175500I0J-262500D01*
G01*
X186390000Y-75700500D01*
G75*
G02*
X186127500Y-75963000I-262500J0D01*
G01*
X185502500Y-75963000D01*
G75*
G02*
X185240000Y-75700500I0J262500D01*
G01*
G37*
G36*
G01*
X192832000Y-84590500D02*
X192832000Y-84065500D01*
G75*
G02*
X193094500Y-83803000I262500J0D01*
G01*
X193719500Y-83803000D01*
G75*
G02*
X193982000Y-84065500I0J-262500D01*
G01*
X193982000Y-84590500D01*
G75*
G02*
X193719500Y-84853000I-262500J0D01*
G01*
X193094500Y-84853000D01*
G75*
G02*
X192832000Y-84590500I0J262500D01*
G01*
G37*
G36*
G01*
X191082000Y-84590500D02*
X191082000Y-84065500D01*
G75*
G02*
X191344500Y-83803000I262500J0D01*
G01*
X191969500Y-83803000D01*
G75*
G02*
X192232000Y-84065500I0J-262500D01*
G01*
X192232000Y-84590500D01*
G75*
G02*
X191969500Y-84853000I-262500J0D01*
G01*
X191344500Y-84853000D01*
G75*
G02*
X191082000Y-84590500I0J262500D01*
G01*
G37*
G36*
G01*
X192832000Y-87638500D02*
X192832000Y-87113500D01*
G75*
G02*
X193094500Y-86851000I262500J0D01*
G01*
X193719500Y-86851000D01*
G75*
G02*
X193982000Y-87113500I0J-262500D01*
G01*
X193982000Y-87638500D01*
G75*
G02*
X193719500Y-87901000I-262500J0D01*
G01*
X193094500Y-87901000D01*
G75*
G02*
X192832000Y-87638500I0J262500D01*
G01*
G37*
G36*
G01*
X191082000Y-87638500D02*
X191082000Y-87113500D01*
G75*
G02*
X191344500Y-86851000I262500J0D01*
G01*
X191969500Y-86851000D01*
G75*
G02*
X192232000Y-87113500I0J-262500D01*
G01*
X192232000Y-87638500D01*
G75*
G02*
X191969500Y-87901000I-262500J0D01*
G01*
X191344500Y-87901000D01*
G75*
G02*
X191082000Y-87638500I0J262500D01*
G01*
G37*
G36*
G01*
X192832000Y-86114500D02*
X192832000Y-85589500D01*
G75*
G02*
X193094500Y-85327000I262500J0D01*
G01*
X193719500Y-85327000D01*
G75*
G02*
X193982000Y-85589500I0J-262500D01*
G01*
X193982000Y-86114500D01*
G75*
G02*
X193719500Y-86377000I-262500J0D01*
G01*
X193094500Y-86377000D01*
G75*
G02*
X192832000Y-86114500I0J262500D01*
G01*
G37*
G36*
G01*
X191082000Y-86114500D02*
X191082000Y-85589500D01*
G75*
G02*
X191344500Y-85327000I262500J0D01*
G01*
X191969500Y-85327000D01*
G75*
G02*
X192232000Y-85589500I0J-262500D01*
G01*
X192232000Y-86114500D01*
G75*
G02*
X191969500Y-86377000I-262500J0D01*
G01*
X191344500Y-86377000D01*
G75*
G02*
X191082000Y-86114500I0J262500D01*
G01*
G37*
G36*
G01*
X192832000Y-83066500D02*
X192832000Y-82541500D01*
G75*
G02*
X193094500Y-82279000I262500J0D01*
G01*
X193719500Y-82279000D01*
G75*
G02*
X193982000Y-82541500I0J-262500D01*
G01*
X193982000Y-83066500D01*
G75*
G02*
X193719500Y-83329000I-262500J0D01*
G01*
X193094500Y-83329000D01*
G75*
G02*
X192832000Y-83066500I0J262500D01*
G01*
G37*
G36*
G01*
X191082000Y-83066500D02*
X191082000Y-82541500D01*
G75*
G02*
X191344500Y-82279000I262500J0D01*
G01*
X191969500Y-82279000D01*
G75*
G02*
X192232000Y-82541500I0J-262500D01*
G01*
X192232000Y-83066500D01*
G75*
G02*
X191969500Y-83329000I-262500J0D01*
G01*
X191344500Y-83329000D01*
G75*
G02*
X191082000Y-83066500I0J262500D01*
G01*
G37*
G36*
G01*
X176267500Y-86914000D02*
X176792500Y-86914000D01*
G75*
G02*
X177055000Y-87176500I0J-262500D01*
G01*
X177055000Y-87801500D01*
G75*
G02*
X176792500Y-88064000I-262500J0D01*
G01*
X176267500Y-88064000D01*
G75*
G02*
X176005000Y-87801500I0J262500D01*
G01*
X176005000Y-87176500D01*
G75*
G02*
X176267500Y-86914000I262500J0D01*
G01*
G37*
G36*
G01*
X176267500Y-85164000D02*
X176792500Y-85164000D01*
G75*
G02*
X177055000Y-85426500I0J-262500D01*
G01*
X177055000Y-86051500D01*
G75*
G02*
X176792500Y-86314000I-262500J0D01*
G01*
X176267500Y-86314000D01*
G75*
G02*
X176005000Y-86051500I0J262500D01*
G01*
X176005000Y-85426500D01*
G75*
G02*
X176267500Y-85164000I262500J0D01*
G01*
G37*
G36*
G01*
X183379500Y-88946000D02*
X183904500Y-88946000D01*
G75*
G02*
X184167000Y-89208500I0J-262500D01*
G01*
X184167000Y-89833500D01*
G75*
G02*
X183904500Y-90096000I-262500J0D01*
G01*
X183379500Y-90096000D01*
G75*
G02*
X183117000Y-89833500I0J262500D01*
G01*
X183117000Y-89208500D01*
G75*
G02*
X183379500Y-88946000I262500J0D01*
G01*
G37*
G36*
G01*
X183379500Y-87196000D02*
X183904500Y-87196000D01*
G75*
G02*
X184167000Y-87458500I0J-262500D01*
G01*
X184167000Y-88083500D01*
G75*
G02*
X183904500Y-88346000I-262500J0D01*
G01*
X183379500Y-88346000D01*
G75*
G02*
X183117000Y-88083500I0J262500D01*
G01*
X183117000Y-87458500D01*
G75*
G02*
X183379500Y-87196000I262500J0D01*
G01*
G37*
G36*
G01*
X177791500Y-86914000D02*
X178316500Y-86914000D01*
G75*
G02*
X178579000Y-87176500I0J-262500D01*
G01*
X178579000Y-87801500D01*
G75*
G02*
X178316500Y-88064000I-262500J0D01*
G01*
X177791500Y-88064000D01*
G75*
G02*
X177529000Y-87801500I0J262500D01*
G01*
X177529000Y-87176500D01*
G75*
G02*
X177791500Y-86914000I262500J0D01*
G01*
G37*
G36*
G01*
X177791500Y-85164000D02*
X178316500Y-85164000D01*
G75*
G02*
X178579000Y-85426500I0J-262500D01*
G01*
X178579000Y-86051500D01*
G75*
G02*
X178316500Y-86314000I-262500J0D01*
G01*
X177791500Y-86314000D01*
G75*
G02*
X177529000Y-86051500I0J262500D01*
G01*
X177529000Y-85426500D01*
G75*
G02*
X177791500Y-85164000I262500J0D01*
G01*
G37*
G36*
G01*
X180827000Y-90396000D02*
X179727000Y-90396000D01*
G75*
G02*
X179677000Y-90346000I0J50000D01*
G01*
X179677000Y-89046000D01*
G75*
G02*
X179727000Y-88996000I50000J0D01*
G01*
X180827000Y-88996000D01*
G75*
G02*
X180877000Y-89046000I0J-50000D01*
G01*
X180877000Y-90346000D01*
G75*
G02*
X180827000Y-90396000I-50000J0D01*
G01*
G37*
G36*
G01*
X180827000Y-88296000D02*
X179727000Y-88296000D01*
G75*
G02*
X179677000Y-88246000I0J50000D01*
G01*
X179677000Y-86946000D01*
G75*
G02*
X179727000Y-86896000I50000J0D01*
G01*
X180827000Y-86896000D01*
G75*
G02*
X180877000Y-86946000I0J-50000D01*
G01*
X180877000Y-88246000D01*
G75*
G02*
X180827000Y-88296000I-50000J0D01*
G01*
G37*
G36*
G01*
X182477000Y-88296000D02*
X181377000Y-88296000D01*
G75*
G02*
X181327000Y-88246000I0J50000D01*
G01*
X181327000Y-86946000D01*
G75*
G02*
X181377000Y-86896000I50000J0D01*
G01*
X182477000Y-86896000D01*
G75*
G02*
X182527000Y-86946000I0J-50000D01*
G01*
X182527000Y-88246000D01*
G75*
G02*
X182477000Y-88296000I-50000J0D01*
G01*
G37*
G36*
G01*
X182477000Y-90396000D02*
X181377000Y-90396000D01*
G75*
G02*
X181327000Y-90346000I0J50000D01*
G01*
X181327000Y-89046000D01*
G75*
G02*
X181377000Y-88996000I50000J0D01*
G01*
X182477000Y-88996000D01*
G75*
G02*
X182527000Y-89046000I0J-50000D01*
G01*
X182527000Y-90346000D01*
G75*
G02*
X182477000Y-90396000I-50000J0D01*
G01*
G37*
G36*
G01*
X153661500Y-88692000D02*
X154186500Y-88692000D01*
G75*
G02*
X154449000Y-88954500I0J-262500D01*
G01*
X154449000Y-89579500D01*
G75*
G02*
X154186500Y-89842000I-262500J0D01*
G01*
X153661500Y-89842000D01*
G75*
G02*
X153399000Y-89579500I0J262500D01*
G01*
X153399000Y-88954500D01*
G75*
G02*
X153661500Y-88692000I262500J0D01*
G01*
G37*
G36*
G01*
X153661500Y-86942000D02*
X154186500Y-86942000D01*
G75*
G02*
X154449000Y-87204500I0J-262500D01*
G01*
X154449000Y-87829500D01*
G75*
G02*
X154186500Y-88092000I-262500J0D01*
G01*
X153661500Y-88092000D01*
G75*
G02*
X153399000Y-87829500I0J262500D01*
G01*
X153399000Y-87204500D01*
G75*
G02*
X153661500Y-86942000I262500J0D01*
G01*
G37*
G36*
G01*
X151883500Y-88692000D02*
X152408500Y-88692000D01*
G75*
G02*
X152671000Y-88954500I0J-262500D01*
G01*
X152671000Y-89579500D01*
G75*
G02*
X152408500Y-89842000I-262500J0D01*
G01*
X151883500Y-89842000D01*
G75*
G02*
X151621000Y-89579500I0J262500D01*
G01*
X151621000Y-88954500D01*
G75*
G02*
X151883500Y-88692000I262500J0D01*
G01*
G37*
G36*
G01*
X151883500Y-86942000D02*
X152408500Y-86942000D01*
G75*
G02*
X152671000Y-87204500I0J-262500D01*
G01*
X152671000Y-87829500D01*
G75*
G02*
X152408500Y-88092000I-262500J0D01*
G01*
X151883500Y-88092000D01*
G75*
G02*
X151621000Y-87829500I0J262500D01*
G01*
X151621000Y-87204500D01*
G75*
G02*
X151883500Y-86942000I262500J0D01*
G01*
G37*
D14*
X169926000Y-60706000D03*
X169926000Y-55626000D03*
X175006000Y-55626000D03*
X175006000Y-60706000D03*
D15*
X172466000Y-58166000D03*
G36*
G01*
X187302543Y-72099000D02*
X188617457Y-72099000D01*
G75*
G02*
X188885000Y-72366543I0J-267543D01*
G01*
X188885000Y-73356457D01*
G75*
G02*
X188617457Y-73624000I-267543J0D01*
G01*
X187302543Y-73624000D01*
G75*
G02*
X187035000Y-73356457I0J267543D01*
G01*
X187035000Y-72366543D01*
G75*
G02*
X187302543Y-72099000I267543J0D01*
G01*
G37*
G36*
G01*
X187302543Y-69124000D02*
X188617457Y-69124000D01*
G75*
G02*
X188885000Y-69391543I0J-267543D01*
G01*
X188885000Y-70381457D01*
G75*
G02*
X188617457Y-70649000I-267543J0D01*
G01*
X187302543Y-70649000D01*
G75*
G02*
X187035000Y-70381457I0J267543D01*
G01*
X187035000Y-69391543D01*
G75*
G02*
X187302543Y-69124000I267543J0D01*
G01*
G37*
D14*
X144272000Y-60706000D03*
X144272000Y-55626000D03*
X149352000Y-55626000D03*
X149352000Y-60706000D03*
D15*
X146812000Y-58166000D03*
G36*
G01*
X187302543Y-89879000D02*
X188617457Y-89879000D01*
G75*
G02*
X188885000Y-90146543I0J-267543D01*
G01*
X188885000Y-91136457D01*
G75*
G02*
X188617457Y-91404000I-267543J0D01*
G01*
X187302543Y-91404000D01*
G75*
G02*
X187035000Y-91136457I0J267543D01*
G01*
X187035000Y-90146543D01*
G75*
G02*
X187302543Y-89879000I267543J0D01*
G01*
G37*
G36*
G01*
X187302543Y-86904000D02*
X188617457Y-86904000D01*
G75*
G02*
X188885000Y-87171543I0J-267543D01*
G01*
X188885000Y-88161457D01*
G75*
G02*
X188617457Y-88429000I-267543J0D01*
G01*
X187302543Y-88429000D01*
G75*
G02*
X187035000Y-88161457I0J267543D01*
G01*
X187035000Y-87171543D01*
G75*
G02*
X187302543Y-86904000I267543J0D01*
G01*
G37*
G36*
G01*
X170933500Y-74468000D02*
X171458500Y-74468000D01*
G75*
G02*
X171721000Y-74730500I0J-262500D01*
G01*
X171721000Y-75355500D01*
G75*
G02*
X171458500Y-75618000I-262500J0D01*
G01*
X170933500Y-75618000D01*
G75*
G02*
X170671000Y-75355500I0J262500D01*
G01*
X170671000Y-74730500D01*
G75*
G02*
X170933500Y-74468000I262500J0D01*
G01*
G37*
G36*
G01*
X170933500Y-72718000D02*
X171458500Y-72718000D01*
G75*
G02*
X171721000Y-72980500I0J-262500D01*
G01*
X171721000Y-73605500D01*
G75*
G02*
X171458500Y-73868000I-262500J0D01*
G01*
X170933500Y-73868000D01*
G75*
G02*
X170671000Y-73605500I0J262500D01*
G01*
X170671000Y-72980500D01*
G75*
G02*
X170933500Y-72718000I262500J0D01*
G01*
G37*
G36*
G01*
X184412500Y-70312000D02*
X183887500Y-70312000D01*
G75*
G02*
X183625000Y-70049500I0J262500D01*
G01*
X183625000Y-69424500D01*
G75*
G02*
X183887500Y-69162000I262500J0D01*
G01*
X184412500Y-69162000D01*
G75*
G02*
X184675000Y-69424500I0J-262500D01*
G01*
X184675000Y-70049500D01*
G75*
G02*
X184412500Y-70312000I-262500J0D01*
G01*
G37*
G36*
G01*
X184412500Y-72062000D02*
X183887500Y-72062000D01*
G75*
G02*
X183625000Y-71799500I0J262500D01*
G01*
X183625000Y-71174500D01*
G75*
G02*
X183887500Y-70912000I262500J0D01*
G01*
X184412500Y-70912000D01*
G75*
G02*
X184675000Y-71174500I0J-262500D01*
G01*
X184675000Y-71799500D01*
G75*
G02*
X184412500Y-72062000I-262500J0D01*
G01*
G37*
G36*
G01*
X189729500Y-70912000D02*
X190254500Y-70912000D01*
G75*
G02*
X190517000Y-71174500I0J-262500D01*
G01*
X190517000Y-71799500D01*
G75*
G02*
X190254500Y-72062000I-262500J0D01*
G01*
X189729500Y-72062000D01*
G75*
G02*
X189467000Y-71799500I0J262500D01*
G01*
X189467000Y-71174500D01*
G75*
G02*
X189729500Y-70912000I262500J0D01*
G01*
G37*
G36*
G01*
X189729500Y-69162000D02*
X190254500Y-69162000D01*
G75*
G02*
X190517000Y-69424500I0J-262500D01*
G01*
X190517000Y-70049500D01*
G75*
G02*
X190254500Y-70312000I-262500J0D01*
G01*
X189729500Y-70312000D01*
G75*
G02*
X189467000Y-70049500I0J262500D01*
G01*
X189467000Y-69424500D01*
G75*
G02*
X189729500Y-69162000I262500J0D01*
G01*
G37*
G36*
G01*
X163313500Y-71928000D02*
X163838500Y-71928000D01*
G75*
G02*
X164101000Y-72190500I0J-262500D01*
G01*
X164101000Y-72815500D01*
G75*
G02*
X163838500Y-73078000I-262500J0D01*
G01*
X163313500Y-73078000D01*
G75*
G02*
X163051000Y-72815500I0J262500D01*
G01*
X163051000Y-72190500D01*
G75*
G02*
X163313500Y-71928000I262500J0D01*
G01*
G37*
G36*
G01*
X163313500Y-70178000D02*
X163838500Y-70178000D01*
G75*
G02*
X164101000Y-70440500I0J-262500D01*
G01*
X164101000Y-71065500D01*
G75*
G02*
X163838500Y-71328000I-262500J0D01*
G01*
X163313500Y-71328000D01*
G75*
G02*
X163051000Y-71065500I0J262500D01*
G01*
X163051000Y-70440500D01*
G75*
G02*
X163313500Y-70178000I262500J0D01*
G01*
G37*
G36*
G01*
X176858000Y-76208500D02*
X176858000Y-75683500D01*
G75*
G02*
X177120500Y-75421000I262500J0D01*
G01*
X177745500Y-75421000D01*
G75*
G02*
X178008000Y-75683500I0J-262500D01*
G01*
X178008000Y-76208500D01*
G75*
G02*
X177745500Y-76471000I-262500J0D01*
G01*
X177120500Y-76471000D01*
G75*
G02*
X176858000Y-76208500I0J262500D01*
G01*
G37*
G36*
G01*
X178608000Y-76208500D02*
X178608000Y-75683500D01*
G75*
G02*
X178870500Y-75421000I262500J0D01*
G01*
X179495500Y-75421000D01*
G75*
G02*
X179758000Y-75683500I0J-262500D01*
G01*
X179758000Y-76208500D01*
G75*
G02*
X179495500Y-76471000I-262500J0D01*
G01*
X178870500Y-76471000D01*
G75*
G02*
X178608000Y-76208500I0J262500D01*
G01*
G37*
D14*
X169926000Y-69850000D03*
X169926000Y-64770000D03*
X175006000Y-64770000D03*
X175006000Y-69850000D03*
D15*
X172466000Y-67310000D03*
G36*
G01*
X177846000Y-84336500D02*
X177846000Y-83811500D01*
G75*
G02*
X178108500Y-83549000I262500J0D01*
G01*
X178733500Y-83549000D01*
G75*
G02*
X178996000Y-83811500I0J-262500D01*
G01*
X178996000Y-84336500D01*
G75*
G02*
X178733500Y-84599000I-262500J0D01*
G01*
X178108500Y-84599000D01*
G75*
G02*
X177846000Y-84336500I0J262500D01*
G01*
G37*
G36*
G01*
X176096000Y-84336500D02*
X176096000Y-83811500D01*
G75*
G02*
X176358500Y-83549000I262500J0D01*
G01*
X176983500Y-83549000D01*
G75*
G02*
X177246000Y-83811500I0J-262500D01*
G01*
X177246000Y-84336500D01*
G75*
G02*
X176983500Y-84599000I-262500J0D01*
G01*
X176358500Y-84599000D01*
G75*
G02*
X176096000Y-84336500I0J262500D01*
G01*
G37*
D14*
X144272000Y-69850000D03*
X144272000Y-64770000D03*
X149352000Y-64770000D03*
X149352000Y-69850000D03*
D15*
X146812000Y-67310000D03*
G36*
G01*
X185411500Y-90216000D02*
X185936500Y-90216000D01*
G75*
G02*
X186199000Y-90478500I0J-262500D01*
G01*
X186199000Y-91103500D01*
G75*
G02*
X185936500Y-91366000I-262500J0D01*
G01*
X185411500Y-91366000D01*
G75*
G02*
X185149000Y-91103500I0J262500D01*
G01*
X185149000Y-90478500D01*
G75*
G02*
X185411500Y-90216000I262500J0D01*
G01*
G37*
G36*
G01*
X185411500Y-88466000D02*
X185936500Y-88466000D01*
G75*
G02*
X186199000Y-88728500I0J-262500D01*
G01*
X186199000Y-89353500D01*
G75*
G02*
X185936500Y-89616000I-262500J0D01*
G01*
X185411500Y-89616000D01*
G75*
G02*
X185149000Y-89353500I0J262500D01*
G01*
X185149000Y-88728500D01*
G75*
G02*
X185411500Y-88466000I262500J0D01*
G01*
G37*
G36*
G01*
X162060500Y-71328000D02*
X161535500Y-71328000D01*
G75*
G02*
X161273000Y-71065500I0J262500D01*
G01*
X161273000Y-70440500D01*
G75*
G02*
X161535500Y-70178000I262500J0D01*
G01*
X162060500Y-70178000D01*
G75*
G02*
X162323000Y-70440500I0J-262500D01*
G01*
X162323000Y-71065500D01*
G75*
G02*
X162060500Y-71328000I-262500J0D01*
G01*
G37*
G36*
G01*
X162060500Y-73078000D02*
X161535500Y-73078000D01*
G75*
G02*
X161273000Y-72815500I0J262500D01*
G01*
X161273000Y-72190500D01*
G75*
G02*
X161535500Y-71928000I262500J0D01*
G01*
X162060500Y-71928000D01*
G75*
G02*
X162323000Y-72190500I0J-262500D01*
G01*
X162323000Y-72815500D01*
G75*
G02*
X162060500Y-73078000I-262500J0D01*
G01*
G37*
G36*
G01*
X152408500Y-71328000D02*
X151883500Y-71328000D01*
G75*
G02*
X151621000Y-71065500I0J262500D01*
G01*
X151621000Y-70440500D01*
G75*
G02*
X151883500Y-70178000I262500J0D01*
G01*
X152408500Y-70178000D01*
G75*
G02*
X152671000Y-70440500I0J-262500D01*
G01*
X152671000Y-71065500D01*
G75*
G02*
X152408500Y-71328000I-262500J0D01*
G01*
G37*
G36*
G01*
X152408500Y-73078000D02*
X151883500Y-73078000D01*
G75*
G02*
X151621000Y-72815500I0J262500D01*
G01*
X151621000Y-72190500D01*
G75*
G02*
X151883500Y-71928000I262500J0D01*
G01*
X152408500Y-71928000D01*
G75*
G02*
X152671000Y-72190500I0J-262500D01*
G01*
X152671000Y-72815500D01*
G75*
G02*
X152408500Y-73078000I-262500J0D01*
G01*
G37*
G36*
G01*
X155298543Y-72643500D02*
X156613457Y-72643500D01*
G75*
G02*
X156881000Y-72911043I0J-267543D01*
G01*
X156881000Y-73900957D01*
G75*
G02*
X156613457Y-74168500I-267543J0D01*
G01*
X155298543Y-74168500D01*
G75*
G02*
X155031000Y-73900957I0J267543D01*
G01*
X155031000Y-72911043D01*
G75*
G02*
X155298543Y-72643500I267543J0D01*
G01*
G37*
G36*
G01*
X155298543Y-69668500D02*
X156613457Y-69668500D01*
G75*
G02*
X156881000Y-69936043I0J-267543D01*
G01*
X156881000Y-70925957D01*
G75*
G02*
X156613457Y-71193500I-267543J0D01*
G01*
X155298543Y-71193500D01*
G75*
G02*
X155031000Y-70925957I0J267543D01*
G01*
X155031000Y-69936043D01*
G75*
G02*
X155298543Y-69668500I267543J0D01*
G01*
G37*
D14*
X163068000Y-82296000D03*
X163068000Y-77216000D03*
X168148000Y-77216000D03*
X168148000Y-82296000D03*
D15*
X165608000Y-79756000D03*
G36*
G01*
X174027000Y-72748543D02*
X174027000Y-74063457D01*
G75*
G02*
X173759457Y-74331000I-267543J0D01*
G01*
X172769543Y-74331000D01*
G75*
G02*
X172502000Y-74063457I0J267543D01*
G01*
X172502000Y-72748543D01*
G75*
G02*
X172769543Y-72481000I267543J0D01*
G01*
X173759457Y-72481000D01*
G75*
G02*
X174027000Y-72748543I0J-267543D01*
G01*
G37*
G36*
G01*
X177002000Y-72748543D02*
X177002000Y-74063457D01*
G75*
G02*
X176734457Y-74331000I-267543J0D01*
G01*
X175744543Y-74331000D01*
G75*
G02*
X175477000Y-74063457I0J267543D01*
G01*
X175477000Y-72748543D01*
G75*
G02*
X175744543Y-72481000I267543J0D01*
G01*
X176734457Y-72481000D01*
G75*
G02*
X177002000Y-72748543I0J-267543D01*
G01*
G37*
G36*
G01*
X179682543Y-72135500D02*
X180997457Y-72135500D01*
G75*
G02*
X181265000Y-72403043I0J-267543D01*
G01*
X181265000Y-73392957D01*
G75*
G02*
X180997457Y-73660500I-267543J0D01*
G01*
X179682543Y-73660500D01*
G75*
G02*
X179415000Y-73392957I0J267543D01*
G01*
X179415000Y-72403043D01*
G75*
G02*
X179682543Y-72135500I267543J0D01*
G01*
G37*
G36*
G01*
X179682543Y-69160500D02*
X180997457Y-69160500D01*
G75*
G02*
X181265000Y-69428043I0J-267543D01*
G01*
X181265000Y-70417957D01*
G75*
G02*
X180997457Y-70685500I-267543J0D01*
G01*
X179682543Y-70685500D01*
G75*
G02*
X179415000Y-70417957I0J267543D01*
G01*
X179415000Y-69428043D01*
G75*
G02*
X179682543Y-69160500I267543J0D01*
G01*
G37*
G36*
G01*
X164950543Y-72643500D02*
X166265457Y-72643500D01*
G75*
G02*
X166533000Y-72911043I0J-267543D01*
G01*
X166533000Y-73900957D01*
G75*
G02*
X166265457Y-74168500I-267543J0D01*
G01*
X164950543Y-74168500D01*
G75*
G02*
X164683000Y-73900957I0J267543D01*
G01*
X164683000Y-72911043D01*
G75*
G02*
X164950543Y-72643500I267543J0D01*
G01*
G37*
G36*
G01*
X164950543Y-69668500D02*
X166265457Y-69668500D01*
G75*
G02*
X166533000Y-69936043I0J-267543D01*
G01*
X166533000Y-70925957D01*
G75*
G02*
X166265457Y-71193500I-267543J0D01*
G01*
X164950543Y-71193500D01*
G75*
G02*
X164683000Y-70925957I0J267543D01*
G01*
X164683000Y-69936043D01*
G75*
G02*
X164950543Y-69668500I267543J0D01*
G01*
G37*
G36*
G01*
X153208000Y-74430500D02*
X153208000Y-73905500D01*
G75*
G02*
X153470500Y-73643000I262500J0D01*
G01*
X154095500Y-73643000D01*
G75*
G02*
X154358000Y-73905500I0J-262500D01*
G01*
X154358000Y-74430500D01*
G75*
G02*
X154095500Y-74693000I-262500J0D01*
G01*
X153470500Y-74693000D01*
G75*
G02*
X153208000Y-74430500I0J262500D01*
G01*
G37*
G36*
G01*
X151458000Y-74430500D02*
X151458000Y-73905500D01*
G75*
G02*
X151720500Y-73643000I262500J0D01*
G01*
X152345500Y-73643000D01*
G75*
G02*
X152608000Y-73905500I0J-262500D01*
G01*
X152608000Y-74430500D01*
G75*
G02*
X152345500Y-74693000I-262500J0D01*
G01*
X151720500Y-74693000D01*
G75*
G02*
X151458000Y-74430500I0J262500D01*
G01*
G37*
G36*
G01*
X192032500Y-70312000D02*
X191507500Y-70312000D01*
G75*
G02*
X191245000Y-70049500I0J262500D01*
G01*
X191245000Y-69424500D01*
G75*
G02*
X191507500Y-69162000I262500J0D01*
G01*
X192032500Y-69162000D01*
G75*
G02*
X192295000Y-69424500I0J-262500D01*
G01*
X192295000Y-70049500D01*
G75*
G02*
X192032500Y-70312000I-262500J0D01*
G01*
G37*
G36*
G01*
X192032500Y-72062000D02*
X191507500Y-72062000D01*
G75*
G02*
X191245000Y-71799500I0J262500D01*
G01*
X191245000Y-71174500D01*
G75*
G02*
X191507500Y-70912000I262500J0D01*
G01*
X192032500Y-70912000D01*
G75*
G02*
X192295000Y-71174500I0J-262500D01*
G01*
X192295000Y-71799500D01*
G75*
G02*
X192032500Y-72062000I-262500J0D01*
G01*
G37*
G36*
G01*
X162860000Y-74430500D02*
X162860000Y-73905500D01*
G75*
G02*
X163122500Y-73643000I262500J0D01*
G01*
X163747500Y-73643000D01*
G75*
G02*
X164010000Y-73905500I0J-262500D01*
G01*
X164010000Y-74430500D01*
G75*
G02*
X163747500Y-74693000I-262500J0D01*
G01*
X163122500Y-74693000D01*
G75*
G02*
X162860000Y-74430500I0J262500D01*
G01*
G37*
G36*
G01*
X161110000Y-74430500D02*
X161110000Y-73905500D01*
G75*
G02*
X161372500Y-73643000I262500J0D01*
G01*
X161997500Y-73643000D01*
G75*
G02*
X162260000Y-73905500I0J-262500D01*
G01*
X162260000Y-74430500D01*
G75*
G02*
X161997500Y-74693000I-262500J0D01*
G01*
X161372500Y-74693000D01*
G75*
G02*
X161110000Y-74430500I0J262500D01*
G01*
G37*
G36*
G01*
X182109500Y-70912000D02*
X182634500Y-70912000D01*
G75*
G02*
X182897000Y-71174500I0J-262500D01*
G01*
X182897000Y-71799500D01*
G75*
G02*
X182634500Y-72062000I-262500J0D01*
G01*
X182109500Y-72062000D01*
G75*
G02*
X181847000Y-71799500I0J262500D01*
G01*
X181847000Y-71174500D01*
G75*
G02*
X182109500Y-70912000I262500J0D01*
G01*
G37*
G36*
G01*
X182109500Y-69162000D02*
X182634500Y-69162000D01*
G75*
G02*
X182897000Y-69424500I0J-262500D01*
G01*
X182897000Y-70049500D01*
G75*
G02*
X182634500Y-70312000I-262500J0D01*
G01*
X182109500Y-70312000D01*
G75*
G02*
X181847000Y-70049500I0J262500D01*
G01*
X181847000Y-69424500D01*
G75*
G02*
X182109500Y-69162000I262500J0D01*
G01*
G37*
G36*
G01*
X153661500Y-71928000D02*
X154186500Y-71928000D01*
G75*
G02*
X154449000Y-72190500I0J-262500D01*
G01*
X154449000Y-72815500D01*
G75*
G02*
X154186500Y-73078000I-262500J0D01*
G01*
X153661500Y-73078000D01*
G75*
G02*
X153399000Y-72815500I0J262500D01*
G01*
X153399000Y-72190500D01*
G75*
G02*
X153661500Y-71928000I262500J0D01*
G01*
G37*
G36*
G01*
X153661500Y-70178000D02*
X154186500Y-70178000D01*
G75*
G02*
X154449000Y-70440500I0J-262500D01*
G01*
X154449000Y-71065500D01*
G75*
G02*
X154186500Y-71328000I-262500J0D01*
G01*
X153661500Y-71328000D01*
G75*
G02*
X153399000Y-71065500I0J262500D01*
G01*
X153399000Y-70440500D01*
G75*
G02*
X153661500Y-70178000I262500J0D01*
G01*
G37*
D16*
X153416000Y-97282000D03*
X153416000Y-94742000D03*
X155956000Y-97282000D03*
X155956000Y-94742000D03*
X158496000Y-97282000D03*
X158496000Y-94742000D03*
X161036000Y-97282000D03*
X161036000Y-94742000D03*
X163576000Y-97282000D03*
X163576000Y-94742000D03*
X166116000Y-97282000D03*
X166116000Y-94742000D03*
X168656000Y-97282000D03*
X168656000Y-94742000D03*
X171196000Y-97282000D03*
X171196000Y-94742000D03*
X173736000Y-97282000D03*
X173736000Y-94742000D03*
X176276000Y-97282000D03*
X176276000Y-94742000D03*
X178816000Y-97282000D03*
X178816000Y-94742000D03*
X181356000Y-97282000D03*
X181356000Y-94742000D03*
X183896000Y-97282000D03*
X183896000Y-94742000D03*
X186436000Y-97282000D03*
X186436000Y-94742000D03*
X188976000Y-97282000D03*
X188976000Y-94742000D03*
X191516000Y-97282000D03*
X191516000Y-94742000D03*
X194056000Y-97282000D03*
X194056000Y-94742000D03*
X196596000Y-97282000D03*
X196596000Y-94742000D03*
X199136000Y-97282000D03*
X199136000Y-94742000D03*
X201676000Y-97282000D03*
G36*
G01*
X200826000Y-93842000D02*
X202526000Y-93842000D01*
G75*
G02*
X202576000Y-93892000I0J-50000D01*
G01*
X202576000Y-95592000D01*
G75*
G02*
X202526000Y-95642000I-50000J0D01*
G01*
X200826000Y-95642000D01*
G75*
G02*
X200776000Y-95592000I0J50000D01*
G01*
X200776000Y-93892000D01*
G75*
G02*
X200826000Y-93842000I50000J0D01*
G01*
G37*
X207518000Y-55118000D03*
X204978000Y-55118000D03*
X202438000Y-55118000D03*
G36*
G01*
X200748000Y-56018000D02*
X199048000Y-56018000D01*
G75*
G02*
X198998000Y-55968000I0J50000D01*
G01*
X198998000Y-54268000D01*
G75*
G02*
X199048000Y-54218000I50000J0D01*
G01*
X200748000Y-54218000D01*
G75*
G02*
X200798000Y-54268000I0J-50000D01*
G01*
X200798000Y-55968000D01*
G75*
G02*
X200748000Y-56018000I-50000J0D01*
G01*
G37*
G36*
G01*
X178685000Y-78347500D02*
X178685000Y-78172500D01*
G75*
G02*
X178772500Y-78085000I87500J0D01*
G01*
X179572500Y-78085000D01*
G75*
G02*
X179660000Y-78172500I0J-87500D01*
G01*
X179660000Y-78347500D01*
G75*
G02*
X179572500Y-78435000I-87500J0D01*
G01*
X178772500Y-78435000D01*
G75*
G02*
X178685000Y-78347500I0J87500D01*
G01*
G37*
G36*
G01*
X178685000Y-78847500D02*
X178685000Y-78672500D01*
G75*
G02*
X178772500Y-78585000I87500J0D01*
G01*
X179572500Y-78585000D01*
G75*
G02*
X179660000Y-78672500I0J-87500D01*
G01*
X179660000Y-78847500D01*
G75*
G02*
X179572500Y-78935000I-87500J0D01*
G01*
X178772500Y-78935000D01*
G75*
G02*
X178685000Y-78847500I0J87500D01*
G01*
G37*
G36*
G01*
X178685000Y-79347500D02*
X178685000Y-79172500D01*
G75*
G02*
X178772500Y-79085000I87500J0D01*
G01*
X179572500Y-79085000D01*
G75*
G02*
X179660000Y-79172500I0J-87500D01*
G01*
X179660000Y-79347500D01*
G75*
G02*
X179572500Y-79435000I-87500J0D01*
G01*
X178772500Y-79435000D01*
G75*
G02*
X178685000Y-79347500I0J87500D01*
G01*
G37*
G36*
G01*
X178685000Y-79847500D02*
X178685000Y-79672500D01*
G75*
G02*
X178772500Y-79585000I87500J0D01*
G01*
X179572500Y-79585000D01*
G75*
G02*
X179660000Y-79672500I0J-87500D01*
G01*
X179660000Y-79847500D01*
G75*
G02*
X179572500Y-79935000I-87500J0D01*
G01*
X178772500Y-79935000D01*
G75*
G02*
X178685000Y-79847500I0J87500D01*
G01*
G37*
G36*
G01*
X178685000Y-80347500D02*
X178685000Y-80172500D01*
G75*
G02*
X178772500Y-80085000I87500J0D01*
G01*
X179572500Y-80085000D01*
G75*
G02*
X179660000Y-80172500I0J-87500D01*
G01*
X179660000Y-80347500D01*
G75*
G02*
X179572500Y-80435000I-87500J0D01*
G01*
X178772500Y-80435000D01*
G75*
G02*
X178685000Y-80347500I0J87500D01*
G01*
G37*
G36*
G01*
X178685000Y-80847500D02*
X178685000Y-80672500D01*
G75*
G02*
X178772500Y-80585000I87500J0D01*
G01*
X179572500Y-80585000D01*
G75*
G02*
X179660000Y-80672500I0J-87500D01*
G01*
X179660000Y-80847500D01*
G75*
G02*
X179572500Y-80935000I-87500J0D01*
G01*
X178772500Y-80935000D01*
G75*
G02*
X178685000Y-80847500I0J87500D01*
G01*
G37*
G36*
G01*
X178685000Y-81347500D02*
X178685000Y-81172500D01*
G75*
G02*
X178772500Y-81085000I87500J0D01*
G01*
X179572500Y-81085000D01*
G75*
G02*
X179660000Y-81172500I0J-87500D01*
G01*
X179660000Y-81347500D01*
G75*
G02*
X179572500Y-81435000I-87500J0D01*
G01*
X178772500Y-81435000D01*
G75*
G02*
X178685000Y-81347500I0J87500D01*
G01*
G37*
G36*
G01*
X178685000Y-81847500D02*
X178685000Y-81672500D01*
G75*
G02*
X178772500Y-81585000I87500J0D01*
G01*
X179572500Y-81585000D01*
G75*
G02*
X179660000Y-81672500I0J-87500D01*
G01*
X179660000Y-81847500D01*
G75*
G02*
X179572500Y-81935000I-87500J0D01*
G01*
X178772500Y-81935000D01*
G75*
G02*
X178685000Y-81847500I0J87500D01*
G01*
G37*
G36*
G01*
X179685000Y-82847500D02*
X179685000Y-82047500D01*
G75*
G02*
X179772500Y-81960000I87500J0D01*
G01*
X179947500Y-81960000D01*
G75*
G02*
X180035000Y-82047500I0J-87500D01*
G01*
X180035000Y-82847500D01*
G75*
G02*
X179947500Y-82935000I-87500J0D01*
G01*
X179772500Y-82935000D01*
G75*
G02*
X179685000Y-82847500I0J87500D01*
G01*
G37*
G36*
G01*
X180185000Y-82847500D02*
X180185000Y-82047500D01*
G75*
G02*
X180272500Y-81960000I87500J0D01*
G01*
X180447500Y-81960000D01*
G75*
G02*
X180535000Y-82047500I0J-87500D01*
G01*
X180535000Y-82847500D01*
G75*
G02*
X180447500Y-82935000I-87500J0D01*
G01*
X180272500Y-82935000D01*
G75*
G02*
X180185000Y-82847500I0J87500D01*
G01*
G37*
G36*
G01*
X180685000Y-82847500D02*
X180685000Y-82047500D01*
G75*
G02*
X180772500Y-81960000I87500J0D01*
G01*
X180947500Y-81960000D01*
G75*
G02*
X181035000Y-82047500I0J-87500D01*
G01*
X181035000Y-82847500D01*
G75*
G02*
X180947500Y-82935000I-87500J0D01*
G01*
X180772500Y-82935000D01*
G75*
G02*
X180685000Y-82847500I0J87500D01*
G01*
G37*
G36*
G01*
X181185000Y-82847500D02*
X181185000Y-82047500D01*
G75*
G02*
X181272500Y-81960000I87500J0D01*
G01*
X181447500Y-81960000D01*
G75*
G02*
X181535000Y-82047500I0J-87500D01*
G01*
X181535000Y-82847500D01*
G75*
G02*
X181447500Y-82935000I-87500J0D01*
G01*
X181272500Y-82935000D01*
G75*
G02*
X181185000Y-82847500I0J87500D01*
G01*
G37*
G36*
G01*
X181685000Y-82847500D02*
X181685000Y-82047500D01*
G75*
G02*
X181772500Y-81960000I87500J0D01*
G01*
X181947500Y-81960000D01*
G75*
G02*
X182035000Y-82047500I0J-87500D01*
G01*
X182035000Y-82847500D01*
G75*
G02*
X181947500Y-82935000I-87500J0D01*
G01*
X181772500Y-82935000D01*
G75*
G02*
X181685000Y-82847500I0J87500D01*
G01*
G37*
G36*
G01*
X182185000Y-82847500D02*
X182185000Y-82047500D01*
G75*
G02*
X182272500Y-81960000I87500J0D01*
G01*
X182447500Y-81960000D01*
G75*
G02*
X182535000Y-82047500I0J-87500D01*
G01*
X182535000Y-82847500D01*
G75*
G02*
X182447500Y-82935000I-87500J0D01*
G01*
X182272500Y-82935000D01*
G75*
G02*
X182185000Y-82847500I0J87500D01*
G01*
G37*
G36*
G01*
X182685000Y-82847500D02*
X182685000Y-82047500D01*
G75*
G02*
X182772500Y-81960000I87500J0D01*
G01*
X182947500Y-81960000D01*
G75*
G02*
X183035000Y-82047500I0J-87500D01*
G01*
X183035000Y-82847500D01*
G75*
G02*
X182947500Y-82935000I-87500J0D01*
G01*
X182772500Y-82935000D01*
G75*
G02*
X182685000Y-82847500I0J87500D01*
G01*
G37*
G36*
G01*
X183185000Y-82847500D02*
X183185000Y-82047500D01*
G75*
G02*
X183272500Y-81960000I87500J0D01*
G01*
X183447500Y-81960000D01*
G75*
G02*
X183535000Y-82047500I0J-87500D01*
G01*
X183535000Y-82847500D01*
G75*
G02*
X183447500Y-82935000I-87500J0D01*
G01*
X183272500Y-82935000D01*
G75*
G02*
X183185000Y-82847500I0J87500D01*
G01*
G37*
G36*
G01*
X183560000Y-81847500D02*
X183560000Y-81672500D01*
G75*
G02*
X183647500Y-81585000I87500J0D01*
G01*
X184447500Y-81585000D01*
G75*
G02*
X184535000Y-81672500I0J-87500D01*
G01*
X184535000Y-81847500D01*
G75*
G02*
X184447500Y-81935000I-87500J0D01*
G01*
X183647500Y-81935000D01*
G75*
G02*
X183560000Y-81847500I0J87500D01*
G01*
G37*
G36*
G01*
X183560000Y-81347500D02*
X183560000Y-81172500D01*
G75*
G02*
X183647500Y-81085000I87500J0D01*
G01*
X184447500Y-81085000D01*
G75*
G02*
X184535000Y-81172500I0J-87500D01*
G01*
X184535000Y-81347500D01*
G75*
G02*
X184447500Y-81435000I-87500J0D01*
G01*
X183647500Y-81435000D01*
G75*
G02*
X183560000Y-81347500I0J87500D01*
G01*
G37*
G36*
G01*
X183560000Y-80847500D02*
X183560000Y-80672500D01*
G75*
G02*
X183647500Y-80585000I87500J0D01*
G01*
X184447500Y-80585000D01*
G75*
G02*
X184535000Y-80672500I0J-87500D01*
G01*
X184535000Y-80847500D01*
G75*
G02*
X184447500Y-80935000I-87500J0D01*
G01*
X183647500Y-80935000D01*
G75*
G02*
X183560000Y-80847500I0J87500D01*
G01*
G37*
G36*
G01*
X183560000Y-80347500D02*
X183560000Y-80172500D01*
G75*
G02*
X183647500Y-80085000I87500J0D01*
G01*
X184447500Y-80085000D01*
G75*
G02*
X184535000Y-80172500I0J-87500D01*
G01*
X184535000Y-80347500D01*
G75*
G02*
X184447500Y-80435000I-87500J0D01*
G01*
X183647500Y-80435000D01*
G75*
G02*
X183560000Y-80347500I0J87500D01*
G01*
G37*
G36*
G01*
X183560000Y-79847500D02*
X183560000Y-79672500D01*
G75*
G02*
X183647500Y-79585000I87500J0D01*
G01*
X184447500Y-79585000D01*
G75*
G02*
X184535000Y-79672500I0J-87500D01*
G01*
X184535000Y-79847500D01*
G75*
G02*
X184447500Y-79935000I-87500J0D01*
G01*
X183647500Y-79935000D01*
G75*
G02*
X183560000Y-79847500I0J87500D01*
G01*
G37*
G36*
G01*
X183560000Y-79347500D02*
X183560000Y-79172500D01*
G75*
G02*
X183647500Y-79085000I87500J0D01*
G01*
X184447500Y-79085000D01*
G75*
G02*
X184535000Y-79172500I0J-87500D01*
G01*
X184535000Y-79347500D01*
G75*
G02*
X184447500Y-79435000I-87500J0D01*
G01*
X183647500Y-79435000D01*
G75*
G02*
X183560000Y-79347500I0J87500D01*
G01*
G37*
G36*
G01*
X183560000Y-78847500D02*
X183560000Y-78672500D01*
G75*
G02*
X183647500Y-78585000I87500J0D01*
G01*
X184447500Y-78585000D01*
G75*
G02*
X184535000Y-78672500I0J-87500D01*
G01*
X184535000Y-78847500D01*
G75*
G02*
X184447500Y-78935000I-87500J0D01*
G01*
X183647500Y-78935000D01*
G75*
G02*
X183560000Y-78847500I0J87500D01*
G01*
G37*
G36*
G01*
X183560000Y-78347500D02*
X183560000Y-78172500D01*
G75*
G02*
X183647500Y-78085000I87500J0D01*
G01*
X184447500Y-78085000D01*
G75*
G02*
X184535000Y-78172500I0J-87500D01*
G01*
X184535000Y-78347500D01*
G75*
G02*
X184447500Y-78435000I-87500J0D01*
G01*
X183647500Y-78435000D01*
G75*
G02*
X183560000Y-78347500I0J87500D01*
G01*
G37*
G36*
G01*
X183185000Y-77972500D02*
X183185000Y-77172500D01*
G75*
G02*
X183272500Y-77085000I87500J0D01*
G01*
X183447500Y-77085000D01*
G75*
G02*
X183535000Y-77172500I0J-87500D01*
G01*
X183535000Y-77972500D01*
G75*
G02*
X183447500Y-78060000I-87500J0D01*
G01*
X183272500Y-78060000D01*
G75*
G02*
X183185000Y-77972500I0J87500D01*
G01*
G37*
G36*
G01*
X182685000Y-77972500D02*
X182685000Y-77172500D01*
G75*
G02*
X182772500Y-77085000I87500J0D01*
G01*
X182947500Y-77085000D01*
G75*
G02*
X183035000Y-77172500I0J-87500D01*
G01*
X183035000Y-77972500D01*
G75*
G02*
X182947500Y-78060000I-87500J0D01*
G01*
X182772500Y-78060000D01*
G75*
G02*
X182685000Y-77972500I0J87500D01*
G01*
G37*
G36*
G01*
X182185000Y-77972500D02*
X182185000Y-77172500D01*
G75*
G02*
X182272500Y-77085000I87500J0D01*
G01*
X182447500Y-77085000D01*
G75*
G02*
X182535000Y-77172500I0J-87500D01*
G01*
X182535000Y-77972500D01*
G75*
G02*
X182447500Y-78060000I-87500J0D01*
G01*
X182272500Y-78060000D01*
G75*
G02*
X182185000Y-77972500I0J87500D01*
G01*
G37*
G36*
G01*
X181685000Y-77972500D02*
X181685000Y-77172500D01*
G75*
G02*
X181772500Y-77085000I87500J0D01*
G01*
X181947500Y-77085000D01*
G75*
G02*
X182035000Y-77172500I0J-87500D01*
G01*
X182035000Y-77972500D01*
G75*
G02*
X181947500Y-78060000I-87500J0D01*
G01*
X181772500Y-78060000D01*
G75*
G02*
X181685000Y-77972500I0J87500D01*
G01*
G37*
G36*
G01*
X181185000Y-77972500D02*
X181185000Y-77172500D01*
G75*
G02*
X181272500Y-77085000I87500J0D01*
G01*
X181447500Y-77085000D01*
G75*
G02*
X181535000Y-77172500I0J-87500D01*
G01*
X181535000Y-77972500D01*
G75*
G02*
X181447500Y-78060000I-87500J0D01*
G01*
X181272500Y-78060000D01*
G75*
G02*
X181185000Y-77972500I0J87500D01*
G01*
G37*
G36*
G01*
X180685000Y-77972500D02*
X180685000Y-77172500D01*
G75*
G02*
X180772500Y-77085000I87500J0D01*
G01*
X180947500Y-77085000D01*
G75*
G02*
X181035000Y-77172500I0J-87500D01*
G01*
X181035000Y-77972500D01*
G75*
G02*
X180947500Y-78060000I-87500J0D01*
G01*
X180772500Y-78060000D01*
G75*
G02*
X180685000Y-77972500I0J87500D01*
G01*
G37*
G36*
G01*
X180185000Y-77972500D02*
X180185000Y-77172500D01*
G75*
G02*
X180272500Y-77085000I87500J0D01*
G01*
X180447500Y-77085000D01*
G75*
G02*
X180535000Y-77172500I0J-87500D01*
G01*
X180535000Y-77972500D01*
G75*
G02*
X180447500Y-78060000I-87500J0D01*
G01*
X180272500Y-78060000D01*
G75*
G02*
X180185000Y-77972500I0J87500D01*
G01*
G37*
G36*
G01*
X179685000Y-77972500D02*
X179685000Y-77172500D01*
G75*
G02*
X179772500Y-77085000I87500J0D01*
G01*
X179947500Y-77085000D01*
G75*
G02*
X180035000Y-77172500I0J-87500D01*
G01*
X180035000Y-77972500D01*
G75*
G02*
X179947500Y-78060000I-87500J0D01*
G01*
X179772500Y-78060000D01*
G75*
G02*
X179685000Y-77972500I0J87500D01*
G01*
G37*
G36*
G01*
X180010000Y-81560000D02*
X180010000Y-78460000D01*
G75*
G02*
X180060000Y-78410000I50000J0D01*
G01*
X183160000Y-78410000D01*
G75*
G02*
X183210000Y-78460000I0J-50000D01*
G01*
X183210000Y-81560000D01*
G75*
G02*
X183160000Y-81610000I-50000J0D01*
G01*
X180060000Y-81610000D01*
G75*
G02*
X180010000Y-81560000I0J50000D01*
G01*
G37*
D14*
X153416000Y-82296000D03*
X153416000Y-77216000D03*
X158496000Y-77216000D03*
X158496000Y-82296000D03*
D15*
X155956000Y-79756000D03*
G36*
G01*
X209520262Y-95104000D02*
X208563738Y-95104000D01*
G75*
G02*
X208292000Y-94832262I0J271738D01*
G01*
X208292000Y-94125738D01*
G75*
G02*
X208563738Y-93854000I271738J0D01*
G01*
X209520262Y-93854000D01*
G75*
G02*
X209792000Y-94125738I0J-271738D01*
G01*
X209792000Y-94832262D01*
G75*
G02*
X209520262Y-95104000I-271738J0D01*
G01*
G37*
G36*
G01*
X209520262Y-97154000D02*
X208563738Y-97154000D01*
G75*
G02*
X208292000Y-96882262I0J271738D01*
G01*
X208292000Y-96175738D01*
G75*
G02*
X208563738Y-95904000I271738J0D01*
G01*
X209520262Y-95904000D01*
G75*
G02*
X209792000Y-96175738I0J-271738D01*
G01*
X209792000Y-96882262D01*
G75*
G02*
X209520262Y-97154000I-271738J0D01*
G01*
G37*
G36*
G01*
X207234262Y-95104000D02*
X206277738Y-95104000D01*
G75*
G02*
X206006000Y-94832262I0J271738D01*
G01*
X206006000Y-94125738D01*
G75*
G02*
X206277738Y-93854000I271738J0D01*
G01*
X207234262Y-93854000D01*
G75*
G02*
X207506000Y-94125738I0J-271738D01*
G01*
X207506000Y-94832262D01*
G75*
G02*
X207234262Y-95104000I-271738J0D01*
G01*
G37*
G36*
G01*
X207234262Y-97154000D02*
X206277738Y-97154000D01*
G75*
G02*
X206006000Y-96882262I0J271738D01*
G01*
X206006000Y-96175738D01*
G75*
G02*
X206277738Y-95904000I271738J0D01*
G01*
X207234262Y-95904000D01*
G75*
G02*
X207506000Y-96175738I0J-271738D01*
G01*
X207506000Y-96882262D01*
G75*
G02*
X207234262Y-97154000I-271738J0D01*
G01*
G37*
G36*
G01*
X148798000Y-98035500D02*
X148798000Y-98560500D01*
G75*
G02*
X148535500Y-98823000I-262500J0D01*
G01*
X147910500Y-98823000D01*
G75*
G02*
X147648000Y-98560500I0J262500D01*
G01*
X147648000Y-98035500D01*
G75*
G02*
X147910500Y-97773000I262500J0D01*
G01*
X148535500Y-97773000D01*
G75*
G02*
X148798000Y-98035500I0J-262500D01*
G01*
G37*
G36*
G01*
X150548000Y-98035500D02*
X150548000Y-98560500D01*
G75*
G02*
X150285500Y-98823000I-262500J0D01*
G01*
X149660500Y-98823000D01*
G75*
G02*
X149398000Y-98560500I0J262500D01*
G01*
X149398000Y-98035500D01*
G75*
G02*
X149660500Y-97773000I262500J0D01*
G01*
X150285500Y-97773000D01*
G75*
G02*
X150548000Y-98035500I0J-262500D01*
G01*
G37*
G36*
G01*
X167178000Y-86368500D02*
X167178000Y-85843500D01*
G75*
G02*
X167440500Y-85581000I262500J0D01*
G01*
X168065500Y-85581000D01*
G75*
G02*
X168328000Y-85843500I0J-262500D01*
G01*
X168328000Y-86368500D01*
G75*
G02*
X168065500Y-86631000I-262500J0D01*
G01*
X167440500Y-86631000D01*
G75*
G02*
X167178000Y-86368500I0J262500D01*
G01*
G37*
G36*
G01*
X165428000Y-86368500D02*
X165428000Y-85843500D01*
G75*
G02*
X165690500Y-85581000I262500J0D01*
G01*
X166315500Y-85581000D01*
G75*
G02*
X166578000Y-85843500I0J-262500D01*
G01*
X166578000Y-86368500D01*
G75*
G02*
X166315500Y-86631000I-262500J0D01*
G01*
X165690500Y-86631000D01*
G75*
G02*
X165428000Y-86368500I0J262500D01*
G01*
G37*
G36*
G01*
X148382000Y-74430500D02*
X148382000Y-73905500D01*
G75*
G02*
X148644500Y-73643000I262500J0D01*
G01*
X149269500Y-73643000D01*
G75*
G02*
X149532000Y-73905500I0J-262500D01*
G01*
X149532000Y-74430500D01*
G75*
G02*
X149269500Y-74693000I-262500J0D01*
G01*
X148644500Y-74693000D01*
G75*
G02*
X148382000Y-74430500I0J262500D01*
G01*
G37*
G36*
G01*
X146632000Y-74430500D02*
X146632000Y-73905500D01*
G75*
G02*
X146894500Y-73643000I262500J0D01*
G01*
X147519500Y-73643000D01*
G75*
G02*
X147782000Y-73905500I0J-262500D01*
G01*
X147782000Y-74430500D01*
G75*
G02*
X147519500Y-74693000I-262500J0D01*
G01*
X146894500Y-74693000D01*
G75*
G02*
X146632000Y-74430500I0J262500D01*
G01*
G37*
G36*
G01*
X148636000Y-82558500D02*
X148636000Y-82033500D01*
G75*
G02*
X148898500Y-81771000I262500J0D01*
G01*
X149523500Y-81771000D01*
G75*
G02*
X149786000Y-82033500I0J-262500D01*
G01*
X149786000Y-82558500D01*
G75*
G02*
X149523500Y-82821000I-262500J0D01*
G01*
X148898500Y-82821000D01*
G75*
G02*
X148636000Y-82558500I0J262500D01*
G01*
G37*
G36*
G01*
X146886000Y-82558500D02*
X146886000Y-82033500D01*
G75*
G02*
X147148500Y-81771000I262500J0D01*
G01*
X147773500Y-81771000D01*
G75*
G02*
X148036000Y-82033500I0J-262500D01*
G01*
X148036000Y-82558500D01*
G75*
G02*
X147773500Y-82821000I-262500J0D01*
G01*
X147148500Y-82821000D01*
G75*
G02*
X146886000Y-82558500I0J262500D01*
G01*
G37*
G36*
G01*
X144026000Y-80880000D02*
X144026000Y-81680000D01*
G75*
G02*
X143976000Y-81730000I-50000J0D01*
G01*
X143076000Y-81730000D01*
G75*
G02*
X143026000Y-81680000I0J50000D01*
G01*
X143026000Y-80880000D01*
G75*
G02*
X143076000Y-80830000I50000J0D01*
G01*
X143976000Y-80830000D01*
G75*
G02*
X144026000Y-80880000I0J-50000D01*
G01*
G37*
G36*
G01*
X146026000Y-79930000D02*
X146026000Y-80730000D01*
G75*
G02*
X145976000Y-80780000I-50000J0D01*
G01*
X145076000Y-80780000D01*
G75*
G02*
X145026000Y-80730000I0J50000D01*
G01*
X145026000Y-79930000D01*
G75*
G02*
X145076000Y-79880000I50000J0D01*
G01*
X145976000Y-79880000D01*
G75*
G02*
X146026000Y-79930000I0J-50000D01*
G01*
G37*
G36*
G01*
X146026000Y-81830000D02*
X146026000Y-82630000D01*
G75*
G02*
X145976000Y-82680000I-50000J0D01*
G01*
X145076000Y-82680000D01*
G75*
G02*
X145026000Y-82630000I0J50000D01*
G01*
X145026000Y-81830000D01*
G75*
G02*
X145076000Y-81780000I50000J0D01*
G01*
X145976000Y-81780000D01*
G75*
G02*
X146026000Y-81830000I0J-50000D01*
G01*
G37*
D16*
X211328000Y-81788000D03*
X208788000Y-81788000D03*
X211328000Y-79248000D03*
X208788000Y-79248000D03*
X211328000Y-76708000D03*
X208788000Y-76708000D03*
X211328000Y-74168000D03*
X208788000Y-74168000D03*
X211328000Y-71628000D03*
X208788000Y-71628000D03*
X211328000Y-69088000D03*
G36*
G01*
X207888000Y-69938000D02*
X207888000Y-68238000D01*
G75*
G02*
X207938000Y-68188000I50000J0D01*
G01*
X209638000Y-68188000D01*
G75*
G02*
X209688000Y-68238000I0J-50000D01*
G01*
X209688000Y-69938000D01*
G75*
G02*
X209638000Y-69988000I-50000J0D01*
G01*
X207938000Y-69988000D01*
G75*
G02*
X207888000Y-69938000I0J50000D01*
G01*
G37*
G36*
G01*
X148736000Y-76678262D02*
X148736000Y-75721738D01*
G75*
G02*
X149007738Y-75450000I271738J0D01*
G01*
X149714262Y-75450000D01*
G75*
G02*
X149986000Y-75721738I0J-271738D01*
G01*
X149986000Y-76678262D01*
G75*
G02*
X149714262Y-76950000I-271738J0D01*
G01*
X149007738Y-76950000D01*
G75*
G02*
X148736000Y-76678262I0J271738D01*
G01*
G37*
G36*
G01*
X146686000Y-76678262D02*
X146686000Y-75721738D01*
G75*
G02*
X146957738Y-75450000I271738J0D01*
G01*
X147664262Y-75450000D01*
G75*
G02*
X147936000Y-75721738I0J-271738D01*
G01*
X147936000Y-76678262D01*
G75*
G02*
X147664262Y-76950000I-271738J0D01*
G01*
X146957738Y-76950000D01*
G75*
G02*
X146686000Y-76678262I0J271738D01*
G01*
G37*
G36*
G01*
X148990000Y-80742262D02*
X148990000Y-79785738D01*
G75*
G02*
X149261738Y-79514000I271738J0D01*
G01*
X149968262Y-79514000D01*
G75*
G02*
X150240000Y-79785738I0J-271738D01*
G01*
X150240000Y-80742262D01*
G75*
G02*
X149968262Y-81014000I-271738J0D01*
G01*
X149261738Y-81014000D01*
G75*
G02*
X148990000Y-80742262I0J271738D01*
G01*
G37*
G36*
G01*
X146940000Y-80742262D02*
X146940000Y-79785738D01*
G75*
G02*
X147211738Y-79514000I271738J0D01*
G01*
X147918262Y-79514000D01*
G75*
G02*
X148190000Y-79785738I0J-271738D01*
G01*
X148190000Y-80742262D01*
G75*
G02*
X147918262Y-81014000I-271738J0D01*
G01*
X147211738Y-81014000D01*
G75*
G02*
X146940000Y-80742262I0J271738D01*
G01*
G37*
G36*
G01*
X148382000Y-78494500D02*
X148382000Y-77969500D01*
G75*
G02*
X148644500Y-77707000I262500J0D01*
G01*
X149269500Y-77707000D01*
G75*
G02*
X149532000Y-77969500I0J-262500D01*
G01*
X149532000Y-78494500D01*
G75*
G02*
X149269500Y-78757000I-262500J0D01*
G01*
X148644500Y-78757000D01*
G75*
G02*
X148382000Y-78494500I0J262500D01*
G01*
G37*
G36*
G01*
X146632000Y-78494500D02*
X146632000Y-77969500D01*
G75*
G02*
X146894500Y-77707000I262500J0D01*
G01*
X147519500Y-77707000D01*
G75*
G02*
X147782000Y-77969500I0J-262500D01*
G01*
X147782000Y-78494500D01*
G75*
G02*
X147519500Y-78757000I-262500J0D01*
G01*
X146894500Y-78757000D01*
G75*
G02*
X146632000Y-78494500I0J262500D01*
G01*
G37*
G36*
G01*
X151138500Y-82758000D02*
X150613500Y-82758000D01*
G75*
G02*
X150351000Y-82495500I0J262500D01*
G01*
X150351000Y-81870500D01*
G75*
G02*
X150613500Y-81608000I262500J0D01*
G01*
X151138500Y-81608000D01*
G75*
G02*
X151401000Y-81870500I0J-262500D01*
G01*
X151401000Y-82495500D01*
G75*
G02*
X151138500Y-82758000I-262500J0D01*
G01*
G37*
G36*
G01*
X151138500Y-84508000D02*
X150613500Y-84508000D01*
G75*
G02*
X150351000Y-84245500I0J262500D01*
G01*
X150351000Y-83620500D01*
G75*
G02*
X150613500Y-83358000I262500J0D01*
G01*
X151138500Y-83358000D01*
G75*
G02*
X151401000Y-83620500I0J-262500D01*
G01*
X151401000Y-84245500D01*
G75*
G02*
X151138500Y-84508000I-262500J0D01*
G01*
G37*
G36*
G01*
X208779500Y-91994000D02*
X209304500Y-91994000D01*
G75*
G02*
X209567000Y-92256500I0J-262500D01*
G01*
X209567000Y-92881500D01*
G75*
G02*
X209304500Y-93144000I-262500J0D01*
G01*
X208779500Y-93144000D01*
G75*
G02*
X208517000Y-92881500I0J262500D01*
G01*
X208517000Y-92256500D01*
G75*
G02*
X208779500Y-91994000I262500J0D01*
G01*
G37*
G36*
G01*
X208779500Y-90244000D02*
X209304500Y-90244000D01*
G75*
G02*
X209567000Y-90506500I0J-262500D01*
G01*
X209567000Y-91131500D01*
G75*
G02*
X209304500Y-91394000I-262500J0D01*
G01*
X208779500Y-91394000D01*
G75*
G02*
X208517000Y-91131500I0J262500D01*
G01*
X208517000Y-90506500D01*
G75*
G02*
X208779500Y-90244000I262500J0D01*
G01*
G37*
G36*
G01*
X206493500Y-91994000D02*
X207018500Y-91994000D01*
G75*
G02*
X207281000Y-92256500I0J-262500D01*
G01*
X207281000Y-92881500D01*
G75*
G02*
X207018500Y-93144000I-262500J0D01*
G01*
X206493500Y-93144000D01*
G75*
G02*
X206231000Y-92881500I0J262500D01*
G01*
X206231000Y-92256500D01*
G75*
G02*
X206493500Y-91994000I262500J0D01*
G01*
G37*
G36*
G01*
X206493500Y-90244000D02*
X207018500Y-90244000D01*
G75*
G02*
X207281000Y-90506500I0J-262500D01*
G01*
X207281000Y-91131500D01*
G75*
G02*
X207018500Y-91394000I-262500J0D01*
G01*
X206493500Y-91394000D01*
G75*
G02*
X206231000Y-91131500I0J262500D01*
G01*
X206231000Y-90506500D01*
G75*
G02*
X206493500Y-90244000I262500J0D01*
G01*
G37*
G36*
G01*
X144026000Y-76816000D02*
X144026000Y-77616000D01*
G75*
G02*
X143976000Y-77666000I-50000J0D01*
G01*
X143076000Y-77666000D01*
G75*
G02*
X143026000Y-77616000I0J50000D01*
G01*
X143026000Y-76816000D01*
G75*
G02*
X143076000Y-76766000I50000J0D01*
G01*
X143976000Y-76766000D01*
G75*
G02*
X144026000Y-76816000I0J-50000D01*
G01*
G37*
G36*
G01*
X146026000Y-75866000D02*
X146026000Y-76666000D01*
G75*
G02*
X145976000Y-76716000I-50000J0D01*
G01*
X145076000Y-76716000D01*
G75*
G02*
X145026000Y-76666000I0J50000D01*
G01*
X145026000Y-75866000D01*
G75*
G02*
X145076000Y-75816000I50000J0D01*
G01*
X145976000Y-75816000D01*
G75*
G02*
X146026000Y-75866000I0J-50000D01*
G01*
G37*
G36*
G01*
X146026000Y-77766000D02*
X146026000Y-78566000D01*
G75*
G02*
X145976000Y-78616000I-50000J0D01*
G01*
X145076000Y-78616000D01*
G75*
G02*
X145026000Y-78566000I0J50000D01*
G01*
X145026000Y-77766000D01*
G75*
G02*
X145076000Y-77716000I50000J0D01*
G01*
X145976000Y-77716000D01*
G75*
G02*
X146026000Y-77766000I0J-50000D01*
G01*
G37*
G36*
G01*
X146024000Y-95386000D02*
X144524000Y-95386000D01*
G75*
G02*
X144474000Y-95336000I0J50000D01*
G01*
X144474000Y-93336000D01*
G75*
G02*
X144524000Y-93286000I50000J0D01*
G01*
X146024000Y-93286000D01*
G75*
G02*
X146074000Y-93336000I0J-50000D01*
G01*
X146074000Y-95336000D01*
G75*
G02*
X146024000Y-95386000I-50000J0D01*
G01*
G37*
G36*
G01*
X150624000Y-95386000D02*
X149124000Y-95386000D01*
G75*
G02*
X149074000Y-95336000I0J50000D01*
G01*
X149074000Y-93336000D01*
G75*
G02*
X149124000Y-93286000I50000J0D01*
G01*
X150624000Y-93286000D01*
G75*
G02*
X150674000Y-93336000I0J-50000D01*
G01*
X150674000Y-95336000D01*
G75*
G02*
X150624000Y-95386000I-50000J0D01*
G01*
G37*
G36*
G01*
X148324000Y-95386000D02*
X146824000Y-95386000D01*
G75*
G02*
X146774000Y-95336000I0J50000D01*
G01*
X146774000Y-93336000D01*
G75*
G02*
X146824000Y-93286000I50000J0D01*
G01*
X148324000Y-93286000D01*
G75*
G02*
X148374000Y-93336000I0J-50000D01*
G01*
X148374000Y-95336000D01*
G75*
G02*
X148324000Y-95386000I-50000J0D01*
G01*
G37*
G36*
G01*
X149474000Y-89086000D02*
X145674000Y-89086000D01*
G75*
G02*
X145624000Y-89036000I0J50000D01*
G01*
X145624000Y-87036000D01*
G75*
G02*
X145674000Y-86986000I50000J0D01*
G01*
X149474000Y-86986000D01*
G75*
G02*
X149524000Y-87036000I0J-50000D01*
G01*
X149524000Y-89036000D01*
G75*
G02*
X149474000Y-89086000I-50000J0D01*
G01*
G37*
G36*
G01*
X148798000Y-96257500D02*
X148798000Y-96782500D01*
G75*
G02*
X148535500Y-97045000I-262500J0D01*
G01*
X147910500Y-97045000D01*
G75*
G02*
X147648000Y-96782500I0J262500D01*
G01*
X147648000Y-96257500D01*
G75*
G02*
X147910500Y-95995000I262500J0D01*
G01*
X148535500Y-95995000D01*
G75*
G02*
X148798000Y-96257500I0J-262500D01*
G01*
G37*
G36*
G01*
X150548000Y-96257500D02*
X150548000Y-96782500D01*
G75*
G02*
X150285500Y-97045000I-262500J0D01*
G01*
X149660500Y-97045000D01*
G75*
G02*
X149398000Y-96782500I0J262500D01*
G01*
X149398000Y-96257500D01*
G75*
G02*
X149660500Y-95995000I262500J0D01*
G01*
X150285500Y-95995000D01*
G75*
G02*
X150548000Y-96257500I0J-262500D01*
G01*
G37*
G36*
G01*
X204224500Y-74376000D02*
X203699500Y-74376000D01*
G75*
G02*
X203437000Y-74113500I0J262500D01*
G01*
X203437000Y-73488500D01*
G75*
G02*
X203699500Y-73226000I262500J0D01*
G01*
X204224500Y-73226000D01*
G75*
G02*
X204487000Y-73488500I0J-262500D01*
G01*
X204487000Y-74113500D01*
G75*
G02*
X204224500Y-74376000I-262500J0D01*
G01*
G37*
G36*
G01*
X204224500Y-76126000D02*
X203699500Y-76126000D01*
G75*
G02*
X203437000Y-75863500I0J262500D01*
G01*
X203437000Y-75238500D01*
G75*
G02*
X203699500Y-74976000I262500J0D01*
G01*
X204224500Y-74976000D01*
G75*
G02*
X204487000Y-75238500I0J-262500D01*
G01*
X204487000Y-75863500D01*
G75*
G02*
X204224500Y-76126000I-262500J0D01*
G01*
G37*
G36*
G01*
X203699500Y-71420000D02*
X204224500Y-71420000D01*
G75*
G02*
X204487000Y-71682500I0J-262500D01*
G01*
X204487000Y-72307500D01*
G75*
G02*
X204224500Y-72570000I-262500J0D01*
G01*
X203699500Y-72570000D01*
G75*
G02*
X203437000Y-72307500I0J262500D01*
G01*
X203437000Y-71682500D01*
G75*
G02*
X203699500Y-71420000I262500J0D01*
G01*
G37*
G36*
G01*
X203699500Y-69670000D02*
X204224500Y-69670000D01*
G75*
G02*
X204487000Y-69932500I0J-262500D01*
G01*
X204487000Y-70557500D01*
G75*
G02*
X204224500Y-70820000I-262500J0D01*
G01*
X203699500Y-70820000D01*
G75*
G02*
X203437000Y-70557500I0J262500D01*
G01*
X203437000Y-69932500D01*
G75*
G02*
X203699500Y-69670000I262500J0D01*
G01*
G37*
G36*
G01*
X185665500Y-71674000D02*
X186190500Y-71674000D01*
G75*
G02*
X186453000Y-71936500I0J-262500D01*
G01*
X186453000Y-72561500D01*
G75*
G02*
X186190500Y-72824000I-262500J0D01*
G01*
X185665500Y-72824000D01*
G75*
G02*
X185403000Y-72561500I0J262500D01*
G01*
X185403000Y-71936500D01*
G75*
G02*
X185665500Y-71674000I262500J0D01*
G01*
G37*
G36*
G01*
X185665500Y-69924000D02*
X186190500Y-69924000D01*
G75*
G02*
X186453000Y-70186500I0J-262500D01*
G01*
X186453000Y-70811500D01*
G75*
G02*
X186190500Y-71074000I-262500J0D01*
G01*
X185665500Y-71074000D01*
G75*
G02*
X185403000Y-70811500I0J262500D01*
G01*
X185403000Y-70186500D01*
G75*
G02*
X185665500Y-69924000I262500J0D01*
G01*
G37*
G36*
G01*
X178045500Y-71674000D02*
X178570500Y-71674000D01*
G75*
G02*
X178833000Y-71936500I0J-262500D01*
G01*
X178833000Y-72561500D01*
G75*
G02*
X178570500Y-72824000I-262500J0D01*
G01*
X178045500Y-72824000D01*
G75*
G02*
X177783000Y-72561500I0J262500D01*
G01*
X177783000Y-71936500D01*
G75*
G02*
X178045500Y-71674000I262500J0D01*
G01*
G37*
G36*
G01*
X178045500Y-69924000D02*
X178570500Y-69924000D01*
G75*
G02*
X178833000Y-70186500I0J-262500D01*
G01*
X178833000Y-70811500D01*
G75*
G02*
X178570500Y-71074000I-262500J0D01*
G01*
X178045500Y-71074000D01*
G75*
G02*
X177783000Y-70811500I0J262500D01*
G01*
X177783000Y-70186500D01*
G75*
G02*
X178045500Y-69924000I262500J0D01*
G01*
G37*
G36*
G01*
X174798000Y-77478500D02*
X174798000Y-76953500D01*
G75*
G02*
X175060500Y-76691000I262500J0D01*
G01*
X175685500Y-76691000D01*
G75*
G02*
X175948000Y-76953500I0J-262500D01*
G01*
X175948000Y-77478500D01*
G75*
G02*
X175685500Y-77741000I-262500J0D01*
G01*
X175060500Y-77741000D01*
G75*
G02*
X174798000Y-77478500I0J262500D01*
G01*
G37*
G36*
G01*
X173048000Y-77478500D02*
X173048000Y-76953500D01*
G75*
G02*
X173310500Y-76691000I262500J0D01*
G01*
X173935500Y-76691000D01*
G75*
G02*
X174198000Y-76953500I0J-262500D01*
G01*
X174198000Y-77478500D01*
G75*
G02*
X173935500Y-77741000I-262500J0D01*
G01*
X173310500Y-77741000D01*
G75*
G02*
X173048000Y-77478500I0J262500D01*
G01*
G37*
G36*
G01*
X174798000Y-82812500D02*
X174798000Y-82287500D01*
G75*
G02*
X175060500Y-82025000I262500J0D01*
G01*
X175685500Y-82025000D01*
G75*
G02*
X175948000Y-82287500I0J-262500D01*
G01*
X175948000Y-82812500D01*
G75*
G02*
X175685500Y-83075000I-262500J0D01*
G01*
X175060500Y-83075000D01*
G75*
G02*
X174798000Y-82812500I0J262500D01*
G01*
G37*
G36*
G01*
X173048000Y-82812500D02*
X173048000Y-82287500D01*
G75*
G02*
X173310500Y-82025000I262500J0D01*
G01*
X173935500Y-82025000D01*
G75*
G02*
X174198000Y-82287500I0J-262500D01*
G01*
X174198000Y-82812500D01*
G75*
G02*
X173935500Y-83075000I-262500J0D01*
G01*
X173310500Y-83075000D01*
G75*
G02*
X173048000Y-82812500I0J262500D01*
G01*
G37*
G36*
G01*
X174798000Y-79256500D02*
X174798000Y-78731500D01*
G75*
G02*
X175060500Y-78469000I262500J0D01*
G01*
X175685500Y-78469000D01*
G75*
G02*
X175948000Y-78731500I0J-262500D01*
G01*
X175948000Y-79256500D01*
G75*
G02*
X175685500Y-79519000I-262500J0D01*
G01*
X175060500Y-79519000D01*
G75*
G02*
X174798000Y-79256500I0J262500D01*
G01*
G37*
G36*
G01*
X173048000Y-79256500D02*
X173048000Y-78731500D01*
G75*
G02*
X173310500Y-78469000I262500J0D01*
G01*
X173935500Y-78469000D01*
G75*
G02*
X174198000Y-78731500I0J-262500D01*
G01*
X174198000Y-79256500D01*
G75*
G02*
X173935500Y-79519000I-262500J0D01*
G01*
X173310500Y-79519000D01*
G75*
G02*
X173048000Y-79256500I0J262500D01*
G01*
G37*
G36*
G01*
X174798000Y-81034500D02*
X174798000Y-80509500D01*
G75*
G02*
X175060500Y-80247000I262500J0D01*
G01*
X175685500Y-80247000D01*
G75*
G02*
X175948000Y-80509500I0J-262500D01*
G01*
X175948000Y-81034500D01*
G75*
G02*
X175685500Y-81297000I-262500J0D01*
G01*
X175060500Y-81297000D01*
G75*
G02*
X174798000Y-81034500I0J262500D01*
G01*
G37*
G36*
G01*
X173048000Y-81034500D02*
X173048000Y-80509500D01*
G75*
G02*
X173310500Y-80247000I262500J0D01*
G01*
X173935500Y-80247000D01*
G75*
G02*
X174198000Y-80509500I0J-262500D01*
G01*
X174198000Y-81034500D01*
G75*
G02*
X173935500Y-81297000I-262500J0D01*
G01*
X173310500Y-81297000D01*
G75*
G02*
X173048000Y-81034500I0J262500D01*
G01*
G37*
G36*
G01*
X188768000Y-80526500D02*
X188768000Y-80001500D01*
G75*
G02*
X189030500Y-79739000I262500J0D01*
G01*
X189655500Y-79739000D01*
G75*
G02*
X189918000Y-80001500I0J-262500D01*
G01*
X189918000Y-80526500D01*
G75*
G02*
X189655500Y-80789000I-262500J0D01*
G01*
X189030500Y-80789000D01*
G75*
G02*
X188768000Y-80526500I0J262500D01*
G01*
G37*
G36*
G01*
X187018000Y-80526500D02*
X187018000Y-80001500D01*
G75*
G02*
X187280500Y-79739000I262500J0D01*
G01*
X187905500Y-79739000D01*
G75*
G02*
X188168000Y-80001500I0J-262500D01*
G01*
X188168000Y-80526500D01*
G75*
G02*
X187905500Y-80789000I-262500J0D01*
G01*
X187280500Y-80789000D01*
G75*
G02*
X187018000Y-80526500I0J262500D01*
G01*
G37*
M02*
