M48
; DRILL file {KiCad (5.1.9)-1} date 12/15/21 22:15:10
; FORMAT={-:-/ absolute / metric / decimal}
; #@! TF.CreationDate,2021-12-15T22:15:10+01:00
; #@! TF.GenerationSoftware,Kicad,Pcbnew,(5.1.9)-1
; #@! TF.FileFunction,Plated,1,2,PTH
FMAT,2
METRIC
T1C0.200
T2C0.300
T3C0.500
T4C1.000
T5C1.200
T6C1.500
T7C1.700
%
G90
G05
T1
X180.61Y-79.01
X180.61Y-80.01
X180.61Y-81.01
X181.61Y-79.01
X181.61Y-80.01
X181.61Y-81.01
X182.61Y-79.01
X182.61Y-80.01
X182.61Y-81.01
T2
X142.24Y-75.184
X145.796Y-89.662
X146.05Y-91.44
X147.574Y-91.44
X149.58Y-85.395
X149.606Y-91.44
X149.836Y-83.759
X149.86Y-72.898
X151.13Y-78.232
X152.146Y-84.211
X153.924Y-58.166
X153.924Y-67.935
X156.21Y-88.138
X157.734Y-88.138
X158.242Y-70.866
X158.242Y-73.406
X159.004Y-85.461
X159.004Y-88.392
X159.766Y-70.866
X159.766Y-73.406
X163.576Y-84.211
X166.116Y-84.836
X168.402Y-88.392
X168.402Y-90.932
X169.418Y-87.63
X169.926Y-90.932
X169.926Y-96.012
X170.18Y-78.994
X170.942Y-87.63
X171.196Y-76.454
X171.196Y-83.312
X172.466Y-87.63
X173.736Y-84.836
X174.498Y-86.106
X176.53Y-88.9
X176.53Y-90.932
X177.038Y-82.296
X177.546Y-74.676
X178.562Y-74.422
X179.07Y-82.55
X180.848Y-85.852
X180.975Y-66.421
X180.975Y-68.072
X182.118Y-84.582
X182.372Y-72.898
X183.134Y-75.946
X183.388Y-84.582
X185.674Y-87.376
X185.928Y-77.978
X188.722Y-83.566
X188.722Y-85.09
X188.722Y-99.568
X189.23Y-74.422
X189.484Y-90.678
X189.992Y-73.66
X189.992Y-87.63
X189.992Y-89.857
X190.185Y-95.951
X190.5Y-77.978
X190.754Y-72.898
X190.754Y-79.502
X190.754Y-90.932
X191.262Y-99.568
X192.278Y-77.978
X192.786Y-88.451
X192.786Y-93.98
X193.04Y-58.42
X193.04Y-60.96
X193.04Y-63.5
X193.04Y-96.012
X193.294Y-80.772
X193.548Y-99.568
X194.31Y-68.58
X194.564Y-85.852
X194.564Y-91.948
X195.326Y-84.328
X195.326Y-92.593
X195.58Y-58.42
X195.58Y-60.96
X195.58Y-63.5
X195.834Y-99.568
X195.971Y-82.804
X195.971Y-93.218
X196.596Y-76.708
X198.12Y-58.42
X198.12Y-60.96
X198.12Y-63.5
X198.12Y-99.568
X199.136Y-74.168
X200.152Y-99.568
X200.406Y-88.138
X200.406Y-90.932
X200.787Y-74.422
X200.787Y-75.692
X200.787Y-78.867
X201.168Y-58.674
X201.676Y-89.154
X202.184Y-99.568
X202.692Y-72.898
X203.395Y-89.857
X203.708Y-58.674
X204.47Y-80.772
X204.47Y-89.857
X204.978Y-92.71
X204.978Y-93.98
X204.978Y-95.504
X204.978Y-96.774
X204.978Y-99.568
X205.232Y-70.358
X205.232Y-82.804
X205.994Y-79.248
X205.994Y-84.328
X206.248Y-71.628
X206.248Y-73.406
X206.248Y-75.438
X206.502Y-58.674
X206.756Y-77.978
X206.756Y-85.852
X207.518Y-87.376
X209.296Y-59.436
X209.296Y-61.468
X209.296Y-64.008
X210.058Y-88.138
X211.328Y-89.154
X212.598Y-85.852
T3
X181.356Y-91.186
T4
X153.416Y-94.742
X153.416Y-97.282
X155.956Y-94.742
X155.956Y-97.282
X158.496Y-94.742
X158.496Y-97.282
X161.036Y-94.742
X161.036Y-97.282
X163.576Y-94.742
X163.576Y-97.282
X166.116Y-94.742
X166.116Y-97.282
X168.656Y-94.742
X168.656Y-97.282
X171.196Y-94.742
X171.196Y-97.282
X173.736Y-94.742
X173.736Y-97.282
X176.276Y-94.742
X176.276Y-97.282
X178.816Y-94.742
X178.816Y-97.282
X181.356Y-94.742
X181.356Y-97.282
X183.896Y-94.742
X183.896Y-97.282
X186.436Y-94.742
X186.436Y-97.282
X188.976Y-94.742
X188.976Y-97.282
X191.516Y-94.742
X191.516Y-97.282
X194.056Y-94.742
X194.056Y-97.282
X196.596Y-94.742
X196.596Y-97.282
X199.136Y-94.742
X199.136Y-97.282
X199.898Y-55.118
X201.676Y-94.742
X201.676Y-97.282
X202.438Y-55.118
X204.978Y-55.118
X207.518Y-55.118
X208.788Y-69.088
X208.788Y-71.628
X208.788Y-74.168
X208.788Y-76.708
X208.788Y-79.248
X208.788Y-81.788
X211.328Y-69.088
X211.328Y-71.628
X211.328Y-74.168
X211.328Y-76.708
X211.328Y-79.248
X211.328Y-81.788
T6
X146.812Y-58.166
X146.812Y-67.31
X155.956Y-79.756
X165.608Y-79.756
X172.466Y-58.166
X172.466Y-67.31
T7
X144.272Y-55.626
X144.272Y-60.706
X144.272Y-64.77
X144.272Y-69.85
X149.352Y-55.626
X149.352Y-60.706
X149.352Y-64.77
X149.352Y-69.85
X153.416Y-77.216
X153.416Y-82.296
X158.496Y-77.216
X158.496Y-82.296
X163.068Y-77.216
X163.068Y-82.296
X168.148Y-77.216
X168.148Y-82.296
X169.926Y-55.626
X169.926Y-60.706
X169.926Y-64.77
X169.926Y-69.85
X175.006Y-55.626
X175.006Y-60.706
X175.006Y-64.77
X175.006Y-69.85
T4
X156.789Y-63.955G85X156.789Y-64.455
G05
X159.389Y-65.105G85X159.889Y-65.105
G05
X162.489Y-63.955G85X162.489Y-64.455
G05
X181.3Y-63.955G85X181.3Y-64.455
G05
X183.9Y-65.105G85X184.4Y-65.105
G05
X187.0Y-63.955G85X187.0Y-64.455
G05
T5
X156.239Y-55.955G85X156.239Y-56.255
G05
X163.039Y-55.955G85X163.039Y-56.255
G05
X180.75Y-55.955G85X180.75Y-56.255
G05
X187.55Y-55.955G85X187.55Y-56.255
G05
T0
M30
