G04 #@! TF.GenerationSoftware,KiCad,Pcbnew,(5.1.9)-1*
G04 #@! TF.CreationDate,2021-12-15T22:13:59+01:00*
G04 #@! TF.ProjectId,AudioCodecModule_WM8960,41756469-6f43-46f6-9465-634d6f64756c,rev?*
G04 #@! TF.SameCoordinates,Original*
G04 #@! TF.FileFunction,Soldermask,Bot*
G04 #@! TF.FilePolarity,Negative*
%FSLAX46Y46*%
G04 Gerber Fmt 4.6, Leading zero omitted, Abs format (unit mm)*
G04 Created by KiCad (PCBNEW (5.1.9)-1) date 2021-12-15 22:13:59*
%MOMM*%
%LPD*%
G01*
G04 APERTURE LIST*
%ADD10O,2.300000X2.600000*%
%ADD11O,2.100000X2.600000*%
%ADD12C,1.200000*%
%ADD13O,2.600000X2.100000*%
%ADD14C,2.350000*%
%ADD15C,2.150000*%
%ADD16O,1.800000X1.800000*%
G04 APERTURE END LIST*
D10*
X163039000Y-56105000D03*
X156239000Y-56105000D03*
D11*
X162489000Y-64205000D03*
X156789000Y-64205000D03*
D12*
X159639000Y-61705000D03*
X159639000Y-54705000D03*
D13*
X159639000Y-65105000D03*
D10*
X187550000Y-56105000D03*
X180750000Y-56105000D03*
D11*
X187000000Y-64205000D03*
X181300000Y-64205000D03*
D12*
X184150000Y-61705000D03*
X184150000Y-54705000D03*
D13*
X184150000Y-65105000D03*
D14*
X169926000Y-60706000D03*
X169926000Y-55626000D03*
X175006000Y-55626000D03*
X175006000Y-60706000D03*
D15*
X172466000Y-58166000D03*
D14*
X144272000Y-60706000D03*
X144272000Y-55626000D03*
X149352000Y-55626000D03*
X149352000Y-60706000D03*
D15*
X146812000Y-58166000D03*
D14*
X169926000Y-69850000D03*
X169926000Y-64770000D03*
X175006000Y-64770000D03*
X175006000Y-69850000D03*
D15*
X172466000Y-67310000D03*
D14*
X144272000Y-69850000D03*
X144272000Y-64770000D03*
X149352000Y-64770000D03*
X149352000Y-69850000D03*
D15*
X146812000Y-67310000D03*
D14*
X163068000Y-82296000D03*
X163068000Y-77216000D03*
X168148000Y-77216000D03*
X168148000Y-82296000D03*
D15*
X165608000Y-79756000D03*
D16*
X153416000Y-97282000D03*
X153416000Y-94742000D03*
X155956000Y-97282000D03*
X155956000Y-94742000D03*
X158496000Y-97282000D03*
X158496000Y-94742000D03*
X161036000Y-97282000D03*
X161036000Y-94742000D03*
X163576000Y-97282000D03*
X163576000Y-94742000D03*
X166116000Y-97282000D03*
X166116000Y-94742000D03*
X168656000Y-97282000D03*
X168656000Y-94742000D03*
X171196000Y-97282000D03*
X171196000Y-94742000D03*
X173736000Y-97282000D03*
X173736000Y-94742000D03*
X176276000Y-97282000D03*
X176276000Y-94742000D03*
X178816000Y-97282000D03*
X178816000Y-94742000D03*
X181356000Y-97282000D03*
X181356000Y-94742000D03*
X183896000Y-97282000D03*
X183896000Y-94742000D03*
X186436000Y-97282000D03*
X186436000Y-94742000D03*
X188976000Y-97282000D03*
X188976000Y-94742000D03*
X191516000Y-97282000D03*
X191516000Y-94742000D03*
X194056000Y-97282000D03*
X194056000Y-94742000D03*
X196596000Y-97282000D03*
X196596000Y-94742000D03*
X199136000Y-97282000D03*
X199136000Y-94742000D03*
X201676000Y-97282000D03*
G36*
G01*
X200826000Y-93842000D02*
X202526000Y-93842000D01*
G75*
G02*
X202576000Y-93892000I0J-50000D01*
G01*
X202576000Y-95592000D01*
G75*
G02*
X202526000Y-95642000I-50000J0D01*
G01*
X200826000Y-95642000D01*
G75*
G02*
X200776000Y-95592000I0J50000D01*
G01*
X200776000Y-93892000D01*
G75*
G02*
X200826000Y-93842000I50000J0D01*
G01*
G37*
X207518000Y-55118000D03*
X204978000Y-55118000D03*
X202438000Y-55118000D03*
G36*
G01*
X200748000Y-56018000D02*
X199048000Y-56018000D01*
G75*
G02*
X198998000Y-55968000I0J50000D01*
G01*
X198998000Y-54268000D01*
G75*
G02*
X199048000Y-54218000I50000J0D01*
G01*
X200748000Y-54218000D01*
G75*
G02*
X200798000Y-54268000I0J-50000D01*
G01*
X200798000Y-55968000D01*
G75*
G02*
X200748000Y-56018000I-50000J0D01*
G01*
G37*
D14*
X153416000Y-82296000D03*
X153416000Y-77216000D03*
X158496000Y-77216000D03*
X158496000Y-82296000D03*
D15*
X155956000Y-79756000D03*
D16*
X211328000Y-81788000D03*
X208788000Y-81788000D03*
X211328000Y-79248000D03*
X208788000Y-79248000D03*
X211328000Y-76708000D03*
X208788000Y-76708000D03*
X211328000Y-74168000D03*
X208788000Y-74168000D03*
X211328000Y-71628000D03*
X208788000Y-71628000D03*
X211328000Y-69088000D03*
G36*
G01*
X207888000Y-69938000D02*
X207888000Y-68238000D01*
G75*
G02*
X207938000Y-68188000I50000J0D01*
G01*
X209638000Y-68188000D01*
G75*
G02*
X209688000Y-68238000I0J-50000D01*
G01*
X209688000Y-69938000D01*
G75*
G02*
X209638000Y-69988000I-50000J0D01*
G01*
X207938000Y-69988000D01*
G75*
G02*
X207888000Y-69938000I0J50000D01*
G01*
G37*
M02*
