%FSLAX45Y45*%
G04 Gerber Fmt 4.5, Leading zero omitted, Abs format (unit mm)*
G04 Created by KiCad (PCBNEW (5.1.9)-1) date 2021-12-15 22:15:21*
%MOMM*%
%LPD*%
G01*
G04 APERTURE LIST*
%TA.AperFunction,Profile*%
%ADD10C,0.050000*%
%TD*%
%ADD11C,0.200000*%
%ADD12C,0.300000*%
G04 APERTURE END LIST*
D10*
X14000000Y-10100000D02*
X14000000Y-5100000D01*
X21500000Y-5100000D02*
X21500000Y-10100000D01*
X21500000Y-10100000D02*
X14000000Y-10100000D01*
X14000000Y-5100000D02*
X21500000Y-5100000D01*
D11*
X18051000Y-7891000D02*
X18071000Y-7911000D01*
X18071000Y-7891000D02*
X18051000Y-7911000D01*
X18051000Y-7991000D02*
X18071000Y-8011000D01*
X18071000Y-7991000D02*
X18051000Y-8011000D01*
X18051000Y-8091000D02*
X18071000Y-8111000D01*
X18071000Y-8091000D02*
X18051000Y-8111000D01*
X18151000Y-7891000D02*
X18171000Y-7911000D01*
X18171000Y-7891000D02*
X18151000Y-7911000D01*
X18151000Y-7991000D02*
X18171000Y-8011000D01*
X18171000Y-7991000D02*
X18151000Y-8011000D01*
X18151000Y-8091000D02*
X18171000Y-8111000D01*
X18171000Y-8091000D02*
X18151000Y-8111000D01*
X18251000Y-7891000D02*
X18271000Y-7911000D01*
X18271000Y-7891000D02*
X18251000Y-7911000D01*
X18251000Y-7991000D02*
X18271000Y-8011000D01*
X18271000Y-7991000D02*
X18251000Y-8011000D01*
X18251000Y-8091000D02*
X18271000Y-8111000D01*
X18271000Y-8091000D02*
X18251000Y-8111000D01*
X14239000Y-7518400D02*
G75*
G03*
X14239000Y-7518400I-15000J0D01*
G01*
X14594600Y-8966200D02*
G75*
G03*
X14594600Y-8966200I-15000J0D01*
G01*
X14620000Y-9144000D02*
G75*
G03*
X14620000Y-9144000I-15000J0D01*
G01*
X14772400Y-9144000D02*
G75*
G03*
X14772400Y-9144000I-15000J0D01*
G01*
X14973049Y-8539502D02*
G75*
G03*
X14973049Y-8539502I-15000J0D01*
G01*
X14975600Y-9144000D02*
G75*
G03*
X14975600Y-9144000I-15000J0D01*
G01*
X14998600Y-8375906D02*
G75*
G03*
X14998600Y-8375906I-15000J0D01*
G01*
X15001000Y-7289800D02*
G75*
G03*
X15001000Y-7289800I-15000J0D01*
G01*
X15128000Y-7823200D02*
G75*
G03*
X15128000Y-7823200I-15000J0D01*
G01*
X15229600Y-8421100D02*
G75*
G03*
X15229600Y-8421100I-15000J0D01*
G01*
X15407400Y-5816600D02*
G75*
G03*
X15407400Y-5816600I-15000J0D01*
G01*
X15407400Y-6793500D02*
G75*
G03*
X15407400Y-6793500I-15000J0D01*
G01*
X15636000Y-8813800D02*
G75*
G03*
X15636000Y-8813800I-15000J0D01*
G01*
X15788400Y-8813800D02*
G75*
G03*
X15788400Y-8813800I-15000J0D01*
G01*
X15839200Y-7086600D02*
G75*
G03*
X15839200Y-7086600I-15000J0D01*
G01*
X15839200Y-7340600D02*
G75*
G03*
X15839200Y-7340600I-15000J0D01*
G01*
X15915400Y-8546100D02*
G75*
G03*
X15915400Y-8546100I-15000J0D01*
G01*
X15915400Y-8839200D02*
G75*
G03*
X15915400Y-8839200I-15000J0D01*
G01*
X15991600Y-7086600D02*
G75*
G03*
X15991600Y-7086600I-15000J0D01*
G01*
X15991600Y-7340600D02*
G75*
G03*
X15991600Y-7340600I-15000J0D01*
G01*
X16372600Y-8421100D02*
G75*
G03*
X16372600Y-8421100I-15000J0D01*
G01*
X16626600Y-8483600D02*
G75*
G03*
X16626600Y-8483600I-15000J0D01*
G01*
X16855200Y-8839200D02*
G75*
G03*
X16855200Y-8839200I-15000J0D01*
G01*
X16855200Y-9093200D02*
G75*
G03*
X16855200Y-9093200I-15000J0D01*
G01*
X16956800Y-8763000D02*
G75*
G03*
X16956800Y-8763000I-15000J0D01*
G01*
X17007600Y-9093200D02*
G75*
G03*
X17007600Y-9093200I-15000J0D01*
G01*
X17007600Y-9601200D02*
G75*
G03*
X17007600Y-9601200I-15000J0D01*
G01*
X17033000Y-7899400D02*
G75*
G03*
X17033000Y-7899400I-15000J0D01*
G01*
X17109200Y-8763000D02*
G75*
G03*
X17109200Y-8763000I-15000J0D01*
G01*
X17134600Y-7645400D02*
G75*
G03*
X17134600Y-7645400I-15000J0D01*
G01*
X17134600Y-8331200D02*
G75*
G03*
X17134600Y-8331200I-15000J0D01*
G01*
X17261600Y-8763000D02*
G75*
G03*
X17261600Y-8763000I-15000J0D01*
G01*
X17388600Y-8483600D02*
G75*
G03*
X17388600Y-8483600I-15000J0D01*
G01*
X17464800Y-8610600D02*
G75*
G03*
X17464800Y-8610600I-15000J0D01*
G01*
X17668000Y-8890000D02*
G75*
G03*
X17668000Y-8890000I-15000J0D01*
G01*
X17668000Y-9093200D02*
G75*
G03*
X17668000Y-9093200I-15000J0D01*
G01*
X17718800Y-8229600D02*
G75*
G03*
X17718800Y-8229600I-15000J0D01*
G01*
X17769600Y-7467600D02*
G75*
G03*
X17769600Y-7467600I-15000J0D01*
G01*
X17871200Y-7442200D02*
G75*
G03*
X17871200Y-7442200I-15000J0D01*
G01*
X17922000Y-8255000D02*
G75*
G03*
X17922000Y-8255000I-15000J0D01*
G01*
X18099800Y-8585200D02*
G75*
G03*
X18099800Y-8585200I-15000J0D01*
G01*
X18112500Y-6642100D02*
G75*
G03*
X18112500Y-6642100I-15000J0D01*
G01*
X18112500Y-6807200D02*
G75*
G03*
X18112500Y-6807200I-15000J0D01*
G01*
X18226800Y-8458200D02*
G75*
G03*
X18226800Y-8458200I-15000J0D01*
G01*
X18252200Y-7289800D02*
G75*
G03*
X18252200Y-7289800I-15000J0D01*
G01*
X18328400Y-7594600D02*
G75*
G03*
X18328400Y-7594600I-15000J0D01*
G01*
X18353800Y-8458200D02*
G75*
G03*
X18353800Y-8458200I-15000J0D01*
G01*
X18582400Y-8737600D02*
G75*
G03*
X18582400Y-8737600I-15000J0D01*
G01*
X18607800Y-7797800D02*
G75*
G03*
X18607800Y-7797800I-15000J0D01*
G01*
X18887200Y-8356600D02*
G75*
G03*
X18887200Y-8356600I-15000J0D01*
G01*
X18887200Y-8509000D02*
G75*
G03*
X18887200Y-8509000I-15000J0D01*
G01*
X18887200Y-9956800D02*
G75*
G03*
X18887200Y-9956800I-15000J0D01*
G01*
X18938000Y-7442200D02*
G75*
G03*
X18938000Y-7442200I-15000J0D01*
G01*
X18963400Y-9067800D02*
G75*
G03*
X18963400Y-9067800I-15000J0D01*
G01*
X19014200Y-7366000D02*
G75*
G03*
X19014200Y-7366000I-15000J0D01*
G01*
X19014200Y-8763000D02*
G75*
G03*
X19014200Y-8763000I-15000J0D01*
G01*
X19014200Y-8985720D02*
G75*
G03*
X19014200Y-8985720I-15000J0D01*
G01*
X19033506Y-9595106D02*
G75*
G03*
X19033506Y-9595106I-15000J0D01*
G01*
X19065000Y-7797800D02*
G75*
G03*
X19065000Y-7797800I-15000J0D01*
G01*
X19090400Y-7289800D02*
G75*
G03*
X19090400Y-7289800I-15000J0D01*
G01*
X19090400Y-7950200D02*
G75*
G03*
X19090400Y-7950200I-15000J0D01*
G01*
X19090400Y-9093200D02*
G75*
G03*
X19090400Y-9093200I-15000J0D01*
G01*
X19141200Y-9956800D02*
G75*
G03*
X19141200Y-9956800I-15000J0D01*
G01*
X19242800Y-7797800D02*
G75*
G03*
X19242800Y-7797800I-15000J0D01*
G01*
X19293600Y-8845080D02*
G75*
G03*
X19293600Y-8845080I-15000J0D01*
G01*
X19293600Y-9398000D02*
G75*
G03*
X19293600Y-9398000I-15000J0D01*
G01*
X19319000Y-5842000D02*
G75*
G03*
X19319000Y-5842000I-15000J0D01*
G01*
X19319000Y-6096000D02*
G75*
G03*
X19319000Y-6096000I-15000J0D01*
G01*
X19319000Y-6350000D02*
G75*
G03*
X19319000Y-6350000I-15000J0D01*
G01*
X19319000Y-9601200D02*
G75*
G03*
X19319000Y-9601200I-15000J0D01*
G01*
X19344400Y-8077200D02*
G75*
G03*
X19344400Y-8077200I-15000J0D01*
G01*
X19369800Y-9956800D02*
G75*
G03*
X19369800Y-9956800I-15000J0D01*
G01*
X19446000Y-6858000D02*
G75*
G03*
X19446000Y-6858000I-15000J0D01*
G01*
X19471400Y-8585200D02*
G75*
G03*
X19471400Y-8585200I-15000J0D01*
G01*
X19471400Y-9194800D02*
G75*
G03*
X19471400Y-9194800I-15000J0D01*
G01*
X19547600Y-8432800D02*
G75*
G03*
X19547600Y-8432800I-15000J0D01*
G01*
X19547600Y-9259300D02*
G75*
G03*
X19547600Y-9259300I-15000J0D01*
G01*
X19573000Y-5842000D02*
G75*
G03*
X19573000Y-5842000I-15000J0D01*
G01*
X19573000Y-6096000D02*
G75*
G03*
X19573000Y-6096000I-15000J0D01*
G01*
X19573000Y-6350000D02*
G75*
G03*
X19573000Y-6350000I-15000J0D01*
G01*
X19598400Y-9956800D02*
G75*
G03*
X19598400Y-9956800I-15000J0D01*
G01*
X19612100Y-8280400D02*
G75*
G03*
X19612100Y-8280400I-15000J0D01*
G01*
X19612100Y-9321800D02*
G75*
G03*
X19612100Y-9321800I-15000J0D01*
G01*
X19674600Y-7670800D02*
G75*
G03*
X19674600Y-7670800I-15000J0D01*
G01*
X19827000Y-5842000D02*
G75*
G03*
X19827000Y-5842000I-15000J0D01*
G01*
X19827000Y-6096000D02*
G75*
G03*
X19827000Y-6096000I-15000J0D01*
G01*
X19827000Y-6350000D02*
G75*
G03*
X19827000Y-6350000I-15000J0D01*
G01*
X19827000Y-9956800D02*
G75*
G03*
X19827000Y-9956800I-15000J0D01*
G01*
X19928600Y-7416800D02*
G75*
G03*
X19928600Y-7416800I-15000J0D01*
G01*
X20030200Y-9956800D02*
G75*
G03*
X20030200Y-9956800I-15000J0D01*
G01*
X20055600Y-8813800D02*
G75*
G03*
X20055600Y-8813800I-15000J0D01*
G01*
X20055600Y-9093200D02*
G75*
G03*
X20055600Y-9093200I-15000J0D01*
G01*
X20093700Y-7442200D02*
G75*
G03*
X20093700Y-7442200I-15000J0D01*
G01*
X20093700Y-7569200D02*
G75*
G03*
X20093700Y-7569200I-15000J0D01*
G01*
X20093700Y-7886700D02*
G75*
G03*
X20093700Y-7886700I-15000J0D01*
G01*
X20131800Y-5867400D02*
G75*
G03*
X20131800Y-5867400I-15000J0D01*
G01*
X20182600Y-8915400D02*
G75*
G03*
X20182600Y-8915400I-15000J0D01*
G01*
X20233400Y-9956800D02*
G75*
G03*
X20233400Y-9956800I-15000J0D01*
G01*
X20284200Y-7289800D02*
G75*
G03*
X20284200Y-7289800I-15000J0D01*
G01*
X20354520Y-8985720D02*
G75*
G03*
X20354520Y-8985720I-15000J0D01*
G01*
X20385800Y-5867400D02*
G75*
G03*
X20385800Y-5867400I-15000J0D01*
G01*
X20462000Y-8077200D02*
G75*
G03*
X20462000Y-8077200I-15000J0D01*
G01*
X20462000Y-8985720D02*
G75*
G03*
X20462000Y-8985720I-15000J0D01*
G01*
X20512800Y-9271000D02*
G75*
G03*
X20512800Y-9271000I-15000J0D01*
G01*
X20512800Y-9398000D02*
G75*
G03*
X20512800Y-9398000I-15000J0D01*
G01*
X20512800Y-9550400D02*
G75*
G03*
X20512800Y-9550400I-15000J0D01*
G01*
X20512800Y-9677400D02*
G75*
G03*
X20512800Y-9677400I-15000J0D01*
G01*
X20512800Y-9956800D02*
G75*
G03*
X20512800Y-9956800I-15000J0D01*
G01*
X20538200Y-7035800D02*
G75*
G03*
X20538200Y-7035800I-15000J0D01*
G01*
X20538200Y-8280400D02*
G75*
G03*
X20538200Y-8280400I-15000J0D01*
G01*
X20614400Y-7924800D02*
G75*
G03*
X20614400Y-7924800I-15000J0D01*
G01*
X20614400Y-8432800D02*
G75*
G03*
X20614400Y-8432800I-15000J0D01*
G01*
X20639800Y-7162800D02*
G75*
G03*
X20639800Y-7162800I-15000J0D01*
G01*
X20639800Y-7340600D02*
G75*
G03*
X20639800Y-7340600I-15000J0D01*
G01*
X20639800Y-7543800D02*
G75*
G03*
X20639800Y-7543800I-15000J0D01*
G01*
X20665200Y-5867400D02*
G75*
G03*
X20665200Y-5867400I-15000J0D01*
G01*
X20690600Y-7797800D02*
G75*
G03*
X20690600Y-7797800I-15000J0D01*
G01*
X20690600Y-8585200D02*
G75*
G03*
X20690600Y-8585200I-15000J0D01*
G01*
X20766800Y-8737600D02*
G75*
G03*
X20766800Y-8737600I-15000J0D01*
G01*
X20944600Y-5943600D02*
G75*
G03*
X20944600Y-5943600I-15000J0D01*
G01*
X20944600Y-6146800D02*
G75*
G03*
X20944600Y-6146800I-15000J0D01*
G01*
X20944600Y-6400800D02*
G75*
G03*
X20944600Y-6400800I-15000J0D01*
G01*
X21020800Y-8813800D02*
G75*
G03*
X21020800Y-8813800I-15000J0D01*
G01*
X21147800Y-8915400D02*
G75*
G03*
X21147800Y-8915400I-15000J0D01*
G01*
X21274800Y-8585200D02*
G75*
G03*
X21274800Y-8585200I-15000J0D01*
G01*
X18135600Y-9093600D02*
X18135600Y-9143600D01*
X18110600Y-9118600D02*
X18160600Y-9118600D01*
X15376956Y-9509556D02*
X15376956Y-9438844D01*
X15306244Y-9438844D01*
X15306244Y-9509556D01*
X15376956Y-9509556D01*
X15376956Y-9763556D02*
X15376956Y-9692844D01*
X15306244Y-9692844D01*
X15306244Y-9763556D01*
X15376956Y-9763556D01*
X15630956Y-9509556D02*
X15630956Y-9438844D01*
X15560244Y-9438844D01*
X15560244Y-9509556D01*
X15630956Y-9509556D01*
X15630956Y-9763556D02*
X15630956Y-9692844D01*
X15560244Y-9692844D01*
X15560244Y-9763556D01*
X15630956Y-9763556D01*
X15714256Y-6455856D02*
X15714256Y-6385144D01*
X15643544Y-6385144D01*
X15643544Y-6455856D01*
X15714256Y-6455856D01*
X15638900Y-6395500D02*
X15638900Y-6445500D01*
X15718900Y-6395500D02*
X15718900Y-6445500D01*
X15638900Y-6445500D02*
G75*
G03*
X15718900Y-6445500I40000J0D01*
G01*
X15718900Y-6395500D02*
G75*
G03*
X15638900Y-6395500I-40000J0D01*
G01*
X15884956Y-9509556D02*
X15884956Y-9438844D01*
X15814244Y-9438844D01*
X15814244Y-9509556D01*
X15884956Y-9509556D01*
X15884956Y-9763556D02*
X15884956Y-9692844D01*
X15814244Y-9692844D01*
X15814244Y-9763556D01*
X15884956Y-9763556D01*
X15999256Y-6545856D02*
X15999256Y-6475144D01*
X15928544Y-6475144D01*
X15928544Y-6545856D01*
X15999256Y-6545856D01*
X15938900Y-6550500D02*
X15988900Y-6550500D01*
X15938900Y-6470500D02*
X15988900Y-6470500D01*
X15988900Y-6550500D02*
G75*
G03*
X15988900Y-6470500I0J40000D01*
G01*
X15938900Y-6470500D02*
G75*
G03*
X15938900Y-6550500I0J-40000D01*
G01*
X16138956Y-9509556D02*
X16138956Y-9438844D01*
X16068244Y-9438844D01*
X16068244Y-9509556D01*
X16138956Y-9509556D01*
X16138956Y-9763556D02*
X16138956Y-9692844D01*
X16068244Y-9692844D01*
X16068244Y-9763556D01*
X16138956Y-9763556D01*
X16284256Y-6455856D02*
X16284256Y-6385144D01*
X16213544Y-6385144D01*
X16213544Y-6455856D01*
X16284256Y-6455856D01*
X16208900Y-6395500D02*
X16208900Y-6445500D01*
X16288900Y-6395500D02*
X16288900Y-6445500D01*
X16208900Y-6445500D02*
G75*
G03*
X16288900Y-6445500I40000J0D01*
G01*
X16288900Y-6395500D02*
G75*
G03*
X16208900Y-6395500I-40000J0D01*
G01*
X16392956Y-9509556D02*
X16392956Y-9438844D01*
X16322244Y-9438844D01*
X16322244Y-9509556D01*
X16392956Y-9509556D01*
X16392956Y-9763556D02*
X16392956Y-9692844D01*
X16322244Y-9692844D01*
X16322244Y-9763556D01*
X16392956Y-9763556D01*
X16646956Y-9509556D02*
X16646956Y-9438844D01*
X16576244Y-9438844D01*
X16576244Y-9509556D01*
X16646956Y-9509556D01*
X16646956Y-9763556D02*
X16646956Y-9692844D01*
X16576244Y-9692844D01*
X16576244Y-9763556D01*
X16646956Y-9763556D01*
X16900956Y-9509556D02*
X16900956Y-9438844D01*
X16830244Y-9438844D01*
X16830244Y-9509556D01*
X16900956Y-9509556D01*
X16900956Y-9763556D02*
X16900956Y-9692844D01*
X16830244Y-9692844D01*
X16830244Y-9763556D01*
X16900956Y-9763556D01*
X17154956Y-9509556D02*
X17154956Y-9438844D01*
X17084244Y-9438844D01*
X17084244Y-9509556D01*
X17154956Y-9509556D01*
X17154956Y-9763556D02*
X17154956Y-9692844D01*
X17084244Y-9692844D01*
X17084244Y-9763556D01*
X17154956Y-9763556D01*
X17408956Y-9509556D02*
X17408956Y-9438844D01*
X17338244Y-9438844D01*
X17338244Y-9509556D01*
X17408956Y-9509556D01*
X17408956Y-9763556D02*
X17408956Y-9692844D01*
X17338244Y-9692844D01*
X17338244Y-9763556D01*
X17408956Y-9763556D01*
X17662956Y-9509556D02*
X17662956Y-9438844D01*
X17592244Y-9438844D01*
X17592244Y-9509556D01*
X17662956Y-9509556D01*
X17662956Y-9763556D02*
X17662956Y-9692844D01*
X17592244Y-9692844D01*
X17592244Y-9763556D01*
X17662956Y-9763556D01*
X17916956Y-9509556D02*
X17916956Y-9438844D01*
X17846244Y-9438844D01*
X17846244Y-9509556D01*
X17916956Y-9509556D01*
X17916956Y-9763556D02*
X17916956Y-9692844D01*
X17846244Y-9692844D01*
X17846244Y-9763556D01*
X17916956Y-9763556D01*
X18165356Y-6455856D02*
X18165356Y-6385144D01*
X18094644Y-6385144D01*
X18094644Y-6455856D01*
X18165356Y-6455856D01*
X18090000Y-6395500D02*
X18090000Y-6445500D01*
X18170000Y-6395500D02*
X18170000Y-6445500D01*
X18090000Y-6445500D02*
G75*
G03*
X18170000Y-6445500I40000J0D01*
G01*
X18170000Y-6395500D02*
G75*
G03*
X18090000Y-6395500I-40000J0D01*
G01*
X18170956Y-9509556D02*
X18170956Y-9438844D01*
X18100244Y-9438844D01*
X18100244Y-9509556D01*
X18170956Y-9509556D01*
X18170956Y-9763556D02*
X18170956Y-9692844D01*
X18100244Y-9692844D01*
X18100244Y-9763556D01*
X18170956Y-9763556D01*
X18424956Y-9509556D02*
X18424956Y-9438844D01*
X18354244Y-9438844D01*
X18354244Y-9509556D01*
X18424956Y-9509556D01*
X18424956Y-9763556D02*
X18424956Y-9692844D01*
X18354244Y-9692844D01*
X18354244Y-9763556D01*
X18424956Y-9763556D01*
X18450356Y-6545856D02*
X18450356Y-6475144D01*
X18379644Y-6475144D01*
X18379644Y-6545856D01*
X18450356Y-6545856D01*
X18390000Y-6550500D02*
X18440000Y-6550500D01*
X18390000Y-6470500D02*
X18440000Y-6470500D01*
X18440000Y-6550500D02*
G75*
G03*
X18440000Y-6470500I0J40000D01*
G01*
X18390000Y-6470500D02*
G75*
G03*
X18390000Y-6550500I0J-40000D01*
G01*
X18678956Y-9509556D02*
X18678956Y-9438844D01*
X18608244Y-9438844D01*
X18608244Y-9509556D01*
X18678956Y-9509556D01*
X18678956Y-9763556D02*
X18678956Y-9692844D01*
X18608244Y-9692844D01*
X18608244Y-9763556D01*
X18678956Y-9763556D01*
X18735356Y-6455856D02*
X18735356Y-6385144D01*
X18664644Y-6385144D01*
X18664644Y-6455856D01*
X18735356Y-6455856D01*
X18660000Y-6395500D02*
X18660000Y-6445500D01*
X18740000Y-6395500D02*
X18740000Y-6445500D01*
X18660000Y-6445500D02*
G75*
G03*
X18740000Y-6445500I40000J0D01*
G01*
X18740000Y-6395500D02*
G75*
G03*
X18660000Y-6395500I-40000J0D01*
G01*
X18932956Y-9509556D02*
X18932956Y-9438844D01*
X18862244Y-9438844D01*
X18862244Y-9509556D01*
X18932956Y-9509556D01*
X18932956Y-9763556D02*
X18932956Y-9692844D01*
X18862244Y-9692844D01*
X18862244Y-9763556D01*
X18932956Y-9763556D01*
X19186956Y-9509556D02*
X19186956Y-9438844D01*
X19116244Y-9438844D01*
X19116244Y-9509556D01*
X19186956Y-9509556D01*
X19186956Y-9763556D02*
X19186956Y-9692844D01*
X19116244Y-9692844D01*
X19116244Y-9763556D01*
X19186956Y-9763556D01*
X19440956Y-9509556D02*
X19440956Y-9438844D01*
X19370244Y-9438844D01*
X19370244Y-9509556D01*
X19440956Y-9509556D01*
X19440956Y-9763556D02*
X19440956Y-9692844D01*
X19370244Y-9692844D01*
X19370244Y-9763556D01*
X19440956Y-9763556D01*
X19694956Y-9509556D02*
X19694956Y-9438844D01*
X19624244Y-9438844D01*
X19624244Y-9509556D01*
X19694956Y-9509556D01*
X19694956Y-9763556D02*
X19694956Y-9692844D01*
X19624244Y-9692844D01*
X19624244Y-9763556D01*
X19694956Y-9763556D01*
X19948956Y-9509556D02*
X19948956Y-9438844D01*
X19878244Y-9438844D01*
X19878244Y-9509556D01*
X19948956Y-9509556D01*
X19948956Y-9763556D02*
X19948956Y-9692844D01*
X19878244Y-9692844D01*
X19878244Y-9763556D01*
X19948956Y-9763556D01*
X20025156Y-5547156D02*
X20025156Y-5476444D01*
X19954444Y-5476444D01*
X19954444Y-5547156D01*
X20025156Y-5547156D01*
X20202956Y-9509556D02*
X20202956Y-9438844D01*
X20132244Y-9438844D01*
X20132244Y-9509556D01*
X20202956Y-9509556D01*
X20202956Y-9763556D02*
X20202956Y-9692844D01*
X20132244Y-9692844D01*
X20132244Y-9763556D01*
X20202956Y-9763556D01*
X20279156Y-5547156D02*
X20279156Y-5476444D01*
X20208444Y-5476444D01*
X20208444Y-5547156D01*
X20279156Y-5547156D01*
X20533156Y-5547156D02*
X20533156Y-5476444D01*
X20462444Y-5476444D01*
X20462444Y-5547156D01*
X20533156Y-5547156D01*
X20787156Y-5547156D02*
X20787156Y-5476444D01*
X20716444Y-5476444D01*
X20716444Y-5547156D01*
X20787156Y-5547156D01*
X20914156Y-6944156D02*
X20914156Y-6873444D01*
X20843444Y-6873444D01*
X20843444Y-6944156D01*
X20914156Y-6944156D01*
X20914156Y-7198156D02*
X20914156Y-7127444D01*
X20843444Y-7127444D01*
X20843444Y-7198156D01*
X20914156Y-7198156D01*
X20914156Y-7452156D02*
X20914156Y-7381444D01*
X20843444Y-7381444D01*
X20843444Y-7452156D01*
X20914156Y-7452156D01*
X20914156Y-7706156D02*
X20914156Y-7635444D01*
X20843444Y-7635444D01*
X20843444Y-7706156D01*
X20914156Y-7706156D01*
X20914156Y-7960156D02*
X20914156Y-7889444D01*
X20843444Y-7889444D01*
X20843444Y-7960156D01*
X20914156Y-7960156D01*
X20914156Y-8214156D02*
X20914156Y-8143444D01*
X20843444Y-8143444D01*
X20843444Y-8214156D01*
X20914156Y-8214156D01*
X21168156Y-6944156D02*
X21168156Y-6873444D01*
X21097444Y-6873444D01*
X21097444Y-6944156D01*
X21168156Y-6944156D01*
X21168156Y-7198156D02*
X21168156Y-7127444D01*
X21097444Y-7127444D01*
X21097444Y-7198156D01*
X21168156Y-7198156D01*
X21168156Y-7452156D02*
X21168156Y-7381444D01*
X21097444Y-7381444D01*
X21097444Y-7452156D01*
X21168156Y-7452156D01*
X21168156Y-7706156D02*
X21168156Y-7635444D01*
X21097444Y-7635444D01*
X21097444Y-7706156D01*
X21168156Y-7706156D01*
X21168156Y-7960156D02*
X21168156Y-7889444D01*
X21097444Y-7889444D01*
X21097444Y-7960156D01*
X21168156Y-7960156D01*
X21168156Y-8214156D02*
X21168156Y-8143444D01*
X21097444Y-8143444D01*
X21097444Y-8214156D01*
X21168156Y-8214156D01*
X15623900Y-5670500D02*
X15683900Y-5610500D01*
X15623900Y-5550500D01*
X15563900Y-5610500D01*
X15623900Y-5670500D01*
X15573900Y-5595500D02*
X15573900Y-5625500D01*
X15673900Y-5595500D02*
X15673900Y-5625500D01*
X15573900Y-5625500D02*
G75*
G03*
X15673900Y-5625500I50000J0D01*
G01*
X15673900Y-5595500D02*
G75*
G03*
X15573900Y-5595500I-50000J0D01*
G01*
X16303900Y-5670500D02*
X16363900Y-5610500D01*
X16303900Y-5550500D01*
X16243900Y-5610500D01*
X16303900Y-5670500D01*
X16253900Y-5595500D02*
X16253900Y-5625500D01*
X16353900Y-5595500D02*
X16353900Y-5625500D01*
X16253900Y-5625500D02*
G75*
G03*
X16353900Y-5625500I50000J0D01*
G01*
X16353900Y-5595500D02*
G75*
G03*
X16253900Y-5595500I-50000J0D01*
G01*
X18075000Y-5670500D02*
X18135000Y-5610500D01*
X18075000Y-5550500D01*
X18015000Y-5610500D01*
X18075000Y-5670500D01*
X18025000Y-5595500D02*
X18025000Y-5625500D01*
X18125000Y-5595500D02*
X18125000Y-5625500D01*
X18025000Y-5625500D02*
G75*
G03*
X18125000Y-5625500I50000J0D01*
G01*
X18125000Y-5595500D02*
G75*
G03*
X18025000Y-5595500I-50000J0D01*
G01*
X18755000Y-5670500D02*
X18815000Y-5610500D01*
X18755000Y-5550500D01*
X18695000Y-5610500D01*
X18755000Y-5670500D01*
X18705000Y-5595500D02*
X18705000Y-5625500D01*
X18805000Y-5595500D02*
X18805000Y-5625500D01*
X18705000Y-5625500D02*
G75*
G03*
X18805000Y-5625500I50000J0D01*
G01*
X18805000Y-5595500D02*
G75*
G03*
X18705000Y-5595500I-50000J0D01*
G01*
X14606200Y-5741600D02*
X14756200Y-5891600D01*
X14756200Y-5741600D02*
X14606200Y-5891600D01*
X14756200Y-5816600D02*
G75*
G03*
X14756200Y-5816600I-75000J0D01*
G01*
X14606200Y-6656000D02*
X14756200Y-6806000D01*
X14756200Y-6656000D02*
X14606200Y-6806000D01*
X14756200Y-6731000D02*
G75*
G03*
X14756200Y-6731000I-75000J0D01*
G01*
X15520600Y-7900600D02*
X15670600Y-8050600D01*
X15670600Y-7900600D02*
X15520600Y-8050600D01*
X15670600Y-7975600D02*
G75*
G03*
X15670600Y-7975600I-75000J0D01*
G01*
X16485800Y-7900600D02*
X16635800Y-8050600D01*
X16635800Y-7900600D02*
X16485800Y-8050600D01*
X16635800Y-7975600D02*
G75*
G03*
X16635800Y-7975600I-75000J0D01*
G01*
X17171600Y-5741600D02*
X17321600Y-5891600D01*
X17321600Y-5741600D02*
X17171600Y-5891600D01*
X17321600Y-5816600D02*
G75*
G03*
X17321600Y-5816600I-75000J0D01*
G01*
X17171600Y-6656000D02*
X17321600Y-6806000D01*
X17321600Y-6656000D02*
X17171600Y-6806000D01*
X17321600Y-6731000D02*
G75*
G03*
X17321600Y-6731000I-75000J0D01*
G01*
X14342200Y-5477600D02*
X14512200Y-5647600D01*
X14512200Y-5477600D02*
X14342200Y-5647600D01*
X14427200Y-5477600D02*
X14427200Y-5647600D01*
X14342200Y-5562600D02*
X14512200Y-5562600D01*
X14342200Y-5985600D02*
X14512200Y-6155600D01*
X14512200Y-5985600D02*
X14342200Y-6155600D01*
X14427200Y-5985600D02*
X14427200Y-6155600D01*
X14342200Y-6070600D02*
X14512200Y-6070600D01*
X14342200Y-6392000D02*
X14512200Y-6562000D01*
X14512200Y-6392000D02*
X14342200Y-6562000D01*
X14427200Y-6392000D02*
X14427200Y-6562000D01*
X14342200Y-6477000D02*
X14512200Y-6477000D01*
X14342200Y-6900000D02*
X14512200Y-7070000D01*
X14512200Y-6900000D02*
X14342200Y-7070000D01*
X14427200Y-6900000D02*
X14427200Y-7070000D01*
X14342200Y-6985000D02*
X14512200Y-6985000D01*
X14850200Y-5477600D02*
X15020200Y-5647600D01*
X15020200Y-5477600D02*
X14850200Y-5647600D01*
X14935200Y-5477600D02*
X14935200Y-5647600D01*
X14850200Y-5562600D02*
X15020200Y-5562600D01*
X14850200Y-5985600D02*
X15020200Y-6155600D01*
X15020200Y-5985600D02*
X14850200Y-6155600D01*
X14935200Y-5985600D02*
X14935200Y-6155600D01*
X14850200Y-6070600D02*
X15020200Y-6070600D01*
X14850200Y-6392000D02*
X15020200Y-6562000D01*
X15020200Y-6392000D02*
X14850200Y-6562000D01*
X14935200Y-6392000D02*
X14935200Y-6562000D01*
X14850200Y-6477000D02*
X15020200Y-6477000D01*
X14850200Y-6900000D02*
X15020200Y-7070000D01*
X15020200Y-6900000D02*
X14850200Y-7070000D01*
X14935200Y-6900000D02*
X14935200Y-7070000D01*
X14850200Y-6985000D02*
X15020200Y-6985000D01*
X15256600Y-7636600D02*
X15426600Y-7806600D01*
X15426600Y-7636600D02*
X15256600Y-7806600D01*
X15341600Y-7636600D02*
X15341600Y-7806600D01*
X15256600Y-7721600D02*
X15426600Y-7721600D01*
X15256600Y-8144600D02*
X15426600Y-8314600D01*
X15426600Y-8144600D02*
X15256600Y-8314600D01*
X15341600Y-8144600D02*
X15341600Y-8314600D01*
X15256600Y-8229600D02*
X15426600Y-8229600D01*
X15764600Y-7636600D02*
X15934600Y-7806600D01*
X15934600Y-7636600D02*
X15764600Y-7806600D01*
X15849600Y-7636600D02*
X15849600Y-7806600D01*
X15764600Y-7721600D02*
X15934600Y-7721600D01*
X15764600Y-8144600D02*
X15934600Y-8314600D01*
X15934600Y-8144600D02*
X15764600Y-8314600D01*
X15849600Y-8144600D02*
X15849600Y-8314600D01*
X15764600Y-8229600D02*
X15934600Y-8229600D01*
X16221800Y-7636600D02*
X16391800Y-7806600D01*
X16391800Y-7636600D02*
X16221800Y-7806600D01*
X16306800Y-7636600D02*
X16306800Y-7806600D01*
X16221800Y-7721600D02*
X16391800Y-7721600D01*
X16221800Y-8144600D02*
X16391800Y-8314600D01*
X16391800Y-8144600D02*
X16221800Y-8314600D01*
X16306800Y-8144600D02*
X16306800Y-8314600D01*
X16221800Y-8229600D02*
X16391800Y-8229600D01*
X16729800Y-7636600D02*
X16899800Y-7806600D01*
X16899800Y-7636600D02*
X16729800Y-7806600D01*
X16814800Y-7636600D02*
X16814800Y-7806600D01*
X16729800Y-7721600D02*
X16899800Y-7721600D01*
X16729800Y-8144600D02*
X16899800Y-8314600D01*
X16899800Y-8144600D02*
X16729800Y-8314600D01*
X16814800Y-8144600D02*
X16814800Y-8314600D01*
X16729800Y-8229600D02*
X16899800Y-8229600D01*
X16907600Y-5477600D02*
X17077600Y-5647600D01*
X17077600Y-5477600D02*
X16907600Y-5647600D01*
X16992600Y-5477600D02*
X16992600Y-5647600D01*
X16907600Y-5562600D02*
X17077600Y-5562600D01*
X16907600Y-5985600D02*
X17077600Y-6155600D01*
X17077600Y-5985600D02*
X16907600Y-6155600D01*
X16992600Y-5985600D02*
X16992600Y-6155600D01*
X16907600Y-6070600D02*
X17077600Y-6070600D01*
X16907600Y-6392000D02*
X17077600Y-6562000D01*
X17077600Y-6392000D02*
X16907600Y-6562000D01*
X16992600Y-6392000D02*
X16992600Y-6562000D01*
X16907600Y-6477000D02*
X17077600Y-6477000D01*
X16907600Y-6900000D02*
X17077600Y-7070000D01*
X17077600Y-6900000D02*
X16907600Y-7070000D01*
X16992600Y-6900000D02*
X16992600Y-7070000D01*
X16907600Y-6985000D02*
X17077600Y-6985000D01*
X17415600Y-5477600D02*
X17585600Y-5647600D01*
X17585600Y-5477600D02*
X17415600Y-5647600D01*
X17500600Y-5477600D02*
X17500600Y-5647600D01*
X17415600Y-5562600D02*
X17585600Y-5562600D01*
X17415600Y-5985600D02*
X17585600Y-6155600D01*
X17585600Y-5985600D02*
X17415600Y-6155600D01*
X17500600Y-5985600D02*
X17500600Y-6155600D01*
X17415600Y-6070600D02*
X17585600Y-6070600D01*
X17415600Y-6392000D02*
X17585600Y-6562000D01*
X17585600Y-6392000D02*
X17415600Y-6562000D01*
X17500600Y-6392000D02*
X17500600Y-6562000D01*
X17415600Y-6477000D02*
X17585600Y-6477000D01*
X17415600Y-6900000D02*
X17585600Y-7070000D01*
X17585600Y-6900000D02*
X17415600Y-7070000D01*
X17500600Y-6900000D02*
X17500600Y-7070000D01*
X17415600Y-6985000D02*
X17585600Y-6985000D01*
D12*
X14283928Y-10568214D02*
X14283928Y-10268214D01*
X14355357Y-10268214D01*
X14398214Y-10282500D01*
X14426786Y-10311072D01*
X14441071Y-10339643D01*
X14455357Y-10396786D01*
X14455357Y-10439643D01*
X14441071Y-10496786D01*
X14426786Y-10525357D01*
X14398214Y-10553929D01*
X14355357Y-10568214D01*
X14283928Y-10568214D01*
X14583928Y-10568214D02*
X14583928Y-10368214D01*
X14583928Y-10425357D02*
X14598214Y-10396786D01*
X14612500Y-10382500D01*
X14641071Y-10368214D01*
X14669643Y-10368214D01*
X14769643Y-10568214D02*
X14769643Y-10368214D01*
X14769643Y-10268214D02*
X14755357Y-10282500D01*
X14769643Y-10296786D01*
X14783928Y-10282500D01*
X14769643Y-10268214D01*
X14769643Y-10296786D01*
X14955357Y-10568214D02*
X14926786Y-10553929D01*
X14912500Y-10525357D01*
X14912500Y-10268214D01*
X15112500Y-10568214D02*
X15083928Y-10553929D01*
X15069643Y-10525357D01*
X15069643Y-10268214D01*
X15455357Y-10568214D02*
X15455357Y-10268214D01*
X15555357Y-10482500D01*
X15655357Y-10268214D01*
X15655357Y-10568214D01*
X15926786Y-10568214D02*
X15926786Y-10411072D01*
X15912500Y-10382500D01*
X15883928Y-10368214D01*
X15826786Y-10368214D01*
X15798214Y-10382500D01*
X15926786Y-10553929D02*
X15898214Y-10568214D01*
X15826786Y-10568214D01*
X15798214Y-10553929D01*
X15783928Y-10525357D01*
X15783928Y-10496786D01*
X15798214Y-10468214D01*
X15826786Y-10453929D01*
X15898214Y-10453929D01*
X15926786Y-10439643D01*
X16069643Y-10368214D02*
X16069643Y-10668214D01*
X16069643Y-10382500D02*
X16098214Y-10368214D01*
X16155357Y-10368214D01*
X16183928Y-10382500D01*
X16198214Y-10396786D01*
X16212500Y-10425357D01*
X16212500Y-10511072D01*
X16198214Y-10539643D01*
X16183928Y-10553929D01*
X16155357Y-10568214D01*
X16098214Y-10568214D01*
X16069643Y-10553929D01*
X16341071Y-10539643D02*
X16355357Y-10553929D01*
X16341071Y-10568214D01*
X16326786Y-10553929D01*
X16341071Y-10539643D01*
X16341071Y-10568214D01*
X16341071Y-10382500D02*
X16355357Y-10396786D01*
X16341071Y-10411072D01*
X16326786Y-10396786D01*
X16341071Y-10382500D01*
X16341071Y-10411072D01*
X13977500Y-11052500D02*
X13997500Y-11072500D01*
X13997500Y-11052500D02*
X13977500Y-11072500D01*
X14341071Y-10898214D02*
X14369643Y-10898214D01*
X14398214Y-10912500D01*
X14412500Y-10926786D01*
X14426786Y-10955357D01*
X14441071Y-11012500D01*
X14441071Y-11083929D01*
X14426786Y-11141072D01*
X14412500Y-11169643D01*
X14398214Y-11183929D01*
X14369643Y-11198214D01*
X14341071Y-11198214D01*
X14312500Y-11183929D01*
X14298214Y-11169643D01*
X14283928Y-11141072D01*
X14269643Y-11083929D01*
X14269643Y-11012500D01*
X14283928Y-10955357D01*
X14298214Y-10926786D01*
X14312500Y-10912500D01*
X14341071Y-10898214D01*
X14569643Y-11169643D02*
X14583928Y-11183929D01*
X14569643Y-11198214D01*
X14555357Y-11183929D01*
X14569643Y-11169643D01*
X14569643Y-11198214D01*
X14698214Y-10926786D02*
X14712500Y-10912500D01*
X14741071Y-10898214D01*
X14812500Y-10898214D01*
X14841071Y-10912500D01*
X14855357Y-10926786D01*
X14869643Y-10955357D01*
X14869643Y-10983929D01*
X14855357Y-11026786D01*
X14683928Y-11198214D01*
X14869643Y-11198214D01*
X15055357Y-10898214D02*
X15083928Y-10898214D01*
X15112500Y-10912500D01*
X15126786Y-10926786D01*
X15141071Y-10955357D01*
X15155357Y-11012500D01*
X15155357Y-11083929D01*
X15141071Y-11141072D01*
X15126786Y-11169643D01*
X15112500Y-11183929D01*
X15083928Y-11198214D01*
X15055357Y-11198214D01*
X15026786Y-11183929D01*
X15012500Y-11169643D01*
X14998214Y-11141072D01*
X14983928Y-11083929D01*
X14983928Y-11012500D01*
X14998214Y-10955357D01*
X15012500Y-10926786D01*
X15026786Y-10912500D01*
X15055357Y-10898214D01*
X15283928Y-11198214D02*
X15283928Y-10998214D01*
X15283928Y-11026786D02*
X15298214Y-11012500D01*
X15326786Y-10998214D01*
X15369643Y-10998214D01*
X15398214Y-11012500D01*
X15412500Y-11041072D01*
X15412500Y-11198214D01*
X15412500Y-11041072D02*
X15426786Y-11012500D01*
X15455357Y-10998214D01*
X15498214Y-10998214D01*
X15526786Y-11012500D01*
X15541071Y-11041072D01*
X15541071Y-11198214D01*
X15683928Y-11198214D02*
X15683928Y-10998214D01*
X15683928Y-11026786D02*
X15698214Y-11012500D01*
X15726786Y-10998214D01*
X15769643Y-10998214D01*
X15798214Y-11012500D01*
X15812500Y-11041072D01*
X15812500Y-11198214D01*
X15812500Y-11041072D02*
X15826786Y-11012500D01*
X15855357Y-10998214D01*
X15898214Y-10998214D01*
X15926786Y-11012500D01*
X15941071Y-11041072D01*
X15941071Y-11198214D01*
X16526786Y-10883929D02*
X16269643Y-11269643D01*
X16912500Y-10898214D02*
X16941071Y-10898214D01*
X16969643Y-10912500D01*
X16983928Y-10926786D01*
X16998214Y-10955357D01*
X17012500Y-11012500D01*
X17012500Y-11083929D01*
X16998214Y-11141072D01*
X16983928Y-11169643D01*
X16969643Y-11183929D01*
X16941071Y-11198214D01*
X16912500Y-11198214D01*
X16883928Y-11183929D01*
X16869643Y-11169643D01*
X16855357Y-11141072D01*
X16841071Y-11083929D01*
X16841071Y-11012500D01*
X16855357Y-10955357D01*
X16869643Y-10926786D01*
X16883928Y-10912500D01*
X16912500Y-10898214D01*
X17141071Y-11169643D02*
X17155357Y-11183929D01*
X17141071Y-11198214D01*
X17126786Y-11183929D01*
X17141071Y-11169643D01*
X17141071Y-11198214D01*
X17341071Y-10898214D02*
X17369643Y-10898214D01*
X17398214Y-10912500D01*
X17412500Y-10926786D01*
X17426786Y-10955357D01*
X17441071Y-11012500D01*
X17441071Y-11083929D01*
X17426786Y-11141072D01*
X17412500Y-11169643D01*
X17398214Y-11183929D01*
X17369643Y-11198214D01*
X17341071Y-11198214D01*
X17312500Y-11183929D01*
X17298214Y-11169643D01*
X17283928Y-11141072D01*
X17269643Y-11083929D01*
X17269643Y-11012500D01*
X17283928Y-10955357D01*
X17298214Y-10926786D01*
X17312500Y-10912500D01*
X17341071Y-10898214D01*
X17626786Y-10898214D02*
X17655357Y-10898214D01*
X17683928Y-10912500D01*
X17698214Y-10926786D01*
X17712500Y-10955357D01*
X17726786Y-11012500D01*
X17726786Y-11083929D01*
X17712500Y-11141072D01*
X17698214Y-11169643D01*
X17683928Y-11183929D01*
X17655357Y-11198214D01*
X17626786Y-11198214D01*
X17598214Y-11183929D01*
X17583928Y-11169643D01*
X17569643Y-11141072D01*
X17555357Y-11083929D01*
X17555357Y-11012500D01*
X17569643Y-10955357D01*
X17583928Y-10926786D01*
X17598214Y-10912500D01*
X17626786Y-10898214D01*
X17898214Y-11026786D02*
X17869643Y-11012500D01*
X17855357Y-10998214D01*
X17841071Y-10969643D01*
X17841071Y-10955357D01*
X17855357Y-10926786D01*
X17869643Y-10912500D01*
X17898214Y-10898214D01*
X17955357Y-10898214D01*
X17983928Y-10912500D01*
X17998214Y-10926786D01*
X18012500Y-10955357D01*
X18012500Y-10969643D01*
X17998214Y-10998214D01*
X17983928Y-11012500D01*
X17955357Y-11026786D01*
X17898214Y-11026786D01*
X17869643Y-11041072D01*
X17855357Y-11055357D01*
X17841071Y-11083929D01*
X17841071Y-11141072D01*
X17855357Y-11169643D01*
X17869643Y-11183929D01*
X17898214Y-11198214D01*
X17955357Y-11198214D01*
X17983928Y-11183929D01*
X17998214Y-11169643D01*
X18012500Y-11141072D01*
X18012500Y-11083929D01*
X17998214Y-11055357D01*
X17983928Y-11041072D01*
X17955357Y-11026786D01*
X18126786Y-10898214D02*
X18126786Y-10955357D01*
X18241071Y-10898214D02*
X18241071Y-10955357D01*
X18683928Y-11312500D02*
X18669643Y-11298214D01*
X18641071Y-11255357D01*
X18626786Y-11226786D01*
X18612500Y-11183929D01*
X18598214Y-11112500D01*
X18598214Y-11055357D01*
X18612500Y-10983929D01*
X18626786Y-10941072D01*
X18641071Y-10912500D01*
X18669643Y-10869643D01*
X18683928Y-10855357D01*
X18812500Y-11198214D02*
X18869643Y-11198214D01*
X18898214Y-11183929D01*
X18912500Y-11169643D01*
X18941071Y-11126786D01*
X18955357Y-11069643D01*
X18955357Y-10955357D01*
X18941071Y-10926786D01*
X18926786Y-10912500D01*
X18898214Y-10898214D01*
X18841071Y-10898214D01*
X18812500Y-10912500D01*
X18798214Y-10926786D01*
X18783928Y-10955357D01*
X18783928Y-11026786D01*
X18798214Y-11055357D01*
X18812500Y-11069643D01*
X18841071Y-11083929D01*
X18898214Y-11083929D01*
X18926786Y-11069643D01*
X18941071Y-11055357D01*
X18955357Y-11026786D01*
X19312500Y-11198214D02*
X19312500Y-10898214D01*
X19441071Y-11198214D02*
X19441071Y-11041072D01*
X19426786Y-11012500D01*
X19398214Y-10998214D01*
X19355357Y-10998214D01*
X19326786Y-11012500D01*
X19312500Y-11026786D01*
X19626786Y-11198214D02*
X19598214Y-11183929D01*
X19583928Y-11169643D01*
X19569643Y-11141072D01*
X19569643Y-11055357D01*
X19583928Y-11026786D01*
X19598214Y-11012500D01*
X19626786Y-10998214D01*
X19669643Y-10998214D01*
X19698214Y-11012500D01*
X19712500Y-11026786D01*
X19726786Y-11055357D01*
X19726786Y-11141072D01*
X19712500Y-11169643D01*
X19698214Y-11183929D01*
X19669643Y-11198214D01*
X19626786Y-11198214D01*
X19898214Y-11198214D02*
X19869643Y-11183929D01*
X19855357Y-11155357D01*
X19855357Y-10898214D01*
X20126786Y-11183929D02*
X20098214Y-11198214D01*
X20041071Y-11198214D01*
X20012500Y-11183929D01*
X19998214Y-11155357D01*
X19998214Y-11041072D01*
X20012500Y-11012500D01*
X20041071Y-10998214D01*
X20098214Y-10998214D01*
X20126786Y-11012500D01*
X20141071Y-11041072D01*
X20141071Y-11069643D01*
X19998214Y-11098214D01*
X20255357Y-11183929D02*
X20283928Y-11198214D01*
X20341071Y-11198214D01*
X20369643Y-11183929D01*
X20383928Y-11155357D01*
X20383928Y-11141072D01*
X20369643Y-11112500D01*
X20341071Y-11098214D01*
X20298214Y-11098214D01*
X20269643Y-11083929D01*
X20255357Y-11055357D01*
X20255357Y-11041072D01*
X20269643Y-11012500D01*
X20298214Y-10998214D01*
X20341071Y-10998214D01*
X20369643Y-11012500D01*
X20483928Y-11312500D02*
X20498214Y-11298214D01*
X20526786Y-11255357D01*
X20541071Y-11226786D01*
X20555357Y-11183929D01*
X20569643Y-11112500D01*
X20569643Y-11055357D01*
X20555357Y-10983929D01*
X20541071Y-10941072D01*
X20526786Y-10912500D01*
X20498214Y-10869643D01*
X20483928Y-10855357D01*
X13997500Y-11458500D02*
G75*
G03*
X13997500Y-11458500I-15000J0D01*
G01*
X14341071Y-11294214D02*
X14369643Y-11294214D01*
X14398214Y-11308500D01*
X14412500Y-11322786D01*
X14426786Y-11351357D01*
X14441071Y-11408500D01*
X14441071Y-11479929D01*
X14426786Y-11537071D01*
X14412500Y-11565643D01*
X14398214Y-11579929D01*
X14369643Y-11594214D01*
X14341071Y-11594214D01*
X14312500Y-11579929D01*
X14298214Y-11565643D01*
X14283928Y-11537071D01*
X14269643Y-11479929D01*
X14269643Y-11408500D01*
X14283928Y-11351357D01*
X14298214Y-11322786D01*
X14312500Y-11308500D01*
X14341071Y-11294214D01*
X14569643Y-11565643D02*
X14583928Y-11579929D01*
X14569643Y-11594214D01*
X14555357Y-11579929D01*
X14569643Y-11565643D01*
X14569643Y-11594214D01*
X14683928Y-11294214D02*
X14869643Y-11294214D01*
X14769643Y-11408500D01*
X14812500Y-11408500D01*
X14841071Y-11422786D01*
X14855357Y-11437071D01*
X14869643Y-11465643D01*
X14869643Y-11537071D01*
X14855357Y-11565643D01*
X14841071Y-11579929D01*
X14812500Y-11594214D01*
X14726786Y-11594214D01*
X14698214Y-11579929D01*
X14683928Y-11565643D01*
X15055357Y-11294214D02*
X15083928Y-11294214D01*
X15112500Y-11308500D01*
X15126786Y-11322786D01*
X15141071Y-11351357D01*
X15155357Y-11408500D01*
X15155357Y-11479929D01*
X15141071Y-11537071D01*
X15126786Y-11565643D01*
X15112500Y-11579929D01*
X15083928Y-11594214D01*
X15055357Y-11594214D01*
X15026786Y-11579929D01*
X15012500Y-11565643D01*
X14998214Y-11537071D01*
X14983928Y-11479929D01*
X14983928Y-11408500D01*
X14998214Y-11351357D01*
X15012500Y-11322786D01*
X15026786Y-11308500D01*
X15055357Y-11294214D01*
X15283928Y-11594214D02*
X15283928Y-11394214D01*
X15283928Y-11422786D02*
X15298214Y-11408500D01*
X15326786Y-11394214D01*
X15369643Y-11394214D01*
X15398214Y-11408500D01*
X15412500Y-11437071D01*
X15412500Y-11594214D01*
X15412500Y-11437071D02*
X15426786Y-11408500D01*
X15455357Y-11394214D01*
X15498214Y-11394214D01*
X15526786Y-11408500D01*
X15541071Y-11437071D01*
X15541071Y-11594214D01*
X15683928Y-11594214D02*
X15683928Y-11394214D01*
X15683928Y-11422786D02*
X15698214Y-11408500D01*
X15726786Y-11394214D01*
X15769643Y-11394214D01*
X15798214Y-11408500D01*
X15812500Y-11437071D01*
X15812500Y-11594214D01*
X15812500Y-11437071D02*
X15826786Y-11408500D01*
X15855357Y-11394214D01*
X15898214Y-11394214D01*
X15926786Y-11408500D01*
X15941071Y-11437071D01*
X15941071Y-11594214D01*
X16526786Y-11279929D02*
X16269643Y-11665643D01*
X16912500Y-11294214D02*
X16941071Y-11294214D01*
X16969643Y-11308500D01*
X16983928Y-11322786D01*
X16998214Y-11351357D01*
X17012500Y-11408500D01*
X17012500Y-11479929D01*
X16998214Y-11537071D01*
X16983928Y-11565643D01*
X16969643Y-11579929D01*
X16941071Y-11594214D01*
X16912500Y-11594214D01*
X16883928Y-11579929D01*
X16869643Y-11565643D01*
X16855357Y-11537071D01*
X16841071Y-11479929D01*
X16841071Y-11408500D01*
X16855357Y-11351357D01*
X16869643Y-11322786D01*
X16883928Y-11308500D01*
X16912500Y-11294214D01*
X17141071Y-11565643D02*
X17155357Y-11579929D01*
X17141071Y-11594214D01*
X17126786Y-11579929D01*
X17141071Y-11565643D01*
X17141071Y-11594214D01*
X17341071Y-11294214D02*
X17369643Y-11294214D01*
X17398214Y-11308500D01*
X17412500Y-11322786D01*
X17426786Y-11351357D01*
X17441071Y-11408500D01*
X17441071Y-11479929D01*
X17426786Y-11537071D01*
X17412500Y-11565643D01*
X17398214Y-11579929D01*
X17369643Y-11594214D01*
X17341071Y-11594214D01*
X17312500Y-11579929D01*
X17298214Y-11565643D01*
X17283928Y-11537071D01*
X17269643Y-11479929D01*
X17269643Y-11408500D01*
X17283928Y-11351357D01*
X17298214Y-11322786D01*
X17312500Y-11308500D01*
X17341071Y-11294214D01*
X17726786Y-11594214D02*
X17555357Y-11594214D01*
X17641071Y-11594214D02*
X17641071Y-11294214D01*
X17612500Y-11337071D01*
X17583928Y-11365643D01*
X17555357Y-11379929D01*
X17841071Y-11322786D02*
X17855357Y-11308500D01*
X17883928Y-11294214D01*
X17955357Y-11294214D01*
X17983928Y-11308500D01*
X17998214Y-11322786D01*
X18012500Y-11351357D01*
X18012500Y-11379929D01*
X17998214Y-11422786D01*
X17826786Y-11594214D01*
X18012500Y-11594214D01*
X18126786Y-11294214D02*
X18126786Y-11351357D01*
X18241071Y-11294214D02*
X18241071Y-11351357D01*
X18683928Y-11708500D02*
X18669643Y-11694214D01*
X18641071Y-11651357D01*
X18626786Y-11622786D01*
X18612500Y-11579929D01*
X18598214Y-11508500D01*
X18598214Y-11451357D01*
X18612500Y-11379929D01*
X18626786Y-11337071D01*
X18641071Y-11308500D01*
X18669643Y-11265643D01*
X18683928Y-11251357D01*
X18955357Y-11594214D02*
X18783928Y-11594214D01*
X18869643Y-11594214D02*
X18869643Y-11294214D01*
X18841071Y-11337071D01*
X18812500Y-11365643D01*
X18783928Y-11379929D01*
X19069643Y-11322786D02*
X19083928Y-11308500D01*
X19112500Y-11294214D01*
X19183928Y-11294214D01*
X19212500Y-11308500D01*
X19226786Y-11322786D01*
X19241071Y-11351357D01*
X19241071Y-11379929D01*
X19226786Y-11422786D01*
X19055357Y-11594214D01*
X19241071Y-11594214D01*
X19512500Y-11294214D02*
X19369643Y-11294214D01*
X19355357Y-11437071D01*
X19369643Y-11422786D01*
X19398214Y-11408500D01*
X19469643Y-11408500D01*
X19498214Y-11422786D01*
X19512500Y-11437071D01*
X19526786Y-11465643D01*
X19526786Y-11537071D01*
X19512500Y-11565643D01*
X19498214Y-11579929D01*
X19469643Y-11594214D01*
X19398214Y-11594214D01*
X19369643Y-11579929D01*
X19355357Y-11565643D01*
X19883928Y-11594214D02*
X19883928Y-11294214D01*
X20012500Y-11594214D02*
X20012500Y-11437071D01*
X19998214Y-11408500D01*
X19969643Y-11394214D01*
X19926786Y-11394214D01*
X19898214Y-11408500D01*
X19883928Y-11422786D01*
X20198214Y-11594214D02*
X20169643Y-11579929D01*
X20155357Y-11565643D01*
X20141071Y-11537071D01*
X20141071Y-11451357D01*
X20155357Y-11422786D01*
X20169643Y-11408500D01*
X20198214Y-11394214D01*
X20241071Y-11394214D01*
X20269643Y-11408500D01*
X20283928Y-11422786D01*
X20298214Y-11451357D01*
X20298214Y-11537071D01*
X20283928Y-11565643D01*
X20269643Y-11579929D01*
X20241071Y-11594214D01*
X20198214Y-11594214D01*
X20469643Y-11594214D02*
X20441071Y-11579929D01*
X20426786Y-11551357D01*
X20426786Y-11294214D01*
X20698214Y-11579929D02*
X20669643Y-11594214D01*
X20612500Y-11594214D01*
X20583928Y-11579929D01*
X20569643Y-11551357D01*
X20569643Y-11437071D01*
X20583928Y-11408500D01*
X20612500Y-11394214D01*
X20669643Y-11394214D01*
X20698214Y-11408500D01*
X20712500Y-11437071D01*
X20712500Y-11465643D01*
X20569643Y-11494214D01*
X20826786Y-11579929D02*
X20855357Y-11594214D01*
X20912500Y-11594214D01*
X20941071Y-11579929D01*
X20955357Y-11551357D01*
X20955357Y-11537071D01*
X20941071Y-11508500D01*
X20912500Y-11494214D01*
X20869643Y-11494214D01*
X20841071Y-11479929D01*
X20826786Y-11451357D01*
X20826786Y-11437071D01*
X20841071Y-11408500D01*
X20869643Y-11394214D01*
X20912500Y-11394214D01*
X20941071Y-11408500D01*
X21055357Y-11708500D02*
X21069643Y-11694214D01*
X21098214Y-11651357D01*
X21112500Y-11622786D01*
X21126786Y-11579929D01*
X21141071Y-11508500D01*
X21141071Y-11451357D01*
X21126786Y-11379929D01*
X21112500Y-11337071D01*
X21098214Y-11308500D01*
X21069643Y-11265643D01*
X21055357Y-11251357D01*
X13972500Y-11829500D02*
X13972500Y-11879500D01*
X13947500Y-11854500D02*
X13997500Y-11854500D01*
X14341071Y-11690214D02*
X14369643Y-11690214D01*
X14398214Y-11704500D01*
X14412500Y-11718786D01*
X14426786Y-11747357D01*
X14441071Y-11804500D01*
X14441071Y-11875929D01*
X14426786Y-11933071D01*
X14412500Y-11961643D01*
X14398214Y-11975929D01*
X14369643Y-11990214D01*
X14341071Y-11990214D01*
X14312500Y-11975929D01*
X14298214Y-11961643D01*
X14283928Y-11933071D01*
X14269643Y-11875929D01*
X14269643Y-11804500D01*
X14283928Y-11747357D01*
X14298214Y-11718786D01*
X14312500Y-11704500D01*
X14341071Y-11690214D01*
X14569643Y-11961643D02*
X14583928Y-11975929D01*
X14569643Y-11990214D01*
X14555357Y-11975929D01*
X14569643Y-11961643D01*
X14569643Y-11990214D01*
X14855357Y-11690214D02*
X14712500Y-11690214D01*
X14698214Y-11833071D01*
X14712500Y-11818786D01*
X14741071Y-11804500D01*
X14812500Y-11804500D01*
X14841071Y-11818786D01*
X14855357Y-11833071D01*
X14869643Y-11861643D01*
X14869643Y-11933071D01*
X14855357Y-11961643D01*
X14841071Y-11975929D01*
X14812500Y-11990214D01*
X14741071Y-11990214D01*
X14712500Y-11975929D01*
X14698214Y-11961643D01*
X15055357Y-11690214D02*
X15083928Y-11690214D01*
X15112500Y-11704500D01*
X15126786Y-11718786D01*
X15141071Y-11747357D01*
X15155357Y-11804500D01*
X15155357Y-11875929D01*
X15141071Y-11933071D01*
X15126786Y-11961643D01*
X15112500Y-11975929D01*
X15083928Y-11990214D01*
X15055357Y-11990214D01*
X15026786Y-11975929D01*
X15012500Y-11961643D01*
X14998214Y-11933071D01*
X14983928Y-11875929D01*
X14983928Y-11804500D01*
X14998214Y-11747357D01*
X15012500Y-11718786D01*
X15026786Y-11704500D01*
X15055357Y-11690214D01*
X15283928Y-11990214D02*
X15283928Y-11790214D01*
X15283928Y-11818786D02*
X15298214Y-11804500D01*
X15326786Y-11790214D01*
X15369643Y-11790214D01*
X15398214Y-11804500D01*
X15412500Y-11833071D01*
X15412500Y-11990214D01*
X15412500Y-11833071D02*
X15426786Y-11804500D01*
X15455357Y-11790214D01*
X15498214Y-11790214D01*
X15526786Y-11804500D01*
X15541071Y-11833071D01*
X15541071Y-11990214D01*
X15683928Y-11990214D02*
X15683928Y-11790214D01*
X15683928Y-11818786D02*
X15698214Y-11804500D01*
X15726786Y-11790214D01*
X15769643Y-11790214D01*
X15798214Y-11804500D01*
X15812500Y-11833071D01*
X15812500Y-11990214D01*
X15812500Y-11833071D02*
X15826786Y-11804500D01*
X15855357Y-11790214D01*
X15898214Y-11790214D01*
X15926786Y-11804500D01*
X15941071Y-11833071D01*
X15941071Y-11990214D01*
X16526786Y-11675929D02*
X16269643Y-12061643D01*
X16912500Y-11690214D02*
X16941071Y-11690214D01*
X16969643Y-11704500D01*
X16983928Y-11718786D01*
X16998214Y-11747357D01*
X17012500Y-11804500D01*
X17012500Y-11875929D01*
X16998214Y-11933071D01*
X16983928Y-11961643D01*
X16969643Y-11975929D01*
X16941071Y-11990214D01*
X16912500Y-11990214D01*
X16883928Y-11975929D01*
X16869643Y-11961643D01*
X16855357Y-11933071D01*
X16841071Y-11875929D01*
X16841071Y-11804500D01*
X16855357Y-11747357D01*
X16869643Y-11718786D01*
X16883928Y-11704500D01*
X16912500Y-11690214D01*
X17141071Y-11961643D02*
X17155357Y-11975929D01*
X17141071Y-11990214D01*
X17126786Y-11975929D01*
X17141071Y-11961643D01*
X17141071Y-11990214D01*
X17341071Y-11690214D02*
X17369643Y-11690214D01*
X17398214Y-11704500D01*
X17412500Y-11718786D01*
X17426786Y-11747357D01*
X17441071Y-11804500D01*
X17441071Y-11875929D01*
X17426786Y-11933071D01*
X17412500Y-11961643D01*
X17398214Y-11975929D01*
X17369643Y-11990214D01*
X17341071Y-11990214D01*
X17312500Y-11975929D01*
X17298214Y-11961643D01*
X17283928Y-11933071D01*
X17269643Y-11875929D01*
X17269643Y-11804500D01*
X17283928Y-11747357D01*
X17298214Y-11718786D01*
X17312500Y-11704500D01*
X17341071Y-11690214D01*
X17555357Y-11718786D02*
X17569643Y-11704500D01*
X17598214Y-11690214D01*
X17669643Y-11690214D01*
X17698214Y-11704500D01*
X17712500Y-11718786D01*
X17726786Y-11747357D01*
X17726786Y-11775929D01*
X17712500Y-11818786D01*
X17541071Y-11990214D01*
X17726786Y-11990214D01*
X17912500Y-11690214D02*
X17941071Y-11690214D01*
X17969643Y-11704500D01*
X17983928Y-11718786D01*
X17998214Y-11747357D01*
X18012500Y-11804500D01*
X18012500Y-11875929D01*
X17998214Y-11933071D01*
X17983928Y-11961643D01*
X17969643Y-11975929D01*
X17941071Y-11990214D01*
X17912500Y-11990214D01*
X17883928Y-11975929D01*
X17869643Y-11961643D01*
X17855357Y-11933071D01*
X17841071Y-11875929D01*
X17841071Y-11804500D01*
X17855357Y-11747357D01*
X17869643Y-11718786D01*
X17883928Y-11704500D01*
X17912500Y-11690214D01*
X18126786Y-11690214D02*
X18126786Y-11747357D01*
X18241071Y-11690214D02*
X18241071Y-11747357D01*
X18683928Y-12104500D02*
X18669643Y-12090214D01*
X18641071Y-12047357D01*
X18626786Y-12018786D01*
X18612500Y-11975929D01*
X18598214Y-11904500D01*
X18598214Y-11847357D01*
X18612500Y-11775929D01*
X18626786Y-11733071D01*
X18641071Y-11704500D01*
X18669643Y-11661643D01*
X18683928Y-11647357D01*
X18955357Y-11990214D02*
X18783928Y-11990214D01*
X18869643Y-11990214D02*
X18869643Y-11690214D01*
X18841071Y-11733071D01*
X18812500Y-11761643D01*
X18783928Y-11775929D01*
X19312500Y-11990214D02*
X19312500Y-11690214D01*
X19441071Y-11990214D02*
X19441071Y-11833071D01*
X19426786Y-11804500D01*
X19398214Y-11790214D01*
X19355357Y-11790214D01*
X19326786Y-11804500D01*
X19312500Y-11818786D01*
X19626786Y-11990214D02*
X19598214Y-11975929D01*
X19583928Y-11961643D01*
X19569643Y-11933071D01*
X19569643Y-11847357D01*
X19583928Y-11818786D01*
X19598214Y-11804500D01*
X19626786Y-11790214D01*
X19669643Y-11790214D01*
X19698214Y-11804500D01*
X19712500Y-11818786D01*
X19726786Y-11847357D01*
X19726786Y-11933071D01*
X19712500Y-11961643D01*
X19698214Y-11975929D01*
X19669643Y-11990214D01*
X19626786Y-11990214D01*
X19898214Y-11990214D02*
X19869643Y-11975929D01*
X19855357Y-11947357D01*
X19855357Y-11690214D01*
X20126786Y-11975929D02*
X20098214Y-11990214D01*
X20041071Y-11990214D01*
X20012500Y-11975929D01*
X19998214Y-11947357D01*
X19998214Y-11833071D01*
X20012500Y-11804500D01*
X20041071Y-11790214D01*
X20098214Y-11790214D01*
X20126786Y-11804500D01*
X20141071Y-11833071D01*
X20141071Y-11861643D01*
X19998214Y-11890214D01*
X20241071Y-12104500D02*
X20255357Y-12090214D01*
X20283928Y-12047357D01*
X20298214Y-12018786D01*
X20312500Y-11975929D01*
X20326786Y-11904500D01*
X20326786Y-11847357D01*
X20312500Y-11775929D01*
X20298214Y-11733071D01*
X20283928Y-11704500D01*
X20255357Y-11661643D01*
X20241071Y-11647357D01*
X13982856Y-12285856D02*
X13982856Y-12215144D01*
X13912144Y-12215144D01*
X13912144Y-12285856D01*
X13982856Y-12285856D01*
X14441071Y-12386214D02*
X14269643Y-12386214D01*
X14355357Y-12386214D02*
X14355357Y-12086214D01*
X14326786Y-12129071D01*
X14298214Y-12157643D01*
X14269643Y-12171929D01*
X14569643Y-12357643D02*
X14583928Y-12371929D01*
X14569643Y-12386214D01*
X14555357Y-12371929D01*
X14569643Y-12357643D01*
X14569643Y-12386214D01*
X14769643Y-12086214D02*
X14798214Y-12086214D01*
X14826786Y-12100500D01*
X14841071Y-12114786D01*
X14855357Y-12143357D01*
X14869643Y-12200500D01*
X14869643Y-12271929D01*
X14855357Y-12329071D01*
X14841071Y-12357643D01*
X14826786Y-12371929D01*
X14798214Y-12386214D01*
X14769643Y-12386214D01*
X14741071Y-12371929D01*
X14726786Y-12357643D01*
X14712500Y-12329071D01*
X14698214Y-12271929D01*
X14698214Y-12200500D01*
X14712500Y-12143357D01*
X14726786Y-12114786D01*
X14741071Y-12100500D01*
X14769643Y-12086214D01*
X15055357Y-12086214D02*
X15083928Y-12086214D01*
X15112500Y-12100500D01*
X15126786Y-12114786D01*
X15141071Y-12143357D01*
X15155357Y-12200500D01*
X15155357Y-12271929D01*
X15141071Y-12329071D01*
X15126786Y-12357643D01*
X15112500Y-12371929D01*
X15083928Y-12386214D01*
X15055357Y-12386214D01*
X15026786Y-12371929D01*
X15012500Y-12357643D01*
X14998214Y-12329071D01*
X14983928Y-12271929D01*
X14983928Y-12200500D01*
X14998214Y-12143357D01*
X15012500Y-12114786D01*
X15026786Y-12100500D01*
X15055357Y-12086214D01*
X15283928Y-12386214D02*
X15283928Y-12186214D01*
X15283928Y-12214786D02*
X15298214Y-12200500D01*
X15326786Y-12186214D01*
X15369643Y-12186214D01*
X15398214Y-12200500D01*
X15412500Y-12229071D01*
X15412500Y-12386214D01*
X15412500Y-12229071D02*
X15426786Y-12200500D01*
X15455357Y-12186214D01*
X15498214Y-12186214D01*
X15526786Y-12200500D01*
X15541071Y-12229071D01*
X15541071Y-12386214D01*
X15683928Y-12386214D02*
X15683928Y-12186214D01*
X15683928Y-12214786D02*
X15698214Y-12200500D01*
X15726786Y-12186214D01*
X15769643Y-12186214D01*
X15798214Y-12200500D01*
X15812500Y-12229071D01*
X15812500Y-12386214D01*
X15812500Y-12229071D02*
X15826786Y-12200500D01*
X15855357Y-12186214D01*
X15898214Y-12186214D01*
X15926786Y-12200500D01*
X15941071Y-12229071D01*
X15941071Y-12386214D01*
X16526786Y-12071929D02*
X16269643Y-12457643D01*
X16912500Y-12086214D02*
X16941071Y-12086214D01*
X16969643Y-12100500D01*
X16983928Y-12114786D01*
X16998214Y-12143357D01*
X17012500Y-12200500D01*
X17012500Y-12271929D01*
X16998214Y-12329071D01*
X16983928Y-12357643D01*
X16969643Y-12371929D01*
X16941071Y-12386214D01*
X16912500Y-12386214D01*
X16883928Y-12371929D01*
X16869643Y-12357643D01*
X16855357Y-12329071D01*
X16841071Y-12271929D01*
X16841071Y-12200500D01*
X16855357Y-12143357D01*
X16869643Y-12114786D01*
X16883928Y-12100500D01*
X16912500Y-12086214D01*
X17141071Y-12357643D02*
X17155357Y-12371929D01*
X17141071Y-12386214D01*
X17126786Y-12371929D01*
X17141071Y-12357643D01*
X17141071Y-12386214D01*
X17341071Y-12086214D02*
X17369643Y-12086214D01*
X17398214Y-12100500D01*
X17412500Y-12114786D01*
X17426786Y-12143357D01*
X17441071Y-12200500D01*
X17441071Y-12271929D01*
X17426786Y-12329071D01*
X17412500Y-12357643D01*
X17398214Y-12371929D01*
X17369643Y-12386214D01*
X17341071Y-12386214D01*
X17312500Y-12371929D01*
X17298214Y-12357643D01*
X17283928Y-12329071D01*
X17269643Y-12271929D01*
X17269643Y-12200500D01*
X17283928Y-12143357D01*
X17298214Y-12114786D01*
X17312500Y-12100500D01*
X17341071Y-12086214D01*
X17541071Y-12086214D02*
X17726786Y-12086214D01*
X17626786Y-12200500D01*
X17669643Y-12200500D01*
X17698214Y-12214786D01*
X17712500Y-12229071D01*
X17726786Y-12257643D01*
X17726786Y-12329071D01*
X17712500Y-12357643D01*
X17698214Y-12371929D01*
X17669643Y-12386214D01*
X17583928Y-12386214D01*
X17555357Y-12371929D01*
X17541071Y-12357643D01*
X17869643Y-12386214D02*
X17926786Y-12386214D01*
X17955357Y-12371929D01*
X17969643Y-12357643D01*
X17998214Y-12314786D01*
X18012500Y-12257643D01*
X18012500Y-12143357D01*
X17998214Y-12114786D01*
X17983928Y-12100500D01*
X17955357Y-12086214D01*
X17898214Y-12086214D01*
X17869643Y-12100500D01*
X17855357Y-12114786D01*
X17841071Y-12143357D01*
X17841071Y-12214786D01*
X17855357Y-12243357D01*
X17869643Y-12257643D01*
X17898214Y-12271929D01*
X17955357Y-12271929D01*
X17983928Y-12257643D01*
X17998214Y-12243357D01*
X18012500Y-12214786D01*
X18126786Y-12086214D02*
X18126786Y-12143357D01*
X18241071Y-12086214D02*
X18241071Y-12143357D01*
X18683928Y-12500500D02*
X18669643Y-12486214D01*
X18641071Y-12443357D01*
X18626786Y-12414786D01*
X18612500Y-12371929D01*
X18598214Y-12300500D01*
X18598214Y-12243357D01*
X18612500Y-12171929D01*
X18626786Y-12129071D01*
X18641071Y-12100500D01*
X18669643Y-12057643D01*
X18683928Y-12043357D01*
X18941071Y-12086214D02*
X18798214Y-12086214D01*
X18783928Y-12229071D01*
X18798214Y-12214786D01*
X18826786Y-12200500D01*
X18898214Y-12200500D01*
X18926786Y-12214786D01*
X18941071Y-12229071D01*
X18955357Y-12257643D01*
X18955357Y-12329071D01*
X18941071Y-12357643D01*
X18926786Y-12371929D01*
X18898214Y-12386214D01*
X18826786Y-12386214D01*
X18798214Y-12371929D01*
X18783928Y-12357643D01*
X19212500Y-12086214D02*
X19155357Y-12086214D01*
X19126786Y-12100500D01*
X19112500Y-12114786D01*
X19083928Y-12157643D01*
X19069643Y-12214786D01*
X19069643Y-12329071D01*
X19083928Y-12357643D01*
X19098214Y-12371929D01*
X19126786Y-12386214D01*
X19183928Y-12386214D01*
X19212500Y-12371929D01*
X19226786Y-12357643D01*
X19241071Y-12329071D01*
X19241071Y-12257643D01*
X19226786Y-12229071D01*
X19212500Y-12214786D01*
X19183928Y-12200500D01*
X19126786Y-12200500D01*
X19098214Y-12214786D01*
X19083928Y-12229071D01*
X19069643Y-12257643D01*
X19598214Y-12386214D02*
X19598214Y-12086214D01*
X19726786Y-12386214D02*
X19726786Y-12229071D01*
X19712500Y-12200500D01*
X19683928Y-12186214D01*
X19641071Y-12186214D01*
X19612500Y-12200500D01*
X19598214Y-12214786D01*
X19912500Y-12386214D02*
X19883928Y-12371929D01*
X19869643Y-12357643D01*
X19855357Y-12329071D01*
X19855357Y-12243357D01*
X19869643Y-12214786D01*
X19883928Y-12200500D01*
X19912500Y-12186214D01*
X19955357Y-12186214D01*
X19983928Y-12200500D01*
X19998214Y-12214786D01*
X20012500Y-12243357D01*
X20012500Y-12329071D01*
X19998214Y-12357643D01*
X19983928Y-12371929D01*
X19955357Y-12386214D01*
X19912500Y-12386214D01*
X20183928Y-12386214D02*
X20155357Y-12371929D01*
X20141071Y-12343357D01*
X20141071Y-12086214D01*
X20412500Y-12371929D02*
X20383928Y-12386214D01*
X20326786Y-12386214D01*
X20298214Y-12371929D01*
X20283928Y-12343357D01*
X20283928Y-12229071D01*
X20298214Y-12200500D01*
X20326786Y-12186214D01*
X20383928Y-12186214D01*
X20412500Y-12200500D01*
X20426786Y-12229071D01*
X20426786Y-12257643D01*
X20283928Y-12286214D01*
X20541071Y-12371929D02*
X20569643Y-12386214D01*
X20626786Y-12386214D01*
X20655357Y-12371929D01*
X20669643Y-12343357D01*
X20669643Y-12329071D01*
X20655357Y-12300500D01*
X20626786Y-12286214D01*
X20583928Y-12286214D01*
X20555357Y-12271929D01*
X20541071Y-12243357D01*
X20541071Y-12229071D01*
X20555357Y-12200500D01*
X20583928Y-12186214D01*
X20626786Y-12186214D01*
X20655357Y-12200500D01*
X21026786Y-12271929D02*
X21255357Y-12271929D01*
X21141071Y-12386214D02*
X21141071Y-12157643D01*
X21755357Y-12086214D02*
X21698214Y-12086214D01*
X21669643Y-12100500D01*
X21655357Y-12114786D01*
X21626786Y-12157643D01*
X21612500Y-12214786D01*
X21612500Y-12329071D01*
X21626786Y-12357643D01*
X21641071Y-12371929D01*
X21669643Y-12386214D01*
X21726786Y-12386214D01*
X21755357Y-12371929D01*
X21769643Y-12357643D01*
X21783928Y-12329071D01*
X21783928Y-12257643D01*
X21769643Y-12229071D01*
X21755357Y-12214786D01*
X21726786Y-12200500D01*
X21669643Y-12200500D01*
X21641071Y-12214786D01*
X21626786Y-12229071D01*
X21612500Y-12257643D01*
X22126786Y-12371929D02*
X22155357Y-12386214D01*
X22212500Y-12386214D01*
X22241071Y-12371929D01*
X22255357Y-12343357D01*
X22255357Y-12329071D01*
X22241071Y-12300500D01*
X22212500Y-12286214D01*
X22169643Y-12286214D01*
X22141071Y-12271929D01*
X22126786Y-12243357D01*
X22126786Y-12229071D01*
X22141071Y-12200500D01*
X22169643Y-12186214D01*
X22212500Y-12186214D01*
X22241071Y-12200500D01*
X22426786Y-12386214D02*
X22398214Y-12371929D01*
X22383928Y-12343357D01*
X22383928Y-12086214D01*
X22583928Y-12386214D02*
X22555357Y-12371929D01*
X22541071Y-12357643D01*
X22526786Y-12329071D01*
X22526786Y-12243357D01*
X22541071Y-12214786D01*
X22555357Y-12200500D01*
X22583928Y-12186214D01*
X22626786Y-12186214D01*
X22655357Y-12200500D01*
X22669643Y-12214786D01*
X22683928Y-12243357D01*
X22683928Y-12329071D01*
X22669643Y-12357643D01*
X22655357Y-12371929D01*
X22626786Y-12386214D01*
X22583928Y-12386214D01*
X22769643Y-12186214D02*
X22883928Y-12186214D01*
X22812500Y-12086214D02*
X22812500Y-12343357D01*
X22826786Y-12371929D01*
X22855357Y-12386214D01*
X22883928Y-12386214D01*
X22969643Y-12371929D02*
X22998214Y-12386214D01*
X23055357Y-12386214D01*
X23083928Y-12371929D01*
X23098214Y-12343357D01*
X23098214Y-12329071D01*
X23083928Y-12300500D01*
X23055357Y-12286214D01*
X23012500Y-12286214D01*
X22983928Y-12271929D01*
X22969643Y-12243357D01*
X22969643Y-12229071D01*
X22983928Y-12200500D01*
X23012500Y-12186214D01*
X23055357Y-12186214D01*
X23083928Y-12200500D01*
X23198214Y-12500500D02*
X23212500Y-12486214D01*
X23241071Y-12443357D01*
X23255357Y-12414786D01*
X23269643Y-12371929D01*
X23283928Y-12300500D01*
X23283928Y-12243357D01*
X23269643Y-12171929D01*
X23255357Y-12129071D01*
X23241071Y-12100500D01*
X23212500Y-12057643D01*
X23198214Y-12043357D01*
X13937500Y-12706500D02*
X13997500Y-12646500D01*
X13937500Y-12586500D01*
X13877500Y-12646500D01*
X13937500Y-12706500D01*
X14441071Y-12782214D02*
X14269643Y-12782214D01*
X14355357Y-12782214D02*
X14355357Y-12482214D01*
X14326786Y-12525071D01*
X14298214Y-12553643D01*
X14269643Y-12567929D01*
X14569643Y-12753643D02*
X14583928Y-12767929D01*
X14569643Y-12782214D01*
X14555357Y-12767929D01*
X14569643Y-12753643D01*
X14569643Y-12782214D01*
X14698214Y-12510786D02*
X14712500Y-12496500D01*
X14741071Y-12482214D01*
X14812500Y-12482214D01*
X14841071Y-12496500D01*
X14855357Y-12510786D01*
X14869643Y-12539357D01*
X14869643Y-12567929D01*
X14855357Y-12610786D01*
X14683928Y-12782214D01*
X14869643Y-12782214D01*
X15055357Y-12482214D02*
X15083928Y-12482214D01*
X15112500Y-12496500D01*
X15126786Y-12510786D01*
X15141071Y-12539357D01*
X15155357Y-12596500D01*
X15155357Y-12667929D01*
X15141071Y-12725071D01*
X15126786Y-12753643D01*
X15112500Y-12767929D01*
X15083928Y-12782214D01*
X15055357Y-12782214D01*
X15026786Y-12767929D01*
X15012500Y-12753643D01*
X14998214Y-12725071D01*
X14983928Y-12667929D01*
X14983928Y-12596500D01*
X14998214Y-12539357D01*
X15012500Y-12510786D01*
X15026786Y-12496500D01*
X15055357Y-12482214D01*
X15283928Y-12782214D02*
X15283928Y-12582214D01*
X15283928Y-12610786D02*
X15298214Y-12596500D01*
X15326786Y-12582214D01*
X15369643Y-12582214D01*
X15398214Y-12596500D01*
X15412500Y-12625071D01*
X15412500Y-12782214D01*
X15412500Y-12625071D02*
X15426786Y-12596500D01*
X15455357Y-12582214D01*
X15498214Y-12582214D01*
X15526786Y-12596500D01*
X15541071Y-12625071D01*
X15541071Y-12782214D01*
X15683928Y-12782214D02*
X15683928Y-12582214D01*
X15683928Y-12610786D02*
X15698214Y-12596500D01*
X15726786Y-12582214D01*
X15769643Y-12582214D01*
X15798214Y-12596500D01*
X15812500Y-12625071D01*
X15812500Y-12782214D01*
X15812500Y-12625071D02*
X15826786Y-12596500D01*
X15855357Y-12582214D01*
X15898214Y-12582214D01*
X15926786Y-12596500D01*
X15941071Y-12625071D01*
X15941071Y-12782214D01*
X16526786Y-12467929D02*
X16269643Y-12853643D01*
X16912500Y-12482214D02*
X16941071Y-12482214D01*
X16969643Y-12496500D01*
X16983928Y-12510786D01*
X16998214Y-12539357D01*
X17012500Y-12596500D01*
X17012500Y-12667929D01*
X16998214Y-12725071D01*
X16983928Y-12753643D01*
X16969643Y-12767929D01*
X16941071Y-12782214D01*
X16912500Y-12782214D01*
X16883928Y-12767929D01*
X16869643Y-12753643D01*
X16855357Y-12725071D01*
X16841071Y-12667929D01*
X16841071Y-12596500D01*
X16855357Y-12539357D01*
X16869643Y-12510786D01*
X16883928Y-12496500D01*
X16912500Y-12482214D01*
X17141071Y-12753643D02*
X17155357Y-12767929D01*
X17141071Y-12782214D01*
X17126786Y-12767929D01*
X17141071Y-12753643D01*
X17141071Y-12782214D01*
X17341071Y-12482214D02*
X17369643Y-12482214D01*
X17398214Y-12496500D01*
X17412500Y-12510786D01*
X17426786Y-12539357D01*
X17441071Y-12596500D01*
X17441071Y-12667929D01*
X17426786Y-12725071D01*
X17412500Y-12753643D01*
X17398214Y-12767929D01*
X17369643Y-12782214D01*
X17341071Y-12782214D01*
X17312500Y-12767929D01*
X17298214Y-12753643D01*
X17283928Y-12725071D01*
X17269643Y-12667929D01*
X17269643Y-12596500D01*
X17283928Y-12539357D01*
X17298214Y-12510786D01*
X17312500Y-12496500D01*
X17341071Y-12482214D01*
X17698214Y-12582214D02*
X17698214Y-12782214D01*
X17626786Y-12467929D02*
X17555357Y-12682214D01*
X17741071Y-12682214D01*
X17826786Y-12482214D02*
X18026786Y-12482214D01*
X17898214Y-12782214D01*
X18126786Y-12482214D02*
X18126786Y-12539357D01*
X18241071Y-12482214D02*
X18241071Y-12539357D01*
X18683928Y-12896500D02*
X18669643Y-12882214D01*
X18641071Y-12839357D01*
X18626786Y-12810786D01*
X18612500Y-12767929D01*
X18598214Y-12696500D01*
X18598214Y-12639357D01*
X18612500Y-12567929D01*
X18626786Y-12525071D01*
X18641071Y-12496500D01*
X18669643Y-12453643D01*
X18683928Y-12439357D01*
X18855357Y-12482214D02*
X18883928Y-12482214D01*
X18912500Y-12496500D01*
X18926786Y-12510786D01*
X18941071Y-12539357D01*
X18955357Y-12596500D01*
X18955357Y-12667929D01*
X18941071Y-12725071D01*
X18926786Y-12753643D01*
X18912500Y-12767929D01*
X18883928Y-12782214D01*
X18855357Y-12782214D01*
X18826786Y-12767929D01*
X18812500Y-12753643D01*
X18798214Y-12725071D01*
X18783928Y-12667929D01*
X18783928Y-12596500D01*
X18798214Y-12539357D01*
X18812500Y-12510786D01*
X18826786Y-12496500D01*
X18855357Y-12482214D01*
X19312500Y-12782214D02*
X19312500Y-12482214D01*
X19441071Y-12782214D02*
X19441071Y-12625071D01*
X19426786Y-12596500D01*
X19398214Y-12582214D01*
X19355357Y-12582214D01*
X19326786Y-12596500D01*
X19312500Y-12610786D01*
X19626786Y-12782214D02*
X19598214Y-12767929D01*
X19583928Y-12753643D01*
X19569643Y-12725071D01*
X19569643Y-12639357D01*
X19583928Y-12610786D01*
X19598214Y-12596500D01*
X19626786Y-12582214D01*
X19669643Y-12582214D01*
X19698214Y-12596500D01*
X19712500Y-12610786D01*
X19726786Y-12639357D01*
X19726786Y-12725071D01*
X19712500Y-12753643D01*
X19698214Y-12767929D01*
X19669643Y-12782214D01*
X19626786Y-12782214D01*
X19898214Y-12782214D02*
X19869643Y-12767929D01*
X19855357Y-12739357D01*
X19855357Y-12482214D01*
X20126786Y-12767929D02*
X20098214Y-12782214D01*
X20041071Y-12782214D01*
X20012500Y-12767929D01*
X19998214Y-12739357D01*
X19998214Y-12625071D01*
X20012500Y-12596500D01*
X20041071Y-12582214D01*
X20098214Y-12582214D01*
X20126786Y-12596500D01*
X20141071Y-12625071D01*
X20141071Y-12653643D01*
X19998214Y-12682214D01*
X20255357Y-12767929D02*
X20283928Y-12782214D01*
X20341071Y-12782214D01*
X20369643Y-12767929D01*
X20383928Y-12739357D01*
X20383928Y-12725071D01*
X20369643Y-12696500D01*
X20341071Y-12682214D01*
X20298214Y-12682214D01*
X20269643Y-12667929D01*
X20255357Y-12639357D01*
X20255357Y-12625071D01*
X20269643Y-12596500D01*
X20298214Y-12582214D01*
X20341071Y-12582214D01*
X20369643Y-12596500D01*
X20741071Y-12667929D02*
X20969643Y-12667929D01*
X20855357Y-12782214D02*
X20855357Y-12553643D01*
X21469643Y-12582214D02*
X21469643Y-12782214D01*
X21398214Y-12467929D02*
X21326786Y-12682214D01*
X21512500Y-12682214D01*
X21841071Y-12767929D02*
X21869643Y-12782214D01*
X21926786Y-12782214D01*
X21955357Y-12767929D01*
X21969643Y-12739357D01*
X21969643Y-12725071D01*
X21955357Y-12696500D01*
X21926786Y-12682214D01*
X21883928Y-12682214D01*
X21855357Y-12667929D01*
X21841071Y-12639357D01*
X21841071Y-12625071D01*
X21855357Y-12596500D01*
X21883928Y-12582214D01*
X21926786Y-12582214D01*
X21955357Y-12596500D01*
X22141071Y-12782214D02*
X22112500Y-12767929D01*
X22098214Y-12739357D01*
X22098214Y-12482214D01*
X22298214Y-12782214D02*
X22269643Y-12767929D01*
X22255357Y-12753643D01*
X22241071Y-12725071D01*
X22241071Y-12639357D01*
X22255357Y-12610786D01*
X22269643Y-12596500D01*
X22298214Y-12582214D01*
X22341071Y-12582214D01*
X22369643Y-12596500D01*
X22383928Y-12610786D01*
X22398214Y-12639357D01*
X22398214Y-12725071D01*
X22383928Y-12753643D01*
X22369643Y-12767929D01*
X22341071Y-12782214D01*
X22298214Y-12782214D01*
X22483928Y-12582214D02*
X22598214Y-12582214D01*
X22526786Y-12482214D02*
X22526786Y-12739357D01*
X22541071Y-12767929D01*
X22569643Y-12782214D01*
X22598214Y-12782214D01*
X22683928Y-12767929D02*
X22712500Y-12782214D01*
X22769643Y-12782214D01*
X22798214Y-12767929D01*
X22812500Y-12739357D01*
X22812500Y-12725071D01*
X22798214Y-12696500D01*
X22769643Y-12682214D01*
X22726786Y-12682214D01*
X22698214Y-12667929D01*
X22683928Y-12639357D01*
X22683928Y-12625071D01*
X22698214Y-12596500D01*
X22726786Y-12582214D01*
X22769643Y-12582214D01*
X22798214Y-12596500D01*
X22912500Y-12896500D02*
X22926786Y-12882214D01*
X22955357Y-12839357D01*
X22969643Y-12810786D01*
X22983928Y-12767929D01*
X22998214Y-12696500D01*
X22998214Y-12639357D01*
X22983928Y-12567929D01*
X22969643Y-12525071D01*
X22955357Y-12496500D01*
X22926786Y-12453643D01*
X22912500Y-12439357D01*
X13847500Y-12967500D02*
X13997500Y-13117500D01*
X13997500Y-12967500D02*
X13847500Y-13117500D01*
X13997500Y-13042500D02*
G75*
G03*
X13997500Y-13042500I-75000J0D01*
G01*
X14441071Y-13178214D02*
X14269643Y-13178214D01*
X14355357Y-13178214D02*
X14355357Y-12878214D01*
X14326786Y-12921071D01*
X14298214Y-12949643D01*
X14269643Y-12963929D01*
X14569643Y-13149643D02*
X14583928Y-13163929D01*
X14569643Y-13178214D01*
X14555357Y-13163929D01*
X14569643Y-13149643D01*
X14569643Y-13178214D01*
X14855357Y-12878214D02*
X14712500Y-12878214D01*
X14698214Y-13021071D01*
X14712500Y-13006786D01*
X14741071Y-12992500D01*
X14812500Y-12992500D01*
X14841071Y-13006786D01*
X14855357Y-13021071D01*
X14869643Y-13049643D01*
X14869643Y-13121071D01*
X14855357Y-13149643D01*
X14841071Y-13163929D01*
X14812500Y-13178214D01*
X14741071Y-13178214D01*
X14712500Y-13163929D01*
X14698214Y-13149643D01*
X15055357Y-12878214D02*
X15083928Y-12878214D01*
X15112500Y-12892500D01*
X15126786Y-12906786D01*
X15141071Y-12935357D01*
X15155357Y-12992500D01*
X15155357Y-13063929D01*
X15141071Y-13121071D01*
X15126786Y-13149643D01*
X15112500Y-13163929D01*
X15083928Y-13178214D01*
X15055357Y-13178214D01*
X15026786Y-13163929D01*
X15012500Y-13149643D01*
X14998214Y-13121071D01*
X14983928Y-13063929D01*
X14983928Y-12992500D01*
X14998214Y-12935357D01*
X15012500Y-12906786D01*
X15026786Y-12892500D01*
X15055357Y-12878214D01*
X15283928Y-13178214D02*
X15283928Y-12978214D01*
X15283928Y-13006786D02*
X15298214Y-12992500D01*
X15326786Y-12978214D01*
X15369643Y-12978214D01*
X15398214Y-12992500D01*
X15412500Y-13021071D01*
X15412500Y-13178214D01*
X15412500Y-13021071D02*
X15426786Y-12992500D01*
X15455357Y-12978214D01*
X15498214Y-12978214D01*
X15526786Y-12992500D01*
X15541071Y-13021071D01*
X15541071Y-13178214D01*
X15683928Y-13178214D02*
X15683928Y-12978214D01*
X15683928Y-13006786D02*
X15698214Y-12992500D01*
X15726786Y-12978214D01*
X15769643Y-12978214D01*
X15798214Y-12992500D01*
X15812500Y-13021071D01*
X15812500Y-13178214D01*
X15812500Y-13021071D02*
X15826786Y-12992500D01*
X15855357Y-12978214D01*
X15898214Y-12978214D01*
X15926786Y-12992500D01*
X15941071Y-13021071D01*
X15941071Y-13178214D01*
X16526786Y-12863929D02*
X16269643Y-13249643D01*
X16912500Y-12878214D02*
X16941071Y-12878214D01*
X16969643Y-12892500D01*
X16983928Y-12906786D01*
X16998214Y-12935357D01*
X17012500Y-12992500D01*
X17012500Y-13063929D01*
X16998214Y-13121071D01*
X16983928Y-13149643D01*
X16969643Y-13163929D01*
X16941071Y-13178214D01*
X16912500Y-13178214D01*
X16883928Y-13163929D01*
X16869643Y-13149643D01*
X16855357Y-13121071D01*
X16841071Y-13063929D01*
X16841071Y-12992500D01*
X16855357Y-12935357D01*
X16869643Y-12906786D01*
X16883928Y-12892500D01*
X16912500Y-12878214D01*
X17141071Y-13149643D02*
X17155357Y-13163929D01*
X17141071Y-13178214D01*
X17126786Y-13163929D01*
X17141071Y-13149643D01*
X17141071Y-13178214D01*
X17341071Y-12878214D02*
X17369643Y-12878214D01*
X17398214Y-12892500D01*
X17412500Y-12906786D01*
X17426786Y-12935357D01*
X17441071Y-12992500D01*
X17441071Y-13063929D01*
X17426786Y-13121071D01*
X17412500Y-13149643D01*
X17398214Y-13163929D01*
X17369643Y-13178214D01*
X17341071Y-13178214D01*
X17312500Y-13163929D01*
X17298214Y-13149643D01*
X17283928Y-13121071D01*
X17269643Y-13063929D01*
X17269643Y-12992500D01*
X17283928Y-12935357D01*
X17298214Y-12906786D01*
X17312500Y-12892500D01*
X17341071Y-12878214D01*
X17712500Y-12878214D02*
X17569643Y-12878214D01*
X17555357Y-13021071D01*
X17569643Y-13006786D01*
X17598214Y-12992500D01*
X17669643Y-12992500D01*
X17698214Y-13006786D01*
X17712500Y-13021071D01*
X17726786Y-13049643D01*
X17726786Y-13121071D01*
X17712500Y-13149643D01*
X17698214Y-13163929D01*
X17669643Y-13178214D01*
X17598214Y-13178214D01*
X17569643Y-13163929D01*
X17555357Y-13149643D01*
X17869643Y-13178214D02*
X17926786Y-13178214D01*
X17955357Y-13163929D01*
X17969643Y-13149643D01*
X17998214Y-13106786D01*
X18012500Y-13049643D01*
X18012500Y-12935357D01*
X17998214Y-12906786D01*
X17983928Y-12892500D01*
X17955357Y-12878214D01*
X17898214Y-12878214D01*
X17869643Y-12892500D01*
X17855357Y-12906786D01*
X17841071Y-12935357D01*
X17841071Y-13006786D01*
X17855357Y-13035357D01*
X17869643Y-13049643D01*
X17898214Y-13063929D01*
X17955357Y-13063929D01*
X17983928Y-13049643D01*
X17998214Y-13035357D01*
X18012500Y-13006786D01*
X18126786Y-12878214D02*
X18126786Y-12935357D01*
X18241071Y-12878214D02*
X18241071Y-12935357D01*
X18683928Y-13292500D02*
X18669643Y-13278214D01*
X18641071Y-13235357D01*
X18626786Y-13206786D01*
X18612500Y-13163929D01*
X18598214Y-13092500D01*
X18598214Y-13035357D01*
X18612500Y-12963929D01*
X18626786Y-12921071D01*
X18641071Y-12892500D01*
X18669643Y-12849643D01*
X18683928Y-12835357D01*
X18926786Y-12878214D02*
X18869643Y-12878214D01*
X18841071Y-12892500D01*
X18826786Y-12906786D01*
X18798214Y-12949643D01*
X18783928Y-13006786D01*
X18783928Y-13121071D01*
X18798214Y-13149643D01*
X18812500Y-13163929D01*
X18841071Y-13178214D01*
X18898214Y-13178214D01*
X18926786Y-13163929D01*
X18941071Y-13149643D01*
X18955357Y-13121071D01*
X18955357Y-13049643D01*
X18941071Y-13021071D01*
X18926786Y-13006786D01*
X18898214Y-12992500D01*
X18841071Y-12992500D01*
X18812500Y-13006786D01*
X18798214Y-13021071D01*
X18783928Y-13049643D01*
X19312500Y-13178214D02*
X19312500Y-12878214D01*
X19441071Y-13178214D02*
X19441071Y-13021071D01*
X19426786Y-12992500D01*
X19398214Y-12978214D01*
X19355357Y-12978214D01*
X19326786Y-12992500D01*
X19312500Y-13006786D01*
X19626786Y-13178214D02*
X19598214Y-13163929D01*
X19583928Y-13149643D01*
X19569643Y-13121071D01*
X19569643Y-13035357D01*
X19583928Y-13006786D01*
X19598214Y-12992500D01*
X19626786Y-12978214D01*
X19669643Y-12978214D01*
X19698214Y-12992500D01*
X19712500Y-13006786D01*
X19726786Y-13035357D01*
X19726786Y-13121071D01*
X19712500Y-13149643D01*
X19698214Y-13163929D01*
X19669643Y-13178214D01*
X19626786Y-13178214D01*
X19898214Y-13178214D02*
X19869643Y-13163929D01*
X19855357Y-13135357D01*
X19855357Y-12878214D01*
X20126786Y-13163929D02*
X20098214Y-13178214D01*
X20041071Y-13178214D01*
X20012500Y-13163929D01*
X19998214Y-13135357D01*
X19998214Y-13021071D01*
X20012500Y-12992500D01*
X20041071Y-12978214D01*
X20098214Y-12978214D01*
X20126786Y-12992500D01*
X20141071Y-13021071D01*
X20141071Y-13049643D01*
X19998214Y-13078214D01*
X20255357Y-13163929D02*
X20283928Y-13178214D01*
X20341071Y-13178214D01*
X20369643Y-13163929D01*
X20383928Y-13135357D01*
X20383928Y-13121071D01*
X20369643Y-13092500D01*
X20341071Y-13078214D01*
X20298214Y-13078214D01*
X20269643Y-13063929D01*
X20255357Y-13035357D01*
X20255357Y-13021071D01*
X20269643Y-12992500D01*
X20298214Y-12978214D01*
X20341071Y-12978214D01*
X20369643Y-12992500D01*
X20483928Y-13292500D02*
X20498214Y-13278214D01*
X20526786Y-13235357D01*
X20541071Y-13206786D01*
X20555357Y-13163929D01*
X20569643Y-13092500D01*
X20569643Y-13035357D01*
X20555357Y-12963929D01*
X20541071Y-12921071D01*
X20526786Y-12892500D01*
X20498214Y-12849643D01*
X20483928Y-12835357D01*
X13827500Y-13353500D02*
X13997500Y-13523500D01*
X13997500Y-13353500D02*
X13827500Y-13523500D01*
X13912500Y-13353500D02*
X13912500Y-13523500D01*
X13827500Y-13438500D02*
X13997500Y-13438500D01*
X14441071Y-13574214D02*
X14269643Y-13574214D01*
X14355357Y-13574214D02*
X14355357Y-13274214D01*
X14326786Y-13317071D01*
X14298214Y-13345643D01*
X14269643Y-13359929D01*
X14569643Y-13545643D02*
X14583928Y-13559929D01*
X14569643Y-13574214D01*
X14555357Y-13559929D01*
X14569643Y-13545643D01*
X14569643Y-13574214D01*
X14683928Y-13274214D02*
X14883928Y-13274214D01*
X14755357Y-13574214D01*
X15055357Y-13274214D02*
X15083928Y-13274214D01*
X15112500Y-13288500D01*
X15126786Y-13302786D01*
X15141071Y-13331357D01*
X15155357Y-13388500D01*
X15155357Y-13459929D01*
X15141071Y-13517071D01*
X15126786Y-13545643D01*
X15112500Y-13559929D01*
X15083928Y-13574214D01*
X15055357Y-13574214D01*
X15026786Y-13559929D01*
X15012500Y-13545643D01*
X14998214Y-13517071D01*
X14983928Y-13459929D01*
X14983928Y-13388500D01*
X14998214Y-13331357D01*
X15012500Y-13302786D01*
X15026786Y-13288500D01*
X15055357Y-13274214D01*
X15283928Y-13574214D02*
X15283928Y-13374214D01*
X15283928Y-13402786D02*
X15298214Y-13388500D01*
X15326786Y-13374214D01*
X15369643Y-13374214D01*
X15398214Y-13388500D01*
X15412500Y-13417071D01*
X15412500Y-13574214D01*
X15412500Y-13417071D02*
X15426786Y-13388500D01*
X15455357Y-13374214D01*
X15498214Y-13374214D01*
X15526786Y-13388500D01*
X15541071Y-13417071D01*
X15541071Y-13574214D01*
X15683928Y-13574214D02*
X15683928Y-13374214D01*
X15683928Y-13402786D02*
X15698214Y-13388500D01*
X15726786Y-13374214D01*
X15769643Y-13374214D01*
X15798214Y-13388500D01*
X15812500Y-13417071D01*
X15812500Y-13574214D01*
X15812500Y-13417071D02*
X15826786Y-13388500D01*
X15855357Y-13374214D01*
X15898214Y-13374214D01*
X15926786Y-13388500D01*
X15941071Y-13417071D01*
X15941071Y-13574214D01*
X16526786Y-13259929D02*
X16269643Y-13645643D01*
X16912500Y-13274214D02*
X16941071Y-13274214D01*
X16969643Y-13288500D01*
X16983928Y-13302786D01*
X16998214Y-13331357D01*
X17012500Y-13388500D01*
X17012500Y-13459929D01*
X16998214Y-13517071D01*
X16983928Y-13545643D01*
X16969643Y-13559929D01*
X16941071Y-13574214D01*
X16912500Y-13574214D01*
X16883928Y-13559929D01*
X16869643Y-13545643D01*
X16855357Y-13517071D01*
X16841071Y-13459929D01*
X16841071Y-13388500D01*
X16855357Y-13331357D01*
X16869643Y-13302786D01*
X16883928Y-13288500D01*
X16912500Y-13274214D01*
X17141071Y-13545643D02*
X17155357Y-13559929D01*
X17141071Y-13574214D01*
X17126786Y-13559929D01*
X17141071Y-13545643D01*
X17141071Y-13574214D01*
X17341071Y-13274214D02*
X17369643Y-13274214D01*
X17398214Y-13288500D01*
X17412500Y-13302786D01*
X17426786Y-13331357D01*
X17441071Y-13388500D01*
X17441071Y-13459929D01*
X17426786Y-13517071D01*
X17412500Y-13545643D01*
X17398214Y-13559929D01*
X17369643Y-13574214D01*
X17341071Y-13574214D01*
X17312500Y-13559929D01*
X17298214Y-13545643D01*
X17283928Y-13517071D01*
X17269643Y-13459929D01*
X17269643Y-13388500D01*
X17283928Y-13331357D01*
X17298214Y-13302786D01*
X17312500Y-13288500D01*
X17341071Y-13274214D01*
X17698214Y-13274214D02*
X17641071Y-13274214D01*
X17612500Y-13288500D01*
X17598214Y-13302786D01*
X17569643Y-13345643D01*
X17555357Y-13402786D01*
X17555357Y-13517071D01*
X17569643Y-13545643D01*
X17583928Y-13559929D01*
X17612500Y-13574214D01*
X17669643Y-13574214D01*
X17698214Y-13559929D01*
X17712500Y-13545643D01*
X17726786Y-13517071D01*
X17726786Y-13445643D01*
X17712500Y-13417071D01*
X17698214Y-13402786D01*
X17669643Y-13388500D01*
X17612500Y-13388500D01*
X17583928Y-13402786D01*
X17569643Y-13417071D01*
X17555357Y-13445643D01*
X17826786Y-13274214D02*
X18026786Y-13274214D01*
X17898214Y-13574214D01*
X18126786Y-13274214D02*
X18126786Y-13331357D01*
X18241071Y-13274214D02*
X18241071Y-13331357D01*
X18683928Y-13688500D02*
X18669643Y-13674214D01*
X18641071Y-13631357D01*
X18626786Y-13602786D01*
X18612500Y-13559929D01*
X18598214Y-13488500D01*
X18598214Y-13431357D01*
X18612500Y-13359929D01*
X18626786Y-13317071D01*
X18641071Y-13288500D01*
X18669643Y-13245643D01*
X18683928Y-13231357D01*
X18783928Y-13302786D02*
X18798214Y-13288500D01*
X18826786Y-13274214D01*
X18898214Y-13274214D01*
X18926786Y-13288500D01*
X18941071Y-13302786D01*
X18955357Y-13331357D01*
X18955357Y-13359929D01*
X18941071Y-13402786D01*
X18769643Y-13574214D01*
X18955357Y-13574214D01*
X19212500Y-13374214D02*
X19212500Y-13574214D01*
X19141071Y-13259929D02*
X19069643Y-13474214D01*
X19255357Y-13474214D01*
X19598214Y-13574214D02*
X19598214Y-13274214D01*
X19726786Y-13574214D02*
X19726786Y-13417071D01*
X19712500Y-13388500D01*
X19683928Y-13374214D01*
X19641071Y-13374214D01*
X19612500Y-13388500D01*
X19598214Y-13402786D01*
X19912500Y-13574214D02*
X19883928Y-13559929D01*
X19869643Y-13545643D01*
X19855357Y-13517071D01*
X19855357Y-13431357D01*
X19869643Y-13402786D01*
X19883928Y-13388500D01*
X19912500Y-13374214D01*
X19955357Y-13374214D01*
X19983928Y-13388500D01*
X19998214Y-13402786D01*
X20012500Y-13431357D01*
X20012500Y-13517071D01*
X19998214Y-13545643D01*
X19983928Y-13559929D01*
X19955357Y-13574214D01*
X19912500Y-13574214D01*
X20183928Y-13574214D02*
X20155357Y-13559929D01*
X20141071Y-13531357D01*
X20141071Y-13274214D01*
X20412500Y-13559929D02*
X20383928Y-13574214D01*
X20326786Y-13574214D01*
X20298214Y-13559929D01*
X20283928Y-13531357D01*
X20283928Y-13417071D01*
X20298214Y-13388500D01*
X20326786Y-13374214D01*
X20383928Y-13374214D01*
X20412500Y-13388500D01*
X20426786Y-13417071D01*
X20426786Y-13445643D01*
X20283928Y-13474214D01*
X20541071Y-13559929D02*
X20569643Y-13574214D01*
X20626786Y-13574214D01*
X20655357Y-13559929D01*
X20669643Y-13531357D01*
X20669643Y-13517071D01*
X20655357Y-13488500D01*
X20626786Y-13474214D01*
X20583928Y-13474214D01*
X20555357Y-13459929D01*
X20541071Y-13431357D01*
X20541071Y-13417071D01*
X20555357Y-13388500D01*
X20583928Y-13374214D01*
X20626786Y-13374214D01*
X20655357Y-13388500D01*
X20769643Y-13688500D02*
X20783928Y-13674214D01*
X20812500Y-13631357D01*
X20826786Y-13602786D01*
X20841071Y-13559929D01*
X20855357Y-13488500D01*
X20855357Y-13431357D01*
X20841071Y-13359929D01*
X20826786Y-13317071D01*
X20812500Y-13288500D01*
X20783928Y-13245643D01*
X20769643Y-13231357D01*
M02*
