G04 #@! TF.GenerationSoftware,KiCad,Pcbnew,(5.1.9)-1*
G04 #@! TF.CreationDate,2021-12-15T22:13:59+01:00*
G04 #@! TF.ProjectId,AudioCodecModule_WM8960,41756469-6f43-46f6-9465-634d6f64756c,rev?*
G04 #@! TF.SameCoordinates,Original*
G04 #@! TF.FileFunction,Paste,Top*
G04 #@! TF.FilePolarity,Positive*
%FSLAX46Y46*%
G04 Gerber Fmt 4.6, Leading zero omitted, Abs format (unit mm)*
G04 Created by KiCad (PCBNEW (5.1.9)-1) date 2021-12-15 22:13:59*
%MOMM*%
%LPD*%
G01*
G04 APERTURE LIST*
%ADD10R,1.100000X1.300000*%
%ADD11C,0.100000*%
%ADD12R,0.900000X0.800000*%
%ADD13R,1.500000X2.000000*%
%ADD14R,3.800000X2.000000*%
G04 APERTURE END LIST*
G36*
G01*
X185262000Y-74151500D02*
X185262000Y-73676500D01*
G75*
G02*
X185499500Y-73439000I237500J0D01*
G01*
X186074500Y-73439000D01*
G75*
G02*
X186312000Y-73676500I0J-237500D01*
G01*
X186312000Y-74151500D01*
G75*
G02*
X186074500Y-74389000I-237500J0D01*
G01*
X185499500Y-74389000D01*
G75*
G02*
X185262000Y-74151500I0J237500D01*
G01*
G37*
G36*
G01*
X183512000Y-74151500D02*
X183512000Y-73676500D01*
G75*
G02*
X183749500Y-73439000I237500J0D01*
G01*
X184324500Y-73439000D01*
G75*
G02*
X184562000Y-73676500I0J-237500D01*
G01*
X184562000Y-74151500D01*
G75*
G02*
X184324500Y-74389000I-237500J0D01*
G01*
X183749500Y-74389000D01*
G75*
G02*
X183512000Y-74151500I0J237500D01*
G01*
G37*
G36*
G01*
X187040000Y-75675500D02*
X187040000Y-75200500D01*
G75*
G02*
X187277500Y-74963000I237500J0D01*
G01*
X187852500Y-74963000D01*
G75*
G02*
X188090000Y-75200500I0J-237500D01*
G01*
X188090000Y-75675500D01*
G75*
G02*
X187852500Y-75913000I-237500J0D01*
G01*
X187277500Y-75913000D01*
G75*
G02*
X187040000Y-75675500I0J237500D01*
G01*
G37*
G36*
G01*
X185290000Y-75675500D02*
X185290000Y-75200500D01*
G75*
G02*
X185527500Y-74963000I237500J0D01*
G01*
X186102500Y-74963000D01*
G75*
G02*
X186340000Y-75200500I0J-237500D01*
G01*
X186340000Y-75675500D01*
G75*
G02*
X186102500Y-75913000I-237500J0D01*
G01*
X185527500Y-75913000D01*
G75*
G02*
X185290000Y-75675500I0J237500D01*
G01*
G37*
G36*
G01*
X192882000Y-84565500D02*
X192882000Y-84090500D01*
G75*
G02*
X193119500Y-83853000I237500J0D01*
G01*
X193694500Y-83853000D01*
G75*
G02*
X193932000Y-84090500I0J-237500D01*
G01*
X193932000Y-84565500D01*
G75*
G02*
X193694500Y-84803000I-237500J0D01*
G01*
X193119500Y-84803000D01*
G75*
G02*
X192882000Y-84565500I0J237500D01*
G01*
G37*
G36*
G01*
X191132000Y-84565500D02*
X191132000Y-84090500D01*
G75*
G02*
X191369500Y-83853000I237500J0D01*
G01*
X191944500Y-83853000D01*
G75*
G02*
X192182000Y-84090500I0J-237500D01*
G01*
X192182000Y-84565500D01*
G75*
G02*
X191944500Y-84803000I-237500J0D01*
G01*
X191369500Y-84803000D01*
G75*
G02*
X191132000Y-84565500I0J237500D01*
G01*
G37*
G36*
G01*
X192882000Y-87613500D02*
X192882000Y-87138500D01*
G75*
G02*
X193119500Y-86901000I237500J0D01*
G01*
X193694500Y-86901000D01*
G75*
G02*
X193932000Y-87138500I0J-237500D01*
G01*
X193932000Y-87613500D01*
G75*
G02*
X193694500Y-87851000I-237500J0D01*
G01*
X193119500Y-87851000D01*
G75*
G02*
X192882000Y-87613500I0J237500D01*
G01*
G37*
G36*
G01*
X191132000Y-87613500D02*
X191132000Y-87138500D01*
G75*
G02*
X191369500Y-86901000I237500J0D01*
G01*
X191944500Y-86901000D01*
G75*
G02*
X192182000Y-87138500I0J-237500D01*
G01*
X192182000Y-87613500D01*
G75*
G02*
X191944500Y-87851000I-237500J0D01*
G01*
X191369500Y-87851000D01*
G75*
G02*
X191132000Y-87613500I0J237500D01*
G01*
G37*
G36*
G01*
X192882000Y-86089500D02*
X192882000Y-85614500D01*
G75*
G02*
X193119500Y-85377000I237500J0D01*
G01*
X193694500Y-85377000D01*
G75*
G02*
X193932000Y-85614500I0J-237500D01*
G01*
X193932000Y-86089500D01*
G75*
G02*
X193694500Y-86327000I-237500J0D01*
G01*
X193119500Y-86327000D01*
G75*
G02*
X192882000Y-86089500I0J237500D01*
G01*
G37*
G36*
G01*
X191132000Y-86089500D02*
X191132000Y-85614500D01*
G75*
G02*
X191369500Y-85377000I237500J0D01*
G01*
X191944500Y-85377000D01*
G75*
G02*
X192182000Y-85614500I0J-237500D01*
G01*
X192182000Y-86089500D01*
G75*
G02*
X191944500Y-86327000I-237500J0D01*
G01*
X191369500Y-86327000D01*
G75*
G02*
X191132000Y-86089500I0J237500D01*
G01*
G37*
G36*
G01*
X192882000Y-83041500D02*
X192882000Y-82566500D01*
G75*
G02*
X193119500Y-82329000I237500J0D01*
G01*
X193694500Y-82329000D01*
G75*
G02*
X193932000Y-82566500I0J-237500D01*
G01*
X193932000Y-83041500D01*
G75*
G02*
X193694500Y-83279000I-237500J0D01*
G01*
X193119500Y-83279000D01*
G75*
G02*
X192882000Y-83041500I0J237500D01*
G01*
G37*
G36*
G01*
X191132000Y-83041500D02*
X191132000Y-82566500D01*
G75*
G02*
X191369500Y-82329000I237500J0D01*
G01*
X191944500Y-82329000D01*
G75*
G02*
X192182000Y-82566500I0J-237500D01*
G01*
X192182000Y-83041500D01*
G75*
G02*
X191944500Y-83279000I-237500J0D01*
G01*
X191369500Y-83279000D01*
G75*
G02*
X191132000Y-83041500I0J237500D01*
G01*
G37*
G36*
G01*
X176292500Y-86964000D02*
X176767500Y-86964000D01*
G75*
G02*
X177005000Y-87201500I0J-237500D01*
G01*
X177005000Y-87776500D01*
G75*
G02*
X176767500Y-88014000I-237500J0D01*
G01*
X176292500Y-88014000D01*
G75*
G02*
X176055000Y-87776500I0J237500D01*
G01*
X176055000Y-87201500D01*
G75*
G02*
X176292500Y-86964000I237500J0D01*
G01*
G37*
G36*
G01*
X176292500Y-85214000D02*
X176767500Y-85214000D01*
G75*
G02*
X177005000Y-85451500I0J-237500D01*
G01*
X177005000Y-86026500D01*
G75*
G02*
X176767500Y-86264000I-237500J0D01*
G01*
X176292500Y-86264000D01*
G75*
G02*
X176055000Y-86026500I0J237500D01*
G01*
X176055000Y-85451500D01*
G75*
G02*
X176292500Y-85214000I237500J0D01*
G01*
G37*
G36*
G01*
X183404500Y-88996000D02*
X183879500Y-88996000D01*
G75*
G02*
X184117000Y-89233500I0J-237500D01*
G01*
X184117000Y-89808500D01*
G75*
G02*
X183879500Y-90046000I-237500J0D01*
G01*
X183404500Y-90046000D01*
G75*
G02*
X183167000Y-89808500I0J237500D01*
G01*
X183167000Y-89233500D01*
G75*
G02*
X183404500Y-88996000I237500J0D01*
G01*
G37*
G36*
G01*
X183404500Y-87246000D02*
X183879500Y-87246000D01*
G75*
G02*
X184117000Y-87483500I0J-237500D01*
G01*
X184117000Y-88058500D01*
G75*
G02*
X183879500Y-88296000I-237500J0D01*
G01*
X183404500Y-88296000D01*
G75*
G02*
X183167000Y-88058500I0J237500D01*
G01*
X183167000Y-87483500D01*
G75*
G02*
X183404500Y-87246000I237500J0D01*
G01*
G37*
G36*
G01*
X177816500Y-86964000D02*
X178291500Y-86964000D01*
G75*
G02*
X178529000Y-87201500I0J-237500D01*
G01*
X178529000Y-87776500D01*
G75*
G02*
X178291500Y-88014000I-237500J0D01*
G01*
X177816500Y-88014000D01*
G75*
G02*
X177579000Y-87776500I0J237500D01*
G01*
X177579000Y-87201500D01*
G75*
G02*
X177816500Y-86964000I237500J0D01*
G01*
G37*
G36*
G01*
X177816500Y-85214000D02*
X178291500Y-85214000D01*
G75*
G02*
X178529000Y-85451500I0J-237500D01*
G01*
X178529000Y-86026500D01*
G75*
G02*
X178291500Y-86264000I-237500J0D01*
G01*
X177816500Y-86264000D01*
G75*
G02*
X177579000Y-86026500I0J237500D01*
G01*
X177579000Y-85451500D01*
G75*
G02*
X177816500Y-85214000I237500J0D01*
G01*
G37*
D10*
X180277000Y-89696000D03*
X180277000Y-87596000D03*
X181927000Y-87596000D03*
X181927000Y-89696000D03*
G36*
G01*
X153686500Y-88742000D02*
X154161500Y-88742000D01*
G75*
G02*
X154399000Y-88979500I0J-237500D01*
G01*
X154399000Y-89554500D01*
G75*
G02*
X154161500Y-89792000I-237500J0D01*
G01*
X153686500Y-89792000D01*
G75*
G02*
X153449000Y-89554500I0J237500D01*
G01*
X153449000Y-88979500D01*
G75*
G02*
X153686500Y-88742000I237500J0D01*
G01*
G37*
G36*
G01*
X153686500Y-86992000D02*
X154161500Y-86992000D01*
G75*
G02*
X154399000Y-87229500I0J-237500D01*
G01*
X154399000Y-87804500D01*
G75*
G02*
X154161500Y-88042000I-237500J0D01*
G01*
X153686500Y-88042000D01*
G75*
G02*
X153449000Y-87804500I0J237500D01*
G01*
X153449000Y-87229500D01*
G75*
G02*
X153686500Y-86992000I237500J0D01*
G01*
G37*
G36*
G01*
X151908500Y-88742000D02*
X152383500Y-88742000D01*
G75*
G02*
X152621000Y-88979500I0J-237500D01*
G01*
X152621000Y-89554500D01*
G75*
G02*
X152383500Y-89792000I-237500J0D01*
G01*
X151908500Y-89792000D01*
G75*
G02*
X151671000Y-89554500I0J237500D01*
G01*
X151671000Y-88979500D01*
G75*
G02*
X151908500Y-88742000I237500J0D01*
G01*
G37*
G36*
G01*
X151908500Y-86992000D02*
X152383500Y-86992000D01*
G75*
G02*
X152621000Y-87229500I0J-237500D01*
G01*
X152621000Y-87804500D01*
G75*
G02*
X152383500Y-88042000I-237500J0D01*
G01*
X151908500Y-88042000D01*
G75*
G02*
X151671000Y-87804500I0J237500D01*
G01*
X151671000Y-87229500D01*
G75*
G02*
X151908500Y-86992000I237500J0D01*
G01*
G37*
G36*
G01*
X187335000Y-72149000D02*
X188585000Y-72149000D01*
G75*
G02*
X188835000Y-72399000I0J-250000D01*
G01*
X188835000Y-73324000D01*
G75*
G02*
X188585000Y-73574000I-250000J0D01*
G01*
X187335000Y-73574000D01*
G75*
G02*
X187085000Y-73324000I0J250000D01*
G01*
X187085000Y-72399000D01*
G75*
G02*
X187335000Y-72149000I250000J0D01*
G01*
G37*
G36*
G01*
X187335000Y-69174000D02*
X188585000Y-69174000D01*
G75*
G02*
X188835000Y-69424000I0J-250000D01*
G01*
X188835000Y-70349000D01*
G75*
G02*
X188585000Y-70599000I-250000J0D01*
G01*
X187335000Y-70599000D01*
G75*
G02*
X187085000Y-70349000I0J250000D01*
G01*
X187085000Y-69424000D01*
G75*
G02*
X187335000Y-69174000I250000J0D01*
G01*
G37*
G36*
G01*
X187335000Y-89929000D02*
X188585000Y-89929000D01*
G75*
G02*
X188835000Y-90179000I0J-250000D01*
G01*
X188835000Y-91104000D01*
G75*
G02*
X188585000Y-91354000I-250000J0D01*
G01*
X187335000Y-91354000D01*
G75*
G02*
X187085000Y-91104000I0J250000D01*
G01*
X187085000Y-90179000D01*
G75*
G02*
X187335000Y-89929000I250000J0D01*
G01*
G37*
G36*
G01*
X187335000Y-86954000D02*
X188585000Y-86954000D01*
G75*
G02*
X188835000Y-87204000I0J-250000D01*
G01*
X188835000Y-88129000D01*
G75*
G02*
X188585000Y-88379000I-250000J0D01*
G01*
X187335000Y-88379000D01*
G75*
G02*
X187085000Y-88129000I0J250000D01*
G01*
X187085000Y-87204000D01*
G75*
G02*
X187335000Y-86954000I250000J0D01*
G01*
G37*
G36*
G01*
X170958500Y-74518000D02*
X171433500Y-74518000D01*
G75*
G02*
X171671000Y-74755500I0J-237500D01*
G01*
X171671000Y-75330500D01*
G75*
G02*
X171433500Y-75568000I-237500J0D01*
G01*
X170958500Y-75568000D01*
G75*
G02*
X170721000Y-75330500I0J237500D01*
G01*
X170721000Y-74755500D01*
G75*
G02*
X170958500Y-74518000I237500J0D01*
G01*
G37*
G36*
G01*
X170958500Y-72768000D02*
X171433500Y-72768000D01*
G75*
G02*
X171671000Y-73005500I0J-237500D01*
G01*
X171671000Y-73580500D01*
G75*
G02*
X171433500Y-73818000I-237500J0D01*
G01*
X170958500Y-73818000D01*
G75*
G02*
X170721000Y-73580500I0J237500D01*
G01*
X170721000Y-73005500D01*
G75*
G02*
X170958500Y-72768000I237500J0D01*
G01*
G37*
G36*
G01*
X184387500Y-70262000D02*
X183912500Y-70262000D01*
G75*
G02*
X183675000Y-70024500I0J237500D01*
G01*
X183675000Y-69449500D01*
G75*
G02*
X183912500Y-69212000I237500J0D01*
G01*
X184387500Y-69212000D01*
G75*
G02*
X184625000Y-69449500I0J-237500D01*
G01*
X184625000Y-70024500D01*
G75*
G02*
X184387500Y-70262000I-237500J0D01*
G01*
G37*
G36*
G01*
X184387500Y-72012000D02*
X183912500Y-72012000D01*
G75*
G02*
X183675000Y-71774500I0J237500D01*
G01*
X183675000Y-71199500D01*
G75*
G02*
X183912500Y-70962000I237500J0D01*
G01*
X184387500Y-70962000D01*
G75*
G02*
X184625000Y-71199500I0J-237500D01*
G01*
X184625000Y-71774500D01*
G75*
G02*
X184387500Y-72012000I-237500J0D01*
G01*
G37*
G36*
G01*
X189754500Y-70962000D02*
X190229500Y-70962000D01*
G75*
G02*
X190467000Y-71199500I0J-237500D01*
G01*
X190467000Y-71774500D01*
G75*
G02*
X190229500Y-72012000I-237500J0D01*
G01*
X189754500Y-72012000D01*
G75*
G02*
X189517000Y-71774500I0J237500D01*
G01*
X189517000Y-71199500D01*
G75*
G02*
X189754500Y-70962000I237500J0D01*
G01*
G37*
G36*
G01*
X189754500Y-69212000D02*
X190229500Y-69212000D01*
G75*
G02*
X190467000Y-69449500I0J-237500D01*
G01*
X190467000Y-70024500D01*
G75*
G02*
X190229500Y-70262000I-237500J0D01*
G01*
X189754500Y-70262000D01*
G75*
G02*
X189517000Y-70024500I0J237500D01*
G01*
X189517000Y-69449500D01*
G75*
G02*
X189754500Y-69212000I237500J0D01*
G01*
G37*
G36*
G01*
X163338500Y-71978000D02*
X163813500Y-71978000D01*
G75*
G02*
X164051000Y-72215500I0J-237500D01*
G01*
X164051000Y-72790500D01*
G75*
G02*
X163813500Y-73028000I-237500J0D01*
G01*
X163338500Y-73028000D01*
G75*
G02*
X163101000Y-72790500I0J237500D01*
G01*
X163101000Y-72215500D01*
G75*
G02*
X163338500Y-71978000I237500J0D01*
G01*
G37*
G36*
G01*
X163338500Y-70228000D02*
X163813500Y-70228000D01*
G75*
G02*
X164051000Y-70465500I0J-237500D01*
G01*
X164051000Y-71040500D01*
G75*
G02*
X163813500Y-71278000I-237500J0D01*
G01*
X163338500Y-71278000D01*
G75*
G02*
X163101000Y-71040500I0J237500D01*
G01*
X163101000Y-70465500D01*
G75*
G02*
X163338500Y-70228000I237500J0D01*
G01*
G37*
G36*
G01*
X176908000Y-76183500D02*
X176908000Y-75708500D01*
G75*
G02*
X177145500Y-75471000I237500J0D01*
G01*
X177720500Y-75471000D01*
G75*
G02*
X177958000Y-75708500I0J-237500D01*
G01*
X177958000Y-76183500D01*
G75*
G02*
X177720500Y-76421000I-237500J0D01*
G01*
X177145500Y-76421000D01*
G75*
G02*
X176908000Y-76183500I0J237500D01*
G01*
G37*
G36*
G01*
X178658000Y-76183500D02*
X178658000Y-75708500D01*
G75*
G02*
X178895500Y-75471000I237500J0D01*
G01*
X179470500Y-75471000D01*
G75*
G02*
X179708000Y-75708500I0J-237500D01*
G01*
X179708000Y-76183500D01*
G75*
G02*
X179470500Y-76421000I-237500J0D01*
G01*
X178895500Y-76421000D01*
G75*
G02*
X178658000Y-76183500I0J237500D01*
G01*
G37*
G36*
G01*
X177896000Y-84311500D02*
X177896000Y-83836500D01*
G75*
G02*
X178133500Y-83599000I237500J0D01*
G01*
X178708500Y-83599000D01*
G75*
G02*
X178946000Y-83836500I0J-237500D01*
G01*
X178946000Y-84311500D01*
G75*
G02*
X178708500Y-84549000I-237500J0D01*
G01*
X178133500Y-84549000D01*
G75*
G02*
X177896000Y-84311500I0J237500D01*
G01*
G37*
G36*
G01*
X176146000Y-84311500D02*
X176146000Y-83836500D01*
G75*
G02*
X176383500Y-83599000I237500J0D01*
G01*
X176958500Y-83599000D01*
G75*
G02*
X177196000Y-83836500I0J-237500D01*
G01*
X177196000Y-84311500D01*
G75*
G02*
X176958500Y-84549000I-237500J0D01*
G01*
X176383500Y-84549000D01*
G75*
G02*
X176146000Y-84311500I0J237500D01*
G01*
G37*
G36*
G01*
X185436500Y-90266000D02*
X185911500Y-90266000D01*
G75*
G02*
X186149000Y-90503500I0J-237500D01*
G01*
X186149000Y-91078500D01*
G75*
G02*
X185911500Y-91316000I-237500J0D01*
G01*
X185436500Y-91316000D01*
G75*
G02*
X185199000Y-91078500I0J237500D01*
G01*
X185199000Y-90503500D01*
G75*
G02*
X185436500Y-90266000I237500J0D01*
G01*
G37*
G36*
G01*
X185436500Y-88516000D02*
X185911500Y-88516000D01*
G75*
G02*
X186149000Y-88753500I0J-237500D01*
G01*
X186149000Y-89328500D01*
G75*
G02*
X185911500Y-89566000I-237500J0D01*
G01*
X185436500Y-89566000D01*
G75*
G02*
X185199000Y-89328500I0J237500D01*
G01*
X185199000Y-88753500D01*
G75*
G02*
X185436500Y-88516000I237500J0D01*
G01*
G37*
G36*
G01*
X162035500Y-71278000D02*
X161560500Y-71278000D01*
G75*
G02*
X161323000Y-71040500I0J237500D01*
G01*
X161323000Y-70465500D01*
G75*
G02*
X161560500Y-70228000I237500J0D01*
G01*
X162035500Y-70228000D01*
G75*
G02*
X162273000Y-70465500I0J-237500D01*
G01*
X162273000Y-71040500D01*
G75*
G02*
X162035500Y-71278000I-237500J0D01*
G01*
G37*
G36*
G01*
X162035500Y-73028000D02*
X161560500Y-73028000D01*
G75*
G02*
X161323000Y-72790500I0J237500D01*
G01*
X161323000Y-72215500D01*
G75*
G02*
X161560500Y-71978000I237500J0D01*
G01*
X162035500Y-71978000D01*
G75*
G02*
X162273000Y-72215500I0J-237500D01*
G01*
X162273000Y-72790500D01*
G75*
G02*
X162035500Y-73028000I-237500J0D01*
G01*
G37*
G36*
G01*
X152383500Y-71278000D02*
X151908500Y-71278000D01*
G75*
G02*
X151671000Y-71040500I0J237500D01*
G01*
X151671000Y-70465500D01*
G75*
G02*
X151908500Y-70228000I237500J0D01*
G01*
X152383500Y-70228000D01*
G75*
G02*
X152621000Y-70465500I0J-237500D01*
G01*
X152621000Y-71040500D01*
G75*
G02*
X152383500Y-71278000I-237500J0D01*
G01*
G37*
G36*
G01*
X152383500Y-73028000D02*
X151908500Y-73028000D01*
G75*
G02*
X151671000Y-72790500I0J237500D01*
G01*
X151671000Y-72215500D01*
G75*
G02*
X151908500Y-71978000I237500J0D01*
G01*
X152383500Y-71978000D01*
G75*
G02*
X152621000Y-72215500I0J-237500D01*
G01*
X152621000Y-72790500D01*
G75*
G02*
X152383500Y-73028000I-237500J0D01*
G01*
G37*
G36*
G01*
X155331000Y-72693500D02*
X156581000Y-72693500D01*
G75*
G02*
X156831000Y-72943500I0J-250000D01*
G01*
X156831000Y-73868500D01*
G75*
G02*
X156581000Y-74118500I-250000J0D01*
G01*
X155331000Y-74118500D01*
G75*
G02*
X155081000Y-73868500I0J250000D01*
G01*
X155081000Y-72943500D01*
G75*
G02*
X155331000Y-72693500I250000J0D01*
G01*
G37*
G36*
G01*
X155331000Y-69718500D02*
X156581000Y-69718500D01*
G75*
G02*
X156831000Y-69968500I0J-250000D01*
G01*
X156831000Y-70893500D01*
G75*
G02*
X156581000Y-71143500I-250000J0D01*
G01*
X155331000Y-71143500D01*
G75*
G02*
X155081000Y-70893500I0J250000D01*
G01*
X155081000Y-69968500D01*
G75*
G02*
X155331000Y-69718500I250000J0D01*
G01*
G37*
G36*
G01*
X173977000Y-72781000D02*
X173977000Y-74031000D01*
G75*
G02*
X173727000Y-74281000I-250000J0D01*
G01*
X172802000Y-74281000D01*
G75*
G02*
X172552000Y-74031000I0J250000D01*
G01*
X172552000Y-72781000D01*
G75*
G02*
X172802000Y-72531000I250000J0D01*
G01*
X173727000Y-72531000D01*
G75*
G02*
X173977000Y-72781000I0J-250000D01*
G01*
G37*
G36*
G01*
X176952000Y-72781000D02*
X176952000Y-74031000D01*
G75*
G02*
X176702000Y-74281000I-250000J0D01*
G01*
X175777000Y-74281000D01*
G75*
G02*
X175527000Y-74031000I0J250000D01*
G01*
X175527000Y-72781000D01*
G75*
G02*
X175777000Y-72531000I250000J0D01*
G01*
X176702000Y-72531000D01*
G75*
G02*
X176952000Y-72781000I0J-250000D01*
G01*
G37*
G36*
G01*
X179715000Y-72185500D02*
X180965000Y-72185500D01*
G75*
G02*
X181215000Y-72435500I0J-250000D01*
G01*
X181215000Y-73360500D01*
G75*
G02*
X180965000Y-73610500I-250000J0D01*
G01*
X179715000Y-73610500D01*
G75*
G02*
X179465000Y-73360500I0J250000D01*
G01*
X179465000Y-72435500D01*
G75*
G02*
X179715000Y-72185500I250000J0D01*
G01*
G37*
G36*
G01*
X179715000Y-69210500D02*
X180965000Y-69210500D01*
G75*
G02*
X181215000Y-69460500I0J-250000D01*
G01*
X181215000Y-70385500D01*
G75*
G02*
X180965000Y-70635500I-250000J0D01*
G01*
X179715000Y-70635500D01*
G75*
G02*
X179465000Y-70385500I0J250000D01*
G01*
X179465000Y-69460500D01*
G75*
G02*
X179715000Y-69210500I250000J0D01*
G01*
G37*
G36*
G01*
X164983000Y-72693500D02*
X166233000Y-72693500D01*
G75*
G02*
X166483000Y-72943500I0J-250000D01*
G01*
X166483000Y-73868500D01*
G75*
G02*
X166233000Y-74118500I-250000J0D01*
G01*
X164983000Y-74118500D01*
G75*
G02*
X164733000Y-73868500I0J250000D01*
G01*
X164733000Y-72943500D01*
G75*
G02*
X164983000Y-72693500I250000J0D01*
G01*
G37*
G36*
G01*
X164983000Y-69718500D02*
X166233000Y-69718500D01*
G75*
G02*
X166483000Y-69968500I0J-250000D01*
G01*
X166483000Y-70893500D01*
G75*
G02*
X166233000Y-71143500I-250000J0D01*
G01*
X164983000Y-71143500D01*
G75*
G02*
X164733000Y-70893500I0J250000D01*
G01*
X164733000Y-69968500D01*
G75*
G02*
X164983000Y-69718500I250000J0D01*
G01*
G37*
G36*
G01*
X153258000Y-74405500D02*
X153258000Y-73930500D01*
G75*
G02*
X153495500Y-73693000I237500J0D01*
G01*
X154070500Y-73693000D01*
G75*
G02*
X154308000Y-73930500I0J-237500D01*
G01*
X154308000Y-74405500D01*
G75*
G02*
X154070500Y-74643000I-237500J0D01*
G01*
X153495500Y-74643000D01*
G75*
G02*
X153258000Y-74405500I0J237500D01*
G01*
G37*
G36*
G01*
X151508000Y-74405500D02*
X151508000Y-73930500D01*
G75*
G02*
X151745500Y-73693000I237500J0D01*
G01*
X152320500Y-73693000D01*
G75*
G02*
X152558000Y-73930500I0J-237500D01*
G01*
X152558000Y-74405500D01*
G75*
G02*
X152320500Y-74643000I-237500J0D01*
G01*
X151745500Y-74643000D01*
G75*
G02*
X151508000Y-74405500I0J237500D01*
G01*
G37*
G36*
G01*
X192007500Y-70262000D02*
X191532500Y-70262000D01*
G75*
G02*
X191295000Y-70024500I0J237500D01*
G01*
X191295000Y-69449500D01*
G75*
G02*
X191532500Y-69212000I237500J0D01*
G01*
X192007500Y-69212000D01*
G75*
G02*
X192245000Y-69449500I0J-237500D01*
G01*
X192245000Y-70024500D01*
G75*
G02*
X192007500Y-70262000I-237500J0D01*
G01*
G37*
G36*
G01*
X192007500Y-72012000D02*
X191532500Y-72012000D01*
G75*
G02*
X191295000Y-71774500I0J237500D01*
G01*
X191295000Y-71199500D01*
G75*
G02*
X191532500Y-70962000I237500J0D01*
G01*
X192007500Y-70962000D01*
G75*
G02*
X192245000Y-71199500I0J-237500D01*
G01*
X192245000Y-71774500D01*
G75*
G02*
X192007500Y-72012000I-237500J0D01*
G01*
G37*
G36*
G01*
X162910000Y-74405500D02*
X162910000Y-73930500D01*
G75*
G02*
X163147500Y-73693000I237500J0D01*
G01*
X163722500Y-73693000D01*
G75*
G02*
X163960000Y-73930500I0J-237500D01*
G01*
X163960000Y-74405500D01*
G75*
G02*
X163722500Y-74643000I-237500J0D01*
G01*
X163147500Y-74643000D01*
G75*
G02*
X162910000Y-74405500I0J237500D01*
G01*
G37*
G36*
G01*
X161160000Y-74405500D02*
X161160000Y-73930500D01*
G75*
G02*
X161397500Y-73693000I237500J0D01*
G01*
X161972500Y-73693000D01*
G75*
G02*
X162210000Y-73930500I0J-237500D01*
G01*
X162210000Y-74405500D01*
G75*
G02*
X161972500Y-74643000I-237500J0D01*
G01*
X161397500Y-74643000D01*
G75*
G02*
X161160000Y-74405500I0J237500D01*
G01*
G37*
G36*
G01*
X182134500Y-70962000D02*
X182609500Y-70962000D01*
G75*
G02*
X182847000Y-71199500I0J-237500D01*
G01*
X182847000Y-71774500D01*
G75*
G02*
X182609500Y-72012000I-237500J0D01*
G01*
X182134500Y-72012000D01*
G75*
G02*
X181897000Y-71774500I0J237500D01*
G01*
X181897000Y-71199500D01*
G75*
G02*
X182134500Y-70962000I237500J0D01*
G01*
G37*
G36*
G01*
X182134500Y-69212000D02*
X182609500Y-69212000D01*
G75*
G02*
X182847000Y-69449500I0J-237500D01*
G01*
X182847000Y-70024500D01*
G75*
G02*
X182609500Y-70262000I-237500J0D01*
G01*
X182134500Y-70262000D01*
G75*
G02*
X181897000Y-70024500I0J237500D01*
G01*
X181897000Y-69449500D01*
G75*
G02*
X182134500Y-69212000I237500J0D01*
G01*
G37*
G36*
G01*
X153686500Y-71978000D02*
X154161500Y-71978000D01*
G75*
G02*
X154399000Y-72215500I0J-237500D01*
G01*
X154399000Y-72790500D01*
G75*
G02*
X154161500Y-73028000I-237500J0D01*
G01*
X153686500Y-73028000D01*
G75*
G02*
X153449000Y-72790500I0J237500D01*
G01*
X153449000Y-72215500D01*
G75*
G02*
X153686500Y-71978000I237500J0D01*
G01*
G37*
G36*
G01*
X153686500Y-70228000D02*
X154161500Y-70228000D01*
G75*
G02*
X154399000Y-70465500I0J-237500D01*
G01*
X154399000Y-71040500D01*
G75*
G02*
X154161500Y-71278000I-237500J0D01*
G01*
X153686500Y-71278000D01*
G75*
G02*
X153449000Y-71040500I0J237500D01*
G01*
X153449000Y-70465500D01*
G75*
G02*
X153686500Y-70228000I237500J0D01*
G01*
G37*
G36*
G01*
X178735000Y-78322500D02*
X178735000Y-78197500D01*
G75*
G02*
X178797500Y-78135000I62500J0D01*
G01*
X179547500Y-78135000D01*
G75*
G02*
X179610000Y-78197500I0J-62500D01*
G01*
X179610000Y-78322500D01*
G75*
G02*
X179547500Y-78385000I-62500J0D01*
G01*
X178797500Y-78385000D01*
G75*
G02*
X178735000Y-78322500I0J62500D01*
G01*
G37*
G36*
G01*
X178735000Y-78822500D02*
X178735000Y-78697500D01*
G75*
G02*
X178797500Y-78635000I62500J0D01*
G01*
X179547500Y-78635000D01*
G75*
G02*
X179610000Y-78697500I0J-62500D01*
G01*
X179610000Y-78822500D01*
G75*
G02*
X179547500Y-78885000I-62500J0D01*
G01*
X178797500Y-78885000D01*
G75*
G02*
X178735000Y-78822500I0J62500D01*
G01*
G37*
G36*
G01*
X178735000Y-79322500D02*
X178735000Y-79197500D01*
G75*
G02*
X178797500Y-79135000I62500J0D01*
G01*
X179547500Y-79135000D01*
G75*
G02*
X179610000Y-79197500I0J-62500D01*
G01*
X179610000Y-79322500D01*
G75*
G02*
X179547500Y-79385000I-62500J0D01*
G01*
X178797500Y-79385000D01*
G75*
G02*
X178735000Y-79322500I0J62500D01*
G01*
G37*
G36*
G01*
X178735000Y-79822500D02*
X178735000Y-79697500D01*
G75*
G02*
X178797500Y-79635000I62500J0D01*
G01*
X179547500Y-79635000D01*
G75*
G02*
X179610000Y-79697500I0J-62500D01*
G01*
X179610000Y-79822500D01*
G75*
G02*
X179547500Y-79885000I-62500J0D01*
G01*
X178797500Y-79885000D01*
G75*
G02*
X178735000Y-79822500I0J62500D01*
G01*
G37*
G36*
G01*
X178735000Y-80322500D02*
X178735000Y-80197500D01*
G75*
G02*
X178797500Y-80135000I62500J0D01*
G01*
X179547500Y-80135000D01*
G75*
G02*
X179610000Y-80197500I0J-62500D01*
G01*
X179610000Y-80322500D01*
G75*
G02*
X179547500Y-80385000I-62500J0D01*
G01*
X178797500Y-80385000D01*
G75*
G02*
X178735000Y-80322500I0J62500D01*
G01*
G37*
G36*
G01*
X178735000Y-80822500D02*
X178735000Y-80697500D01*
G75*
G02*
X178797500Y-80635000I62500J0D01*
G01*
X179547500Y-80635000D01*
G75*
G02*
X179610000Y-80697500I0J-62500D01*
G01*
X179610000Y-80822500D01*
G75*
G02*
X179547500Y-80885000I-62500J0D01*
G01*
X178797500Y-80885000D01*
G75*
G02*
X178735000Y-80822500I0J62500D01*
G01*
G37*
G36*
G01*
X178735000Y-81322500D02*
X178735000Y-81197500D01*
G75*
G02*
X178797500Y-81135000I62500J0D01*
G01*
X179547500Y-81135000D01*
G75*
G02*
X179610000Y-81197500I0J-62500D01*
G01*
X179610000Y-81322500D01*
G75*
G02*
X179547500Y-81385000I-62500J0D01*
G01*
X178797500Y-81385000D01*
G75*
G02*
X178735000Y-81322500I0J62500D01*
G01*
G37*
G36*
G01*
X178735000Y-81822500D02*
X178735000Y-81697500D01*
G75*
G02*
X178797500Y-81635000I62500J0D01*
G01*
X179547500Y-81635000D01*
G75*
G02*
X179610000Y-81697500I0J-62500D01*
G01*
X179610000Y-81822500D01*
G75*
G02*
X179547500Y-81885000I-62500J0D01*
G01*
X178797500Y-81885000D01*
G75*
G02*
X178735000Y-81822500I0J62500D01*
G01*
G37*
G36*
G01*
X179735000Y-82822500D02*
X179735000Y-82072500D01*
G75*
G02*
X179797500Y-82010000I62500J0D01*
G01*
X179922500Y-82010000D01*
G75*
G02*
X179985000Y-82072500I0J-62500D01*
G01*
X179985000Y-82822500D01*
G75*
G02*
X179922500Y-82885000I-62500J0D01*
G01*
X179797500Y-82885000D01*
G75*
G02*
X179735000Y-82822500I0J62500D01*
G01*
G37*
G36*
G01*
X180235000Y-82822500D02*
X180235000Y-82072500D01*
G75*
G02*
X180297500Y-82010000I62500J0D01*
G01*
X180422500Y-82010000D01*
G75*
G02*
X180485000Y-82072500I0J-62500D01*
G01*
X180485000Y-82822500D01*
G75*
G02*
X180422500Y-82885000I-62500J0D01*
G01*
X180297500Y-82885000D01*
G75*
G02*
X180235000Y-82822500I0J62500D01*
G01*
G37*
G36*
G01*
X180735000Y-82822500D02*
X180735000Y-82072500D01*
G75*
G02*
X180797500Y-82010000I62500J0D01*
G01*
X180922500Y-82010000D01*
G75*
G02*
X180985000Y-82072500I0J-62500D01*
G01*
X180985000Y-82822500D01*
G75*
G02*
X180922500Y-82885000I-62500J0D01*
G01*
X180797500Y-82885000D01*
G75*
G02*
X180735000Y-82822500I0J62500D01*
G01*
G37*
G36*
G01*
X181235000Y-82822500D02*
X181235000Y-82072500D01*
G75*
G02*
X181297500Y-82010000I62500J0D01*
G01*
X181422500Y-82010000D01*
G75*
G02*
X181485000Y-82072500I0J-62500D01*
G01*
X181485000Y-82822500D01*
G75*
G02*
X181422500Y-82885000I-62500J0D01*
G01*
X181297500Y-82885000D01*
G75*
G02*
X181235000Y-82822500I0J62500D01*
G01*
G37*
G36*
G01*
X181735000Y-82822500D02*
X181735000Y-82072500D01*
G75*
G02*
X181797500Y-82010000I62500J0D01*
G01*
X181922500Y-82010000D01*
G75*
G02*
X181985000Y-82072500I0J-62500D01*
G01*
X181985000Y-82822500D01*
G75*
G02*
X181922500Y-82885000I-62500J0D01*
G01*
X181797500Y-82885000D01*
G75*
G02*
X181735000Y-82822500I0J62500D01*
G01*
G37*
G36*
G01*
X182235000Y-82822500D02*
X182235000Y-82072500D01*
G75*
G02*
X182297500Y-82010000I62500J0D01*
G01*
X182422500Y-82010000D01*
G75*
G02*
X182485000Y-82072500I0J-62500D01*
G01*
X182485000Y-82822500D01*
G75*
G02*
X182422500Y-82885000I-62500J0D01*
G01*
X182297500Y-82885000D01*
G75*
G02*
X182235000Y-82822500I0J62500D01*
G01*
G37*
G36*
G01*
X182735000Y-82822500D02*
X182735000Y-82072500D01*
G75*
G02*
X182797500Y-82010000I62500J0D01*
G01*
X182922500Y-82010000D01*
G75*
G02*
X182985000Y-82072500I0J-62500D01*
G01*
X182985000Y-82822500D01*
G75*
G02*
X182922500Y-82885000I-62500J0D01*
G01*
X182797500Y-82885000D01*
G75*
G02*
X182735000Y-82822500I0J62500D01*
G01*
G37*
G36*
G01*
X183235000Y-82822500D02*
X183235000Y-82072500D01*
G75*
G02*
X183297500Y-82010000I62500J0D01*
G01*
X183422500Y-82010000D01*
G75*
G02*
X183485000Y-82072500I0J-62500D01*
G01*
X183485000Y-82822500D01*
G75*
G02*
X183422500Y-82885000I-62500J0D01*
G01*
X183297500Y-82885000D01*
G75*
G02*
X183235000Y-82822500I0J62500D01*
G01*
G37*
G36*
G01*
X183610000Y-81822500D02*
X183610000Y-81697500D01*
G75*
G02*
X183672500Y-81635000I62500J0D01*
G01*
X184422500Y-81635000D01*
G75*
G02*
X184485000Y-81697500I0J-62500D01*
G01*
X184485000Y-81822500D01*
G75*
G02*
X184422500Y-81885000I-62500J0D01*
G01*
X183672500Y-81885000D01*
G75*
G02*
X183610000Y-81822500I0J62500D01*
G01*
G37*
G36*
G01*
X183610000Y-81322500D02*
X183610000Y-81197500D01*
G75*
G02*
X183672500Y-81135000I62500J0D01*
G01*
X184422500Y-81135000D01*
G75*
G02*
X184485000Y-81197500I0J-62500D01*
G01*
X184485000Y-81322500D01*
G75*
G02*
X184422500Y-81385000I-62500J0D01*
G01*
X183672500Y-81385000D01*
G75*
G02*
X183610000Y-81322500I0J62500D01*
G01*
G37*
G36*
G01*
X183610000Y-80822500D02*
X183610000Y-80697500D01*
G75*
G02*
X183672500Y-80635000I62500J0D01*
G01*
X184422500Y-80635000D01*
G75*
G02*
X184485000Y-80697500I0J-62500D01*
G01*
X184485000Y-80822500D01*
G75*
G02*
X184422500Y-80885000I-62500J0D01*
G01*
X183672500Y-80885000D01*
G75*
G02*
X183610000Y-80822500I0J62500D01*
G01*
G37*
G36*
G01*
X183610000Y-80322500D02*
X183610000Y-80197500D01*
G75*
G02*
X183672500Y-80135000I62500J0D01*
G01*
X184422500Y-80135000D01*
G75*
G02*
X184485000Y-80197500I0J-62500D01*
G01*
X184485000Y-80322500D01*
G75*
G02*
X184422500Y-80385000I-62500J0D01*
G01*
X183672500Y-80385000D01*
G75*
G02*
X183610000Y-80322500I0J62500D01*
G01*
G37*
G36*
G01*
X183610000Y-79822500D02*
X183610000Y-79697500D01*
G75*
G02*
X183672500Y-79635000I62500J0D01*
G01*
X184422500Y-79635000D01*
G75*
G02*
X184485000Y-79697500I0J-62500D01*
G01*
X184485000Y-79822500D01*
G75*
G02*
X184422500Y-79885000I-62500J0D01*
G01*
X183672500Y-79885000D01*
G75*
G02*
X183610000Y-79822500I0J62500D01*
G01*
G37*
G36*
G01*
X183610000Y-79322500D02*
X183610000Y-79197500D01*
G75*
G02*
X183672500Y-79135000I62500J0D01*
G01*
X184422500Y-79135000D01*
G75*
G02*
X184485000Y-79197500I0J-62500D01*
G01*
X184485000Y-79322500D01*
G75*
G02*
X184422500Y-79385000I-62500J0D01*
G01*
X183672500Y-79385000D01*
G75*
G02*
X183610000Y-79322500I0J62500D01*
G01*
G37*
G36*
G01*
X183610000Y-78822500D02*
X183610000Y-78697500D01*
G75*
G02*
X183672500Y-78635000I62500J0D01*
G01*
X184422500Y-78635000D01*
G75*
G02*
X184485000Y-78697500I0J-62500D01*
G01*
X184485000Y-78822500D01*
G75*
G02*
X184422500Y-78885000I-62500J0D01*
G01*
X183672500Y-78885000D01*
G75*
G02*
X183610000Y-78822500I0J62500D01*
G01*
G37*
G36*
G01*
X183610000Y-78322500D02*
X183610000Y-78197500D01*
G75*
G02*
X183672500Y-78135000I62500J0D01*
G01*
X184422500Y-78135000D01*
G75*
G02*
X184485000Y-78197500I0J-62500D01*
G01*
X184485000Y-78322500D01*
G75*
G02*
X184422500Y-78385000I-62500J0D01*
G01*
X183672500Y-78385000D01*
G75*
G02*
X183610000Y-78322500I0J62500D01*
G01*
G37*
G36*
G01*
X183235000Y-77947500D02*
X183235000Y-77197500D01*
G75*
G02*
X183297500Y-77135000I62500J0D01*
G01*
X183422500Y-77135000D01*
G75*
G02*
X183485000Y-77197500I0J-62500D01*
G01*
X183485000Y-77947500D01*
G75*
G02*
X183422500Y-78010000I-62500J0D01*
G01*
X183297500Y-78010000D01*
G75*
G02*
X183235000Y-77947500I0J62500D01*
G01*
G37*
G36*
G01*
X182735000Y-77947500D02*
X182735000Y-77197500D01*
G75*
G02*
X182797500Y-77135000I62500J0D01*
G01*
X182922500Y-77135000D01*
G75*
G02*
X182985000Y-77197500I0J-62500D01*
G01*
X182985000Y-77947500D01*
G75*
G02*
X182922500Y-78010000I-62500J0D01*
G01*
X182797500Y-78010000D01*
G75*
G02*
X182735000Y-77947500I0J62500D01*
G01*
G37*
G36*
G01*
X182235000Y-77947500D02*
X182235000Y-77197500D01*
G75*
G02*
X182297500Y-77135000I62500J0D01*
G01*
X182422500Y-77135000D01*
G75*
G02*
X182485000Y-77197500I0J-62500D01*
G01*
X182485000Y-77947500D01*
G75*
G02*
X182422500Y-78010000I-62500J0D01*
G01*
X182297500Y-78010000D01*
G75*
G02*
X182235000Y-77947500I0J62500D01*
G01*
G37*
G36*
G01*
X181735000Y-77947500D02*
X181735000Y-77197500D01*
G75*
G02*
X181797500Y-77135000I62500J0D01*
G01*
X181922500Y-77135000D01*
G75*
G02*
X181985000Y-77197500I0J-62500D01*
G01*
X181985000Y-77947500D01*
G75*
G02*
X181922500Y-78010000I-62500J0D01*
G01*
X181797500Y-78010000D01*
G75*
G02*
X181735000Y-77947500I0J62500D01*
G01*
G37*
G36*
G01*
X181235000Y-77947500D02*
X181235000Y-77197500D01*
G75*
G02*
X181297500Y-77135000I62500J0D01*
G01*
X181422500Y-77135000D01*
G75*
G02*
X181485000Y-77197500I0J-62500D01*
G01*
X181485000Y-77947500D01*
G75*
G02*
X181422500Y-78010000I-62500J0D01*
G01*
X181297500Y-78010000D01*
G75*
G02*
X181235000Y-77947500I0J62500D01*
G01*
G37*
G36*
G01*
X180735000Y-77947500D02*
X180735000Y-77197500D01*
G75*
G02*
X180797500Y-77135000I62500J0D01*
G01*
X180922500Y-77135000D01*
G75*
G02*
X180985000Y-77197500I0J-62500D01*
G01*
X180985000Y-77947500D01*
G75*
G02*
X180922500Y-78010000I-62500J0D01*
G01*
X180797500Y-78010000D01*
G75*
G02*
X180735000Y-77947500I0J62500D01*
G01*
G37*
G36*
G01*
X180235000Y-77947500D02*
X180235000Y-77197500D01*
G75*
G02*
X180297500Y-77135000I62500J0D01*
G01*
X180422500Y-77135000D01*
G75*
G02*
X180485000Y-77197500I0J-62500D01*
G01*
X180485000Y-77947500D01*
G75*
G02*
X180422500Y-78010000I-62500J0D01*
G01*
X180297500Y-78010000D01*
G75*
G02*
X180235000Y-77947500I0J62500D01*
G01*
G37*
G36*
G01*
X179735000Y-77947500D02*
X179735000Y-77197500D01*
G75*
G02*
X179797500Y-77135000I62500J0D01*
G01*
X179922500Y-77135000D01*
G75*
G02*
X179985000Y-77197500I0J-62500D01*
G01*
X179985000Y-77947500D01*
G75*
G02*
X179922500Y-78010000I-62500J0D01*
G01*
X179797500Y-78010000D01*
G75*
G02*
X179735000Y-77947500I0J62500D01*
G01*
G37*
G36*
G01*
X180706887Y-79711557D02*
X180706887Y-79308443D01*
G75*
G02*
X180908443Y-79106887I201556J0D01*
G01*
X181311557Y-79106887D01*
G75*
G02*
X181513113Y-79308443I0J-201556D01*
G01*
X181513113Y-79711557D01*
G75*
G02*
X181311557Y-79913113I-201556J0D01*
G01*
X180908443Y-79913113D01*
G75*
G02*
X180706887Y-79711557I0J201556D01*
G01*
G37*
G36*
G01*
X180706887Y-80711557D02*
X180706887Y-80308443D01*
G75*
G02*
X180908443Y-80106887I201556J0D01*
G01*
X181311557Y-80106887D01*
G75*
G02*
X181513113Y-80308443I0J-201556D01*
G01*
X181513113Y-80711557D01*
G75*
G02*
X181311557Y-80913113I-201556J0D01*
G01*
X180908443Y-80913113D01*
G75*
G02*
X180706887Y-80711557I0J201556D01*
G01*
G37*
G36*
G01*
X181706887Y-79711557D02*
X181706887Y-79308443D01*
G75*
G02*
X181908443Y-79106887I201556J0D01*
G01*
X182311557Y-79106887D01*
G75*
G02*
X182513113Y-79308443I0J-201556D01*
G01*
X182513113Y-79711557D01*
G75*
G02*
X182311557Y-79913113I-201556J0D01*
G01*
X181908443Y-79913113D01*
G75*
G02*
X181706887Y-79711557I0J201556D01*
G01*
G37*
G36*
G01*
X181706887Y-80711557D02*
X181706887Y-80308443D01*
G75*
G02*
X181908443Y-80106887I201556J0D01*
G01*
X182311557Y-80106887D01*
G75*
G02*
X182513113Y-80308443I0J-201556D01*
G01*
X182513113Y-80711557D01*
G75*
G02*
X182311557Y-80913113I-201556J0D01*
G01*
X181908443Y-80913113D01*
G75*
G02*
X181706887Y-80711557I0J201556D01*
G01*
G37*
D11*
G36*
X180403488Y-79108690D02*
G01*
X180421087Y-79114028D01*
X180437305Y-79122697D01*
X180451521Y-79134363D01*
X180529236Y-79212078D01*
X180540902Y-79226294D01*
X180549571Y-79242512D01*
X180554909Y-79260111D01*
X180556712Y-79278412D01*
X180556712Y-79741588D01*
X180554909Y-79759889D01*
X180549571Y-79777488D01*
X180540902Y-79793706D01*
X180529236Y-79807922D01*
X180451521Y-79885637D01*
X180437305Y-79897303D01*
X180421087Y-79905972D01*
X180403488Y-79911310D01*
X180385187Y-79913113D01*
X180207098Y-79913113D01*
X180188797Y-79911310D01*
X180171198Y-79905972D01*
X180154980Y-79897303D01*
X180140764Y-79885637D01*
X180129098Y-79871421D01*
X180120429Y-79855203D01*
X180115091Y-79837604D01*
X180113288Y-79819303D01*
X180113288Y-79200697D01*
X180115091Y-79182396D01*
X180120429Y-79164797D01*
X180129098Y-79148579D01*
X180140764Y-79134363D01*
X180154980Y-79122697D01*
X180171198Y-79114028D01*
X180188797Y-79108690D01*
X180207098Y-79106887D01*
X180385187Y-79106887D01*
X180403488Y-79108690D01*
G37*
G36*
X180403488Y-80108690D02*
G01*
X180421087Y-80114028D01*
X180437305Y-80122697D01*
X180451521Y-80134363D01*
X180529236Y-80212078D01*
X180540902Y-80226294D01*
X180549571Y-80242512D01*
X180554909Y-80260111D01*
X180556712Y-80278412D01*
X180556712Y-80741588D01*
X180554909Y-80759889D01*
X180549571Y-80777488D01*
X180540902Y-80793706D01*
X180529236Y-80807922D01*
X180451521Y-80885637D01*
X180437305Y-80897303D01*
X180421087Y-80905972D01*
X180403488Y-80911310D01*
X180385187Y-80913113D01*
X180207098Y-80913113D01*
X180188797Y-80911310D01*
X180171198Y-80905972D01*
X180154980Y-80897303D01*
X180140764Y-80885637D01*
X180129098Y-80871421D01*
X180120429Y-80855203D01*
X180115091Y-80837604D01*
X180113288Y-80819303D01*
X180113288Y-80200697D01*
X180115091Y-80182396D01*
X180120429Y-80164797D01*
X180129098Y-80148579D01*
X180140764Y-80134363D01*
X180154980Y-80122697D01*
X180171198Y-80114028D01*
X180188797Y-80108690D01*
X180207098Y-80106887D01*
X180385187Y-80106887D01*
X180403488Y-80108690D01*
G37*
G36*
X183031203Y-79108690D02*
G01*
X183048802Y-79114028D01*
X183065020Y-79122697D01*
X183079236Y-79134363D01*
X183090902Y-79148579D01*
X183099571Y-79164797D01*
X183104909Y-79182396D01*
X183106712Y-79200697D01*
X183106712Y-79819303D01*
X183104909Y-79837604D01*
X183099571Y-79855203D01*
X183090902Y-79871421D01*
X183079236Y-79885637D01*
X183065020Y-79897303D01*
X183048802Y-79905972D01*
X183031203Y-79911310D01*
X183012902Y-79913113D01*
X182834813Y-79913113D01*
X182816512Y-79911310D01*
X182798913Y-79905972D01*
X182782695Y-79897303D01*
X182768479Y-79885637D01*
X182690764Y-79807922D01*
X182679098Y-79793706D01*
X182670429Y-79777488D01*
X182665091Y-79759889D01*
X182663288Y-79741588D01*
X182663288Y-79278412D01*
X182665091Y-79260111D01*
X182670429Y-79242512D01*
X182679098Y-79226294D01*
X182690764Y-79212078D01*
X182768479Y-79134363D01*
X182782695Y-79122697D01*
X182798913Y-79114028D01*
X182816512Y-79108690D01*
X182834813Y-79106887D01*
X183012902Y-79106887D01*
X183031203Y-79108690D01*
G37*
G36*
X183031203Y-80108690D02*
G01*
X183048802Y-80114028D01*
X183065020Y-80122697D01*
X183079236Y-80134363D01*
X183090902Y-80148579D01*
X183099571Y-80164797D01*
X183104909Y-80182396D01*
X183106712Y-80200697D01*
X183106712Y-80819303D01*
X183104909Y-80837604D01*
X183099571Y-80855203D01*
X183090902Y-80871421D01*
X183079236Y-80885637D01*
X183065020Y-80897303D01*
X183048802Y-80905972D01*
X183031203Y-80911310D01*
X183012902Y-80913113D01*
X182834813Y-80913113D01*
X182816512Y-80911310D01*
X182798913Y-80905972D01*
X182782695Y-80897303D01*
X182768479Y-80885637D01*
X182690764Y-80807922D01*
X182679098Y-80793706D01*
X182670429Y-80777488D01*
X182665091Y-80759889D01*
X182663288Y-80741588D01*
X182663288Y-80278412D01*
X182665091Y-80260111D01*
X182670429Y-80242512D01*
X182679098Y-80226294D01*
X182690764Y-80212078D01*
X182768479Y-80134363D01*
X182782695Y-80122697D01*
X182798913Y-80114028D01*
X182816512Y-80108690D01*
X182834813Y-80106887D01*
X183012902Y-80106887D01*
X183031203Y-80108690D01*
G37*
G36*
X181437604Y-78515091D02*
G01*
X181455203Y-78520429D01*
X181471421Y-78529098D01*
X181485637Y-78540764D01*
X181497303Y-78554980D01*
X181505972Y-78571198D01*
X181511310Y-78588797D01*
X181513113Y-78607098D01*
X181513113Y-78785187D01*
X181511310Y-78803488D01*
X181505972Y-78821087D01*
X181497303Y-78837305D01*
X181485637Y-78851521D01*
X181407922Y-78929236D01*
X181393706Y-78940902D01*
X181377488Y-78949571D01*
X181359889Y-78954909D01*
X181341588Y-78956712D01*
X180878412Y-78956712D01*
X180860111Y-78954909D01*
X180842512Y-78949571D01*
X180826294Y-78940902D01*
X180812078Y-78929236D01*
X180734363Y-78851521D01*
X180722697Y-78837305D01*
X180714028Y-78821087D01*
X180708690Y-78803488D01*
X180706887Y-78785187D01*
X180706887Y-78607098D01*
X180708690Y-78588797D01*
X180714028Y-78571198D01*
X180722697Y-78554980D01*
X180734363Y-78540764D01*
X180748579Y-78529098D01*
X180764797Y-78520429D01*
X180782396Y-78515091D01*
X180800697Y-78513288D01*
X181419303Y-78513288D01*
X181437604Y-78515091D01*
G37*
G36*
X182437604Y-78515091D02*
G01*
X182455203Y-78520429D01*
X182471421Y-78529098D01*
X182485637Y-78540764D01*
X182497303Y-78554980D01*
X182505972Y-78571198D01*
X182511310Y-78588797D01*
X182513113Y-78607098D01*
X182513113Y-78785187D01*
X182511310Y-78803488D01*
X182505972Y-78821087D01*
X182497303Y-78837305D01*
X182485637Y-78851521D01*
X182407922Y-78929236D01*
X182393706Y-78940902D01*
X182377488Y-78949571D01*
X182359889Y-78954909D01*
X182341588Y-78956712D01*
X181878412Y-78956712D01*
X181860111Y-78954909D01*
X181842512Y-78949571D01*
X181826294Y-78940902D01*
X181812078Y-78929236D01*
X181734363Y-78851521D01*
X181722697Y-78837305D01*
X181714028Y-78821087D01*
X181708690Y-78803488D01*
X181706887Y-78785187D01*
X181706887Y-78607098D01*
X181708690Y-78588797D01*
X181714028Y-78571198D01*
X181722697Y-78554980D01*
X181734363Y-78540764D01*
X181748579Y-78529098D01*
X181764797Y-78520429D01*
X181782396Y-78515091D01*
X181800697Y-78513288D01*
X182419303Y-78513288D01*
X182437604Y-78515091D01*
G37*
G36*
X181359889Y-81065091D02*
G01*
X181377488Y-81070429D01*
X181393706Y-81079098D01*
X181407922Y-81090764D01*
X181485637Y-81168479D01*
X181497303Y-81182695D01*
X181505972Y-81198913D01*
X181511310Y-81216512D01*
X181513113Y-81234813D01*
X181513113Y-81412902D01*
X181511310Y-81431203D01*
X181505972Y-81448802D01*
X181497303Y-81465020D01*
X181485637Y-81479236D01*
X181471421Y-81490902D01*
X181455203Y-81499571D01*
X181437604Y-81504909D01*
X181419303Y-81506712D01*
X180800697Y-81506712D01*
X180782396Y-81504909D01*
X180764797Y-81499571D01*
X180748579Y-81490902D01*
X180734363Y-81479236D01*
X180722697Y-81465020D01*
X180714028Y-81448802D01*
X180708690Y-81431203D01*
X180706887Y-81412902D01*
X180706887Y-81234813D01*
X180708690Y-81216512D01*
X180714028Y-81198913D01*
X180722697Y-81182695D01*
X180734363Y-81168479D01*
X180812078Y-81090764D01*
X180826294Y-81079098D01*
X180842512Y-81070429D01*
X180860111Y-81065091D01*
X180878412Y-81063288D01*
X181341588Y-81063288D01*
X181359889Y-81065091D01*
G37*
G36*
X182359889Y-81065091D02*
G01*
X182377488Y-81070429D01*
X182393706Y-81079098D01*
X182407922Y-81090764D01*
X182485637Y-81168479D01*
X182497303Y-81182695D01*
X182505972Y-81198913D01*
X182511310Y-81216512D01*
X182513113Y-81234813D01*
X182513113Y-81412902D01*
X182511310Y-81431203D01*
X182505972Y-81448802D01*
X182497303Y-81465020D01*
X182485637Y-81479236D01*
X182471421Y-81490902D01*
X182455203Y-81499571D01*
X182437604Y-81504909D01*
X182419303Y-81506712D01*
X181800697Y-81506712D01*
X181782396Y-81504909D01*
X181764797Y-81499571D01*
X181748579Y-81490902D01*
X181734363Y-81479236D01*
X181722697Y-81465020D01*
X181714028Y-81448802D01*
X181708690Y-81431203D01*
X181706887Y-81412902D01*
X181706887Y-81234813D01*
X181708690Y-81216512D01*
X181714028Y-81198913D01*
X181722697Y-81182695D01*
X181734363Y-81168479D01*
X181812078Y-81090764D01*
X181826294Y-81079098D01*
X181842512Y-81070429D01*
X181860111Y-81065091D01*
X181878412Y-81063288D01*
X182341588Y-81063288D01*
X182359889Y-81065091D01*
G37*
G36*
X180467483Y-78515418D02*
G01*
X180488279Y-78521726D01*
X180507444Y-78531971D01*
X180524243Y-78545757D01*
X180538029Y-78562556D01*
X180548274Y-78581721D01*
X180554582Y-78602517D01*
X180556712Y-78624144D01*
X180556712Y-78734527D01*
X180554582Y-78756154D01*
X180548274Y-78776950D01*
X180538029Y-78796115D01*
X180524243Y-78812914D01*
X180412914Y-78924243D01*
X180396115Y-78938029D01*
X180376950Y-78948274D01*
X180356154Y-78954582D01*
X180334527Y-78956712D01*
X180224144Y-78956712D01*
X180202517Y-78954582D01*
X180181721Y-78948274D01*
X180162556Y-78938029D01*
X180145757Y-78924243D01*
X180131971Y-78907444D01*
X180121726Y-78888279D01*
X180115418Y-78867483D01*
X180113288Y-78845856D01*
X180113288Y-78624144D01*
X180115418Y-78602517D01*
X180121726Y-78581721D01*
X180131971Y-78562556D01*
X180145757Y-78545757D01*
X180162556Y-78531971D01*
X180181721Y-78521726D01*
X180202517Y-78515418D01*
X180224144Y-78513288D01*
X180445856Y-78513288D01*
X180467483Y-78515418D01*
G37*
G36*
X180356154Y-81065418D02*
G01*
X180376950Y-81071726D01*
X180396115Y-81081971D01*
X180412914Y-81095757D01*
X180524243Y-81207086D01*
X180538029Y-81223885D01*
X180548274Y-81243050D01*
X180554582Y-81263846D01*
X180556712Y-81285473D01*
X180556712Y-81395856D01*
X180554582Y-81417483D01*
X180548274Y-81438279D01*
X180538029Y-81457444D01*
X180524243Y-81474243D01*
X180507444Y-81488029D01*
X180488279Y-81498274D01*
X180467483Y-81504582D01*
X180445856Y-81506712D01*
X180224144Y-81506712D01*
X180202517Y-81504582D01*
X180181721Y-81498274D01*
X180162556Y-81488029D01*
X180145757Y-81474243D01*
X180131971Y-81457444D01*
X180121726Y-81438279D01*
X180115418Y-81417483D01*
X180113288Y-81395856D01*
X180113288Y-81174144D01*
X180115418Y-81152517D01*
X180121726Y-81131721D01*
X180131971Y-81112556D01*
X180145757Y-81095757D01*
X180162556Y-81081971D01*
X180181721Y-81071726D01*
X180202517Y-81065418D01*
X180224144Y-81063288D01*
X180334527Y-81063288D01*
X180356154Y-81065418D01*
G37*
G36*
X183017483Y-78515418D02*
G01*
X183038279Y-78521726D01*
X183057444Y-78531971D01*
X183074243Y-78545757D01*
X183088029Y-78562556D01*
X183098274Y-78581721D01*
X183104582Y-78602517D01*
X183106712Y-78624144D01*
X183106712Y-78845856D01*
X183104582Y-78867483D01*
X183098274Y-78888279D01*
X183088029Y-78907444D01*
X183074243Y-78924243D01*
X183057444Y-78938029D01*
X183038279Y-78948274D01*
X183017483Y-78954582D01*
X182995856Y-78956712D01*
X182885473Y-78956712D01*
X182863846Y-78954582D01*
X182843050Y-78948274D01*
X182823885Y-78938029D01*
X182807086Y-78924243D01*
X182695757Y-78812914D01*
X182681971Y-78796115D01*
X182671726Y-78776950D01*
X182665418Y-78756154D01*
X182663288Y-78734527D01*
X182663288Y-78624144D01*
X182665418Y-78602517D01*
X182671726Y-78581721D01*
X182681971Y-78562556D01*
X182695757Y-78545757D01*
X182712556Y-78531971D01*
X182731721Y-78521726D01*
X182752517Y-78515418D01*
X182774144Y-78513288D01*
X182995856Y-78513288D01*
X183017483Y-78515418D01*
G37*
G36*
X183017483Y-81065418D02*
G01*
X183038279Y-81071726D01*
X183057444Y-81081971D01*
X183074243Y-81095757D01*
X183088029Y-81112556D01*
X183098274Y-81131721D01*
X183104582Y-81152517D01*
X183106712Y-81174144D01*
X183106712Y-81395856D01*
X183104582Y-81417483D01*
X183098274Y-81438279D01*
X183088029Y-81457444D01*
X183074243Y-81474243D01*
X183057444Y-81488029D01*
X183038279Y-81498274D01*
X183017483Y-81504582D01*
X182995856Y-81506712D01*
X182774144Y-81506712D01*
X182752517Y-81504582D01*
X182731721Y-81498274D01*
X182712556Y-81488029D01*
X182695757Y-81474243D01*
X182681971Y-81457444D01*
X182671726Y-81438279D01*
X182665418Y-81417483D01*
X182663288Y-81395856D01*
X182663288Y-81285473D01*
X182665418Y-81263846D01*
X182671726Y-81243050D01*
X182681971Y-81223885D01*
X182695757Y-81207086D01*
X182807086Y-81095757D01*
X182823885Y-81081971D01*
X182843050Y-81071726D01*
X182863846Y-81065418D01*
X182885473Y-81063288D01*
X182995856Y-81063288D01*
X183017483Y-81065418D01*
G37*
G36*
G01*
X209492001Y-95054000D02*
X208591999Y-95054000D01*
G75*
G02*
X208342000Y-94804001I0J249999D01*
G01*
X208342000Y-94153999D01*
G75*
G02*
X208591999Y-93904000I249999J0D01*
G01*
X209492001Y-93904000D01*
G75*
G02*
X209742000Y-94153999I0J-249999D01*
G01*
X209742000Y-94804001D01*
G75*
G02*
X209492001Y-95054000I-249999J0D01*
G01*
G37*
G36*
G01*
X209492001Y-97104000D02*
X208591999Y-97104000D01*
G75*
G02*
X208342000Y-96854001I0J249999D01*
G01*
X208342000Y-96203999D01*
G75*
G02*
X208591999Y-95954000I249999J0D01*
G01*
X209492001Y-95954000D01*
G75*
G02*
X209742000Y-96203999I0J-249999D01*
G01*
X209742000Y-96854001D01*
G75*
G02*
X209492001Y-97104000I-249999J0D01*
G01*
G37*
G36*
G01*
X207206001Y-95054000D02*
X206305999Y-95054000D01*
G75*
G02*
X206056000Y-94804001I0J249999D01*
G01*
X206056000Y-94153999D01*
G75*
G02*
X206305999Y-93904000I249999J0D01*
G01*
X207206001Y-93904000D01*
G75*
G02*
X207456000Y-94153999I0J-249999D01*
G01*
X207456000Y-94804001D01*
G75*
G02*
X207206001Y-95054000I-249999J0D01*
G01*
G37*
G36*
G01*
X207206001Y-97104000D02*
X206305999Y-97104000D01*
G75*
G02*
X206056000Y-96854001I0J249999D01*
G01*
X206056000Y-96203999D01*
G75*
G02*
X206305999Y-95954000I249999J0D01*
G01*
X207206001Y-95954000D01*
G75*
G02*
X207456000Y-96203999I0J-249999D01*
G01*
X207456000Y-96854001D01*
G75*
G02*
X207206001Y-97104000I-249999J0D01*
G01*
G37*
G36*
G01*
X148748000Y-98060500D02*
X148748000Y-98535500D01*
G75*
G02*
X148510500Y-98773000I-237500J0D01*
G01*
X147935500Y-98773000D01*
G75*
G02*
X147698000Y-98535500I0J237500D01*
G01*
X147698000Y-98060500D01*
G75*
G02*
X147935500Y-97823000I237500J0D01*
G01*
X148510500Y-97823000D01*
G75*
G02*
X148748000Y-98060500I0J-237500D01*
G01*
G37*
G36*
G01*
X150498000Y-98060500D02*
X150498000Y-98535500D01*
G75*
G02*
X150260500Y-98773000I-237500J0D01*
G01*
X149685500Y-98773000D01*
G75*
G02*
X149448000Y-98535500I0J237500D01*
G01*
X149448000Y-98060500D01*
G75*
G02*
X149685500Y-97823000I237500J0D01*
G01*
X150260500Y-97823000D01*
G75*
G02*
X150498000Y-98060500I0J-237500D01*
G01*
G37*
G36*
G01*
X167228000Y-86343500D02*
X167228000Y-85868500D01*
G75*
G02*
X167465500Y-85631000I237500J0D01*
G01*
X168040500Y-85631000D01*
G75*
G02*
X168278000Y-85868500I0J-237500D01*
G01*
X168278000Y-86343500D01*
G75*
G02*
X168040500Y-86581000I-237500J0D01*
G01*
X167465500Y-86581000D01*
G75*
G02*
X167228000Y-86343500I0J237500D01*
G01*
G37*
G36*
G01*
X165478000Y-86343500D02*
X165478000Y-85868500D01*
G75*
G02*
X165715500Y-85631000I237500J0D01*
G01*
X166290500Y-85631000D01*
G75*
G02*
X166528000Y-85868500I0J-237500D01*
G01*
X166528000Y-86343500D01*
G75*
G02*
X166290500Y-86581000I-237500J0D01*
G01*
X165715500Y-86581000D01*
G75*
G02*
X165478000Y-86343500I0J237500D01*
G01*
G37*
G36*
G01*
X148432000Y-74405500D02*
X148432000Y-73930500D01*
G75*
G02*
X148669500Y-73693000I237500J0D01*
G01*
X149244500Y-73693000D01*
G75*
G02*
X149482000Y-73930500I0J-237500D01*
G01*
X149482000Y-74405500D01*
G75*
G02*
X149244500Y-74643000I-237500J0D01*
G01*
X148669500Y-74643000D01*
G75*
G02*
X148432000Y-74405500I0J237500D01*
G01*
G37*
G36*
G01*
X146682000Y-74405500D02*
X146682000Y-73930500D01*
G75*
G02*
X146919500Y-73693000I237500J0D01*
G01*
X147494500Y-73693000D01*
G75*
G02*
X147732000Y-73930500I0J-237500D01*
G01*
X147732000Y-74405500D01*
G75*
G02*
X147494500Y-74643000I-237500J0D01*
G01*
X146919500Y-74643000D01*
G75*
G02*
X146682000Y-74405500I0J237500D01*
G01*
G37*
G36*
G01*
X148686000Y-82533500D02*
X148686000Y-82058500D01*
G75*
G02*
X148923500Y-81821000I237500J0D01*
G01*
X149498500Y-81821000D01*
G75*
G02*
X149736000Y-82058500I0J-237500D01*
G01*
X149736000Y-82533500D01*
G75*
G02*
X149498500Y-82771000I-237500J0D01*
G01*
X148923500Y-82771000D01*
G75*
G02*
X148686000Y-82533500I0J237500D01*
G01*
G37*
G36*
G01*
X146936000Y-82533500D02*
X146936000Y-82058500D01*
G75*
G02*
X147173500Y-81821000I237500J0D01*
G01*
X147748500Y-81821000D01*
G75*
G02*
X147986000Y-82058500I0J-237500D01*
G01*
X147986000Y-82533500D01*
G75*
G02*
X147748500Y-82771000I-237500J0D01*
G01*
X147173500Y-82771000D01*
G75*
G02*
X146936000Y-82533500I0J237500D01*
G01*
G37*
D12*
X143526000Y-81280000D03*
X145526000Y-80330000D03*
X145526000Y-82230000D03*
G36*
G01*
X148786000Y-76650001D02*
X148786000Y-75749999D01*
G75*
G02*
X149035999Y-75500000I249999J0D01*
G01*
X149686001Y-75500000D01*
G75*
G02*
X149936000Y-75749999I0J-249999D01*
G01*
X149936000Y-76650001D01*
G75*
G02*
X149686001Y-76900000I-249999J0D01*
G01*
X149035999Y-76900000D01*
G75*
G02*
X148786000Y-76650001I0J249999D01*
G01*
G37*
G36*
G01*
X146736000Y-76650001D02*
X146736000Y-75749999D01*
G75*
G02*
X146985999Y-75500000I249999J0D01*
G01*
X147636001Y-75500000D01*
G75*
G02*
X147886000Y-75749999I0J-249999D01*
G01*
X147886000Y-76650001D01*
G75*
G02*
X147636001Y-76900000I-249999J0D01*
G01*
X146985999Y-76900000D01*
G75*
G02*
X146736000Y-76650001I0J249999D01*
G01*
G37*
G36*
G01*
X149040000Y-80714001D02*
X149040000Y-79813999D01*
G75*
G02*
X149289999Y-79564000I249999J0D01*
G01*
X149940001Y-79564000D01*
G75*
G02*
X150190000Y-79813999I0J-249999D01*
G01*
X150190000Y-80714001D01*
G75*
G02*
X149940001Y-80964000I-249999J0D01*
G01*
X149289999Y-80964000D01*
G75*
G02*
X149040000Y-80714001I0J249999D01*
G01*
G37*
G36*
G01*
X146990000Y-80714001D02*
X146990000Y-79813999D01*
G75*
G02*
X147239999Y-79564000I249999J0D01*
G01*
X147890001Y-79564000D01*
G75*
G02*
X148140000Y-79813999I0J-249999D01*
G01*
X148140000Y-80714001D01*
G75*
G02*
X147890001Y-80964000I-249999J0D01*
G01*
X147239999Y-80964000D01*
G75*
G02*
X146990000Y-80714001I0J249999D01*
G01*
G37*
G36*
G01*
X148432000Y-78469500D02*
X148432000Y-77994500D01*
G75*
G02*
X148669500Y-77757000I237500J0D01*
G01*
X149244500Y-77757000D01*
G75*
G02*
X149482000Y-77994500I0J-237500D01*
G01*
X149482000Y-78469500D01*
G75*
G02*
X149244500Y-78707000I-237500J0D01*
G01*
X148669500Y-78707000D01*
G75*
G02*
X148432000Y-78469500I0J237500D01*
G01*
G37*
G36*
G01*
X146682000Y-78469500D02*
X146682000Y-77994500D01*
G75*
G02*
X146919500Y-77757000I237500J0D01*
G01*
X147494500Y-77757000D01*
G75*
G02*
X147732000Y-77994500I0J-237500D01*
G01*
X147732000Y-78469500D01*
G75*
G02*
X147494500Y-78707000I-237500J0D01*
G01*
X146919500Y-78707000D01*
G75*
G02*
X146682000Y-78469500I0J237500D01*
G01*
G37*
G36*
G01*
X151113500Y-82708000D02*
X150638500Y-82708000D01*
G75*
G02*
X150401000Y-82470500I0J237500D01*
G01*
X150401000Y-81895500D01*
G75*
G02*
X150638500Y-81658000I237500J0D01*
G01*
X151113500Y-81658000D01*
G75*
G02*
X151351000Y-81895500I0J-237500D01*
G01*
X151351000Y-82470500D01*
G75*
G02*
X151113500Y-82708000I-237500J0D01*
G01*
G37*
G36*
G01*
X151113500Y-84458000D02*
X150638500Y-84458000D01*
G75*
G02*
X150401000Y-84220500I0J237500D01*
G01*
X150401000Y-83645500D01*
G75*
G02*
X150638500Y-83408000I237500J0D01*
G01*
X151113500Y-83408000D01*
G75*
G02*
X151351000Y-83645500I0J-237500D01*
G01*
X151351000Y-84220500D01*
G75*
G02*
X151113500Y-84458000I-237500J0D01*
G01*
G37*
G36*
G01*
X208804500Y-92044000D02*
X209279500Y-92044000D01*
G75*
G02*
X209517000Y-92281500I0J-237500D01*
G01*
X209517000Y-92856500D01*
G75*
G02*
X209279500Y-93094000I-237500J0D01*
G01*
X208804500Y-93094000D01*
G75*
G02*
X208567000Y-92856500I0J237500D01*
G01*
X208567000Y-92281500D01*
G75*
G02*
X208804500Y-92044000I237500J0D01*
G01*
G37*
G36*
G01*
X208804500Y-90294000D02*
X209279500Y-90294000D01*
G75*
G02*
X209517000Y-90531500I0J-237500D01*
G01*
X209517000Y-91106500D01*
G75*
G02*
X209279500Y-91344000I-237500J0D01*
G01*
X208804500Y-91344000D01*
G75*
G02*
X208567000Y-91106500I0J237500D01*
G01*
X208567000Y-90531500D01*
G75*
G02*
X208804500Y-90294000I237500J0D01*
G01*
G37*
G36*
G01*
X206518500Y-92044000D02*
X206993500Y-92044000D01*
G75*
G02*
X207231000Y-92281500I0J-237500D01*
G01*
X207231000Y-92856500D01*
G75*
G02*
X206993500Y-93094000I-237500J0D01*
G01*
X206518500Y-93094000D01*
G75*
G02*
X206281000Y-92856500I0J237500D01*
G01*
X206281000Y-92281500D01*
G75*
G02*
X206518500Y-92044000I237500J0D01*
G01*
G37*
G36*
G01*
X206518500Y-90294000D02*
X206993500Y-90294000D01*
G75*
G02*
X207231000Y-90531500I0J-237500D01*
G01*
X207231000Y-91106500D01*
G75*
G02*
X206993500Y-91344000I-237500J0D01*
G01*
X206518500Y-91344000D01*
G75*
G02*
X206281000Y-91106500I0J237500D01*
G01*
X206281000Y-90531500D01*
G75*
G02*
X206518500Y-90294000I237500J0D01*
G01*
G37*
X143526000Y-77216000D03*
X145526000Y-76266000D03*
X145526000Y-78166000D03*
D13*
X145274000Y-94336000D03*
X149874000Y-94336000D03*
X147574000Y-94336000D03*
D14*
X147574000Y-88036000D03*
G36*
G01*
X148748000Y-96282500D02*
X148748000Y-96757500D01*
G75*
G02*
X148510500Y-96995000I-237500J0D01*
G01*
X147935500Y-96995000D01*
G75*
G02*
X147698000Y-96757500I0J237500D01*
G01*
X147698000Y-96282500D01*
G75*
G02*
X147935500Y-96045000I237500J0D01*
G01*
X148510500Y-96045000D01*
G75*
G02*
X148748000Y-96282500I0J-237500D01*
G01*
G37*
G36*
G01*
X150498000Y-96282500D02*
X150498000Y-96757500D01*
G75*
G02*
X150260500Y-96995000I-237500J0D01*
G01*
X149685500Y-96995000D01*
G75*
G02*
X149448000Y-96757500I0J237500D01*
G01*
X149448000Y-96282500D01*
G75*
G02*
X149685500Y-96045000I237500J0D01*
G01*
X150260500Y-96045000D01*
G75*
G02*
X150498000Y-96282500I0J-237500D01*
G01*
G37*
G36*
G01*
X204199500Y-74326000D02*
X203724500Y-74326000D01*
G75*
G02*
X203487000Y-74088500I0J237500D01*
G01*
X203487000Y-73513500D01*
G75*
G02*
X203724500Y-73276000I237500J0D01*
G01*
X204199500Y-73276000D01*
G75*
G02*
X204437000Y-73513500I0J-237500D01*
G01*
X204437000Y-74088500D01*
G75*
G02*
X204199500Y-74326000I-237500J0D01*
G01*
G37*
G36*
G01*
X204199500Y-76076000D02*
X203724500Y-76076000D01*
G75*
G02*
X203487000Y-75838500I0J237500D01*
G01*
X203487000Y-75263500D01*
G75*
G02*
X203724500Y-75026000I237500J0D01*
G01*
X204199500Y-75026000D01*
G75*
G02*
X204437000Y-75263500I0J-237500D01*
G01*
X204437000Y-75838500D01*
G75*
G02*
X204199500Y-76076000I-237500J0D01*
G01*
G37*
G36*
G01*
X203724500Y-71470000D02*
X204199500Y-71470000D01*
G75*
G02*
X204437000Y-71707500I0J-237500D01*
G01*
X204437000Y-72282500D01*
G75*
G02*
X204199500Y-72520000I-237500J0D01*
G01*
X203724500Y-72520000D01*
G75*
G02*
X203487000Y-72282500I0J237500D01*
G01*
X203487000Y-71707500D01*
G75*
G02*
X203724500Y-71470000I237500J0D01*
G01*
G37*
G36*
G01*
X203724500Y-69720000D02*
X204199500Y-69720000D01*
G75*
G02*
X204437000Y-69957500I0J-237500D01*
G01*
X204437000Y-70532500D01*
G75*
G02*
X204199500Y-70770000I-237500J0D01*
G01*
X203724500Y-70770000D01*
G75*
G02*
X203487000Y-70532500I0J237500D01*
G01*
X203487000Y-69957500D01*
G75*
G02*
X203724500Y-69720000I237500J0D01*
G01*
G37*
G36*
G01*
X185690500Y-71724000D02*
X186165500Y-71724000D01*
G75*
G02*
X186403000Y-71961500I0J-237500D01*
G01*
X186403000Y-72536500D01*
G75*
G02*
X186165500Y-72774000I-237500J0D01*
G01*
X185690500Y-72774000D01*
G75*
G02*
X185453000Y-72536500I0J237500D01*
G01*
X185453000Y-71961500D01*
G75*
G02*
X185690500Y-71724000I237500J0D01*
G01*
G37*
G36*
G01*
X185690500Y-69974000D02*
X186165500Y-69974000D01*
G75*
G02*
X186403000Y-70211500I0J-237500D01*
G01*
X186403000Y-70786500D01*
G75*
G02*
X186165500Y-71024000I-237500J0D01*
G01*
X185690500Y-71024000D01*
G75*
G02*
X185453000Y-70786500I0J237500D01*
G01*
X185453000Y-70211500D01*
G75*
G02*
X185690500Y-69974000I237500J0D01*
G01*
G37*
G36*
G01*
X178070500Y-71724000D02*
X178545500Y-71724000D01*
G75*
G02*
X178783000Y-71961500I0J-237500D01*
G01*
X178783000Y-72536500D01*
G75*
G02*
X178545500Y-72774000I-237500J0D01*
G01*
X178070500Y-72774000D01*
G75*
G02*
X177833000Y-72536500I0J237500D01*
G01*
X177833000Y-71961500D01*
G75*
G02*
X178070500Y-71724000I237500J0D01*
G01*
G37*
G36*
G01*
X178070500Y-69974000D02*
X178545500Y-69974000D01*
G75*
G02*
X178783000Y-70211500I0J-237500D01*
G01*
X178783000Y-70786500D01*
G75*
G02*
X178545500Y-71024000I-237500J0D01*
G01*
X178070500Y-71024000D01*
G75*
G02*
X177833000Y-70786500I0J237500D01*
G01*
X177833000Y-70211500D01*
G75*
G02*
X178070500Y-69974000I237500J0D01*
G01*
G37*
G36*
G01*
X174848000Y-77453500D02*
X174848000Y-76978500D01*
G75*
G02*
X175085500Y-76741000I237500J0D01*
G01*
X175660500Y-76741000D01*
G75*
G02*
X175898000Y-76978500I0J-237500D01*
G01*
X175898000Y-77453500D01*
G75*
G02*
X175660500Y-77691000I-237500J0D01*
G01*
X175085500Y-77691000D01*
G75*
G02*
X174848000Y-77453500I0J237500D01*
G01*
G37*
G36*
G01*
X173098000Y-77453500D02*
X173098000Y-76978500D01*
G75*
G02*
X173335500Y-76741000I237500J0D01*
G01*
X173910500Y-76741000D01*
G75*
G02*
X174148000Y-76978500I0J-237500D01*
G01*
X174148000Y-77453500D01*
G75*
G02*
X173910500Y-77691000I-237500J0D01*
G01*
X173335500Y-77691000D01*
G75*
G02*
X173098000Y-77453500I0J237500D01*
G01*
G37*
G36*
G01*
X174848000Y-82787500D02*
X174848000Y-82312500D01*
G75*
G02*
X175085500Y-82075000I237500J0D01*
G01*
X175660500Y-82075000D01*
G75*
G02*
X175898000Y-82312500I0J-237500D01*
G01*
X175898000Y-82787500D01*
G75*
G02*
X175660500Y-83025000I-237500J0D01*
G01*
X175085500Y-83025000D01*
G75*
G02*
X174848000Y-82787500I0J237500D01*
G01*
G37*
G36*
G01*
X173098000Y-82787500D02*
X173098000Y-82312500D01*
G75*
G02*
X173335500Y-82075000I237500J0D01*
G01*
X173910500Y-82075000D01*
G75*
G02*
X174148000Y-82312500I0J-237500D01*
G01*
X174148000Y-82787500D01*
G75*
G02*
X173910500Y-83025000I-237500J0D01*
G01*
X173335500Y-83025000D01*
G75*
G02*
X173098000Y-82787500I0J237500D01*
G01*
G37*
G36*
G01*
X174848000Y-79231500D02*
X174848000Y-78756500D01*
G75*
G02*
X175085500Y-78519000I237500J0D01*
G01*
X175660500Y-78519000D01*
G75*
G02*
X175898000Y-78756500I0J-237500D01*
G01*
X175898000Y-79231500D01*
G75*
G02*
X175660500Y-79469000I-237500J0D01*
G01*
X175085500Y-79469000D01*
G75*
G02*
X174848000Y-79231500I0J237500D01*
G01*
G37*
G36*
G01*
X173098000Y-79231500D02*
X173098000Y-78756500D01*
G75*
G02*
X173335500Y-78519000I237500J0D01*
G01*
X173910500Y-78519000D01*
G75*
G02*
X174148000Y-78756500I0J-237500D01*
G01*
X174148000Y-79231500D01*
G75*
G02*
X173910500Y-79469000I-237500J0D01*
G01*
X173335500Y-79469000D01*
G75*
G02*
X173098000Y-79231500I0J237500D01*
G01*
G37*
G36*
G01*
X174848000Y-81009500D02*
X174848000Y-80534500D01*
G75*
G02*
X175085500Y-80297000I237500J0D01*
G01*
X175660500Y-80297000D01*
G75*
G02*
X175898000Y-80534500I0J-237500D01*
G01*
X175898000Y-81009500D01*
G75*
G02*
X175660500Y-81247000I-237500J0D01*
G01*
X175085500Y-81247000D01*
G75*
G02*
X174848000Y-81009500I0J237500D01*
G01*
G37*
G36*
G01*
X173098000Y-81009500D02*
X173098000Y-80534500D01*
G75*
G02*
X173335500Y-80297000I237500J0D01*
G01*
X173910500Y-80297000D01*
G75*
G02*
X174148000Y-80534500I0J-237500D01*
G01*
X174148000Y-81009500D01*
G75*
G02*
X173910500Y-81247000I-237500J0D01*
G01*
X173335500Y-81247000D01*
G75*
G02*
X173098000Y-81009500I0J237500D01*
G01*
G37*
G36*
G01*
X188818000Y-80501500D02*
X188818000Y-80026500D01*
G75*
G02*
X189055500Y-79789000I237500J0D01*
G01*
X189630500Y-79789000D01*
G75*
G02*
X189868000Y-80026500I0J-237500D01*
G01*
X189868000Y-80501500D01*
G75*
G02*
X189630500Y-80739000I-237500J0D01*
G01*
X189055500Y-80739000D01*
G75*
G02*
X188818000Y-80501500I0J237500D01*
G01*
G37*
G36*
G01*
X187068000Y-80501500D02*
X187068000Y-80026500D01*
G75*
G02*
X187305500Y-79789000I237500J0D01*
G01*
X187880500Y-79789000D01*
G75*
G02*
X188118000Y-80026500I0J-237500D01*
G01*
X188118000Y-80501500D01*
G75*
G02*
X187880500Y-80739000I-237500J0D01*
G01*
X187305500Y-80739000D01*
G75*
G02*
X187068000Y-80501500I0J237500D01*
G01*
G37*
M02*
