%FSLAX45Y45*%
G04 Gerber Fmt 4.5, Leading zero omitted, Abs format (unit mm)*
G04 Created by KiCad (PCBNEW (5.1.9)-1) date 2021-12-15 22:15:21*
%MOMM*%
%LPD*%
G01*
G04 APERTURE LIST*
%TA.AperFunction,Profile*%
%ADD10C,0.050000*%
%TD*%
%ADD11C,0.200000*%
%ADD12C,0.300000*%
G04 APERTURE END LIST*
D10*
X14000000Y-10100000D02*
X14000000Y-5100000D01*
X21500000Y-5100000D02*
X21500000Y-10100000D01*
X21500000Y-10100000D02*
X14000000Y-10100000D01*
X14000000Y-5100000D02*
X21500000Y-5100000D01*
D11*
X15908900Y-5415500D02*
X16018900Y-5525500D01*
X16018900Y-5415500D02*
X15908900Y-5525500D01*
X15908900Y-6115500D02*
X16018900Y-6225500D01*
X16018900Y-6115500D02*
X15908900Y-6225500D01*
X18360000Y-5415500D02*
X18470000Y-5525500D01*
X18470000Y-5415500D02*
X18360000Y-5525500D01*
X18360000Y-6115500D02*
X18470000Y-6225500D01*
X18470000Y-6115500D02*
X18360000Y-6225500D01*
D12*
X14283928Y-10568214D02*
X14283928Y-10268214D01*
X14355357Y-10268214D01*
X14398214Y-10282500D01*
X14426786Y-10311072D01*
X14441071Y-10339643D01*
X14455357Y-10396786D01*
X14455357Y-10439643D01*
X14441071Y-10496786D01*
X14426786Y-10525357D01*
X14398214Y-10553929D01*
X14355357Y-10568214D01*
X14283928Y-10568214D01*
X14583928Y-10568214D02*
X14583928Y-10368214D01*
X14583928Y-10425357D02*
X14598214Y-10396786D01*
X14612500Y-10382500D01*
X14641071Y-10368214D01*
X14669643Y-10368214D01*
X14769643Y-10568214D02*
X14769643Y-10368214D01*
X14769643Y-10268214D02*
X14755357Y-10282500D01*
X14769643Y-10296786D01*
X14783928Y-10282500D01*
X14769643Y-10268214D01*
X14769643Y-10296786D01*
X14955357Y-10568214D02*
X14926786Y-10553929D01*
X14912500Y-10525357D01*
X14912500Y-10268214D01*
X15112500Y-10568214D02*
X15083928Y-10553929D01*
X15069643Y-10525357D01*
X15069643Y-10268214D01*
X15455357Y-10568214D02*
X15455357Y-10268214D01*
X15555357Y-10482500D01*
X15655357Y-10268214D01*
X15655357Y-10568214D01*
X15926786Y-10568214D02*
X15926786Y-10411072D01*
X15912500Y-10382500D01*
X15883928Y-10368214D01*
X15826786Y-10368214D01*
X15798214Y-10382500D01*
X15926786Y-10553929D02*
X15898214Y-10568214D01*
X15826786Y-10568214D01*
X15798214Y-10553929D01*
X15783928Y-10525357D01*
X15783928Y-10496786D01*
X15798214Y-10468214D01*
X15826786Y-10453929D01*
X15898214Y-10453929D01*
X15926786Y-10439643D01*
X16069643Y-10368214D02*
X16069643Y-10668214D01*
X16069643Y-10382500D02*
X16098214Y-10368214D01*
X16155357Y-10368214D01*
X16183928Y-10382500D01*
X16198214Y-10396786D01*
X16212500Y-10425357D01*
X16212500Y-10511072D01*
X16198214Y-10539643D01*
X16183928Y-10553929D01*
X16155357Y-10568214D01*
X16098214Y-10568214D01*
X16069643Y-10553929D01*
X16341071Y-10539643D02*
X16355357Y-10553929D01*
X16341071Y-10568214D01*
X16326786Y-10553929D01*
X16341071Y-10539643D01*
X16341071Y-10568214D01*
X16341071Y-10382500D02*
X16355357Y-10396786D01*
X16341071Y-10411072D01*
X16326786Y-10396786D01*
X16341071Y-10382500D01*
X16341071Y-10411072D01*
X13887500Y-11007500D02*
X13997500Y-11117500D01*
X13997500Y-11007500D02*
X13887500Y-11117500D01*
X14441071Y-11198214D02*
X14269643Y-11198214D01*
X14355357Y-11198214D02*
X14355357Y-10898214D01*
X14326786Y-10941072D01*
X14298214Y-10969643D01*
X14269643Y-10983929D01*
X14569643Y-11169643D02*
X14583928Y-11183929D01*
X14569643Y-11198214D01*
X14555357Y-11183929D01*
X14569643Y-11169643D01*
X14569643Y-11198214D01*
X14869643Y-11198214D02*
X14698214Y-11198214D01*
X14783928Y-11198214D02*
X14783928Y-10898214D01*
X14755357Y-10941072D01*
X14726786Y-10969643D01*
X14698214Y-10983929D01*
X15055357Y-10898214D02*
X15083928Y-10898214D01*
X15112500Y-10912500D01*
X15126786Y-10926786D01*
X15141071Y-10955357D01*
X15155357Y-11012500D01*
X15155357Y-11083929D01*
X15141071Y-11141072D01*
X15126786Y-11169643D01*
X15112500Y-11183929D01*
X15083928Y-11198214D01*
X15055357Y-11198214D01*
X15026786Y-11183929D01*
X15012500Y-11169643D01*
X14998214Y-11141072D01*
X14983928Y-11083929D01*
X14983928Y-11012500D01*
X14998214Y-10955357D01*
X15012500Y-10926786D01*
X15026786Y-10912500D01*
X15055357Y-10898214D01*
X15283928Y-11198214D02*
X15283928Y-10998214D01*
X15283928Y-11026786D02*
X15298214Y-11012500D01*
X15326786Y-10998214D01*
X15369643Y-10998214D01*
X15398214Y-11012500D01*
X15412500Y-11041072D01*
X15412500Y-11198214D01*
X15412500Y-11041072D02*
X15426786Y-11012500D01*
X15455357Y-10998214D01*
X15498214Y-10998214D01*
X15526786Y-11012500D01*
X15541071Y-11041072D01*
X15541071Y-11198214D01*
X15683928Y-11198214D02*
X15683928Y-10998214D01*
X15683928Y-11026786D02*
X15698214Y-11012500D01*
X15726786Y-10998214D01*
X15769643Y-10998214D01*
X15798214Y-11012500D01*
X15812500Y-11041072D01*
X15812500Y-11198214D01*
X15812500Y-11041072D02*
X15826786Y-11012500D01*
X15855357Y-10998214D01*
X15898214Y-10998214D01*
X15926786Y-11012500D01*
X15941071Y-11041072D01*
X15941071Y-11198214D01*
X16526786Y-10883929D02*
X16269643Y-11269643D01*
X16912500Y-10898214D02*
X16941071Y-10898214D01*
X16969643Y-10912500D01*
X16983928Y-10926786D01*
X16998214Y-10955357D01*
X17012500Y-11012500D01*
X17012500Y-11083929D01*
X16998214Y-11141072D01*
X16983928Y-11169643D01*
X16969643Y-11183929D01*
X16941071Y-11198214D01*
X16912500Y-11198214D01*
X16883928Y-11183929D01*
X16869643Y-11169643D01*
X16855357Y-11141072D01*
X16841071Y-11083929D01*
X16841071Y-11012500D01*
X16855357Y-10955357D01*
X16869643Y-10926786D01*
X16883928Y-10912500D01*
X16912500Y-10898214D01*
X17141071Y-11169643D02*
X17155357Y-11183929D01*
X17141071Y-11198214D01*
X17126786Y-11183929D01*
X17141071Y-11169643D01*
X17141071Y-11198214D01*
X17341071Y-10898214D02*
X17369643Y-10898214D01*
X17398214Y-10912500D01*
X17412500Y-10926786D01*
X17426786Y-10955357D01*
X17441071Y-11012500D01*
X17441071Y-11083929D01*
X17426786Y-11141072D01*
X17412500Y-11169643D01*
X17398214Y-11183929D01*
X17369643Y-11198214D01*
X17341071Y-11198214D01*
X17312500Y-11183929D01*
X17298214Y-11169643D01*
X17283928Y-11141072D01*
X17269643Y-11083929D01*
X17269643Y-11012500D01*
X17283928Y-10955357D01*
X17298214Y-10926786D01*
X17312500Y-10912500D01*
X17341071Y-10898214D01*
X17698214Y-10998214D02*
X17698214Y-11198214D01*
X17626786Y-10883929D02*
X17555357Y-11098214D01*
X17741071Y-11098214D01*
X17826786Y-10898214D02*
X18012500Y-10898214D01*
X17912500Y-11012500D01*
X17955357Y-11012500D01*
X17983928Y-11026786D01*
X17998214Y-11041072D01*
X18012500Y-11069643D01*
X18012500Y-11141072D01*
X17998214Y-11169643D01*
X17983928Y-11183929D01*
X17955357Y-11198214D01*
X17869643Y-11198214D01*
X17841071Y-11183929D01*
X17826786Y-11169643D01*
X18126786Y-10898214D02*
X18126786Y-10955357D01*
X18241071Y-10898214D02*
X18241071Y-10955357D01*
X18683928Y-11312500D02*
X18669643Y-11298214D01*
X18641071Y-11255357D01*
X18626786Y-11226786D01*
X18612500Y-11183929D01*
X18598214Y-11112500D01*
X18598214Y-11055357D01*
X18612500Y-10983929D01*
X18626786Y-10941072D01*
X18641071Y-10912500D01*
X18669643Y-10869643D01*
X18683928Y-10855357D01*
X18926786Y-10998214D02*
X18926786Y-11198214D01*
X18855357Y-10883929D02*
X18783928Y-11098214D01*
X18969643Y-11098214D01*
X19312500Y-11198214D02*
X19312500Y-10898214D01*
X19441071Y-11198214D02*
X19441071Y-11041072D01*
X19426786Y-11012500D01*
X19398214Y-10998214D01*
X19355357Y-10998214D01*
X19326786Y-11012500D01*
X19312500Y-11026786D01*
X19626786Y-11198214D02*
X19598214Y-11183929D01*
X19583928Y-11169643D01*
X19569643Y-11141072D01*
X19569643Y-11055357D01*
X19583928Y-11026786D01*
X19598214Y-11012500D01*
X19626786Y-10998214D01*
X19669643Y-10998214D01*
X19698214Y-11012500D01*
X19712500Y-11026786D01*
X19726786Y-11055357D01*
X19726786Y-11141072D01*
X19712500Y-11169643D01*
X19698214Y-11183929D01*
X19669643Y-11198214D01*
X19626786Y-11198214D01*
X19898214Y-11198214D02*
X19869643Y-11183929D01*
X19855357Y-11155357D01*
X19855357Y-10898214D01*
X20126786Y-11183929D02*
X20098214Y-11198214D01*
X20041071Y-11198214D01*
X20012500Y-11183929D01*
X19998214Y-11155357D01*
X19998214Y-11041072D01*
X20012500Y-11012500D01*
X20041071Y-10998214D01*
X20098214Y-10998214D01*
X20126786Y-11012500D01*
X20141071Y-11041072D01*
X20141071Y-11069643D01*
X19998214Y-11098214D01*
X20255357Y-11183929D02*
X20283928Y-11198214D01*
X20341071Y-11198214D01*
X20369643Y-11183929D01*
X20383928Y-11155357D01*
X20383928Y-11141072D01*
X20369643Y-11112500D01*
X20341071Y-11098214D01*
X20298214Y-11098214D01*
X20269643Y-11083929D01*
X20255357Y-11055357D01*
X20255357Y-11041072D01*
X20269643Y-11012500D01*
X20298214Y-10998214D01*
X20341071Y-10998214D01*
X20369643Y-11012500D01*
X20483928Y-11312500D02*
X20498214Y-11298214D01*
X20526786Y-11255357D01*
X20541071Y-11226786D01*
X20555357Y-11183929D01*
X20569643Y-11112500D01*
X20569643Y-11055357D01*
X20555357Y-10983929D01*
X20541071Y-10941072D01*
X20526786Y-10912500D01*
X20498214Y-10869643D01*
X20483928Y-10855357D01*
X21026786Y-11312500D02*
X21012500Y-11298214D01*
X20983928Y-11255357D01*
X20969643Y-11226786D01*
X20955357Y-11183929D01*
X20941071Y-11112500D01*
X20941071Y-11055357D01*
X20955357Y-10983929D01*
X20969643Y-10941072D01*
X20983928Y-10912500D01*
X21012500Y-10869643D01*
X21026786Y-10855357D01*
X21141071Y-10998214D02*
X21141071Y-11198214D01*
X21141071Y-11026786D02*
X21155357Y-11012500D01*
X21183928Y-10998214D01*
X21226786Y-10998214D01*
X21255357Y-11012500D01*
X21269643Y-11041072D01*
X21269643Y-11198214D01*
X21455357Y-11198214D02*
X21426786Y-11183929D01*
X21412500Y-11169643D01*
X21398214Y-11141072D01*
X21398214Y-11055357D01*
X21412500Y-11026786D01*
X21426786Y-11012500D01*
X21455357Y-10998214D01*
X21498214Y-10998214D01*
X21526786Y-11012500D01*
X21541071Y-11026786D01*
X21555357Y-11055357D01*
X21555357Y-11141072D01*
X21541071Y-11169643D01*
X21526786Y-11183929D01*
X21498214Y-11198214D01*
X21455357Y-11198214D01*
X21641071Y-10998214D02*
X21755357Y-10998214D01*
X21683928Y-10898214D02*
X21683928Y-11155357D01*
X21698214Y-11183929D01*
X21726786Y-11198214D01*
X21755357Y-11198214D01*
X22083928Y-10998214D02*
X22083928Y-11298214D01*
X22083928Y-11012500D02*
X22112500Y-10998214D01*
X22169643Y-10998214D01*
X22198214Y-11012500D01*
X22212500Y-11026786D01*
X22226786Y-11055357D01*
X22226786Y-11141072D01*
X22212500Y-11169643D01*
X22198214Y-11183929D01*
X22169643Y-11198214D01*
X22112500Y-11198214D01*
X22083928Y-11183929D01*
X22398214Y-11198214D02*
X22369643Y-11183929D01*
X22355357Y-11155357D01*
X22355357Y-10898214D01*
X22641071Y-11198214D02*
X22641071Y-11041072D01*
X22626786Y-11012500D01*
X22598214Y-10998214D01*
X22541071Y-10998214D01*
X22512500Y-11012500D01*
X22641071Y-11183929D02*
X22612500Y-11198214D01*
X22541071Y-11198214D01*
X22512500Y-11183929D01*
X22498214Y-11155357D01*
X22498214Y-11126786D01*
X22512500Y-11098214D01*
X22541071Y-11083929D01*
X22612500Y-11083929D01*
X22641071Y-11069643D01*
X22741071Y-10998214D02*
X22855357Y-10998214D01*
X22783928Y-10898214D02*
X22783928Y-11155357D01*
X22798214Y-11183929D01*
X22826786Y-11198214D01*
X22855357Y-11198214D01*
X23069643Y-11183929D02*
X23041071Y-11198214D01*
X22983928Y-11198214D01*
X22955357Y-11183929D01*
X22941071Y-11155357D01*
X22941071Y-11041072D01*
X22955357Y-11012500D01*
X22983928Y-10998214D01*
X23041071Y-10998214D01*
X23069643Y-11012500D01*
X23083928Y-11041072D01*
X23083928Y-11069643D01*
X22941071Y-11098214D01*
X23341071Y-11198214D02*
X23341071Y-10898214D01*
X23341071Y-11183929D02*
X23312500Y-11198214D01*
X23255357Y-11198214D01*
X23226786Y-11183929D01*
X23212500Y-11169643D01*
X23198214Y-11141072D01*
X23198214Y-11055357D01*
X23212500Y-11026786D01*
X23226786Y-11012500D01*
X23255357Y-10998214D01*
X23312500Y-10998214D01*
X23341071Y-11012500D01*
X23455357Y-11312500D02*
X23469643Y-11298214D01*
X23498214Y-11255357D01*
X23512500Y-11226786D01*
X23526786Y-11183929D01*
X23541071Y-11112500D01*
X23541071Y-11055357D01*
X23526786Y-10983929D01*
X23512500Y-10941072D01*
X23498214Y-10912500D01*
X23469643Y-10869643D01*
X23455357Y-10855357D01*
M02*
