G04 #@! TF.GenerationSoftware,KiCad,Pcbnew,(5.1.9)-1*
G04 #@! TF.CreationDate,2021-12-15T22:24:27+01:00*
G04 #@! TF.ProjectId,AudioCodecModule_ADAU1761,41756469-6f43-46f6-9465-634d6f64756c,rev?*
G04 #@! TF.SameCoordinates,Original*
G04 #@! TF.FileFunction,Soldermask,Bot*
G04 #@! TF.FilePolarity,Negative*
%FSLAX46Y46*%
G04 Gerber Fmt 4.6, Leading zero omitted, Abs format (unit mm)*
G04 Created by KiCad (PCBNEW (5.1.9)-1) date 2021-12-15 22:24:27*
%MOMM*%
%LPD*%
G01*
G04 APERTURE LIST*
%ADD10C,2.350000*%
%ADD11C,2.150000*%
%ADD12O,4.100000X2.300000*%
%ADD13O,2.300000X4.100000*%
%ADD14O,1.800000X1.800000*%
%ADD15C,0.254000*%
%ADD16C,0.100000*%
G04 APERTURE END LIST*
D10*
X196342000Y-82296000D03*
X196342000Y-77216000D03*
X201422000Y-77216000D03*
X201422000Y-82296000D03*
D11*
X198882000Y-79756000D03*
D12*
X177066000Y-55790000D03*
D13*
X182066000Y-64090000D03*
X179566000Y-62390000D03*
D12*
X172866000Y-66890000D03*
G36*
G01*
X171466000Y-57240000D02*
X173666000Y-57240000D01*
G75*
G02*
X173716000Y-57290000I0J-50000D01*
G01*
X173716000Y-61290000D01*
G75*
G02*
X173666000Y-61340000I-50000J0D01*
G01*
X171466000Y-61340000D01*
G75*
G02*
X171416000Y-61290000I0J50000D01*
G01*
X171416000Y-57290000D01*
G75*
G02*
X171466000Y-57240000I50000J0D01*
G01*
G37*
D14*
X143764000Y-78994000D03*
X146304000Y-78994000D03*
X143764000Y-81534000D03*
X146304000Y-81534000D03*
X143764000Y-84074000D03*
X146304000Y-84074000D03*
X143764000Y-86614000D03*
X146304000Y-86614000D03*
X143764000Y-89154000D03*
X146304000Y-89154000D03*
X143764000Y-91694000D03*
G36*
G01*
X147204000Y-90844000D02*
X147204000Y-92544000D01*
G75*
G02*
X147154000Y-92594000I-50000J0D01*
G01*
X145454000Y-92594000D01*
G75*
G02*
X145404000Y-92544000I0J50000D01*
G01*
X145404000Y-90844000D01*
G75*
G02*
X145454000Y-90794000I50000J0D01*
G01*
X147154000Y-90794000D01*
G75*
G02*
X147204000Y-90844000I0J-50000D01*
G01*
G37*
D10*
X205994000Y-82296000D03*
X205994000Y-77216000D03*
X211074000Y-77216000D03*
X211074000Y-82296000D03*
D11*
X208534000Y-79756000D03*
D10*
X144272000Y-60706000D03*
X144272000Y-55626000D03*
X149352000Y-55626000D03*
X149352000Y-60706000D03*
D11*
X146812000Y-58166000D03*
D10*
X144272000Y-69850000D03*
X144272000Y-64770000D03*
X149352000Y-64770000D03*
X149352000Y-69850000D03*
D11*
X146812000Y-67310000D03*
D10*
X187198000Y-69850000D03*
X187198000Y-64770000D03*
X192278000Y-64770000D03*
X192278000Y-69850000D03*
D11*
X189738000Y-67310000D03*
D10*
X187198000Y-60706000D03*
X187198000Y-55626000D03*
X192278000Y-55626000D03*
X192278000Y-60706000D03*
D11*
X189738000Y-58166000D03*
D12*
X159032000Y-55790000D03*
D13*
X164032000Y-64090000D03*
X161532000Y-62390000D03*
D12*
X154832000Y-66890000D03*
G36*
G01*
X153432000Y-57240000D02*
X155632000Y-57240000D01*
G75*
G02*
X155682000Y-57290000I0J-50000D01*
G01*
X155682000Y-61290000D01*
G75*
G02*
X155632000Y-61340000I-50000J0D01*
G01*
X153432000Y-61340000D01*
G75*
G02*
X153382000Y-61290000I0J50000D01*
G01*
X153382000Y-57290000D01*
G75*
G02*
X153432000Y-57240000I50000J0D01*
G01*
G37*
X201958000Y-55790000D03*
D13*
X206958000Y-64090000D03*
X204458000Y-62390000D03*
D12*
X197758000Y-66890000D03*
G36*
G01*
X196358000Y-57240000D02*
X198558000Y-57240000D01*
G75*
G02*
X198608000Y-57290000I0J-50000D01*
G01*
X198608000Y-61290000D01*
G75*
G02*
X198558000Y-61340000I-50000J0D01*
G01*
X196358000Y-61340000D01*
G75*
G02*
X196308000Y-61290000I0J50000D01*
G01*
X196308000Y-57290000D01*
G75*
G02*
X196358000Y-57240000I50000J0D01*
G01*
G37*
D14*
X153416000Y-97282000D03*
X153416000Y-94742000D03*
X155956000Y-97282000D03*
X155956000Y-94742000D03*
X158496000Y-97282000D03*
X158496000Y-94742000D03*
X161036000Y-97282000D03*
X161036000Y-94742000D03*
X163576000Y-97282000D03*
X163576000Y-94742000D03*
X166116000Y-97282000D03*
X166116000Y-94742000D03*
X168656000Y-97282000D03*
X168656000Y-94742000D03*
X171196000Y-97282000D03*
X171196000Y-94742000D03*
X173736000Y-97282000D03*
X173736000Y-94742000D03*
X176276000Y-97282000D03*
X176276000Y-94742000D03*
X178816000Y-97282000D03*
X178816000Y-94742000D03*
X181356000Y-97282000D03*
X181356000Y-94742000D03*
X183896000Y-97282000D03*
X183896000Y-94742000D03*
X186436000Y-97282000D03*
X186436000Y-94742000D03*
X188976000Y-97282000D03*
X188976000Y-94742000D03*
X191516000Y-97282000D03*
X191516000Y-94742000D03*
X194056000Y-97282000D03*
X194056000Y-94742000D03*
X196596000Y-97282000D03*
X196596000Y-94742000D03*
X199136000Y-97282000D03*
X199136000Y-94742000D03*
X201676000Y-97282000D03*
G36*
G01*
X200826000Y-93842000D02*
X202526000Y-93842000D01*
G75*
G02*
X202576000Y-93892000I0J-50000D01*
G01*
X202576000Y-95592000D01*
G75*
G02*
X202526000Y-95642000I-50000J0D01*
G01*
X200826000Y-95642000D01*
G75*
G02*
X200776000Y-95592000I0J50000D01*
G01*
X200776000Y-93892000D01*
G75*
G02*
X200826000Y-93842000I50000J0D01*
G01*
G37*
D15*
X177165000Y-82423000D02*
X173863000Y-82423000D01*
X173863000Y-79121000D01*
X177165000Y-79121000D01*
X177165000Y-82423000D01*
D16*
G36*
X177165000Y-82423000D02*
G01*
X173863000Y-82423000D01*
X173863000Y-79121000D01*
X177165000Y-79121000D01*
X177165000Y-82423000D01*
G37*
M02*
