G04 #@! TF.GenerationSoftware,KiCad,Pcbnew,(5.1.9)-1*
G04 #@! TF.CreationDate,2021-12-15T22:24:27+01:00*
G04 #@! TF.ProjectId,AudioCodecModule_ADAU1761,41756469-6f43-46f6-9465-634d6f64756c,rev?*
G04 #@! TF.SameCoordinates,Original*
G04 #@! TF.FileFunction,Soldermask,Top*
G04 #@! TF.FilePolarity,Negative*
%FSLAX46Y46*%
G04 Gerber Fmt 4.6, Leading zero omitted, Abs format (unit mm)*
G04 Created by KiCad (PCBNEW (5.1.9)-1) date 2021-12-15 22:24:27*
%MOMM*%
%LPD*%
G01*
G04 APERTURE LIST*
%ADD10C,2.350000*%
%ADD11C,2.150000*%
%ADD12O,4.100000X2.300000*%
%ADD13O,2.300000X4.100000*%
%ADD14O,1.800000X1.800000*%
G04 APERTURE END LIST*
D10*
X196342000Y-82296000D03*
X196342000Y-77216000D03*
X201422000Y-77216000D03*
X201422000Y-82296000D03*
D11*
X198882000Y-79756000D03*
G36*
G01*
X166742500Y-61514000D02*
X167267500Y-61514000D01*
G75*
G02*
X167530000Y-61776500I0J-262500D01*
G01*
X167530000Y-62401500D01*
G75*
G02*
X167267500Y-62664000I-262500J0D01*
G01*
X166742500Y-62664000D01*
G75*
G02*
X166480000Y-62401500I0J262500D01*
G01*
X166480000Y-61776500D01*
G75*
G02*
X166742500Y-61514000I262500J0D01*
G01*
G37*
G36*
G01*
X166742500Y-59764000D02*
X167267500Y-59764000D01*
G75*
G02*
X167530000Y-60026500I0J-262500D01*
G01*
X167530000Y-60651500D01*
G75*
G02*
X167267500Y-60914000I-262500J0D01*
G01*
X166742500Y-60914000D01*
G75*
G02*
X166480000Y-60651500I0J262500D01*
G01*
X166480000Y-60026500D01*
G75*
G02*
X166742500Y-59764000I262500J0D01*
G01*
G37*
G36*
G01*
X169426500Y-56596000D02*
X168901500Y-56596000D01*
G75*
G02*
X168639000Y-56333500I0J262500D01*
G01*
X168639000Y-55708500D01*
G75*
G02*
X168901500Y-55446000I262500J0D01*
G01*
X169426500Y-55446000D01*
G75*
G02*
X169689000Y-55708500I0J-262500D01*
G01*
X169689000Y-56333500D01*
G75*
G02*
X169426500Y-56596000I-262500J0D01*
G01*
G37*
G36*
G01*
X169426500Y-58346000D02*
X168901500Y-58346000D01*
G75*
G02*
X168639000Y-58083500I0J262500D01*
G01*
X168639000Y-57458500D01*
G75*
G02*
X168901500Y-57196000I262500J0D01*
G01*
X169426500Y-57196000D01*
G75*
G02*
X169689000Y-57458500I0J-262500D01*
G01*
X169689000Y-58083500D01*
G75*
G02*
X169426500Y-58346000I-262500J0D01*
G01*
G37*
G36*
G01*
X168379543Y-61939000D02*
X169694457Y-61939000D01*
G75*
G02*
X169962000Y-62206543I0J-267543D01*
G01*
X169962000Y-63196457D01*
G75*
G02*
X169694457Y-63464000I-267543J0D01*
G01*
X168379543Y-63464000D01*
G75*
G02*
X168112000Y-63196457I0J267543D01*
G01*
X168112000Y-62206543D01*
G75*
G02*
X168379543Y-61939000I267543J0D01*
G01*
G37*
G36*
G01*
X168379543Y-58964000D02*
X169694457Y-58964000D01*
G75*
G02*
X169962000Y-59231543I0J-267543D01*
G01*
X169962000Y-60221457D01*
G75*
G02*
X169694457Y-60489000I-267543J0D01*
G01*
X168379543Y-60489000D01*
G75*
G02*
X168112000Y-60221457I0J267543D01*
G01*
X168112000Y-59231543D01*
G75*
G02*
X168379543Y-58964000I267543J0D01*
G01*
G37*
D12*
X177066000Y-55790000D03*
D13*
X182066000Y-64090000D03*
X179566000Y-62390000D03*
D12*
X172866000Y-66890000D03*
G36*
G01*
X171466000Y-57240000D02*
X173666000Y-57240000D01*
G75*
G02*
X173716000Y-57290000I0J-50000D01*
G01*
X173716000Y-61290000D01*
G75*
G02*
X173666000Y-61340000I-50000J0D01*
G01*
X171466000Y-61340000D01*
G75*
G02*
X171416000Y-61290000I0J50000D01*
G01*
X171416000Y-57290000D01*
G75*
G02*
X171466000Y-57240000I50000J0D01*
G01*
G37*
G36*
G01*
X203336000Y-89942000D02*
X203336000Y-91442000D01*
G75*
G02*
X203286000Y-91492000I-50000J0D01*
G01*
X201286000Y-91492000D01*
G75*
G02*
X201236000Y-91442000I0J50000D01*
G01*
X201236000Y-89942000D01*
G75*
G02*
X201286000Y-89892000I50000J0D01*
G01*
X203286000Y-89892000D01*
G75*
G02*
X203336000Y-89942000I0J-50000D01*
G01*
G37*
G36*
G01*
X203336000Y-85342000D02*
X203336000Y-86842000D01*
G75*
G02*
X203286000Y-86892000I-50000J0D01*
G01*
X201286000Y-86892000D01*
G75*
G02*
X201236000Y-86842000I0J50000D01*
G01*
X201236000Y-85342000D01*
G75*
G02*
X201286000Y-85292000I50000J0D01*
G01*
X203286000Y-85292000D01*
G75*
G02*
X203336000Y-85342000I0J-50000D01*
G01*
G37*
G36*
G01*
X203336000Y-87642000D02*
X203336000Y-89142000D01*
G75*
G02*
X203286000Y-89192000I-50000J0D01*
G01*
X201286000Y-89192000D01*
G75*
G02*
X201236000Y-89142000I0J50000D01*
G01*
X201236000Y-87642000D01*
G75*
G02*
X201286000Y-87592000I50000J0D01*
G01*
X203286000Y-87592000D01*
G75*
G02*
X203336000Y-87642000I0J-50000D01*
G01*
G37*
G36*
G01*
X197036000Y-86492000D02*
X197036000Y-90292000D01*
G75*
G02*
X196986000Y-90342000I-50000J0D01*
G01*
X194986000Y-90342000D01*
G75*
G02*
X194936000Y-90292000I0J50000D01*
G01*
X194936000Y-86492000D01*
G75*
G02*
X194986000Y-86442000I50000J0D01*
G01*
X196986000Y-86442000D01*
G75*
G02*
X197036000Y-86492000I0J-50000D01*
G01*
G37*
G36*
G01*
X155910000Y-76953500D02*
X155910000Y-77478500D01*
G75*
G02*
X155647500Y-77741000I-262500J0D01*
G01*
X155022500Y-77741000D01*
G75*
G02*
X154760000Y-77478500I0J262500D01*
G01*
X154760000Y-76953500D01*
G75*
G02*
X155022500Y-76691000I262500J0D01*
G01*
X155647500Y-76691000D01*
G75*
G02*
X155910000Y-76953500I0J-262500D01*
G01*
G37*
G36*
G01*
X157660000Y-76953500D02*
X157660000Y-77478500D01*
G75*
G02*
X157397500Y-77741000I-262500J0D01*
G01*
X156772500Y-77741000D01*
G75*
G02*
X156510000Y-77478500I0J262500D01*
G01*
X156510000Y-76953500D01*
G75*
G02*
X156772500Y-76691000I262500J0D01*
G01*
X157397500Y-76691000D01*
G75*
G02*
X157660000Y-76953500I0J-262500D01*
G01*
G37*
G36*
G01*
X188168000Y-89907500D02*
X188168000Y-90432500D01*
G75*
G02*
X187905500Y-90695000I-262500J0D01*
G01*
X187280500Y-90695000D01*
G75*
G02*
X187018000Y-90432500I0J262500D01*
G01*
X187018000Y-89907500D01*
G75*
G02*
X187280500Y-89645000I262500J0D01*
G01*
X187905500Y-89645000D01*
G75*
G02*
X188168000Y-89907500I0J-262500D01*
G01*
G37*
G36*
G01*
X189918000Y-89907500D02*
X189918000Y-90432500D01*
G75*
G02*
X189655500Y-90695000I-262500J0D01*
G01*
X189030500Y-90695000D01*
G75*
G02*
X188768000Y-90432500I0J262500D01*
G01*
X188768000Y-89907500D01*
G75*
G02*
X189030500Y-89645000I262500J0D01*
G01*
X189655500Y-89645000D01*
G75*
G02*
X189918000Y-89907500I0J-262500D01*
G01*
G37*
G36*
G01*
X160265500Y-76754000D02*
X160790500Y-76754000D01*
G75*
G02*
X161053000Y-77016500I0J-262500D01*
G01*
X161053000Y-77641500D01*
G75*
G02*
X160790500Y-77904000I-262500J0D01*
G01*
X160265500Y-77904000D01*
G75*
G02*
X160003000Y-77641500I0J262500D01*
G01*
X160003000Y-77016500D01*
G75*
G02*
X160265500Y-76754000I262500J0D01*
G01*
G37*
G36*
G01*
X160265500Y-75004000D02*
X160790500Y-75004000D01*
G75*
G02*
X161053000Y-75266500I0J-262500D01*
G01*
X161053000Y-75891500D01*
G75*
G02*
X160790500Y-76154000I-262500J0D01*
G01*
X160265500Y-76154000D01*
G75*
G02*
X160003000Y-75891500I0J262500D01*
G01*
X160003000Y-75266500D01*
G75*
G02*
X160265500Y-75004000I262500J0D01*
G01*
G37*
G36*
G01*
X146745000Y-76462500D02*
X146745000Y-75937500D01*
G75*
G02*
X147007500Y-75675000I262500J0D01*
G01*
X147632500Y-75675000D01*
G75*
G02*
X147895000Y-75937500I0J-262500D01*
G01*
X147895000Y-76462500D01*
G75*
G02*
X147632500Y-76725000I-262500J0D01*
G01*
X147007500Y-76725000D01*
G75*
G02*
X146745000Y-76462500I0J262500D01*
G01*
G37*
G36*
G01*
X144995000Y-76462500D02*
X144995000Y-75937500D01*
G75*
G02*
X145257500Y-75675000I262500J0D01*
G01*
X145882500Y-75675000D01*
G75*
G02*
X146145000Y-75937500I0J-262500D01*
G01*
X146145000Y-76462500D01*
G75*
G02*
X145882500Y-76725000I-262500J0D01*
G01*
X145257500Y-76725000D01*
G75*
G02*
X144995000Y-76462500I0J262500D01*
G01*
G37*
G36*
G01*
X148835500Y-75992000D02*
X149360500Y-75992000D01*
G75*
G02*
X149623000Y-76254500I0J-262500D01*
G01*
X149623000Y-76879500D01*
G75*
G02*
X149360500Y-77142000I-262500J0D01*
G01*
X148835500Y-77142000D01*
G75*
G02*
X148573000Y-76879500I0J262500D01*
G01*
X148573000Y-76254500D01*
G75*
G02*
X148835500Y-75992000I262500J0D01*
G01*
G37*
G36*
G01*
X148835500Y-74242000D02*
X149360500Y-74242000D01*
G75*
G02*
X149623000Y-74504500I0J-262500D01*
G01*
X149623000Y-75129500D01*
G75*
G02*
X149360500Y-75392000I-262500J0D01*
G01*
X148835500Y-75392000D01*
G75*
G02*
X148573000Y-75129500I0J262500D01*
G01*
X148573000Y-74504500D01*
G75*
G02*
X148835500Y-74242000I262500J0D01*
G01*
G37*
G36*
G01*
X208779500Y-91994000D02*
X209304500Y-91994000D01*
G75*
G02*
X209567000Y-92256500I0J-262500D01*
G01*
X209567000Y-92881500D01*
G75*
G02*
X209304500Y-93144000I-262500J0D01*
G01*
X208779500Y-93144000D01*
G75*
G02*
X208517000Y-92881500I0J262500D01*
G01*
X208517000Y-92256500D01*
G75*
G02*
X208779500Y-91994000I262500J0D01*
G01*
G37*
G36*
G01*
X208779500Y-90244000D02*
X209304500Y-90244000D01*
G75*
G02*
X209567000Y-90506500I0J-262500D01*
G01*
X209567000Y-91131500D01*
G75*
G02*
X209304500Y-91394000I-262500J0D01*
G01*
X208779500Y-91394000D01*
G75*
G02*
X208517000Y-91131500I0J262500D01*
G01*
X208517000Y-90506500D01*
G75*
G02*
X208779500Y-90244000I262500J0D01*
G01*
G37*
G36*
G01*
X206493500Y-91994000D02*
X207018500Y-91994000D01*
G75*
G02*
X207281000Y-92256500I0J-262500D01*
G01*
X207281000Y-92881500D01*
G75*
G02*
X207018500Y-93144000I-262500J0D01*
G01*
X206493500Y-93144000D01*
G75*
G02*
X206231000Y-92881500I0J262500D01*
G01*
X206231000Y-92256500D01*
G75*
G02*
X206493500Y-91994000I262500J0D01*
G01*
G37*
G36*
G01*
X206493500Y-90244000D02*
X207018500Y-90244000D01*
G75*
G02*
X207281000Y-90506500I0J-262500D01*
G01*
X207281000Y-91131500D01*
G75*
G02*
X207018500Y-91394000I-262500J0D01*
G01*
X206493500Y-91394000D01*
G75*
G02*
X206231000Y-91131500I0J262500D01*
G01*
X206231000Y-90506500D01*
G75*
G02*
X206493500Y-90244000I262500J0D01*
G01*
G37*
G36*
G01*
X157488000Y-74022000D02*
X157488000Y-74822000D01*
G75*
G02*
X157438000Y-74872000I-50000J0D01*
G01*
X156538000Y-74872000D01*
G75*
G02*
X156488000Y-74822000I0J50000D01*
G01*
X156488000Y-74022000D01*
G75*
G02*
X156538000Y-73972000I50000J0D01*
G01*
X157438000Y-73972000D01*
G75*
G02*
X157488000Y-74022000I0J-50000D01*
G01*
G37*
G36*
G01*
X159488000Y-73072000D02*
X159488000Y-73872000D01*
G75*
G02*
X159438000Y-73922000I-50000J0D01*
G01*
X158538000Y-73922000D01*
G75*
G02*
X158488000Y-73872000I0J50000D01*
G01*
X158488000Y-73072000D01*
G75*
G02*
X158538000Y-73022000I50000J0D01*
G01*
X159438000Y-73022000D01*
G75*
G02*
X159488000Y-73072000I0J-50000D01*
G01*
G37*
G36*
G01*
X159488000Y-74972000D02*
X159488000Y-75772000D01*
G75*
G02*
X159438000Y-75822000I-50000J0D01*
G01*
X158538000Y-75822000D01*
G75*
G02*
X158488000Y-75772000I0J50000D01*
G01*
X158488000Y-74972000D01*
G75*
G02*
X158538000Y-74922000I50000J0D01*
G01*
X159438000Y-74922000D01*
G75*
G02*
X159488000Y-74972000I0J-50000D01*
G01*
G37*
G36*
G01*
X146058000Y-73260000D02*
X146058000Y-74060000D01*
G75*
G02*
X146008000Y-74110000I-50000J0D01*
G01*
X145108000Y-74110000D01*
G75*
G02*
X145058000Y-74060000I0J50000D01*
G01*
X145058000Y-73260000D01*
G75*
G02*
X145108000Y-73210000I50000J0D01*
G01*
X146008000Y-73210000D01*
G75*
G02*
X146058000Y-73260000I0J-50000D01*
G01*
G37*
G36*
G01*
X148058000Y-72310000D02*
X148058000Y-73110000D01*
G75*
G02*
X148008000Y-73160000I-50000J0D01*
G01*
X147108000Y-73160000D01*
G75*
G02*
X147058000Y-73110000I0J50000D01*
G01*
X147058000Y-72310000D01*
G75*
G02*
X147108000Y-72260000I50000J0D01*
G01*
X148008000Y-72260000D01*
G75*
G02*
X148058000Y-72310000I0J-50000D01*
G01*
G37*
G36*
G01*
X148058000Y-74210000D02*
X148058000Y-75010000D01*
G75*
G02*
X148008000Y-75060000I-50000J0D01*
G01*
X147108000Y-75060000D01*
G75*
G02*
X147058000Y-75010000I0J50000D01*
G01*
X147058000Y-74210000D01*
G75*
G02*
X147108000Y-74160000I50000J0D01*
G01*
X148008000Y-74160000D01*
G75*
G02*
X148058000Y-74210000I0J-50000D01*
G01*
G37*
D14*
X143764000Y-78994000D03*
X146304000Y-78994000D03*
X143764000Y-81534000D03*
X146304000Y-81534000D03*
X143764000Y-84074000D03*
X146304000Y-84074000D03*
X143764000Y-86614000D03*
X146304000Y-86614000D03*
X143764000Y-89154000D03*
X146304000Y-89154000D03*
X143764000Y-91694000D03*
G36*
G01*
X147204000Y-90844000D02*
X147204000Y-92544000D01*
G75*
G02*
X147154000Y-92594000I-50000J0D01*
G01*
X145454000Y-92594000D01*
G75*
G02*
X145404000Y-92544000I0J50000D01*
G01*
X145404000Y-90844000D01*
G75*
G02*
X145454000Y-90794000I50000J0D01*
G01*
X147154000Y-90794000D01*
G75*
G02*
X147204000Y-90844000I0J-50000D01*
G01*
G37*
G36*
G01*
X152937738Y-76600000D02*
X153894262Y-76600000D01*
G75*
G02*
X154166000Y-76871738I0J-271738D01*
G01*
X154166000Y-77578262D01*
G75*
G02*
X153894262Y-77850000I-271738J0D01*
G01*
X152937738Y-77850000D01*
G75*
G02*
X152666000Y-77578262I0J271738D01*
G01*
X152666000Y-76871738D01*
G75*
G02*
X152937738Y-76600000I271738J0D01*
G01*
G37*
G36*
G01*
X152937738Y-74550000D02*
X153894262Y-74550000D01*
G75*
G02*
X154166000Y-74821738I0J-271738D01*
G01*
X154166000Y-75528262D01*
G75*
G02*
X153894262Y-75800000I-271738J0D01*
G01*
X152937738Y-75800000D01*
G75*
G02*
X152666000Y-75528262I0J271738D01*
G01*
X152666000Y-74821738D01*
G75*
G02*
X152937738Y-74550000I271738J0D01*
G01*
G37*
G36*
G01*
X150651738Y-76600000D02*
X151608262Y-76600000D01*
G75*
G02*
X151880000Y-76871738I0J-271738D01*
G01*
X151880000Y-77578262D01*
G75*
G02*
X151608262Y-77850000I-271738J0D01*
G01*
X150651738Y-77850000D01*
G75*
G02*
X150380000Y-77578262I0J271738D01*
G01*
X150380000Y-76871738D01*
G75*
G02*
X150651738Y-76600000I271738J0D01*
G01*
G37*
G36*
G01*
X150651738Y-74550000D02*
X151608262Y-74550000D01*
G75*
G02*
X151880000Y-74821738I0J-271738D01*
G01*
X151880000Y-75528262D01*
G75*
G02*
X151608262Y-75800000I-271738J0D01*
G01*
X150651738Y-75800000D01*
G75*
G02*
X150380000Y-75528262I0J271738D01*
G01*
X150380000Y-74821738D01*
G75*
G02*
X150651738Y-74550000I271738J0D01*
G01*
G37*
G36*
G01*
X209520262Y-95104000D02*
X208563738Y-95104000D01*
G75*
G02*
X208292000Y-94832262I0J271738D01*
G01*
X208292000Y-94125738D01*
G75*
G02*
X208563738Y-93854000I271738J0D01*
G01*
X209520262Y-93854000D01*
G75*
G02*
X209792000Y-94125738I0J-271738D01*
G01*
X209792000Y-94832262D01*
G75*
G02*
X209520262Y-95104000I-271738J0D01*
G01*
G37*
G36*
G01*
X209520262Y-97154000D02*
X208563738Y-97154000D01*
G75*
G02*
X208292000Y-96882262I0J271738D01*
G01*
X208292000Y-96175738D01*
G75*
G02*
X208563738Y-95904000I271738J0D01*
G01*
X209520262Y-95904000D01*
G75*
G02*
X209792000Y-96175738I0J-271738D01*
G01*
X209792000Y-96882262D01*
G75*
G02*
X209520262Y-97154000I-271738J0D01*
G01*
G37*
G36*
G01*
X207234262Y-95104000D02*
X206277738Y-95104000D01*
G75*
G02*
X206006000Y-94832262I0J271738D01*
G01*
X206006000Y-94125738D01*
G75*
G02*
X206277738Y-93854000I271738J0D01*
G01*
X207234262Y-93854000D01*
G75*
G02*
X207506000Y-94125738I0J-271738D01*
G01*
X207506000Y-94832262D01*
G75*
G02*
X207234262Y-95104000I-271738J0D01*
G01*
G37*
G36*
G01*
X207234262Y-97154000D02*
X206277738Y-97154000D01*
G75*
G02*
X206006000Y-96882262I0J271738D01*
G01*
X206006000Y-96175738D01*
G75*
G02*
X206277738Y-95904000I271738J0D01*
G01*
X207234262Y-95904000D01*
G75*
G02*
X207506000Y-96175738I0J-271738D01*
G01*
X207506000Y-96882262D01*
G75*
G02*
X207234262Y-97154000I-271738J0D01*
G01*
G37*
G36*
G01*
X191761500Y-89454000D02*
X192286500Y-89454000D01*
G75*
G02*
X192549000Y-89716500I0J-262500D01*
G01*
X192549000Y-90341500D01*
G75*
G02*
X192286500Y-90604000I-262500J0D01*
G01*
X191761500Y-90604000D01*
G75*
G02*
X191499000Y-90341500I0J262500D01*
G01*
X191499000Y-89716500D01*
G75*
G02*
X191761500Y-89454000I262500J0D01*
G01*
G37*
G36*
G01*
X191761500Y-87704000D02*
X192286500Y-87704000D01*
G75*
G02*
X192549000Y-87966500I0J-262500D01*
G01*
X192549000Y-88591500D01*
G75*
G02*
X192286500Y-88854000I-262500J0D01*
G01*
X191761500Y-88854000D01*
G75*
G02*
X191499000Y-88591500I0J262500D01*
G01*
X191499000Y-87966500D01*
G75*
G02*
X191761500Y-87704000I262500J0D01*
G01*
G37*
G36*
G01*
X193539500Y-89454000D02*
X194064500Y-89454000D01*
G75*
G02*
X194327000Y-89716500I0J-262500D01*
G01*
X194327000Y-90341500D01*
G75*
G02*
X194064500Y-90604000I-262500J0D01*
G01*
X193539500Y-90604000D01*
G75*
G02*
X193277000Y-90341500I0J262500D01*
G01*
X193277000Y-89716500D01*
G75*
G02*
X193539500Y-89454000I262500J0D01*
G01*
G37*
G36*
G01*
X193539500Y-87704000D02*
X194064500Y-87704000D01*
G75*
G02*
X194327000Y-87966500I0J-262500D01*
G01*
X194327000Y-88591500D01*
G75*
G02*
X194064500Y-88854000I-262500J0D01*
G01*
X193539500Y-88854000D01*
G75*
G02*
X193277000Y-88591500I0J262500D01*
G01*
X193277000Y-87966500D01*
G75*
G02*
X193539500Y-87704000I262500J0D01*
G01*
G37*
G36*
G01*
X205985500Y-87168000D02*
X206510500Y-87168000D01*
G75*
G02*
X206773000Y-87430500I0J-262500D01*
G01*
X206773000Y-88055500D01*
G75*
G02*
X206510500Y-88318000I-262500J0D01*
G01*
X205985500Y-88318000D01*
G75*
G02*
X205723000Y-88055500I0J262500D01*
G01*
X205723000Y-87430500D01*
G75*
G02*
X205985500Y-87168000I262500J0D01*
G01*
G37*
G36*
G01*
X205985500Y-85418000D02*
X206510500Y-85418000D01*
G75*
G02*
X206773000Y-85680500I0J-262500D01*
G01*
X206773000Y-86305500D01*
G75*
G02*
X206510500Y-86568000I-262500J0D01*
G01*
X205985500Y-86568000D01*
G75*
G02*
X205723000Y-86305500I0J262500D01*
G01*
X205723000Y-85680500D01*
G75*
G02*
X205985500Y-85418000I262500J0D01*
G01*
G37*
G36*
G01*
X204207500Y-87168000D02*
X204732500Y-87168000D01*
G75*
G02*
X204995000Y-87430500I0J-262500D01*
G01*
X204995000Y-88055500D01*
G75*
G02*
X204732500Y-88318000I-262500J0D01*
G01*
X204207500Y-88318000D01*
G75*
G02*
X203945000Y-88055500I0J262500D01*
G01*
X203945000Y-87430500D01*
G75*
G02*
X204207500Y-87168000I262500J0D01*
G01*
G37*
G36*
G01*
X204207500Y-85418000D02*
X204732500Y-85418000D01*
G75*
G02*
X204995000Y-85680500I0J-262500D01*
G01*
X204995000Y-86305500D01*
G75*
G02*
X204732500Y-86568000I-262500J0D01*
G01*
X204207500Y-86568000D01*
G75*
G02*
X203945000Y-86305500I0J262500D01*
G01*
X203945000Y-85680500D01*
G75*
G02*
X204207500Y-85418000I262500J0D01*
G01*
G37*
G36*
G01*
X166615500Y-88692000D02*
X167140500Y-88692000D01*
G75*
G02*
X167403000Y-88954500I0J-262500D01*
G01*
X167403000Y-89579500D01*
G75*
G02*
X167140500Y-89842000I-262500J0D01*
G01*
X166615500Y-89842000D01*
G75*
G02*
X166353000Y-89579500I0J262500D01*
G01*
X166353000Y-88954500D01*
G75*
G02*
X166615500Y-88692000I262500J0D01*
G01*
G37*
G36*
G01*
X166615500Y-86942000D02*
X167140500Y-86942000D01*
G75*
G02*
X167403000Y-87204500I0J-262500D01*
G01*
X167403000Y-87829500D01*
G75*
G02*
X167140500Y-88092000I-262500J0D01*
G01*
X166615500Y-88092000D01*
G75*
G02*
X166353000Y-87829500I0J262500D01*
G01*
X166353000Y-87204500D01*
G75*
G02*
X166615500Y-86942000I262500J0D01*
G01*
G37*
G36*
G01*
X164837500Y-87676000D02*
X165362500Y-87676000D01*
G75*
G02*
X165625000Y-87938500I0J-262500D01*
G01*
X165625000Y-88563500D01*
G75*
G02*
X165362500Y-88826000I-262500J0D01*
G01*
X164837500Y-88826000D01*
G75*
G02*
X164575000Y-88563500I0J262500D01*
G01*
X164575000Y-87938500D01*
G75*
G02*
X164837500Y-87676000I262500J0D01*
G01*
G37*
G36*
G01*
X164837500Y-85926000D02*
X165362500Y-85926000D01*
G75*
G02*
X165625000Y-86188500I0J-262500D01*
G01*
X165625000Y-86813500D01*
G75*
G02*
X165362500Y-87076000I-262500J0D01*
G01*
X164837500Y-87076000D01*
G75*
G02*
X164575000Y-86813500I0J262500D01*
G01*
X164575000Y-86188500D01*
G75*
G02*
X164837500Y-85926000I262500J0D01*
G01*
G37*
G36*
G01*
X177017000Y-91412000D02*
X175917000Y-91412000D01*
G75*
G02*
X175867000Y-91362000I0J50000D01*
G01*
X175867000Y-90062000D01*
G75*
G02*
X175917000Y-90012000I50000J0D01*
G01*
X177017000Y-90012000D01*
G75*
G02*
X177067000Y-90062000I0J-50000D01*
G01*
X177067000Y-91362000D01*
G75*
G02*
X177017000Y-91412000I-50000J0D01*
G01*
G37*
G36*
G01*
X177017000Y-89312000D02*
X175917000Y-89312000D01*
G75*
G02*
X175867000Y-89262000I0J50000D01*
G01*
X175867000Y-87962000D01*
G75*
G02*
X175917000Y-87912000I50000J0D01*
G01*
X177017000Y-87912000D01*
G75*
G02*
X177067000Y-87962000I0J-50000D01*
G01*
X177067000Y-89262000D01*
G75*
G02*
X177017000Y-89312000I-50000J0D01*
G01*
G37*
G36*
G01*
X178667000Y-89312000D02*
X177567000Y-89312000D01*
G75*
G02*
X177517000Y-89262000I0J50000D01*
G01*
X177517000Y-87962000D01*
G75*
G02*
X177567000Y-87912000I50000J0D01*
G01*
X178667000Y-87912000D01*
G75*
G02*
X178717000Y-87962000I0J-50000D01*
G01*
X178717000Y-89262000D01*
G75*
G02*
X178667000Y-89312000I-50000J0D01*
G01*
G37*
G36*
G01*
X178667000Y-91412000D02*
X177567000Y-91412000D01*
G75*
G02*
X177517000Y-91362000I0J50000D01*
G01*
X177517000Y-90062000D01*
G75*
G02*
X177567000Y-90012000I50000J0D01*
G01*
X178667000Y-90012000D01*
G75*
G02*
X178717000Y-90062000I0J-50000D01*
G01*
X178717000Y-91362000D01*
G75*
G02*
X178667000Y-91412000I-50000J0D01*
G01*
G37*
G36*
G01*
X179569500Y-89962000D02*
X180094500Y-89962000D01*
G75*
G02*
X180357000Y-90224500I0J-262500D01*
G01*
X180357000Y-90849500D01*
G75*
G02*
X180094500Y-91112000I-262500J0D01*
G01*
X179569500Y-91112000D01*
G75*
G02*
X179307000Y-90849500I0J262500D01*
G01*
X179307000Y-90224500D01*
G75*
G02*
X179569500Y-89962000I262500J0D01*
G01*
G37*
G36*
G01*
X179569500Y-88212000D02*
X180094500Y-88212000D01*
G75*
G02*
X180357000Y-88474500I0J-262500D01*
G01*
X180357000Y-89099500D01*
G75*
G02*
X180094500Y-89362000I-262500J0D01*
G01*
X179569500Y-89362000D01*
G75*
G02*
X179307000Y-89099500I0J262500D01*
G01*
X179307000Y-88474500D01*
G75*
G02*
X179569500Y-88212000I262500J0D01*
G01*
G37*
G36*
G01*
X161789500Y-84628000D02*
X162314500Y-84628000D01*
G75*
G02*
X162577000Y-84890500I0J-262500D01*
G01*
X162577000Y-85515500D01*
G75*
G02*
X162314500Y-85778000I-262500J0D01*
G01*
X161789500Y-85778000D01*
G75*
G02*
X161527000Y-85515500I0J262500D01*
G01*
X161527000Y-84890500D01*
G75*
G02*
X161789500Y-84628000I262500J0D01*
G01*
G37*
G36*
G01*
X161789500Y-82878000D02*
X162314500Y-82878000D01*
G75*
G02*
X162577000Y-83140500I0J-262500D01*
G01*
X162577000Y-83765500D01*
G75*
G02*
X162314500Y-84028000I-262500J0D01*
G01*
X161789500Y-84028000D01*
G75*
G02*
X161527000Y-83765500I0J262500D01*
G01*
X161527000Y-83140500D01*
G75*
G02*
X161789500Y-82878000I262500J0D01*
G01*
G37*
G36*
G01*
X171750000Y-76970500D02*
X171750000Y-76445500D01*
G75*
G02*
X172012500Y-76183000I262500J0D01*
G01*
X172637500Y-76183000D01*
G75*
G02*
X172900000Y-76445500I0J-262500D01*
G01*
X172900000Y-76970500D01*
G75*
G02*
X172637500Y-77233000I-262500J0D01*
G01*
X172012500Y-77233000D01*
G75*
G02*
X171750000Y-76970500I0J262500D01*
G01*
G37*
G36*
G01*
X170000000Y-76970500D02*
X170000000Y-76445500D01*
G75*
G02*
X170262500Y-76183000I262500J0D01*
G01*
X170887500Y-76183000D01*
G75*
G02*
X171150000Y-76445500I0J-262500D01*
G01*
X171150000Y-76970500D01*
G75*
G02*
X170887500Y-77233000I-262500J0D01*
G01*
X170262500Y-77233000D01*
G75*
G02*
X170000000Y-76970500I0J262500D01*
G01*
G37*
G36*
G01*
X172512000Y-85098500D02*
X172512000Y-84573500D01*
G75*
G02*
X172774500Y-84311000I262500J0D01*
G01*
X173399500Y-84311000D01*
G75*
G02*
X173662000Y-84573500I0J-262500D01*
G01*
X173662000Y-85098500D01*
G75*
G02*
X173399500Y-85361000I-262500J0D01*
G01*
X172774500Y-85361000D01*
G75*
G02*
X172512000Y-85098500I0J262500D01*
G01*
G37*
G36*
G01*
X170762000Y-85098500D02*
X170762000Y-84573500D01*
G75*
G02*
X171024500Y-84311000I262500J0D01*
G01*
X171649500Y-84311000D01*
G75*
G02*
X171912000Y-84573500I0J-262500D01*
G01*
X171912000Y-85098500D01*
G75*
G02*
X171649500Y-85361000I-262500J0D01*
G01*
X171024500Y-85361000D01*
G75*
G02*
X170762000Y-85098500I0J262500D01*
G01*
G37*
G36*
G01*
X166407000Y-76050543D02*
X166407000Y-77365457D01*
G75*
G02*
X166139457Y-77633000I-267543J0D01*
G01*
X165149543Y-77633000D01*
G75*
G02*
X164882000Y-77365457I0J267543D01*
G01*
X164882000Y-76050543D01*
G75*
G02*
X165149543Y-75783000I267543J0D01*
G01*
X166139457Y-75783000D01*
G75*
G02*
X166407000Y-76050543I0J-267543D01*
G01*
G37*
G36*
G01*
X169382000Y-76050543D02*
X169382000Y-77365457D01*
G75*
G02*
X169114457Y-77633000I-267543J0D01*
G01*
X168124543Y-77633000D01*
G75*
G02*
X167857000Y-77365457I0J267543D01*
G01*
X167857000Y-76050543D01*
G75*
G02*
X168124543Y-75783000I267543J0D01*
G01*
X169114457Y-75783000D01*
G75*
G02*
X169382000Y-76050543I0J-267543D01*
G01*
G37*
G36*
G01*
X186907000Y-88795457D02*
X186907000Y-87480543D01*
G75*
G02*
X187174543Y-87213000I267543J0D01*
G01*
X188164457Y-87213000D01*
G75*
G02*
X188432000Y-87480543I0J-267543D01*
G01*
X188432000Y-88795457D01*
G75*
G02*
X188164457Y-89063000I-267543J0D01*
G01*
X187174543Y-89063000D01*
G75*
G02*
X186907000Y-88795457I0J267543D01*
G01*
G37*
G36*
G01*
X183932000Y-88795457D02*
X183932000Y-87480543D01*
G75*
G02*
X184199543Y-87213000I267543J0D01*
G01*
X185189457Y-87213000D01*
G75*
G02*
X185457000Y-87480543I0J-267543D01*
G01*
X185457000Y-88795457D01*
G75*
G02*
X185189457Y-89063000I-267543J0D01*
G01*
X184199543Y-89063000D01*
G75*
G02*
X183932000Y-88795457I0J267543D01*
G01*
G37*
G36*
G01*
X182072000Y-69841500D02*
X182072000Y-70366500D01*
G75*
G02*
X181809500Y-70629000I-262500J0D01*
G01*
X181184500Y-70629000D01*
G75*
G02*
X180922000Y-70366500I0J262500D01*
G01*
X180922000Y-69841500D01*
G75*
G02*
X181184500Y-69579000I262500J0D01*
G01*
X181809500Y-69579000D01*
G75*
G02*
X182072000Y-69841500I0J-262500D01*
G01*
G37*
G36*
G01*
X183822000Y-69841500D02*
X183822000Y-70366500D01*
G75*
G02*
X183559500Y-70629000I-262500J0D01*
G01*
X182934500Y-70629000D01*
G75*
G02*
X182672000Y-70366500I0J262500D01*
G01*
X182672000Y-69841500D01*
G75*
G02*
X182934500Y-69579000I262500J0D01*
G01*
X183559500Y-69579000D01*
G75*
G02*
X183822000Y-69841500I0J-262500D01*
G01*
G37*
G36*
G01*
X179116000Y-70366500D02*
X179116000Y-69841500D01*
G75*
G02*
X179378500Y-69579000I262500J0D01*
G01*
X180003500Y-69579000D01*
G75*
G02*
X180266000Y-69841500I0J-262500D01*
G01*
X180266000Y-70366500D01*
G75*
G02*
X180003500Y-70629000I-262500J0D01*
G01*
X179378500Y-70629000D01*
G75*
G02*
X179116000Y-70366500I0J262500D01*
G01*
G37*
G36*
G01*
X177366000Y-70366500D02*
X177366000Y-69841500D01*
G75*
G02*
X177628500Y-69579000I262500J0D01*
G01*
X178253500Y-69579000D01*
G75*
G02*
X178516000Y-69841500I0J-262500D01*
G01*
X178516000Y-70366500D01*
G75*
G02*
X178253500Y-70629000I-262500J0D01*
G01*
X177628500Y-70629000D01*
G75*
G02*
X177366000Y-70366500I0J262500D01*
G01*
G37*
G36*
G01*
X183492543Y-75147000D02*
X184807457Y-75147000D01*
G75*
G02*
X185075000Y-75414543I0J-267543D01*
G01*
X185075000Y-76404457D01*
G75*
G02*
X184807457Y-76672000I-267543J0D01*
G01*
X183492543Y-76672000D01*
G75*
G02*
X183225000Y-76404457I0J267543D01*
G01*
X183225000Y-75414543D01*
G75*
G02*
X183492543Y-75147000I267543J0D01*
G01*
G37*
G36*
G01*
X183492543Y-72172000D02*
X184807457Y-72172000D01*
G75*
G02*
X185075000Y-72439543I0J-267543D01*
G01*
X185075000Y-73429457D01*
G75*
G02*
X184807457Y-73697000I-267543J0D01*
G01*
X183492543Y-73697000D01*
G75*
G02*
X183225000Y-73429457I0J267543D01*
G01*
X183225000Y-72439543D01*
G75*
G02*
X183492543Y-72172000I267543J0D01*
G01*
G37*
G36*
G01*
X179024000Y-83811500D02*
X179024000Y-84336500D01*
G75*
G02*
X178761500Y-84599000I-262500J0D01*
G01*
X178136500Y-84599000D01*
G75*
G02*
X177874000Y-84336500I0J262500D01*
G01*
X177874000Y-83811500D01*
G75*
G02*
X178136500Y-83549000I262500J0D01*
G01*
X178761500Y-83549000D01*
G75*
G02*
X179024000Y-83811500I0J-262500D01*
G01*
G37*
G36*
G01*
X180774000Y-83811500D02*
X180774000Y-84336500D01*
G75*
G02*
X180511500Y-84599000I-262500J0D01*
G01*
X179886500Y-84599000D01*
G75*
G02*
X179624000Y-84336500I0J262500D01*
G01*
X179624000Y-83811500D01*
G75*
G02*
X179886500Y-83549000I262500J0D01*
G01*
X180511500Y-83549000D01*
G75*
G02*
X180774000Y-83811500I0J-262500D01*
G01*
G37*
G36*
G01*
X171778000Y-75446500D02*
X171778000Y-74921500D01*
G75*
G02*
X172040500Y-74659000I262500J0D01*
G01*
X172665500Y-74659000D01*
G75*
G02*
X172928000Y-74921500I0J-262500D01*
G01*
X172928000Y-75446500D01*
G75*
G02*
X172665500Y-75709000I-262500J0D01*
G01*
X172040500Y-75709000D01*
G75*
G02*
X171778000Y-75446500I0J262500D01*
G01*
G37*
G36*
G01*
X173528000Y-75446500D02*
X173528000Y-74921500D01*
G75*
G02*
X173790500Y-74659000I262500J0D01*
G01*
X174415500Y-74659000D01*
G75*
G02*
X174678000Y-74921500I0J-262500D01*
G01*
X174678000Y-75446500D01*
G75*
G02*
X174415500Y-75709000I-262500J0D01*
G01*
X173790500Y-75709000D01*
G75*
G02*
X173528000Y-75446500I0J262500D01*
G01*
G37*
G36*
G01*
X189955000Y-79143457D02*
X189955000Y-77828543D01*
G75*
G02*
X190222543Y-77561000I267543J0D01*
G01*
X191212457Y-77561000D01*
G75*
G02*
X191480000Y-77828543I0J-267543D01*
G01*
X191480000Y-79143457D01*
G75*
G02*
X191212457Y-79411000I-267543J0D01*
G01*
X190222543Y-79411000D01*
G75*
G02*
X189955000Y-79143457I0J267543D01*
G01*
G37*
G36*
G01*
X186980000Y-79143457D02*
X186980000Y-77828543D01*
G75*
G02*
X187247543Y-77561000I267543J0D01*
G01*
X188237457Y-77561000D01*
G75*
G02*
X188505000Y-77828543I0J-267543D01*
G01*
X188505000Y-79143457D01*
G75*
G02*
X188237457Y-79411000I-267543J0D01*
G01*
X187247543Y-79411000D01*
G75*
G02*
X186980000Y-79143457I0J267543D01*
G01*
G37*
G36*
G01*
X161140543Y-72099000D02*
X162455457Y-72099000D01*
G75*
G02*
X162723000Y-72366543I0J-267543D01*
G01*
X162723000Y-73356457D01*
G75*
G02*
X162455457Y-73624000I-267543J0D01*
G01*
X161140543Y-73624000D01*
G75*
G02*
X160873000Y-73356457I0J267543D01*
G01*
X160873000Y-72366543D01*
G75*
G02*
X161140543Y-72099000I267543J0D01*
G01*
G37*
G36*
G01*
X161140543Y-69124000D02*
X162455457Y-69124000D01*
G75*
G02*
X162723000Y-69391543I0J-267543D01*
G01*
X162723000Y-70381457D01*
G75*
G02*
X162455457Y-70649000I-267543J0D01*
G01*
X161140543Y-70649000D01*
G75*
G02*
X160873000Y-70381457I0J267543D01*
G01*
X160873000Y-69391543D01*
G75*
G02*
X161140543Y-69124000I267543J0D01*
G01*
G37*
G36*
G01*
X198224543Y-72643500D02*
X199539457Y-72643500D01*
G75*
G02*
X199807000Y-72911043I0J-267543D01*
G01*
X199807000Y-73900957D01*
G75*
G02*
X199539457Y-74168500I-267543J0D01*
G01*
X198224543Y-74168500D01*
G75*
G02*
X197957000Y-73900957I0J267543D01*
G01*
X197957000Y-72911043D01*
G75*
G02*
X198224543Y-72643500I267543J0D01*
G01*
G37*
G36*
G01*
X198224543Y-69668500D02*
X199539457Y-69668500D01*
G75*
G02*
X199807000Y-69936043I0J-267543D01*
G01*
X199807000Y-70925957D01*
G75*
G02*
X199539457Y-71193500I-267543J0D01*
G01*
X198224543Y-71193500D01*
G75*
G02*
X197957000Y-70925957I0J267543D01*
G01*
X197957000Y-69936043D01*
G75*
G02*
X198224543Y-69668500I267543J0D01*
G01*
G37*
G36*
G01*
X195334500Y-71328000D02*
X194809500Y-71328000D01*
G75*
G02*
X194547000Y-71065500I0J262500D01*
G01*
X194547000Y-70440500D01*
G75*
G02*
X194809500Y-70178000I262500J0D01*
G01*
X195334500Y-70178000D01*
G75*
G02*
X195597000Y-70440500I0J-262500D01*
G01*
X195597000Y-71065500D01*
G75*
G02*
X195334500Y-71328000I-262500J0D01*
G01*
G37*
G36*
G01*
X195334500Y-73078000D02*
X194809500Y-73078000D01*
G75*
G02*
X194547000Y-72815500I0J262500D01*
G01*
X194547000Y-72190500D01*
G75*
G02*
X194809500Y-71928000I262500J0D01*
G01*
X195334500Y-71928000D01*
G75*
G02*
X195597000Y-72190500I0J-262500D01*
G01*
X195597000Y-72815500D01*
G75*
G02*
X195334500Y-73078000I-262500J0D01*
G01*
G37*
G36*
G01*
X154028543Y-72135500D02*
X155343457Y-72135500D01*
G75*
G02*
X155611000Y-72403043I0J-267543D01*
G01*
X155611000Y-73392957D01*
G75*
G02*
X155343457Y-73660500I-267543J0D01*
G01*
X154028543Y-73660500D01*
G75*
G02*
X153761000Y-73392957I0J267543D01*
G01*
X153761000Y-72403043D01*
G75*
G02*
X154028543Y-72135500I267543J0D01*
G01*
G37*
G36*
G01*
X154028543Y-69160500D02*
X155343457Y-69160500D01*
G75*
G02*
X155611000Y-69428043I0J-267543D01*
G01*
X155611000Y-70417957D01*
G75*
G02*
X155343457Y-70685500I-267543J0D01*
G01*
X154028543Y-70685500D01*
G75*
G02*
X153761000Y-70417957I0J267543D01*
G01*
X153761000Y-69428043D01*
G75*
G02*
X154028543Y-69160500I267543J0D01*
G01*
G37*
G36*
G01*
X169776543Y-72353000D02*
X171091457Y-72353000D01*
G75*
G02*
X171359000Y-72620543I0J-267543D01*
G01*
X171359000Y-73610457D01*
G75*
G02*
X171091457Y-73878000I-267543J0D01*
G01*
X169776543Y-73878000D01*
G75*
G02*
X169509000Y-73610457I0J267543D01*
G01*
X169509000Y-72620543D01*
G75*
G02*
X169776543Y-72353000I267543J0D01*
G01*
G37*
G36*
G01*
X169776543Y-69378000D02*
X171091457Y-69378000D01*
G75*
G02*
X171359000Y-69645543I0J-267543D01*
G01*
X171359000Y-70635457D01*
G75*
G02*
X171091457Y-70903000I-267543J0D01*
G01*
X169776543Y-70903000D01*
G75*
G02*
X169509000Y-70635457I0J267543D01*
G01*
X169509000Y-69645543D01*
G75*
G02*
X169776543Y-69378000I267543J0D01*
G01*
G37*
G36*
G01*
X207876543Y-72643500D02*
X209191457Y-72643500D01*
G75*
G02*
X209459000Y-72911043I0J-267543D01*
G01*
X209459000Y-73900957D01*
G75*
G02*
X209191457Y-74168500I-267543J0D01*
G01*
X207876543Y-74168500D01*
G75*
G02*
X207609000Y-73900957I0J267543D01*
G01*
X207609000Y-72911043D01*
G75*
G02*
X207876543Y-72643500I267543J0D01*
G01*
G37*
G36*
G01*
X207876543Y-69668500D02*
X209191457Y-69668500D01*
G75*
G02*
X209459000Y-69936043I0J-267543D01*
G01*
X209459000Y-70925957D01*
G75*
G02*
X209191457Y-71193500I-267543J0D01*
G01*
X207876543Y-71193500D01*
G75*
G02*
X207609000Y-70925957I0J267543D01*
G01*
X207609000Y-69936043D01*
G75*
G02*
X207876543Y-69668500I267543J0D01*
G01*
G37*
G36*
G01*
X204986500Y-71328000D02*
X204461500Y-71328000D01*
G75*
G02*
X204199000Y-71065500I0J262500D01*
G01*
X204199000Y-70440500D01*
G75*
G02*
X204461500Y-70178000I262500J0D01*
G01*
X204986500Y-70178000D01*
G75*
G02*
X205249000Y-70440500I0J-262500D01*
G01*
X205249000Y-71065500D01*
G75*
G02*
X204986500Y-71328000I-262500J0D01*
G01*
G37*
G36*
G01*
X204986500Y-73078000D02*
X204461500Y-73078000D01*
G75*
G02*
X204199000Y-72815500I0J262500D01*
G01*
X204199000Y-72190500D01*
G75*
G02*
X204461500Y-71928000I262500J0D01*
G01*
X204986500Y-71928000D01*
G75*
G02*
X205249000Y-72190500I0J-262500D01*
G01*
X205249000Y-72815500D01*
G75*
G02*
X204986500Y-73078000I-262500J0D01*
G01*
G37*
G36*
G01*
X184141500Y-91486000D02*
X184666500Y-91486000D01*
G75*
G02*
X184929000Y-91748500I0J-262500D01*
G01*
X184929000Y-92373500D01*
G75*
G02*
X184666500Y-92636000I-262500J0D01*
G01*
X184141500Y-92636000D01*
G75*
G02*
X183879000Y-92373500I0J262500D01*
G01*
X183879000Y-91748500D01*
G75*
G02*
X184141500Y-91486000I262500J0D01*
G01*
G37*
G36*
G01*
X184141500Y-89736000D02*
X184666500Y-89736000D01*
G75*
G02*
X184929000Y-89998500I0J-262500D01*
G01*
X184929000Y-90623500D01*
G75*
G02*
X184666500Y-90886000I-262500J0D01*
G01*
X184141500Y-90886000D01*
G75*
G02*
X183879000Y-90623500I0J262500D01*
G01*
X183879000Y-89998500D01*
G75*
G02*
X184141500Y-89736000I262500J0D01*
G01*
G37*
D10*
X205994000Y-82296000D03*
X205994000Y-77216000D03*
X211074000Y-77216000D03*
X211074000Y-82296000D03*
D11*
X208534000Y-79756000D03*
D10*
X144272000Y-60706000D03*
X144272000Y-55626000D03*
X149352000Y-55626000D03*
X149352000Y-60706000D03*
D11*
X146812000Y-58166000D03*
D10*
X144272000Y-69850000D03*
X144272000Y-64770000D03*
X149352000Y-64770000D03*
X149352000Y-69850000D03*
D11*
X146812000Y-67310000D03*
D10*
X187198000Y-69850000D03*
X187198000Y-64770000D03*
X192278000Y-64770000D03*
X192278000Y-69850000D03*
D11*
X189738000Y-67310000D03*
D10*
X187198000Y-60706000D03*
X187198000Y-55626000D03*
X192278000Y-55626000D03*
X192278000Y-60706000D03*
D11*
X189738000Y-58166000D03*
D12*
X159032000Y-55790000D03*
D13*
X164032000Y-64090000D03*
X161532000Y-62390000D03*
D12*
X154832000Y-66890000D03*
G36*
G01*
X153432000Y-57240000D02*
X155632000Y-57240000D01*
G75*
G02*
X155682000Y-57290000I0J-50000D01*
G01*
X155682000Y-61290000D01*
G75*
G02*
X155632000Y-61340000I-50000J0D01*
G01*
X153432000Y-61340000D01*
G75*
G02*
X153382000Y-61290000I0J50000D01*
G01*
X153382000Y-57290000D01*
G75*
G02*
X153432000Y-57240000I50000J0D01*
G01*
G37*
X201958000Y-55790000D03*
D13*
X206958000Y-64090000D03*
X204458000Y-62390000D03*
D12*
X197758000Y-66890000D03*
G36*
G01*
X196358000Y-57240000D02*
X198558000Y-57240000D01*
G75*
G02*
X198608000Y-57290000I0J-50000D01*
G01*
X198608000Y-61290000D01*
G75*
G02*
X198558000Y-61340000I-50000J0D01*
G01*
X196358000Y-61340000D01*
G75*
G02*
X196308000Y-61290000I0J50000D01*
G01*
X196308000Y-57290000D01*
G75*
G02*
X196358000Y-57240000I50000J0D01*
G01*
G37*
G36*
G01*
X176171457Y-70903000D02*
X174856543Y-70903000D01*
G75*
G02*
X174589000Y-70635457I0J267543D01*
G01*
X174589000Y-69645543D01*
G75*
G02*
X174856543Y-69378000I267543J0D01*
G01*
X176171457Y-69378000D01*
G75*
G02*
X176439000Y-69645543I0J-267543D01*
G01*
X176439000Y-70635457D01*
G75*
G02*
X176171457Y-70903000I-267543J0D01*
G01*
G37*
G36*
G01*
X176171457Y-73878000D02*
X174856543Y-73878000D01*
G75*
G02*
X174589000Y-73610457I0J267543D01*
G01*
X174589000Y-72620543D01*
G75*
G02*
X174856543Y-72353000I267543J0D01*
G01*
X176171457Y-72353000D01*
G75*
G02*
X176439000Y-72620543I0J-267543D01*
G01*
X176439000Y-73610457D01*
G75*
G02*
X176171457Y-73878000I-267543J0D01*
G01*
G37*
G36*
G01*
X179470000Y-72652000D02*
X178670000Y-72652000D01*
G75*
G02*
X178620000Y-72602000I0J50000D01*
G01*
X178620000Y-71702000D01*
G75*
G02*
X178670000Y-71652000I50000J0D01*
G01*
X179470000Y-71652000D01*
G75*
G02*
X179520000Y-71702000I0J-50000D01*
G01*
X179520000Y-72602000D01*
G75*
G02*
X179470000Y-72652000I-50000J0D01*
G01*
G37*
G36*
G01*
X180420000Y-74652000D02*
X179620000Y-74652000D01*
G75*
G02*
X179570000Y-74602000I0J50000D01*
G01*
X179570000Y-73702000D01*
G75*
G02*
X179620000Y-73652000I50000J0D01*
G01*
X180420000Y-73652000D01*
G75*
G02*
X180470000Y-73702000I0J-50000D01*
G01*
X180470000Y-74602000D01*
G75*
G02*
X180420000Y-74652000I-50000J0D01*
G01*
G37*
G36*
G01*
X178520000Y-74652000D02*
X177720000Y-74652000D01*
G75*
G02*
X177670000Y-74602000I0J50000D01*
G01*
X177670000Y-73702000D01*
G75*
G02*
X177720000Y-73652000I50000J0D01*
G01*
X178520000Y-73652000D01*
G75*
G02*
X178570000Y-73702000I0J-50000D01*
G01*
X178570000Y-74602000D01*
G75*
G02*
X178520000Y-74652000I-50000J0D01*
G01*
G37*
G36*
G01*
X165816000Y-84573500D02*
X165816000Y-85098500D01*
G75*
G02*
X165553500Y-85361000I-262500J0D01*
G01*
X164928500Y-85361000D01*
G75*
G02*
X164666000Y-85098500I0J262500D01*
G01*
X164666000Y-84573500D01*
G75*
G02*
X164928500Y-84311000I262500J0D01*
G01*
X165553500Y-84311000D01*
G75*
G02*
X165816000Y-84573500I0J-262500D01*
G01*
G37*
G36*
G01*
X167566000Y-84573500D02*
X167566000Y-85098500D01*
G75*
G02*
X167303500Y-85361000I-262500J0D01*
G01*
X166678500Y-85361000D01*
G75*
G02*
X166416000Y-85098500I0J262500D01*
G01*
X166416000Y-84573500D01*
G75*
G02*
X166678500Y-84311000I262500J0D01*
G01*
X167303500Y-84311000D01*
G75*
G02*
X167566000Y-84573500I0J-262500D01*
G01*
G37*
G36*
G01*
X177592000Y-86876500D02*
X177592000Y-86351500D01*
G75*
G02*
X177854500Y-86089000I262500J0D01*
G01*
X178479500Y-86089000D01*
G75*
G02*
X178742000Y-86351500I0J-262500D01*
G01*
X178742000Y-86876500D01*
G75*
G02*
X178479500Y-87139000I-262500J0D01*
G01*
X177854500Y-87139000D01*
G75*
G02*
X177592000Y-86876500I0J262500D01*
G01*
G37*
G36*
G01*
X175842000Y-86876500D02*
X175842000Y-86351500D01*
G75*
G02*
X176104500Y-86089000I262500J0D01*
G01*
X176729500Y-86089000D01*
G75*
G02*
X176992000Y-86351500I0J-262500D01*
G01*
X176992000Y-86876500D01*
G75*
G02*
X176729500Y-87139000I-262500J0D01*
G01*
X176104500Y-87139000D01*
G75*
G02*
X175842000Y-86876500I0J262500D01*
G01*
G37*
G36*
G01*
X172457500Y-87930000D02*
X172982500Y-87930000D01*
G75*
G02*
X173245000Y-88192500I0J-262500D01*
G01*
X173245000Y-88817500D01*
G75*
G02*
X172982500Y-89080000I-262500J0D01*
G01*
X172457500Y-89080000D01*
G75*
G02*
X172195000Y-88817500I0J262500D01*
G01*
X172195000Y-88192500D01*
G75*
G02*
X172457500Y-87930000I262500J0D01*
G01*
G37*
G36*
G01*
X172457500Y-86180000D02*
X172982500Y-86180000D01*
G75*
G02*
X173245000Y-86442500I0J-262500D01*
G01*
X173245000Y-87067500D01*
G75*
G02*
X172982500Y-87330000I-262500J0D01*
G01*
X172457500Y-87330000D01*
G75*
G02*
X172195000Y-87067500I0J262500D01*
G01*
X172195000Y-86442500D01*
G75*
G02*
X172457500Y-86180000I262500J0D01*
G01*
G37*
G36*
G01*
X173981500Y-87930000D02*
X174506500Y-87930000D01*
G75*
G02*
X174769000Y-88192500I0J-262500D01*
G01*
X174769000Y-88817500D01*
G75*
G02*
X174506500Y-89080000I-262500J0D01*
G01*
X173981500Y-89080000D01*
G75*
G02*
X173719000Y-88817500I0J262500D01*
G01*
X173719000Y-88192500D01*
G75*
G02*
X173981500Y-87930000I262500J0D01*
G01*
G37*
G36*
G01*
X173981500Y-86180000D02*
X174506500Y-86180000D01*
G75*
G02*
X174769000Y-86442500I0J-262500D01*
G01*
X174769000Y-87067500D01*
G75*
G02*
X174506500Y-87330000I-262500J0D01*
G01*
X173981500Y-87330000D01*
G75*
G02*
X173719000Y-87067500I0J262500D01*
G01*
X173719000Y-86442500D01*
G75*
G02*
X173981500Y-86180000I262500J0D01*
G01*
G37*
G36*
G01*
X165816000Y-78477500D02*
X165816000Y-79002500D01*
G75*
G02*
X165553500Y-79265000I-262500J0D01*
G01*
X164928500Y-79265000D01*
G75*
G02*
X164666000Y-79002500I0J262500D01*
G01*
X164666000Y-78477500D01*
G75*
G02*
X164928500Y-78215000I262500J0D01*
G01*
X165553500Y-78215000D01*
G75*
G02*
X165816000Y-78477500I0J-262500D01*
G01*
G37*
G36*
G01*
X167566000Y-78477500D02*
X167566000Y-79002500D01*
G75*
G02*
X167303500Y-79265000I-262500J0D01*
G01*
X166678500Y-79265000D01*
G75*
G02*
X166416000Y-79002500I0J262500D01*
G01*
X166416000Y-78477500D01*
G75*
G02*
X166678500Y-78215000I262500J0D01*
G01*
X167303500Y-78215000D01*
G75*
G02*
X167566000Y-78477500I0J-262500D01*
G01*
G37*
G36*
G01*
X165816000Y-80001500D02*
X165816000Y-80526500D01*
G75*
G02*
X165553500Y-80789000I-262500J0D01*
G01*
X164928500Y-80789000D01*
G75*
G02*
X164666000Y-80526500I0J262500D01*
G01*
X164666000Y-80001500D01*
G75*
G02*
X164928500Y-79739000I262500J0D01*
G01*
X165553500Y-79739000D01*
G75*
G02*
X165816000Y-80001500I0J-262500D01*
G01*
G37*
G36*
G01*
X167566000Y-80001500D02*
X167566000Y-80526500D01*
G75*
G02*
X167303500Y-80789000I-262500J0D01*
G01*
X166678500Y-80789000D01*
G75*
G02*
X166416000Y-80526500I0J262500D01*
G01*
X166416000Y-80001500D01*
G75*
G02*
X166678500Y-79739000I262500J0D01*
G01*
X167303500Y-79739000D01*
G75*
G02*
X167566000Y-80001500I0J-262500D01*
G01*
G37*
G36*
G01*
X165816000Y-81525500D02*
X165816000Y-82050500D01*
G75*
G02*
X165553500Y-82313000I-262500J0D01*
G01*
X164928500Y-82313000D01*
G75*
G02*
X164666000Y-82050500I0J262500D01*
G01*
X164666000Y-81525500D01*
G75*
G02*
X164928500Y-81263000I262500J0D01*
G01*
X165553500Y-81263000D01*
G75*
G02*
X165816000Y-81525500I0J-262500D01*
G01*
G37*
G36*
G01*
X167566000Y-81525500D02*
X167566000Y-82050500D01*
G75*
G02*
X167303500Y-82313000I-262500J0D01*
G01*
X166678500Y-82313000D01*
G75*
G02*
X166416000Y-82050500I0J262500D01*
G01*
X166416000Y-81525500D01*
G75*
G02*
X166678500Y-81263000I262500J0D01*
G01*
X167303500Y-81263000D01*
G75*
G02*
X167566000Y-81525500I0J-262500D01*
G01*
G37*
G36*
G01*
X165816000Y-83049500D02*
X165816000Y-83574500D01*
G75*
G02*
X165553500Y-83837000I-262500J0D01*
G01*
X164928500Y-83837000D01*
G75*
G02*
X164666000Y-83574500I0J262500D01*
G01*
X164666000Y-83049500D01*
G75*
G02*
X164928500Y-82787000I262500J0D01*
G01*
X165553500Y-82787000D01*
G75*
G02*
X165816000Y-83049500I0J-262500D01*
G01*
G37*
G36*
G01*
X167566000Y-83049500D02*
X167566000Y-83574500D01*
G75*
G02*
X167303500Y-83837000I-262500J0D01*
G01*
X166678500Y-83837000D01*
G75*
G02*
X166416000Y-83574500I0J262500D01*
G01*
X166416000Y-83049500D01*
G75*
G02*
X166678500Y-82787000I262500J0D01*
G01*
X167303500Y-82787000D01*
G75*
G02*
X167566000Y-83049500I0J-262500D01*
G01*
G37*
G36*
G01*
X180348500Y-76408000D02*
X179823500Y-76408000D01*
G75*
G02*
X179561000Y-76145500I0J262500D01*
G01*
X179561000Y-75520500D01*
G75*
G02*
X179823500Y-75258000I262500J0D01*
G01*
X180348500Y-75258000D01*
G75*
G02*
X180611000Y-75520500I0J-262500D01*
G01*
X180611000Y-76145500D01*
G75*
G02*
X180348500Y-76408000I-262500J0D01*
G01*
G37*
G36*
G01*
X180348500Y-78158000D02*
X179823500Y-78158000D01*
G75*
G02*
X179561000Y-77895500I0J262500D01*
G01*
X179561000Y-77270500D01*
G75*
G02*
X179823500Y-77008000I262500J0D01*
G01*
X180348500Y-77008000D01*
G75*
G02*
X180611000Y-77270500I0J-262500D01*
G01*
X180611000Y-77895500D01*
G75*
G02*
X180348500Y-78158000I-262500J0D01*
G01*
G37*
G36*
G01*
X182126500Y-76408000D02*
X181601500Y-76408000D01*
G75*
G02*
X181339000Y-76145500I0J262500D01*
G01*
X181339000Y-75520500D01*
G75*
G02*
X181601500Y-75258000I262500J0D01*
G01*
X182126500Y-75258000D01*
G75*
G02*
X182389000Y-75520500I0J-262500D01*
G01*
X182389000Y-76145500D01*
G75*
G02*
X182126500Y-76408000I-262500J0D01*
G01*
G37*
G36*
G01*
X182126500Y-78158000D02*
X181601500Y-78158000D01*
G75*
G02*
X181339000Y-77895500I0J262500D01*
G01*
X181339000Y-77270500D01*
G75*
G02*
X181601500Y-77008000I262500J0D01*
G01*
X182126500Y-77008000D01*
G75*
G02*
X182389000Y-77270500I0J-262500D01*
G01*
X182389000Y-77895500D01*
G75*
G02*
X182126500Y-78158000I-262500J0D01*
G01*
G37*
G36*
G01*
X182580000Y-85335500D02*
X182580000Y-85860500D01*
G75*
G02*
X182317500Y-86123000I-262500J0D01*
G01*
X181692500Y-86123000D01*
G75*
G02*
X181430000Y-85860500I0J262500D01*
G01*
X181430000Y-85335500D01*
G75*
G02*
X181692500Y-85073000I262500J0D01*
G01*
X182317500Y-85073000D01*
G75*
G02*
X182580000Y-85335500I0J-262500D01*
G01*
G37*
G36*
G01*
X184330000Y-85335500D02*
X184330000Y-85860500D01*
G75*
G02*
X184067500Y-86123000I-262500J0D01*
G01*
X183442500Y-86123000D01*
G75*
G02*
X183180000Y-85860500I0J262500D01*
G01*
X183180000Y-85335500D01*
G75*
G02*
X183442500Y-85073000I262500J0D01*
G01*
X184067500Y-85073000D01*
G75*
G02*
X184330000Y-85335500I0J-262500D01*
G01*
G37*
G36*
G01*
X196134000Y-74430500D02*
X196134000Y-73905500D01*
G75*
G02*
X196396500Y-73643000I262500J0D01*
G01*
X197021500Y-73643000D01*
G75*
G02*
X197284000Y-73905500I0J-262500D01*
G01*
X197284000Y-74430500D01*
G75*
G02*
X197021500Y-74693000I-262500J0D01*
G01*
X196396500Y-74693000D01*
G75*
G02*
X196134000Y-74430500I0J262500D01*
G01*
G37*
G36*
G01*
X194384000Y-74430500D02*
X194384000Y-73905500D01*
G75*
G02*
X194646500Y-73643000I262500J0D01*
G01*
X195271500Y-73643000D01*
G75*
G02*
X195534000Y-73905500I0J-262500D01*
G01*
X195534000Y-74430500D01*
G75*
G02*
X195271500Y-74693000I-262500J0D01*
G01*
X194646500Y-74693000D01*
G75*
G02*
X194384000Y-74430500I0J262500D01*
G01*
G37*
G36*
G01*
X165870500Y-70312000D02*
X165345500Y-70312000D01*
G75*
G02*
X165083000Y-70049500I0J262500D01*
G01*
X165083000Y-69424500D01*
G75*
G02*
X165345500Y-69162000I262500J0D01*
G01*
X165870500Y-69162000D01*
G75*
G02*
X166133000Y-69424500I0J-262500D01*
G01*
X166133000Y-70049500D01*
G75*
G02*
X165870500Y-70312000I-262500J0D01*
G01*
G37*
G36*
G01*
X165870500Y-72062000D02*
X165345500Y-72062000D01*
G75*
G02*
X165083000Y-71799500I0J262500D01*
G01*
X165083000Y-71174500D01*
G75*
G02*
X165345500Y-70912000I262500J0D01*
G01*
X165870500Y-70912000D01*
G75*
G02*
X166133000Y-71174500I0J-262500D01*
G01*
X166133000Y-71799500D01*
G75*
G02*
X165870500Y-72062000I-262500J0D01*
G01*
G37*
G36*
G01*
X205786000Y-74430500D02*
X205786000Y-73905500D01*
G75*
G02*
X206048500Y-73643000I262500J0D01*
G01*
X206673500Y-73643000D01*
G75*
G02*
X206936000Y-73905500I0J-262500D01*
G01*
X206936000Y-74430500D01*
G75*
G02*
X206673500Y-74693000I-262500J0D01*
G01*
X206048500Y-74693000D01*
G75*
G02*
X205786000Y-74430500I0J262500D01*
G01*
G37*
G36*
G01*
X204036000Y-74430500D02*
X204036000Y-73905500D01*
G75*
G02*
X204298500Y-73643000I262500J0D01*
G01*
X204923500Y-73643000D01*
G75*
G02*
X205186000Y-73905500I0J-262500D01*
G01*
X205186000Y-74430500D01*
G75*
G02*
X204923500Y-74693000I-262500J0D01*
G01*
X204298500Y-74693000D01*
G75*
G02*
X204036000Y-74430500I0J262500D01*
G01*
G37*
G36*
G01*
X158758500Y-70312000D02*
X158233500Y-70312000D01*
G75*
G02*
X157971000Y-70049500I0J262500D01*
G01*
X157971000Y-69424500D01*
G75*
G02*
X158233500Y-69162000I262500J0D01*
G01*
X158758500Y-69162000D01*
G75*
G02*
X159021000Y-69424500I0J-262500D01*
G01*
X159021000Y-70049500D01*
G75*
G02*
X158758500Y-70312000I-262500J0D01*
G01*
G37*
G36*
G01*
X158758500Y-72062000D02*
X158233500Y-72062000D01*
G75*
G02*
X157971000Y-71799500I0J262500D01*
G01*
X157971000Y-71174500D01*
G75*
G02*
X158233500Y-70912000I262500J0D01*
G01*
X158758500Y-70912000D01*
G75*
G02*
X159021000Y-71174500I0J-262500D01*
G01*
X159021000Y-71799500D01*
G75*
G02*
X158758500Y-72062000I-262500J0D01*
G01*
G37*
G36*
G01*
X167885500Y-71928000D02*
X168410500Y-71928000D01*
G75*
G02*
X168673000Y-72190500I0J-262500D01*
G01*
X168673000Y-72815500D01*
G75*
G02*
X168410500Y-73078000I-262500J0D01*
G01*
X167885500Y-73078000D01*
G75*
G02*
X167623000Y-72815500I0J262500D01*
G01*
X167623000Y-72190500D01*
G75*
G02*
X167885500Y-71928000I262500J0D01*
G01*
G37*
G36*
G01*
X167885500Y-70178000D02*
X168410500Y-70178000D01*
G75*
G02*
X168673000Y-70440500I0J-262500D01*
G01*
X168673000Y-71065500D01*
G75*
G02*
X168410500Y-71328000I-262500J0D01*
G01*
X167885500Y-71328000D01*
G75*
G02*
X167623000Y-71065500I0J262500D01*
G01*
X167623000Y-70440500D01*
G75*
G02*
X167885500Y-70178000I262500J0D01*
G01*
G37*
G36*
G01*
X156455500Y-70912000D02*
X156980500Y-70912000D01*
G75*
G02*
X157243000Y-71174500I0J-262500D01*
G01*
X157243000Y-71799500D01*
G75*
G02*
X156980500Y-72062000I-262500J0D01*
G01*
X156455500Y-72062000D01*
G75*
G02*
X156193000Y-71799500I0J262500D01*
G01*
X156193000Y-71174500D01*
G75*
G02*
X156455500Y-70912000I262500J0D01*
G01*
G37*
G36*
G01*
X156455500Y-69162000D02*
X156980500Y-69162000D01*
G75*
G02*
X157243000Y-69424500I0J-262500D01*
G01*
X157243000Y-70049500D01*
G75*
G02*
X156980500Y-70312000I-262500J0D01*
G01*
X156455500Y-70312000D01*
G75*
G02*
X156193000Y-70049500I0J262500D01*
G01*
X156193000Y-69424500D01*
G75*
G02*
X156455500Y-69162000I262500J0D01*
G01*
G37*
G36*
G01*
X163567500Y-70912000D02*
X164092500Y-70912000D01*
G75*
G02*
X164355000Y-71174500I0J-262500D01*
G01*
X164355000Y-71799500D01*
G75*
G02*
X164092500Y-72062000I-262500J0D01*
G01*
X163567500Y-72062000D01*
G75*
G02*
X163305000Y-71799500I0J262500D01*
G01*
X163305000Y-71174500D01*
G75*
G02*
X163567500Y-70912000I262500J0D01*
G01*
G37*
G36*
G01*
X163567500Y-69162000D02*
X164092500Y-69162000D01*
G75*
G02*
X164355000Y-69424500I0J-262500D01*
G01*
X164355000Y-70049500D01*
G75*
G02*
X164092500Y-70312000I-262500J0D01*
G01*
X163567500Y-70312000D01*
G75*
G02*
X163305000Y-70049500I0J262500D01*
G01*
X163305000Y-69424500D01*
G75*
G02*
X163567500Y-69162000I262500J0D01*
G01*
G37*
G36*
G01*
X181601500Y-73452000D02*
X182126500Y-73452000D01*
G75*
G02*
X182389000Y-73714500I0J-262500D01*
G01*
X182389000Y-74339500D01*
G75*
G02*
X182126500Y-74602000I-262500J0D01*
G01*
X181601500Y-74602000D01*
G75*
G02*
X181339000Y-74339500I0J262500D01*
G01*
X181339000Y-73714500D01*
G75*
G02*
X181601500Y-73452000I262500J0D01*
G01*
G37*
G36*
G01*
X181601500Y-71702000D02*
X182126500Y-71702000D01*
G75*
G02*
X182389000Y-71964500I0J-262500D01*
G01*
X182389000Y-72589500D01*
G75*
G02*
X182126500Y-72852000I-262500J0D01*
G01*
X181601500Y-72852000D01*
G75*
G02*
X181339000Y-72589500I0J262500D01*
G01*
X181339000Y-71964500D01*
G75*
G02*
X181601500Y-71702000I262500J0D01*
G01*
G37*
G36*
G01*
X206239500Y-71928000D02*
X206764500Y-71928000D01*
G75*
G02*
X207027000Y-72190500I0J-262500D01*
G01*
X207027000Y-72815500D01*
G75*
G02*
X206764500Y-73078000I-262500J0D01*
G01*
X206239500Y-73078000D01*
G75*
G02*
X205977000Y-72815500I0J262500D01*
G01*
X205977000Y-72190500D01*
G75*
G02*
X206239500Y-71928000I262500J0D01*
G01*
G37*
G36*
G01*
X206239500Y-70178000D02*
X206764500Y-70178000D01*
G75*
G02*
X207027000Y-70440500I0J-262500D01*
G01*
X207027000Y-71065500D01*
G75*
G02*
X206764500Y-71328000I-262500J0D01*
G01*
X206239500Y-71328000D01*
G75*
G02*
X205977000Y-71065500I0J262500D01*
G01*
X205977000Y-70440500D01*
G75*
G02*
X206239500Y-70178000I262500J0D01*
G01*
G37*
G36*
G01*
X196587500Y-71928000D02*
X197112500Y-71928000D01*
G75*
G02*
X197375000Y-72190500I0J-262500D01*
G01*
X197375000Y-72815500D01*
G75*
G02*
X197112500Y-73078000I-262500J0D01*
G01*
X196587500Y-73078000D01*
G75*
G02*
X196325000Y-72815500I0J262500D01*
G01*
X196325000Y-72190500D01*
G75*
G02*
X196587500Y-71928000I262500J0D01*
G01*
G37*
G36*
G01*
X196587500Y-70178000D02*
X197112500Y-70178000D01*
G75*
G02*
X197375000Y-70440500I0J-262500D01*
G01*
X197375000Y-71065500D01*
G75*
G02*
X197112500Y-71328000I-262500J0D01*
G01*
X196587500Y-71328000D01*
G75*
G02*
X196325000Y-71065500I0J262500D01*
G01*
X196325000Y-70440500D01*
G75*
G02*
X196587500Y-70178000I262500J0D01*
G01*
G37*
D14*
X153416000Y-97282000D03*
X153416000Y-94742000D03*
X155956000Y-97282000D03*
X155956000Y-94742000D03*
X158496000Y-97282000D03*
X158496000Y-94742000D03*
X161036000Y-97282000D03*
X161036000Y-94742000D03*
X163576000Y-97282000D03*
X163576000Y-94742000D03*
X166116000Y-97282000D03*
X166116000Y-94742000D03*
X168656000Y-97282000D03*
X168656000Y-94742000D03*
X171196000Y-97282000D03*
X171196000Y-94742000D03*
X173736000Y-97282000D03*
X173736000Y-94742000D03*
X176276000Y-97282000D03*
X176276000Y-94742000D03*
X178816000Y-97282000D03*
X178816000Y-94742000D03*
X181356000Y-97282000D03*
X181356000Y-94742000D03*
X183896000Y-97282000D03*
X183896000Y-94742000D03*
X186436000Y-97282000D03*
X186436000Y-94742000D03*
X188976000Y-97282000D03*
X188976000Y-94742000D03*
X191516000Y-97282000D03*
X191516000Y-94742000D03*
X194056000Y-97282000D03*
X194056000Y-94742000D03*
X196596000Y-97282000D03*
X196596000Y-94742000D03*
X199136000Y-97282000D03*
X199136000Y-94742000D03*
X201676000Y-97282000D03*
G36*
G01*
X200826000Y-93842000D02*
X202526000Y-93842000D01*
G75*
G02*
X202576000Y-93892000I0J-50000D01*
G01*
X202576000Y-95592000D01*
G75*
G02*
X202526000Y-95642000I-50000J0D01*
G01*
X200826000Y-95642000D01*
G75*
G02*
X200776000Y-95592000I0J50000D01*
G01*
X200776000Y-93892000D01*
G75*
G02*
X200826000Y-93842000I50000J0D01*
G01*
G37*
G36*
G01*
X174124400Y-78972000D02*
X176903600Y-78972000D01*
G75*
G02*
X177314000Y-79382400I0J-410400D01*
G01*
X177314000Y-82161600D01*
G75*
G02*
X176903600Y-82572000I-410400J0D01*
G01*
X174124400Y-82572000D01*
G75*
G02*
X173714000Y-82161600I0J410400D01*
G01*
X173714000Y-79382400D01*
G75*
G02*
X174124400Y-78972000I410400J0D01*
G01*
G37*
G36*
G01*
X173584000Y-83622000D02*
X173584000Y-82822000D01*
G75*
G02*
X173634000Y-82772000I50000J0D01*
G01*
X173894000Y-82772000D01*
G75*
G02*
X173944000Y-82822000I0J-50000D01*
G01*
X173944000Y-83622000D01*
G75*
G02*
X173894000Y-83672000I-50000J0D01*
G01*
X173634000Y-83672000D01*
G75*
G02*
X173584000Y-83622000I0J50000D01*
G01*
G37*
G36*
G01*
X174084000Y-83622000D02*
X174084000Y-82822000D01*
G75*
G02*
X174134000Y-82772000I50000J0D01*
G01*
X174394000Y-82772000D01*
G75*
G02*
X174444000Y-82822000I0J-50000D01*
G01*
X174444000Y-83622000D01*
G75*
G02*
X174394000Y-83672000I-50000J0D01*
G01*
X174134000Y-83672000D01*
G75*
G02*
X174084000Y-83622000I0J50000D01*
G01*
G37*
G36*
G01*
X174584000Y-83622000D02*
X174584000Y-82822000D01*
G75*
G02*
X174634000Y-82772000I50000J0D01*
G01*
X174894000Y-82772000D01*
G75*
G02*
X174944000Y-82822000I0J-50000D01*
G01*
X174944000Y-83622000D01*
G75*
G02*
X174894000Y-83672000I-50000J0D01*
G01*
X174634000Y-83672000D01*
G75*
G02*
X174584000Y-83622000I0J50000D01*
G01*
G37*
G36*
G01*
X175084000Y-83622000D02*
X175084000Y-82822000D01*
G75*
G02*
X175134000Y-82772000I50000J0D01*
G01*
X175394000Y-82772000D01*
G75*
G02*
X175444000Y-82822000I0J-50000D01*
G01*
X175444000Y-83622000D01*
G75*
G02*
X175394000Y-83672000I-50000J0D01*
G01*
X175134000Y-83672000D01*
G75*
G02*
X175084000Y-83622000I0J50000D01*
G01*
G37*
G36*
G01*
X175584000Y-83622000D02*
X175584000Y-82822000D01*
G75*
G02*
X175634000Y-82772000I50000J0D01*
G01*
X175894000Y-82772000D01*
G75*
G02*
X175944000Y-82822000I0J-50000D01*
G01*
X175944000Y-83622000D01*
G75*
G02*
X175894000Y-83672000I-50000J0D01*
G01*
X175634000Y-83672000D01*
G75*
G02*
X175584000Y-83622000I0J50000D01*
G01*
G37*
G36*
G01*
X176084000Y-83622000D02*
X176084000Y-82822000D01*
G75*
G02*
X176134000Y-82772000I50000J0D01*
G01*
X176394000Y-82772000D01*
G75*
G02*
X176444000Y-82822000I0J-50000D01*
G01*
X176444000Y-83622000D01*
G75*
G02*
X176394000Y-83672000I-50000J0D01*
G01*
X176134000Y-83672000D01*
G75*
G02*
X176084000Y-83622000I0J50000D01*
G01*
G37*
G36*
G01*
X176584000Y-83622000D02*
X176584000Y-82822000D01*
G75*
G02*
X176634000Y-82772000I50000J0D01*
G01*
X176894000Y-82772000D01*
G75*
G02*
X176944000Y-82822000I0J-50000D01*
G01*
X176944000Y-83622000D01*
G75*
G02*
X176894000Y-83672000I-50000J0D01*
G01*
X176634000Y-83672000D01*
G75*
G02*
X176584000Y-83622000I0J50000D01*
G01*
G37*
G36*
G01*
X177084000Y-83622000D02*
X177084000Y-82822000D01*
G75*
G02*
X177134000Y-82772000I50000J0D01*
G01*
X177394000Y-82772000D01*
G75*
G02*
X177444000Y-82822000I0J-50000D01*
G01*
X177444000Y-83622000D01*
G75*
G02*
X177394000Y-83672000I-50000J0D01*
G01*
X177134000Y-83672000D01*
G75*
G02*
X177084000Y-83622000I0J50000D01*
G01*
G37*
G36*
G01*
X178364000Y-82702000D02*
X177564000Y-82702000D01*
G75*
G02*
X177514000Y-82652000I0J50000D01*
G01*
X177514000Y-82392000D01*
G75*
G02*
X177564000Y-82342000I50000J0D01*
G01*
X178364000Y-82342000D01*
G75*
G02*
X178414000Y-82392000I0J-50000D01*
G01*
X178414000Y-82652000D01*
G75*
G02*
X178364000Y-82702000I-50000J0D01*
G01*
G37*
G36*
G01*
X178364000Y-82202000D02*
X177564000Y-82202000D01*
G75*
G02*
X177514000Y-82152000I0J50000D01*
G01*
X177514000Y-81892000D01*
G75*
G02*
X177564000Y-81842000I50000J0D01*
G01*
X178364000Y-81842000D01*
G75*
G02*
X178414000Y-81892000I0J-50000D01*
G01*
X178414000Y-82152000D01*
G75*
G02*
X178364000Y-82202000I-50000J0D01*
G01*
G37*
G36*
G01*
X178364000Y-81702000D02*
X177564000Y-81702000D01*
G75*
G02*
X177514000Y-81652000I0J50000D01*
G01*
X177514000Y-81392000D01*
G75*
G02*
X177564000Y-81342000I50000J0D01*
G01*
X178364000Y-81342000D01*
G75*
G02*
X178414000Y-81392000I0J-50000D01*
G01*
X178414000Y-81652000D01*
G75*
G02*
X178364000Y-81702000I-50000J0D01*
G01*
G37*
G36*
G01*
X178364000Y-81202000D02*
X177564000Y-81202000D01*
G75*
G02*
X177514000Y-81152000I0J50000D01*
G01*
X177514000Y-80892000D01*
G75*
G02*
X177564000Y-80842000I50000J0D01*
G01*
X178364000Y-80842000D01*
G75*
G02*
X178414000Y-80892000I0J-50000D01*
G01*
X178414000Y-81152000D01*
G75*
G02*
X178364000Y-81202000I-50000J0D01*
G01*
G37*
G36*
G01*
X178364000Y-80702000D02*
X177564000Y-80702000D01*
G75*
G02*
X177514000Y-80652000I0J50000D01*
G01*
X177514000Y-80392000D01*
G75*
G02*
X177564000Y-80342000I50000J0D01*
G01*
X178364000Y-80342000D01*
G75*
G02*
X178414000Y-80392000I0J-50000D01*
G01*
X178414000Y-80652000D01*
G75*
G02*
X178364000Y-80702000I-50000J0D01*
G01*
G37*
G36*
G01*
X178364000Y-80202000D02*
X177564000Y-80202000D01*
G75*
G02*
X177514000Y-80152000I0J50000D01*
G01*
X177514000Y-79892000D01*
G75*
G02*
X177564000Y-79842000I50000J0D01*
G01*
X178364000Y-79842000D01*
G75*
G02*
X178414000Y-79892000I0J-50000D01*
G01*
X178414000Y-80152000D01*
G75*
G02*
X178364000Y-80202000I-50000J0D01*
G01*
G37*
G36*
G01*
X178364000Y-79702000D02*
X177564000Y-79702000D01*
G75*
G02*
X177514000Y-79652000I0J50000D01*
G01*
X177514000Y-79392000D01*
G75*
G02*
X177564000Y-79342000I50000J0D01*
G01*
X178364000Y-79342000D01*
G75*
G02*
X178414000Y-79392000I0J-50000D01*
G01*
X178414000Y-79652000D01*
G75*
G02*
X178364000Y-79702000I-50000J0D01*
G01*
G37*
G36*
G01*
X178364000Y-79202000D02*
X177564000Y-79202000D01*
G75*
G02*
X177514000Y-79152000I0J50000D01*
G01*
X177514000Y-78892000D01*
G75*
G02*
X177564000Y-78842000I50000J0D01*
G01*
X178364000Y-78842000D01*
G75*
G02*
X178414000Y-78892000I0J-50000D01*
G01*
X178414000Y-79152000D01*
G75*
G02*
X178364000Y-79202000I-50000J0D01*
G01*
G37*
G36*
G01*
X177444000Y-77922000D02*
X177444000Y-78722000D01*
G75*
G02*
X177394000Y-78772000I-50000J0D01*
G01*
X177134000Y-78772000D01*
G75*
G02*
X177084000Y-78722000I0J50000D01*
G01*
X177084000Y-77922000D01*
G75*
G02*
X177134000Y-77872000I50000J0D01*
G01*
X177394000Y-77872000D01*
G75*
G02*
X177444000Y-77922000I0J-50000D01*
G01*
G37*
G36*
G01*
X176944000Y-77922000D02*
X176944000Y-78722000D01*
G75*
G02*
X176894000Y-78772000I-50000J0D01*
G01*
X176634000Y-78772000D01*
G75*
G02*
X176584000Y-78722000I0J50000D01*
G01*
X176584000Y-77922000D01*
G75*
G02*
X176634000Y-77872000I50000J0D01*
G01*
X176894000Y-77872000D01*
G75*
G02*
X176944000Y-77922000I0J-50000D01*
G01*
G37*
G36*
G01*
X176444000Y-77922000D02*
X176444000Y-78722000D01*
G75*
G02*
X176394000Y-78772000I-50000J0D01*
G01*
X176134000Y-78772000D01*
G75*
G02*
X176084000Y-78722000I0J50000D01*
G01*
X176084000Y-77922000D01*
G75*
G02*
X176134000Y-77872000I50000J0D01*
G01*
X176394000Y-77872000D01*
G75*
G02*
X176444000Y-77922000I0J-50000D01*
G01*
G37*
G36*
G01*
X175944000Y-77922000D02*
X175944000Y-78722000D01*
G75*
G02*
X175894000Y-78772000I-50000J0D01*
G01*
X175634000Y-78772000D01*
G75*
G02*
X175584000Y-78722000I0J50000D01*
G01*
X175584000Y-77922000D01*
G75*
G02*
X175634000Y-77872000I50000J0D01*
G01*
X175894000Y-77872000D01*
G75*
G02*
X175944000Y-77922000I0J-50000D01*
G01*
G37*
G36*
G01*
X175444000Y-77922000D02*
X175444000Y-78722000D01*
G75*
G02*
X175394000Y-78772000I-50000J0D01*
G01*
X175134000Y-78772000D01*
G75*
G02*
X175084000Y-78722000I0J50000D01*
G01*
X175084000Y-77922000D01*
G75*
G02*
X175134000Y-77872000I50000J0D01*
G01*
X175394000Y-77872000D01*
G75*
G02*
X175444000Y-77922000I0J-50000D01*
G01*
G37*
G36*
G01*
X174944000Y-77922000D02*
X174944000Y-78722000D01*
G75*
G02*
X174894000Y-78772000I-50000J0D01*
G01*
X174634000Y-78772000D01*
G75*
G02*
X174584000Y-78722000I0J50000D01*
G01*
X174584000Y-77922000D01*
G75*
G02*
X174634000Y-77872000I50000J0D01*
G01*
X174894000Y-77872000D01*
G75*
G02*
X174944000Y-77922000I0J-50000D01*
G01*
G37*
G36*
G01*
X174444000Y-77922000D02*
X174444000Y-78722000D01*
G75*
G02*
X174394000Y-78772000I-50000J0D01*
G01*
X174134000Y-78772000D01*
G75*
G02*
X174084000Y-78722000I0J50000D01*
G01*
X174084000Y-77922000D01*
G75*
G02*
X174134000Y-77872000I50000J0D01*
G01*
X174394000Y-77872000D01*
G75*
G02*
X174444000Y-77922000I0J-50000D01*
G01*
G37*
G36*
G01*
X173944000Y-77922000D02*
X173944000Y-78722000D01*
G75*
G02*
X173894000Y-78772000I-50000J0D01*
G01*
X173634000Y-78772000D01*
G75*
G02*
X173584000Y-78722000I0J50000D01*
G01*
X173584000Y-77922000D01*
G75*
G02*
X173634000Y-77872000I50000J0D01*
G01*
X173894000Y-77872000D01*
G75*
G02*
X173944000Y-77922000I0J-50000D01*
G01*
G37*
G36*
G01*
X172664000Y-78842000D02*
X173464000Y-78842000D01*
G75*
G02*
X173514000Y-78892000I0J-50000D01*
G01*
X173514000Y-79152000D01*
G75*
G02*
X173464000Y-79202000I-50000J0D01*
G01*
X172664000Y-79202000D01*
G75*
G02*
X172614000Y-79152000I0J50000D01*
G01*
X172614000Y-78892000D01*
G75*
G02*
X172664000Y-78842000I50000J0D01*
G01*
G37*
G36*
G01*
X172664000Y-79342000D02*
X173464000Y-79342000D01*
G75*
G02*
X173514000Y-79392000I0J-50000D01*
G01*
X173514000Y-79652000D01*
G75*
G02*
X173464000Y-79702000I-50000J0D01*
G01*
X172664000Y-79702000D01*
G75*
G02*
X172614000Y-79652000I0J50000D01*
G01*
X172614000Y-79392000D01*
G75*
G02*
X172664000Y-79342000I50000J0D01*
G01*
G37*
G36*
G01*
X172664000Y-79842000D02*
X173464000Y-79842000D01*
G75*
G02*
X173514000Y-79892000I0J-50000D01*
G01*
X173514000Y-80152000D01*
G75*
G02*
X173464000Y-80202000I-50000J0D01*
G01*
X172664000Y-80202000D01*
G75*
G02*
X172614000Y-80152000I0J50000D01*
G01*
X172614000Y-79892000D01*
G75*
G02*
X172664000Y-79842000I50000J0D01*
G01*
G37*
G36*
G01*
X172664000Y-80342000D02*
X173464000Y-80342000D01*
G75*
G02*
X173514000Y-80392000I0J-50000D01*
G01*
X173514000Y-80652000D01*
G75*
G02*
X173464000Y-80702000I-50000J0D01*
G01*
X172664000Y-80702000D01*
G75*
G02*
X172614000Y-80652000I0J50000D01*
G01*
X172614000Y-80392000D01*
G75*
G02*
X172664000Y-80342000I50000J0D01*
G01*
G37*
G36*
G01*
X172664000Y-80842000D02*
X173464000Y-80842000D01*
G75*
G02*
X173514000Y-80892000I0J-50000D01*
G01*
X173514000Y-81152000D01*
G75*
G02*
X173464000Y-81202000I-50000J0D01*
G01*
X172664000Y-81202000D01*
G75*
G02*
X172614000Y-81152000I0J50000D01*
G01*
X172614000Y-80892000D01*
G75*
G02*
X172664000Y-80842000I50000J0D01*
G01*
G37*
G36*
G01*
X172664000Y-81342000D02*
X173464000Y-81342000D01*
G75*
G02*
X173514000Y-81392000I0J-50000D01*
G01*
X173514000Y-81652000D01*
G75*
G02*
X173464000Y-81702000I-50000J0D01*
G01*
X172664000Y-81702000D01*
G75*
G02*
X172614000Y-81652000I0J50000D01*
G01*
X172614000Y-81392000D01*
G75*
G02*
X172664000Y-81342000I50000J0D01*
G01*
G37*
G36*
G01*
X172664000Y-81842000D02*
X173464000Y-81842000D01*
G75*
G02*
X173514000Y-81892000I0J-50000D01*
G01*
X173514000Y-82152000D01*
G75*
G02*
X173464000Y-82202000I-50000J0D01*
G01*
X172664000Y-82202000D01*
G75*
G02*
X172614000Y-82152000I0J50000D01*
G01*
X172614000Y-81892000D01*
G75*
G02*
X172664000Y-81842000I50000J0D01*
G01*
G37*
G36*
G01*
X172664000Y-82342000D02*
X173464000Y-82342000D01*
G75*
G02*
X173514000Y-82392000I0J-50000D01*
G01*
X173514000Y-82652000D01*
G75*
G02*
X173464000Y-82702000I-50000J0D01*
G01*
X172664000Y-82702000D01*
G75*
G02*
X172614000Y-82652000I0J50000D01*
G01*
X172614000Y-82392000D01*
G75*
G02*
X172664000Y-82342000I50000J0D01*
G01*
G37*
M02*
