%FSLAX45Y45*%
G04 Gerber Fmt 4.5, Leading zero omitted, Abs format (unit mm)*
G04 Created by KiCad (PCBNEW (5.1.9)-1) date 2021-12-15 22:24:52*
%MOMM*%
%LPD*%
G01*
G04 APERTURE LIST*
%TA.AperFunction,Profile*%
%ADD10C,0.050000*%
%TD*%
%ADD11C,0.200000*%
%ADD12C,0.300000*%
G04 APERTURE END LIST*
D10*
X14000000Y-10100000D02*
X14000000Y-5100000D01*
X21500000Y-10100000D02*
X14000000Y-10100000D01*
X21500000Y-5100000D02*
X21500000Y-10100000D01*
X14000000Y-5100000D02*
X21500000Y-5100000D01*
D11*
D12*
X14283928Y-10568214D02*
X14283928Y-10268214D01*
X14355357Y-10268214D01*
X14398214Y-10282500D01*
X14426786Y-10311072D01*
X14441071Y-10339643D01*
X14455357Y-10396786D01*
X14455357Y-10439643D01*
X14441071Y-10496786D01*
X14426786Y-10525357D01*
X14398214Y-10553929D01*
X14355357Y-10568214D01*
X14283928Y-10568214D01*
X14583928Y-10568214D02*
X14583928Y-10368214D01*
X14583928Y-10425357D02*
X14598214Y-10396786D01*
X14612500Y-10382500D01*
X14641071Y-10368214D01*
X14669643Y-10368214D01*
X14769643Y-10568214D02*
X14769643Y-10368214D01*
X14769643Y-10268214D02*
X14755357Y-10282500D01*
X14769643Y-10296786D01*
X14783928Y-10282500D01*
X14769643Y-10268214D01*
X14769643Y-10296786D01*
X14955357Y-10568214D02*
X14926786Y-10553929D01*
X14912500Y-10525357D01*
X14912500Y-10268214D01*
X15112500Y-10568214D02*
X15083928Y-10553929D01*
X15069643Y-10525357D01*
X15069643Y-10268214D01*
X15455357Y-10568214D02*
X15455357Y-10268214D01*
X15555357Y-10482500D01*
X15655357Y-10268214D01*
X15655357Y-10568214D01*
X15926786Y-10568214D02*
X15926786Y-10411072D01*
X15912500Y-10382500D01*
X15883928Y-10368214D01*
X15826786Y-10368214D01*
X15798214Y-10382500D01*
X15926786Y-10553929D02*
X15898214Y-10568214D01*
X15826786Y-10568214D01*
X15798214Y-10553929D01*
X15783928Y-10525357D01*
X15783928Y-10496786D01*
X15798214Y-10468214D01*
X15826786Y-10453929D01*
X15898214Y-10453929D01*
X15926786Y-10439643D01*
X16069643Y-10368214D02*
X16069643Y-10668214D01*
X16069643Y-10382500D02*
X16098214Y-10368214D01*
X16155357Y-10368214D01*
X16183928Y-10382500D01*
X16198214Y-10396786D01*
X16212500Y-10425357D01*
X16212500Y-10511072D01*
X16198214Y-10539643D01*
X16183928Y-10553929D01*
X16155357Y-10568214D01*
X16098214Y-10568214D01*
X16069643Y-10553929D01*
X16341071Y-10539643D02*
X16355357Y-10553929D01*
X16341071Y-10568214D01*
X16326786Y-10553929D01*
X16341071Y-10539643D01*
X16341071Y-10568214D01*
X16341071Y-10382500D02*
X16355357Y-10396786D01*
X16341071Y-10411072D01*
X16326786Y-10396786D01*
X16341071Y-10382500D01*
X16341071Y-10411072D01*
M02*
