M48
; DRILL file {KiCad (5.1.9)-1} date 12/15/21 22:24:43
; FORMAT={-:-/ absolute / metric / decimal}
; #@! TF.CreationDate,2021-12-15T22:24:43+01:00
; #@! TF.GenerationSoftware,Kicad,Pcbnew,(5.1.9)-1
; #@! TF.FileFunction,Plated,1,2,PTH
FMAT,2
METRIC
T1C0.300
T2C0.400
T3C0.500
T4C1.000
T5C1.500
T6C1.700
%
G90
G05
T1
X142.24Y-72.39
X142.24Y-75.184
X144.018Y-72.39
X144.018Y-75.184
X144.78Y-94.488
X146.558Y-96.266
X147.32Y-98.552
X148.336Y-86.614
X148.59Y-89.154
X148.59Y-99.939
X149.096Y-77.605
X149.352Y-98.552
X149.489Y-80.518
X149.489Y-92.964
X150.114Y-78.74
X150.114Y-90.424
X150.876Y-80.264
X150.876Y-82.804
X151.638Y-84.074
X151.638Y-90.932
X152.146Y-69.85
X152.146Y-72.898
X152.654Y-86.36
X152.908Y-79.502
X153.162Y-82.804
X153.924Y-89.408
X154.432Y-84.582
X154.612Y-74.12
X154.94Y-55.372
X155.702Y-87.63
X156.21Y-83.058
X157.48Y-82.55
X157.48Y-85.852
X157.48Y-89.662
X157.988Y-79.502
X158.557Y-83.627
X159.004Y-58.928
X159.004Y-78.115
X159.004Y-81.026
X159.512Y-85.09
X159.512Y-87.122
X159.512Y-89.408
X160.02Y-67.056
X160.02Y-69.088
X160.274Y-72.644
X160.274Y-74.168
X160.528Y-88.138
X161.29Y-89.408
X161.798Y-76.845
X161.798Y-78.095
X162.306Y-86.614
X162.306Y-92.964
X162.814Y-79.502
X163.322Y-55.372
X163.322Y-57.404
X163.322Y-59.436
X163.576Y-73.152
X163.576Y-75.184
X163.576Y-81.026
X163.576Y-88.138
X165.354Y-73.152
X165.354Y-75.184
X165.608Y-91.948
X166.624Y-65.024
X166.624Y-66.802
X166.624Y-68.58
X166.878Y-73.152
X166.878Y-74.93
X168.148Y-65.024
X168.148Y-66.802
X168.148Y-68.58
X168.656Y-74.93
X169.164Y-92.202
X169.418Y-78.74
X169.418Y-86.36
X169.926Y-65.024
X170.434Y-75.184
X170.688Y-78.74
X171.45Y-90.17
X171.841Y-92.964
X172.466Y-54.864
X172.974Y-69.596
X172.974Y-71.374
X172.974Y-73.152
X173.228Y-92.964
X174.244Y-79.502
X174.244Y-80.772
X174.244Y-82.042
X174.498Y-90.17
X175.514Y-79.502
X175.514Y-80.772
X175.514Y-82.042
X175.768Y-62.738
X176.595Y-75.503
X176.784Y-67.564
X176.784Y-79.502
X176.784Y-80.772
X176.784Y-82.042
X176.889Y-77.47
X176.989Y-84.4
X177.27Y-76.052
X177.386Y-76.843
X177.8Y-72.136
X179.07Y-66.04
X179.07Y-81.534
X180.086Y-78.994
X180.086Y-86.614
X180.594Y-92.964
X180.848Y-82.042
X181.356Y-57.15
X181.356Y-59.436
X181.61Y-83.566
X182.372Y-88.138
X182.626Y-81.28
X183.134Y-67.564
X183.134Y-71.374
X183.134Y-92.964
X186.182Y-86.614
X186.944Y-72.898
X186.944Y-75.438
X186.944Y-81.28
X188.722Y-99.568
X189.23Y-72.898
X189.23Y-75.438
X190.5Y-81.28
X190.754Y-90.17
X191.262Y-99.568
X191.516Y-72.898
X191.516Y-75.438
X193.548Y-99.568
X195.834Y-99.568
X197.612Y-54.864
X197.612Y-85.852
X197.612Y-90.17
X198.12Y-99.568
X198.882Y-84.328
X199.136Y-85.852
X199.136Y-88.646
X199.136Y-90.17
X200.152Y-99.568
X200.406Y-90.17
X200.66Y-85.852
X201.168Y-70.866
X201.168Y-73.406
X201.93Y-58.928
X202.184Y-66.294
X202.184Y-99.568
X202.692Y-70.866
X202.692Y-73.406
X204.978Y-92.71
X204.978Y-93.98
X204.978Y-95.504
X204.978Y-96.774
X204.978Y-99.568
X206.248Y-58.928
X207.772Y-86.868
X208.788Y-86.868
X209.804Y-86.868
X212.344Y-86.106
X212.344Y-88.9
X212.344Y-91.694
X212.344Y-94.742
T2
X156.718Y-68.58
X196.85Y-69.088
T3
X163.576Y-84.836
X164.592Y-89.662
X168.148Y-89.408
X169.989Y-89.408
X173.482Y-91.377
X177.113Y-71.409
X185.166Y-78.486
X185.166Y-82.804
X192.024Y-82.804
X192.024Y-86.614
X195.834Y-91.158
X204.978Y-90.932
T4
X143.764Y-78.994
X143.764Y-81.534
X143.764Y-84.074
X143.764Y-86.614
X143.764Y-89.154
X143.764Y-91.694
X146.304Y-78.994
X146.304Y-81.534
X146.304Y-84.074
X146.304Y-86.614
X146.304Y-89.154
X146.304Y-91.694
X153.416Y-94.742
X153.416Y-97.282
X155.956Y-94.742
X155.956Y-97.282
X158.496Y-94.742
X158.496Y-97.282
X161.036Y-94.742
X161.036Y-97.282
X163.576Y-94.742
X163.576Y-97.282
X166.116Y-94.742
X166.116Y-97.282
X168.656Y-94.742
X168.656Y-97.282
X171.196Y-94.742
X171.196Y-97.282
X173.736Y-94.742
X173.736Y-97.282
X176.276Y-94.742
X176.276Y-97.282
X178.816Y-94.742
X178.816Y-97.282
X181.356Y-94.742
X181.356Y-97.282
X183.896Y-94.742
X183.896Y-97.282
X186.436Y-94.742
X186.436Y-97.282
X188.976Y-94.742
X188.976Y-97.282
X191.516Y-94.742
X191.516Y-97.282
X194.056Y-94.742
X194.056Y-97.282
X196.596Y-94.742
X196.596Y-97.282
X199.136Y-94.742
X199.136Y-97.282
X201.676Y-94.742
X201.676Y-97.282
T5
X146.812Y-58.166
X146.812Y-67.31
X189.738Y-58.166
X189.738Y-67.31
X198.882Y-79.756
X208.534Y-79.756
T6
X144.272Y-55.626
X144.272Y-60.706
X144.272Y-64.77
X144.272Y-69.85
X149.352Y-55.626
X149.352Y-60.706
X149.352Y-64.77
X149.352Y-69.85
X187.198Y-55.626
X187.198Y-60.706
X187.198Y-64.77
X187.198Y-69.85
X192.278Y-55.626
X192.278Y-60.706
X192.278Y-64.77
X192.278Y-69.85
X196.342Y-77.216
X196.342Y-82.296
X201.422Y-77.216
X201.422Y-82.296
X205.994Y-77.216
X205.994Y-82.296
X211.074Y-77.216
X211.074Y-82.296
T4
X154.532Y-59.04G85X154.532Y-59.54
G05
X154.582Y-66.89G85X155.082Y-66.89
G05
X159.282Y-55.79G85X158.782Y-55.79
G05
X161.532Y-62.14G85X161.532Y-62.64
G05
X164.032Y-63.84G85X164.032Y-64.34
G05
X172.566Y-59.04G85X172.566Y-59.54
G05
X172.616Y-66.89G85X173.116Y-66.89
G05
X177.316Y-55.79G85X176.816Y-55.79
G05
X179.566Y-62.14G85X179.566Y-62.64
G05
X182.066Y-63.84G85X182.066Y-64.34
G05
X197.458Y-59.04G85X197.458Y-59.54
G05
X197.508Y-66.89G85X198.008Y-66.89
G05
X202.208Y-55.79G85X201.708Y-55.79
G05
X204.458Y-62.14G85X204.458Y-62.64
G05
X206.958Y-63.84G85X206.958Y-64.34
G05
T0
M30
