G04 #@! TF.GenerationSoftware,KiCad,Pcbnew,(5.1.9)-1*
G04 #@! TF.CreationDate,2021-12-15T22:24:27+01:00*
G04 #@! TF.ProjectId,AudioCodecModule_ADAU1761,41756469-6f43-46f6-9465-634d6f64756c,rev?*
G04 #@! TF.SameCoordinates,Original*
G04 #@! TF.FileFunction,Paste,Top*
G04 #@! TF.FilePolarity,Positive*
%FSLAX46Y46*%
G04 Gerber Fmt 4.6, Leading zero omitted, Abs format (unit mm)*
G04 Created by KiCad (PCBNEW (5.1.9)-1) date 2021-12-15 22:24:27*
%MOMM*%
%LPD*%
G01*
G04 APERTURE LIST*
%ADD10R,2.000000X1.500000*%
%ADD11R,2.000000X3.800000*%
%ADD12R,0.900000X0.800000*%
%ADD13R,1.100000X1.300000*%
%ADD14R,0.800000X0.900000*%
%ADD15R,0.260000X0.800000*%
%ADD16R,0.800000X0.260000*%
G04 APERTURE END LIST*
G36*
G01*
X166767500Y-61564000D02*
X167242500Y-61564000D01*
G75*
G02*
X167480000Y-61801500I0J-237500D01*
G01*
X167480000Y-62376500D01*
G75*
G02*
X167242500Y-62614000I-237500J0D01*
G01*
X166767500Y-62614000D01*
G75*
G02*
X166530000Y-62376500I0J237500D01*
G01*
X166530000Y-61801500D01*
G75*
G02*
X166767500Y-61564000I237500J0D01*
G01*
G37*
G36*
G01*
X166767500Y-59814000D02*
X167242500Y-59814000D01*
G75*
G02*
X167480000Y-60051500I0J-237500D01*
G01*
X167480000Y-60626500D01*
G75*
G02*
X167242500Y-60864000I-237500J0D01*
G01*
X166767500Y-60864000D01*
G75*
G02*
X166530000Y-60626500I0J237500D01*
G01*
X166530000Y-60051500D01*
G75*
G02*
X166767500Y-59814000I237500J0D01*
G01*
G37*
G36*
G01*
X169401500Y-56546000D02*
X168926500Y-56546000D01*
G75*
G02*
X168689000Y-56308500I0J237500D01*
G01*
X168689000Y-55733500D01*
G75*
G02*
X168926500Y-55496000I237500J0D01*
G01*
X169401500Y-55496000D01*
G75*
G02*
X169639000Y-55733500I0J-237500D01*
G01*
X169639000Y-56308500D01*
G75*
G02*
X169401500Y-56546000I-237500J0D01*
G01*
G37*
G36*
G01*
X169401500Y-58296000D02*
X168926500Y-58296000D01*
G75*
G02*
X168689000Y-58058500I0J237500D01*
G01*
X168689000Y-57483500D01*
G75*
G02*
X168926500Y-57246000I237500J0D01*
G01*
X169401500Y-57246000D01*
G75*
G02*
X169639000Y-57483500I0J-237500D01*
G01*
X169639000Y-58058500D01*
G75*
G02*
X169401500Y-58296000I-237500J0D01*
G01*
G37*
G36*
G01*
X168412000Y-61989000D02*
X169662000Y-61989000D01*
G75*
G02*
X169912000Y-62239000I0J-250000D01*
G01*
X169912000Y-63164000D01*
G75*
G02*
X169662000Y-63414000I-250000J0D01*
G01*
X168412000Y-63414000D01*
G75*
G02*
X168162000Y-63164000I0J250000D01*
G01*
X168162000Y-62239000D01*
G75*
G02*
X168412000Y-61989000I250000J0D01*
G01*
G37*
G36*
G01*
X168412000Y-59014000D02*
X169662000Y-59014000D01*
G75*
G02*
X169912000Y-59264000I0J-250000D01*
G01*
X169912000Y-60189000D01*
G75*
G02*
X169662000Y-60439000I-250000J0D01*
G01*
X168412000Y-60439000D01*
G75*
G02*
X168162000Y-60189000I0J250000D01*
G01*
X168162000Y-59264000D01*
G75*
G02*
X168412000Y-59014000I250000J0D01*
G01*
G37*
D10*
X202286000Y-90692000D03*
X202286000Y-86092000D03*
X202286000Y-88392000D03*
D11*
X195986000Y-88392000D03*
G36*
G01*
X155860000Y-76978500D02*
X155860000Y-77453500D01*
G75*
G02*
X155622500Y-77691000I-237500J0D01*
G01*
X155047500Y-77691000D01*
G75*
G02*
X154810000Y-77453500I0J237500D01*
G01*
X154810000Y-76978500D01*
G75*
G02*
X155047500Y-76741000I237500J0D01*
G01*
X155622500Y-76741000D01*
G75*
G02*
X155860000Y-76978500I0J-237500D01*
G01*
G37*
G36*
G01*
X157610000Y-76978500D02*
X157610000Y-77453500D01*
G75*
G02*
X157372500Y-77691000I-237500J0D01*
G01*
X156797500Y-77691000D01*
G75*
G02*
X156560000Y-77453500I0J237500D01*
G01*
X156560000Y-76978500D01*
G75*
G02*
X156797500Y-76741000I237500J0D01*
G01*
X157372500Y-76741000D01*
G75*
G02*
X157610000Y-76978500I0J-237500D01*
G01*
G37*
G36*
G01*
X188118000Y-89932500D02*
X188118000Y-90407500D01*
G75*
G02*
X187880500Y-90645000I-237500J0D01*
G01*
X187305500Y-90645000D01*
G75*
G02*
X187068000Y-90407500I0J237500D01*
G01*
X187068000Y-89932500D01*
G75*
G02*
X187305500Y-89695000I237500J0D01*
G01*
X187880500Y-89695000D01*
G75*
G02*
X188118000Y-89932500I0J-237500D01*
G01*
G37*
G36*
G01*
X189868000Y-89932500D02*
X189868000Y-90407500D01*
G75*
G02*
X189630500Y-90645000I-237500J0D01*
G01*
X189055500Y-90645000D01*
G75*
G02*
X188818000Y-90407500I0J237500D01*
G01*
X188818000Y-89932500D01*
G75*
G02*
X189055500Y-89695000I237500J0D01*
G01*
X189630500Y-89695000D01*
G75*
G02*
X189868000Y-89932500I0J-237500D01*
G01*
G37*
G36*
G01*
X160290500Y-76804000D02*
X160765500Y-76804000D01*
G75*
G02*
X161003000Y-77041500I0J-237500D01*
G01*
X161003000Y-77616500D01*
G75*
G02*
X160765500Y-77854000I-237500J0D01*
G01*
X160290500Y-77854000D01*
G75*
G02*
X160053000Y-77616500I0J237500D01*
G01*
X160053000Y-77041500D01*
G75*
G02*
X160290500Y-76804000I237500J0D01*
G01*
G37*
G36*
G01*
X160290500Y-75054000D02*
X160765500Y-75054000D01*
G75*
G02*
X161003000Y-75291500I0J-237500D01*
G01*
X161003000Y-75866500D01*
G75*
G02*
X160765500Y-76104000I-237500J0D01*
G01*
X160290500Y-76104000D01*
G75*
G02*
X160053000Y-75866500I0J237500D01*
G01*
X160053000Y-75291500D01*
G75*
G02*
X160290500Y-75054000I237500J0D01*
G01*
G37*
G36*
G01*
X146795000Y-76437500D02*
X146795000Y-75962500D01*
G75*
G02*
X147032500Y-75725000I237500J0D01*
G01*
X147607500Y-75725000D01*
G75*
G02*
X147845000Y-75962500I0J-237500D01*
G01*
X147845000Y-76437500D01*
G75*
G02*
X147607500Y-76675000I-237500J0D01*
G01*
X147032500Y-76675000D01*
G75*
G02*
X146795000Y-76437500I0J237500D01*
G01*
G37*
G36*
G01*
X145045000Y-76437500D02*
X145045000Y-75962500D01*
G75*
G02*
X145282500Y-75725000I237500J0D01*
G01*
X145857500Y-75725000D01*
G75*
G02*
X146095000Y-75962500I0J-237500D01*
G01*
X146095000Y-76437500D01*
G75*
G02*
X145857500Y-76675000I-237500J0D01*
G01*
X145282500Y-76675000D01*
G75*
G02*
X145045000Y-76437500I0J237500D01*
G01*
G37*
G36*
G01*
X148860500Y-76042000D02*
X149335500Y-76042000D01*
G75*
G02*
X149573000Y-76279500I0J-237500D01*
G01*
X149573000Y-76854500D01*
G75*
G02*
X149335500Y-77092000I-237500J0D01*
G01*
X148860500Y-77092000D01*
G75*
G02*
X148623000Y-76854500I0J237500D01*
G01*
X148623000Y-76279500D01*
G75*
G02*
X148860500Y-76042000I237500J0D01*
G01*
G37*
G36*
G01*
X148860500Y-74292000D02*
X149335500Y-74292000D01*
G75*
G02*
X149573000Y-74529500I0J-237500D01*
G01*
X149573000Y-75104500D01*
G75*
G02*
X149335500Y-75342000I-237500J0D01*
G01*
X148860500Y-75342000D01*
G75*
G02*
X148623000Y-75104500I0J237500D01*
G01*
X148623000Y-74529500D01*
G75*
G02*
X148860500Y-74292000I237500J0D01*
G01*
G37*
G36*
G01*
X208804500Y-92044000D02*
X209279500Y-92044000D01*
G75*
G02*
X209517000Y-92281500I0J-237500D01*
G01*
X209517000Y-92856500D01*
G75*
G02*
X209279500Y-93094000I-237500J0D01*
G01*
X208804500Y-93094000D01*
G75*
G02*
X208567000Y-92856500I0J237500D01*
G01*
X208567000Y-92281500D01*
G75*
G02*
X208804500Y-92044000I237500J0D01*
G01*
G37*
G36*
G01*
X208804500Y-90294000D02*
X209279500Y-90294000D01*
G75*
G02*
X209517000Y-90531500I0J-237500D01*
G01*
X209517000Y-91106500D01*
G75*
G02*
X209279500Y-91344000I-237500J0D01*
G01*
X208804500Y-91344000D01*
G75*
G02*
X208567000Y-91106500I0J237500D01*
G01*
X208567000Y-90531500D01*
G75*
G02*
X208804500Y-90294000I237500J0D01*
G01*
G37*
G36*
G01*
X206518500Y-92044000D02*
X206993500Y-92044000D01*
G75*
G02*
X207231000Y-92281500I0J-237500D01*
G01*
X207231000Y-92856500D01*
G75*
G02*
X206993500Y-93094000I-237500J0D01*
G01*
X206518500Y-93094000D01*
G75*
G02*
X206281000Y-92856500I0J237500D01*
G01*
X206281000Y-92281500D01*
G75*
G02*
X206518500Y-92044000I237500J0D01*
G01*
G37*
G36*
G01*
X206518500Y-90294000D02*
X206993500Y-90294000D01*
G75*
G02*
X207231000Y-90531500I0J-237500D01*
G01*
X207231000Y-91106500D01*
G75*
G02*
X206993500Y-91344000I-237500J0D01*
G01*
X206518500Y-91344000D01*
G75*
G02*
X206281000Y-91106500I0J237500D01*
G01*
X206281000Y-90531500D01*
G75*
G02*
X206518500Y-90294000I237500J0D01*
G01*
G37*
D12*
X156988000Y-74422000D03*
X158988000Y-73472000D03*
X158988000Y-75372000D03*
X145558000Y-73660000D03*
X147558000Y-72710000D03*
X147558000Y-74610000D03*
G36*
G01*
X152965999Y-76650000D02*
X153866001Y-76650000D01*
G75*
G02*
X154116000Y-76899999I0J-249999D01*
G01*
X154116000Y-77550001D01*
G75*
G02*
X153866001Y-77800000I-249999J0D01*
G01*
X152965999Y-77800000D01*
G75*
G02*
X152716000Y-77550001I0J249999D01*
G01*
X152716000Y-76899999D01*
G75*
G02*
X152965999Y-76650000I249999J0D01*
G01*
G37*
G36*
G01*
X152965999Y-74600000D02*
X153866001Y-74600000D01*
G75*
G02*
X154116000Y-74849999I0J-249999D01*
G01*
X154116000Y-75500001D01*
G75*
G02*
X153866001Y-75750000I-249999J0D01*
G01*
X152965999Y-75750000D01*
G75*
G02*
X152716000Y-75500001I0J249999D01*
G01*
X152716000Y-74849999D01*
G75*
G02*
X152965999Y-74600000I249999J0D01*
G01*
G37*
G36*
G01*
X150679999Y-76650000D02*
X151580001Y-76650000D01*
G75*
G02*
X151830000Y-76899999I0J-249999D01*
G01*
X151830000Y-77550001D01*
G75*
G02*
X151580001Y-77800000I-249999J0D01*
G01*
X150679999Y-77800000D01*
G75*
G02*
X150430000Y-77550001I0J249999D01*
G01*
X150430000Y-76899999D01*
G75*
G02*
X150679999Y-76650000I249999J0D01*
G01*
G37*
G36*
G01*
X150679999Y-74600000D02*
X151580001Y-74600000D01*
G75*
G02*
X151830000Y-74849999I0J-249999D01*
G01*
X151830000Y-75500001D01*
G75*
G02*
X151580001Y-75750000I-249999J0D01*
G01*
X150679999Y-75750000D01*
G75*
G02*
X150430000Y-75500001I0J249999D01*
G01*
X150430000Y-74849999D01*
G75*
G02*
X150679999Y-74600000I249999J0D01*
G01*
G37*
G36*
G01*
X209492001Y-95054000D02*
X208591999Y-95054000D01*
G75*
G02*
X208342000Y-94804001I0J249999D01*
G01*
X208342000Y-94153999D01*
G75*
G02*
X208591999Y-93904000I249999J0D01*
G01*
X209492001Y-93904000D01*
G75*
G02*
X209742000Y-94153999I0J-249999D01*
G01*
X209742000Y-94804001D01*
G75*
G02*
X209492001Y-95054000I-249999J0D01*
G01*
G37*
G36*
G01*
X209492001Y-97104000D02*
X208591999Y-97104000D01*
G75*
G02*
X208342000Y-96854001I0J249999D01*
G01*
X208342000Y-96203999D01*
G75*
G02*
X208591999Y-95954000I249999J0D01*
G01*
X209492001Y-95954000D01*
G75*
G02*
X209742000Y-96203999I0J-249999D01*
G01*
X209742000Y-96854001D01*
G75*
G02*
X209492001Y-97104000I-249999J0D01*
G01*
G37*
G36*
G01*
X207206001Y-95054000D02*
X206305999Y-95054000D01*
G75*
G02*
X206056000Y-94804001I0J249999D01*
G01*
X206056000Y-94153999D01*
G75*
G02*
X206305999Y-93904000I249999J0D01*
G01*
X207206001Y-93904000D01*
G75*
G02*
X207456000Y-94153999I0J-249999D01*
G01*
X207456000Y-94804001D01*
G75*
G02*
X207206001Y-95054000I-249999J0D01*
G01*
G37*
G36*
G01*
X207206001Y-97104000D02*
X206305999Y-97104000D01*
G75*
G02*
X206056000Y-96854001I0J249999D01*
G01*
X206056000Y-96203999D01*
G75*
G02*
X206305999Y-95954000I249999J0D01*
G01*
X207206001Y-95954000D01*
G75*
G02*
X207456000Y-96203999I0J-249999D01*
G01*
X207456000Y-96854001D01*
G75*
G02*
X207206001Y-97104000I-249999J0D01*
G01*
G37*
G36*
G01*
X191786500Y-89504000D02*
X192261500Y-89504000D01*
G75*
G02*
X192499000Y-89741500I0J-237500D01*
G01*
X192499000Y-90316500D01*
G75*
G02*
X192261500Y-90554000I-237500J0D01*
G01*
X191786500Y-90554000D01*
G75*
G02*
X191549000Y-90316500I0J237500D01*
G01*
X191549000Y-89741500D01*
G75*
G02*
X191786500Y-89504000I237500J0D01*
G01*
G37*
G36*
G01*
X191786500Y-87754000D02*
X192261500Y-87754000D01*
G75*
G02*
X192499000Y-87991500I0J-237500D01*
G01*
X192499000Y-88566500D01*
G75*
G02*
X192261500Y-88804000I-237500J0D01*
G01*
X191786500Y-88804000D01*
G75*
G02*
X191549000Y-88566500I0J237500D01*
G01*
X191549000Y-87991500D01*
G75*
G02*
X191786500Y-87754000I237500J0D01*
G01*
G37*
G36*
G01*
X193564500Y-89504000D02*
X194039500Y-89504000D01*
G75*
G02*
X194277000Y-89741500I0J-237500D01*
G01*
X194277000Y-90316500D01*
G75*
G02*
X194039500Y-90554000I-237500J0D01*
G01*
X193564500Y-90554000D01*
G75*
G02*
X193327000Y-90316500I0J237500D01*
G01*
X193327000Y-89741500D01*
G75*
G02*
X193564500Y-89504000I237500J0D01*
G01*
G37*
G36*
G01*
X193564500Y-87754000D02*
X194039500Y-87754000D01*
G75*
G02*
X194277000Y-87991500I0J-237500D01*
G01*
X194277000Y-88566500D01*
G75*
G02*
X194039500Y-88804000I-237500J0D01*
G01*
X193564500Y-88804000D01*
G75*
G02*
X193327000Y-88566500I0J237500D01*
G01*
X193327000Y-87991500D01*
G75*
G02*
X193564500Y-87754000I237500J0D01*
G01*
G37*
G36*
G01*
X206010500Y-87218000D02*
X206485500Y-87218000D01*
G75*
G02*
X206723000Y-87455500I0J-237500D01*
G01*
X206723000Y-88030500D01*
G75*
G02*
X206485500Y-88268000I-237500J0D01*
G01*
X206010500Y-88268000D01*
G75*
G02*
X205773000Y-88030500I0J237500D01*
G01*
X205773000Y-87455500D01*
G75*
G02*
X206010500Y-87218000I237500J0D01*
G01*
G37*
G36*
G01*
X206010500Y-85468000D02*
X206485500Y-85468000D01*
G75*
G02*
X206723000Y-85705500I0J-237500D01*
G01*
X206723000Y-86280500D01*
G75*
G02*
X206485500Y-86518000I-237500J0D01*
G01*
X206010500Y-86518000D01*
G75*
G02*
X205773000Y-86280500I0J237500D01*
G01*
X205773000Y-85705500D01*
G75*
G02*
X206010500Y-85468000I237500J0D01*
G01*
G37*
G36*
G01*
X204232500Y-87218000D02*
X204707500Y-87218000D01*
G75*
G02*
X204945000Y-87455500I0J-237500D01*
G01*
X204945000Y-88030500D01*
G75*
G02*
X204707500Y-88268000I-237500J0D01*
G01*
X204232500Y-88268000D01*
G75*
G02*
X203995000Y-88030500I0J237500D01*
G01*
X203995000Y-87455500D01*
G75*
G02*
X204232500Y-87218000I237500J0D01*
G01*
G37*
G36*
G01*
X204232500Y-85468000D02*
X204707500Y-85468000D01*
G75*
G02*
X204945000Y-85705500I0J-237500D01*
G01*
X204945000Y-86280500D01*
G75*
G02*
X204707500Y-86518000I-237500J0D01*
G01*
X204232500Y-86518000D01*
G75*
G02*
X203995000Y-86280500I0J237500D01*
G01*
X203995000Y-85705500D01*
G75*
G02*
X204232500Y-85468000I237500J0D01*
G01*
G37*
G36*
G01*
X166640500Y-88742000D02*
X167115500Y-88742000D01*
G75*
G02*
X167353000Y-88979500I0J-237500D01*
G01*
X167353000Y-89554500D01*
G75*
G02*
X167115500Y-89792000I-237500J0D01*
G01*
X166640500Y-89792000D01*
G75*
G02*
X166403000Y-89554500I0J237500D01*
G01*
X166403000Y-88979500D01*
G75*
G02*
X166640500Y-88742000I237500J0D01*
G01*
G37*
G36*
G01*
X166640500Y-86992000D02*
X167115500Y-86992000D01*
G75*
G02*
X167353000Y-87229500I0J-237500D01*
G01*
X167353000Y-87804500D01*
G75*
G02*
X167115500Y-88042000I-237500J0D01*
G01*
X166640500Y-88042000D01*
G75*
G02*
X166403000Y-87804500I0J237500D01*
G01*
X166403000Y-87229500D01*
G75*
G02*
X166640500Y-86992000I237500J0D01*
G01*
G37*
G36*
G01*
X164862500Y-87726000D02*
X165337500Y-87726000D01*
G75*
G02*
X165575000Y-87963500I0J-237500D01*
G01*
X165575000Y-88538500D01*
G75*
G02*
X165337500Y-88776000I-237500J0D01*
G01*
X164862500Y-88776000D01*
G75*
G02*
X164625000Y-88538500I0J237500D01*
G01*
X164625000Y-87963500D01*
G75*
G02*
X164862500Y-87726000I237500J0D01*
G01*
G37*
G36*
G01*
X164862500Y-85976000D02*
X165337500Y-85976000D01*
G75*
G02*
X165575000Y-86213500I0J-237500D01*
G01*
X165575000Y-86788500D01*
G75*
G02*
X165337500Y-87026000I-237500J0D01*
G01*
X164862500Y-87026000D01*
G75*
G02*
X164625000Y-86788500I0J237500D01*
G01*
X164625000Y-86213500D01*
G75*
G02*
X164862500Y-85976000I237500J0D01*
G01*
G37*
D13*
X176467000Y-90712000D03*
X176467000Y-88612000D03*
X178117000Y-88612000D03*
X178117000Y-90712000D03*
G36*
G01*
X179594500Y-90012000D02*
X180069500Y-90012000D01*
G75*
G02*
X180307000Y-90249500I0J-237500D01*
G01*
X180307000Y-90824500D01*
G75*
G02*
X180069500Y-91062000I-237500J0D01*
G01*
X179594500Y-91062000D01*
G75*
G02*
X179357000Y-90824500I0J237500D01*
G01*
X179357000Y-90249500D01*
G75*
G02*
X179594500Y-90012000I237500J0D01*
G01*
G37*
G36*
G01*
X179594500Y-88262000D02*
X180069500Y-88262000D01*
G75*
G02*
X180307000Y-88499500I0J-237500D01*
G01*
X180307000Y-89074500D01*
G75*
G02*
X180069500Y-89312000I-237500J0D01*
G01*
X179594500Y-89312000D01*
G75*
G02*
X179357000Y-89074500I0J237500D01*
G01*
X179357000Y-88499500D01*
G75*
G02*
X179594500Y-88262000I237500J0D01*
G01*
G37*
G36*
G01*
X161814500Y-84678000D02*
X162289500Y-84678000D01*
G75*
G02*
X162527000Y-84915500I0J-237500D01*
G01*
X162527000Y-85490500D01*
G75*
G02*
X162289500Y-85728000I-237500J0D01*
G01*
X161814500Y-85728000D01*
G75*
G02*
X161577000Y-85490500I0J237500D01*
G01*
X161577000Y-84915500D01*
G75*
G02*
X161814500Y-84678000I237500J0D01*
G01*
G37*
G36*
G01*
X161814500Y-82928000D02*
X162289500Y-82928000D01*
G75*
G02*
X162527000Y-83165500I0J-237500D01*
G01*
X162527000Y-83740500D01*
G75*
G02*
X162289500Y-83978000I-237500J0D01*
G01*
X161814500Y-83978000D01*
G75*
G02*
X161577000Y-83740500I0J237500D01*
G01*
X161577000Y-83165500D01*
G75*
G02*
X161814500Y-82928000I237500J0D01*
G01*
G37*
G36*
G01*
X171800000Y-76945500D02*
X171800000Y-76470500D01*
G75*
G02*
X172037500Y-76233000I237500J0D01*
G01*
X172612500Y-76233000D01*
G75*
G02*
X172850000Y-76470500I0J-237500D01*
G01*
X172850000Y-76945500D01*
G75*
G02*
X172612500Y-77183000I-237500J0D01*
G01*
X172037500Y-77183000D01*
G75*
G02*
X171800000Y-76945500I0J237500D01*
G01*
G37*
G36*
G01*
X170050000Y-76945500D02*
X170050000Y-76470500D01*
G75*
G02*
X170287500Y-76233000I237500J0D01*
G01*
X170862500Y-76233000D01*
G75*
G02*
X171100000Y-76470500I0J-237500D01*
G01*
X171100000Y-76945500D01*
G75*
G02*
X170862500Y-77183000I-237500J0D01*
G01*
X170287500Y-77183000D01*
G75*
G02*
X170050000Y-76945500I0J237500D01*
G01*
G37*
G36*
G01*
X172562000Y-85073500D02*
X172562000Y-84598500D01*
G75*
G02*
X172799500Y-84361000I237500J0D01*
G01*
X173374500Y-84361000D01*
G75*
G02*
X173612000Y-84598500I0J-237500D01*
G01*
X173612000Y-85073500D01*
G75*
G02*
X173374500Y-85311000I-237500J0D01*
G01*
X172799500Y-85311000D01*
G75*
G02*
X172562000Y-85073500I0J237500D01*
G01*
G37*
G36*
G01*
X170812000Y-85073500D02*
X170812000Y-84598500D01*
G75*
G02*
X171049500Y-84361000I237500J0D01*
G01*
X171624500Y-84361000D01*
G75*
G02*
X171862000Y-84598500I0J-237500D01*
G01*
X171862000Y-85073500D01*
G75*
G02*
X171624500Y-85311000I-237500J0D01*
G01*
X171049500Y-85311000D01*
G75*
G02*
X170812000Y-85073500I0J237500D01*
G01*
G37*
G36*
G01*
X166357000Y-76083000D02*
X166357000Y-77333000D01*
G75*
G02*
X166107000Y-77583000I-250000J0D01*
G01*
X165182000Y-77583000D01*
G75*
G02*
X164932000Y-77333000I0J250000D01*
G01*
X164932000Y-76083000D01*
G75*
G02*
X165182000Y-75833000I250000J0D01*
G01*
X166107000Y-75833000D01*
G75*
G02*
X166357000Y-76083000I0J-250000D01*
G01*
G37*
G36*
G01*
X169332000Y-76083000D02*
X169332000Y-77333000D01*
G75*
G02*
X169082000Y-77583000I-250000J0D01*
G01*
X168157000Y-77583000D01*
G75*
G02*
X167907000Y-77333000I0J250000D01*
G01*
X167907000Y-76083000D01*
G75*
G02*
X168157000Y-75833000I250000J0D01*
G01*
X169082000Y-75833000D01*
G75*
G02*
X169332000Y-76083000I0J-250000D01*
G01*
G37*
G36*
G01*
X186957000Y-88763000D02*
X186957000Y-87513000D01*
G75*
G02*
X187207000Y-87263000I250000J0D01*
G01*
X188132000Y-87263000D01*
G75*
G02*
X188382000Y-87513000I0J-250000D01*
G01*
X188382000Y-88763000D01*
G75*
G02*
X188132000Y-89013000I-250000J0D01*
G01*
X187207000Y-89013000D01*
G75*
G02*
X186957000Y-88763000I0J250000D01*
G01*
G37*
G36*
G01*
X183982000Y-88763000D02*
X183982000Y-87513000D01*
G75*
G02*
X184232000Y-87263000I250000J0D01*
G01*
X185157000Y-87263000D01*
G75*
G02*
X185407000Y-87513000I0J-250000D01*
G01*
X185407000Y-88763000D01*
G75*
G02*
X185157000Y-89013000I-250000J0D01*
G01*
X184232000Y-89013000D01*
G75*
G02*
X183982000Y-88763000I0J250000D01*
G01*
G37*
G36*
G01*
X182022000Y-69866500D02*
X182022000Y-70341500D01*
G75*
G02*
X181784500Y-70579000I-237500J0D01*
G01*
X181209500Y-70579000D01*
G75*
G02*
X180972000Y-70341500I0J237500D01*
G01*
X180972000Y-69866500D01*
G75*
G02*
X181209500Y-69629000I237500J0D01*
G01*
X181784500Y-69629000D01*
G75*
G02*
X182022000Y-69866500I0J-237500D01*
G01*
G37*
G36*
G01*
X183772000Y-69866500D02*
X183772000Y-70341500D01*
G75*
G02*
X183534500Y-70579000I-237500J0D01*
G01*
X182959500Y-70579000D01*
G75*
G02*
X182722000Y-70341500I0J237500D01*
G01*
X182722000Y-69866500D01*
G75*
G02*
X182959500Y-69629000I237500J0D01*
G01*
X183534500Y-69629000D01*
G75*
G02*
X183772000Y-69866500I0J-237500D01*
G01*
G37*
G36*
G01*
X179166000Y-70341500D02*
X179166000Y-69866500D01*
G75*
G02*
X179403500Y-69629000I237500J0D01*
G01*
X179978500Y-69629000D01*
G75*
G02*
X180216000Y-69866500I0J-237500D01*
G01*
X180216000Y-70341500D01*
G75*
G02*
X179978500Y-70579000I-237500J0D01*
G01*
X179403500Y-70579000D01*
G75*
G02*
X179166000Y-70341500I0J237500D01*
G01*
G37*
G36*
G01*
X177416000Y-70341500D02*
X177416000Y-69866500D01*
G75*
G02*
X177653500Y-69629000I237500J0D01*
G01*
X178228500Y-69629000D01*
G75*
G02*
X178466000Y-69866500I0J-237500D01*
G01*
X178466000Y-70341500D01*
G75*
G02*
X178228500Y-70579000I-237500J0D01*
G01*
X177653500Y-70579000D01*
G75*
G02*
X177416000Y-70341500I0J237500D01*
G01*
G37*
G36*
G01*
X183525000Y-75197000D02*
X184775000Y-75197000D01*
G75*
G02*
X185025000Y-75447000I0J-250000D01*
G01*
X185025000Y-76372000D01*
G75*
G02*
X184775000Y-76622000I-250000J0D01*
G01*
X183525000Y-76622000D01*
G75*
G02*
X183275000Y-76372000I0J250000D01*
G01*
X183275000Y-75447000D01*
G75*
G02*
X183525000Y-75197000I250000J0D01*
G01*
G37*
G36*
G01*
X183525000Y-72222000D02*
X184775000Y-72222000D01*
G75*
G02*
X185025000Y-72472000I0J-250000D01*
G01*
X185025000Y-73397000D01*
G75*
G02*
X184775000Y-73647000I-250000J0D01*
G01*
X183525000Y-73647000D01*
G75*
G02*
X183275000Y-73397000I0J250000D01*
G01*
X183275000Y-72472000D01*
G75*
G02*
X183525000Y-72222000I250000J0D01*
G01*
G37*
G36*
G01*
X178974000Y-83836500D02*
X178974000Y-84311500D01*
G75*
G02*
X178736500Y-84549000I-237500J0D01*
G01*
X178161500Y-84549000D01*
G75*
G02*
X177924000Y-84311500I0J237500D01*
G01*
X177924000Y-83836500D01*
G75*
G02*
X178161500Y-83599000I237500J0D01*
G01*
X178736500Y-83599000D01*
G75*
G02*
X178974000Y-83836500I0J-237500D01*
G01*
G37*
G36*
G01*
X180724000Y-83836500D02*
X180724000Y-84311500D01*
G75*
G02*
X180486500Y-84549000I-237500J0D01*
G01*
X179911500Y-84549000D01*
G75*
G02*
X179674000Y-84311500I0J237500D01*
G01*
X179674000Y-83836500D01*
G75*
G02*
X179911500Y-83599000I237500J0D01*
G01*
X180486500Y-83599000D01*
G75*
G02*
X180724000Y-83836500I0J-237500D01*
G01*
G37*
G36*
G01*
X171828000Y-75421500D02*
X171828000Y-74946500D01*
G75*
G02*
X172065500Y-74709000I237500J0D01*
G01*
X172640500Y-74709000D01*
G75*
G02*
X172878000Y-74946500I0J-237500D01*
G01*
X172878000Y-75421500D01*
G75*
G02*
X172640500Y-75659000I-237500J0D01*
G01*
X172065500Y-75659000D01*
G75*
G02*
X171828000Y-75421500I0J237500D01*
G01*
G37*
G36*
G01*
X173578000Y-75421500D02*
X173578000Y-74946500D01*
G75*
G02*
X173815500Y-74709000I237500J0D01*
G01*
X174390500Y-74709000D01*
G75*
G02*
X174628000Y-74946500I0J-237500D01*
G01*
X174628000Y-75421500D01*
G75*
G02*
X174390500Y-75659000I-237500J0D01*
G01*
X173815500Y-75659000D01*
G75*
G02*
X173578000Y-75421500I0J237500D01*
G01*
G37*
G36*
G01*
X190005000Y-79111000D02*
X190005000Y-77861000D01*
G75*
G02*
X190255000Y-77611000I250000J0D01*
G01*
X191180000Y-77611000D01*
G75*
G02*
X191430000Y-77861000I0J-250000D01*
G01*
X191430000Y-79111000D01*
G75*
G02*
X191180000Y-79361000I-250000J0D01*
G01*
X190255000Y-79361000D01*
G75*
G02*
X190005000Y-79111000I0J250000D01*
G01*
G37*
G36*
G01*
X187030000Y-79111000D02*
X187030000Y-77861000D01*
G75*
G02*
X187280000Y-77611000I250000J0D01*
G01*
X188205000Y-77611000D01*
G75*
G02*
X188455000Y-77861000I0J-250000D01*
G01*
X188455000Y-79111000D01*
G75*
G02*
X188205000Y-79361000I-250000J0D01*
G01*
X187280000Y-79361000D01*
G75*
G02*
X187030000Y-79111000I0J250000D01*
G01*
G37*
G36*
G01*
X161173000Y-72149000D02*
X162423000Y-72149000D01*
G75*
G02*
X162673000Y-72399000I0J-250000D01*
G01*
X162673000Y-73324000D01*
G75*
G02*
X162423000Y-73574000I-250000J0D01*
G01*
X161173000Y-73574000D01*
G75*
G02*
X160923000Y-73324000I0J250000D01*
G01*
X160923000Y-72399000D01*
G75*
G02*
X161173000Y-72149000I250000J0D01*
G01*
G37*
G36*
G01*
X161173000Y-69174000D02*
X162423000Y-69174000D01*
G75*
G02*
X162673000Y-69424000I0J-250000D01*
G01*
X162673000Y-70349000D01*
G75*
G02*
X162423000Y-70599000I-250000J0D01*
G01*
X161173000Y-70599000D01*
G75*
G02*
X160923000Y-70349000I0J250000D01*
G01*
X160923000Y-69424000D01*
G75*
G02*
X161173000Y-69174000I250000J0D01*
G01*
G37*
G36*
G01*
X198257000Y-72693500D02*
X199507000Y-72693500D01*
G75*
G02*
X199757000Y-72943500I0J-250000D01*
G01*
X199757000Y-73868500D01*
G75*
G02*
X199507000Y-74118500I-250000J0D01*
G01*
X198257000Y-74118500D01*
G75*
G02*
X198007000Y-73868500I0J250000D01*
G01*
X198007000Y-72943500D01*
G75*
G02*
X198257000Y-72693500I250000J0D01*
G01*
G37*
G36*
G01*
X198257000Y-69718500D02*
X199507000Y-69718500D01*
G75*
G02*
X199757000Y-69968500I0J-250000D01*
G01*
X199757000Y-70893500D01*
G75*
G02*
X199507000Y-71143500I-250000J0D01*
G01*
X198257000Y-71143500D01*
G75*
G02*
X198007000Y-70893500I0J250000D01*
G01*
X198007000Y-69968500D01*
G75*
G02*
X198257000Y-69718500I250000J0D01*
G01*
G37*
G36*
G01*
X195309500Y-71278000D02*
X194834500Y-71278000D01*
G75*
G02*
X194597000Y-71040500I0J237500D01*
G01*
X194597000Y-70465500D01*
G75*
G02*
X194834500Y-70228000I237500J0D01*
G01*
X195309500Y-70228000D01*
G75*
G02*
X195547000Y-70465500I0J-237500D01*
G01*
X195547000Y-71040500D01*
G75*
G02*
X195309500Y-71278000I-237500J0D01*
G01*
G37*
G36*
G01*
X195309500Y-73028000D02*
X194834500Y-73028000D01*
G75*
G02*
X194597000Y-72790500I0J237500D01*
G01*
X194597000Y-72215500D01*
G75*
G02*
X194834500Y-71978000I237500J0D01*
G01*
X195309500Y-71978000D01*
G75*
G02*
X195547000Y-72215500I0J-237500D01*
G01*
X195547000Y-72790500D01*
G75*
G02*
X195309500Y-73028000I-237500J0D01*
G01*
G37*
G36*
G01*
X154061000Y-72185500D02*
X155311000Y-72185500D01*
G75*
G02*
X155561000Y-72435500I0J-250000D01*
G01*
X155561000Y-73360500D01*
G75*
G02*
X155311000Y-73610500I-250000J0D01*
G01*
X154061000Y-73610500D01*
G75*
G02*
X153811000Y-73360500I0J250000D01*
G01*
X153811000Y-72435500D01*
G75*
G02*
X154061000Y-72185500I250000J0D01*
G01*
G37*
G36*
G01*
X154061000Y-69210500D02*
X155311000Y-69210500D01*
G75*
G02*
X155561000Y-69460500I0J-250000D01*
G01*
X155561000Y-70385500D01*
G75*
G02*
X155311000Y-70635500I-250000J0D01*
G01*
X154061000Y-70635500D01*
G75*
G02*
X153811000Y-70385500I0J250000D01*
G01*
X153811000Y-69460500D01*
G75*
G02*
X154061000Y-69210500I250000J0D01*
G01*
G37*
G36*
G01*
X169809000Y-72403000D02*
X171059000Y-72403000D01*
G75*
G02*
X171309000Y-72653000I0J-250000D01*
G01*
X171309000Y-73578000D01*
G75*
G02*
X171059000Y-73828000I-250000J0D01*
G01*
X169809000Y-73828000D01*
G75*
G02*
X169559000Y-73578000I0J250000D01*
G01*
X169559000Y-72653000D01*
G75*
G02*
X169809000Y-72403000I250000J0D01*
G01*
G37*
G36*
G01*
X169809000Y-69428000D02*
X171059000Y-69428000D01*
G75*
G02*
X171309000Y-69678000I0J-250000D01*
G01*
X171309000Y-70603000D01*
G75*
G02*
X171059000Y-70853000I-250000J0D01*
G01*
X169809000Y-70853000D01*
G75*
G02*
X169559000Y-70603000I0J250000D01*
G01*
X169559000Y-69678000D01*
G75*
G02*
X169809000Y-69428000I250000J0D01*
G01*
G37*
G36*
G01*
X207909000Y-72693500D02*
X209159000Y-72693500D01*
G75*
G02*
X209409000Y-72943500I0J-250000D01*
G01*
X209409000Y-73868500D01*
G75*
G02*
X209159000Y-74118500I-250000J0D01*
G01*
X207909000Y-74118500D01*
G75*
G02*
X207659000Y-73868500I0J250000D01*
G01*
X207659000Y-72943500D01*
G75*
G02*
X207909000Y-72693500I250000J0D01*
G01*
G37*
G36*
G01*
X207909000Y-69718500D02*
X209159000Y-69718500D01*
G75*
G02*
X209409000Y-69968500I0J-250000D01*
G01*
X209409000Y-70893500D01*
G75*
G02*
X209159000Y-71143500I-250000J0D01*
G01*
X207909000Y-71143500D01*
G75*
G02*
X207659000Y-70893500I0J250000D01*
G01*
X207659000Y-69968500D01*
G75*
G02*
X207909000Y-69718500I250000J0D01*
G01*
G37*
G36*
G01*
X204961500Y-71278000D02*
X204486500Y-71278000D01*
G75*
G02*
X204249000Y-71040500I0J237500D01*
G01*
X204249000Y-70465500D01*
G75*
G02*
X204486500Y-70228000I237500J0D01*
G01*
X204961500Y-70228000D01*
G75*
G02*
X205199000Y-70465500I0J-237500D01*
G01*
X205199000Y-71040500D01*
G75*
G02*
X204961500Y-71278000I-237500J0D01*
G01*
G37*
G36*
G01*
X204961500Y-73028000D02*
X204486500Y-73028000D01*
G75*
G02*
X204249000Y-72790500I0J237500D01*
G01*
X204249000Y-72215500D01*
G75*
G02*
X204486500Y-71978000I237500J0D01*
G01*
X204961500Y-71978000D01*
G75*
G02*
X205199000Y-72215500I0J-237500D01*
G01*
X205199000Y-72790500D01*
G75*
G02*
X204961500Y-73028000I-237500J0D01*
G01*
G37*
G36*
G01*
X184166500Y-91536000D02*
X184641500Y-91536000D01*
G75*
G02*
X184879000Y-91773500I0J-237500D01*
G01*
X184879000Y-92348500D01*
G75*
G02*
X184641500Y-92586000I-237500J0D01*
G01*
X184166500Y-92586000D01*
G75*
G02*
X183929000Y-92348500I0J237500D01*
G01*
X183929000Y-91773500D01*
G75*
G02*
X184166500Y-91536000I237500J0D01*
G01*
G37*
G36*
G01*
X184166500Y-89786000D02*
X184641500Y-89786000D01*
G75*
G02*
X184879000Y-90023500I0J-237500D01*
G01*
X184879000Y-90598500D01*
G75*
G02*
X184641500Y-90836000I-237500J0D01*
G01*
X184166500Y-90836000D01*
G75*
G02*
X183929000Y-90598500I0J237500D01*
G01*
X183929000Y-90023500D01*
G75*
G02*
X184166500Y-89786000I237500J0D01*
G01*
G37*
G36*
G01*
X176139000Y-70853000D02*
X174889000Y-70853000D01*
G75*
G02*
X174639000Y-70603000I0J250000D01*
G01*
X174639000Y-69678000D01*
G75*
G02*
X174889000Y-69428000I250000J0D01*
G01*
X176139000Y-69428000D01*
G75*
G02*
X176389000Y-69678000I0J-250000D01*
G01*
X176389000Y-70603000D01*
G75*
G02*
X176139000Y-70853000I-250000J0D01*
G01*
G37*
G36*
G01*
X176139000Y-73828000D02*
X174889000Y-73828000D01*
G75*
G02*
X174639000Y-73578000I0J250000D01*
G01*
X174639000Y-72653000D01*
G75*
G02*
X174889000Y-72403000I250000J0D01*
G01*
X176139000Y-72403000D01*
G75*
G02*
X176389000Y-72653000I0J-250000D01*
G01*
X176389000Y-73578000D01*
G75*
G02*
X176139000Y-73828000I-250000J0D01*
G01*
G37*
D14*
X179070000Y-72152000D03*
X180020000Y-74152000D03*
X178120000Y-74152000D03*
G36*
G01*
X165766000Y-84598500D02*
X165766000Y-85073500D01*
G75*
G02*
X165528500Y-85311000I-237500J0D01*
G01*
X164953500Y-85311000D01*
G75*
G02*
X164716000Y-85073500I0J237500D01*
G01*
X164716000Y-84598500D01*
G75*
G02*
X164953500Y-84361000I237500J0D01*
G01*
X165528500Y-84361000D01*
G75*
G02*
X165766000Y-84598500I0J-237500D01*
G01*
G37*
G36*
G01*
X167516000Y-84598500D02*
X167516000Y-85073500D01*
G75*
G02*
X167278500Y-85311000I-237500J0D01*
G01*
X166703500Y-85311000D01*
G75*
G02*
X166466000Y-85073500I0J237500D01*
G01*
X166466000Y-84598500D01*
G75*
G02*
X166703500Y-84361000I237500J0D01*
G01*
X167278500Y-84361000D01*
G75*
G02*
X167516000Y-84598500I0J-237500D01*
G01*
G37*
G36*
G01*
X177642000Y-86851500D02*
X177642000Y-86376500D01*
G75*
G02*
X177879500Y-86139000I237500J0D01*
G01*
X178454500Y-86139000D01*
G75*
G02*
X178692000Y-86376500I0J-237500D01*
G01*
X178692000Y-86851500D01*
G75*
G02*
X178454500Y-87089000I-237500J0D01*
G01*
X177879500Y-87089000D01*
G75*
G02*
X177642000Y-86851500I0J237500D01*
G01*
G37*
G36*
G01*
X175892000Y-86851500D02*
X175892000Y-86376500D01*
G75*
G02*
X176129500Y-86139000I237500J0D01*
G01*
X176704500Y-86139000D01*
G75*
G02*
X176942000Y-86376500I0J-237500D01*
G01*
X176942000Y-86851500D01*
G75*
G02*
X176704500Y-87089000I-237500J0D01*
G01*
X176129500Y-87089000D01*
G75*
G02*
X175892000Y-86851500I0J237500D01*
G01*
G37*
G36*
G01*
X172482500Y-87980000D02*
X172957500Y-87980000D01*
G75*
G02*
X173195000Y-88217500I0J-237500D01*
G01*
X173195000Y-88792500D01*
G75*
G02*
X172957500Y-89030000I-237500J0D01*
G01*
X172482500Y-89030000D01*
G75*
G02*
X172245000Y-88792500I0J237500D01*
G01*
X172245000Y-88217500D01*
G75*
G02*
X172482500Y-87980000I237500J0D01*
G01*
G37*
G36*
G01*
X172482500Y-86230000D02*
X172957500Y-86230000D01*
G75*
G02*
X173195000Y-86467500I0J-237500D01*
G01*
X173195000Y-87042500D01*
G75*
G02*
X172957500Y-87280000I-237500J0D01*
G01*
X172482500Y-87280000D01*
G75*
G02*
X172245000Y-87042500I0J237500D01*
G01*
X172245000Y-86467500D01*
G75*
G02*
X172482500Y-86230000I237500J0D01*
G01*
G37*
G36*
G01*
X174006500Y-87980000D02*
X174481500Y-87980000D01*
G75*
G02*
X174719000Y-88217500I0J-237500D01*
G01*
X174719000Y-88792500D01*
G75*
G02*
X174481500Y-89030000I-237500J0D01*
G01*
X174006500Y-89030000D01*
G75*
G02*
X173769000Y-88792500I0J237500D01*
G01*
X173769000Y-88217500D01*
G75*
G02*
X174006500Y-87980000I237500J0D01*
G01*
G37*
G36*
G01*
X174006500Y-86230000D02*
X174481500Y-86230000D01*
G75*
G02*
X174719000Y-86467500I0J-237500D01*
G01*
X174719000Y-87042500D01*
G75*
G02*
X174481500Y-87280000I-237500J0D01*
G01*
X174006500Y-87280000D01*
G75*
G02*
X173769000Y-87042500I0J237500D01*
G01*
X173769000Y-86467500D01*
G75*
G02*
X174006500Y-86230000I237500J0D01*
G01*
G37*
G36*
G01*
X165766000Y-78502500D02*
X165766000Y-78977500D01*
G75*
G02*
X165528500Y-79215000I-237500J0D01*
G01*
X164953500Y-79215000D01*
G75*
G02*
X164716000Y-78977500I0J237500D01*
G01*
X164716000Y-78502500D01*
G75*
G02*
X164953500Y-78265000I237500J0D01*
G01*
X165528500Y-78265000D01*
G75*
G02*
X165766000Y-78502500I0J-237500D01*
G01*
G37*
G36*
G01*
X167516000Y-78502500D02*
X167516000Y-78977500D01*
G75*
G02*
X167278500Y-79215000I-237500J0D01*
G01*
X166703500Y-79215000D01*
G75*
G02*
X166466000Y-78977500I0J237500D01*
G01*
X166466000Y-78502500D01*
G75*
G02*
X166703500Y-78265000I237500J0D01*
G01*
X167278500Y-78265000D01*
G75*
G02*
X167516000Y-78502500I0J-237500D01*
G01*
G37*
G36*
G01*
X165766000Y-80026500D02*
X165766000Y-80501500D01*
G75*
G02*
X165528500Y-80739000I-237500J0D01*
G01*
X164953500Y-80739000D01*
G75*
G02*
X164716000Y-80501500I0J237500D01*
G01*
X164716000Y-80026500D01*
G75*
G02*
X164953500Y-79789000I237500J0D01*
G01*
X165528500Y-79789000D01*
G75*
G02*
X165766000Y-80026500I0J-237500D01*
G01*
G37*
G36*
G01*
X167516000Y-80026500D02*
X167516000Y-80501500D01*
G75*
G02*
X167278500Y-80739000I-237500J0D01*
G01*
X166703500Y-80739000D01*
G75*
G02*
X166466000Y-80501500I0J237500D01*
G01*
X166466000Y-80026500D01*
G75*
G02*
X166703500Y-79789000I237500J0D01*
G01*
X167278500Y-79789000D01*
G75*
G02*
X167516000Y-80026500I0J-237500D01*
G01*
G37*
G36*
G01*
X165766000Y-81550500D02*
X165766000Y-82025500D01*
G75*
G02*
X165528500Y-82263000I-237500J0D01*
G01*
X164953500Y-82263000D01*
G75*
G02*
X164716000Y-82025500I0J237500D01*
G01*
X164716000Y-81550500D01*
G75*
G02*
X164953500Y-81313000I237500J0D01*
G01*
X165528500Y-81313000D01*
G75*
G02*
X165766000Y-81550500I0J-237500D01*
G01*
G37*
G36*
G01*
X167516000Y-81550500D02*
X167516000Y-82025500D01*
G75*
G02*
X167278500Y-82263000I-237500J0D01*
G01*
X166703500Y-82263000D01*
G75*
G02*
X166466000Y-82025500I0J237500D01*
G01*
X166466000Y-81550500D01*
G75*
G02*
X166703500Y-81313000I237500J0D01*
G01*
X167278500Y-81313000D01*
G75*
G02*
X167516000Y-81550500I0J-237500D01*
G01*
G37*
G36*
G01*
X165766000Y-83074500D02*
X165766000Y-83549500D01*
G75*
G02*
X165528500Y-83787000I-237500J0D01*
G01*
X164953500Y-83787000D01*
G75*
G02*
X164716000Y-83549500I0J237500D01*
G01*
X164716000Y-83074500D01*
G75*
G02*
X164953500Y-82837000I237500J0D01*
G01*
X165528500Y-82837000D01*
G75*
G02*
X165766000Y-83074500I0J-237500D01*
G01*
G37*
G36*
G01*
X167516000Y-83074500D02*
X167516000Y-83549500D01*
G75*
G02*
X167278500Y-83787000I-237500J0D01*
G01*
X166703500Y-83787000D01*
G75*
G02*
X166466000Y-83549500I0J237500D01*
G01*
X166466000Y-83074500D01*
G75*
G02*
X166703500Y-82837000I237500J0D01*
G01*
X167278500Y-82837000D01*
G75*
G02*
X167516000Y-83074500I0J-237500D01*
G01*
G37*
G36*
G01*
X180323500Y-76358000D02*
X179848500Y-76358000D01*
G75*
G02*
X179611000Y-76120500I0J237500D01*
G01*
X179611000Y-75545500D01*
G75*
G02*
X179848500Y-75308000I237500J0D01*
G01*
X180323500Y-75308000D01*
G75*
G02*
X180561000Y-75545500I0J-237500D01*
G01*
X180561000Y-76120500D01*
G75*
G02*
X180323500Y-76358000I-237500J0D01*
G01*
G37*
G36*
G01*
X180323500Y-78108000D02*
X179848500Y-78108000D01*
G75*
G02*
X179611000Y-77870500I0J237500D01*
G01*
X179611000Y-77295500D01*
G75*
G02*
X179848500Y-77058000I237500J0D01*
G01*
X180323500Y-77058000D01*
G75*
G02*
X180561000Y-77295500I0J-237500D01*
G01*
X180561000Y-77870500D01*
G75*
G02*
X180323500Y-78108000I-237500J0D01*
G01*
G37*
G36*
G01*
X182101500Y-76358000D02*
X181626500Y-76358000D01*
G75*
G02*
X181389000Y-76120500I0J237500D01*
G01*
X181389000Y-75545500D01*
G75*
G02*
X181626500Y-75308000I237500J0D01*
G01*
X182101500Y-75308000D01*
G75*
G02*
X182339000Y-75545500I0J-237500D01*
G01*
X182339000Y-76120500D01*
G75*
G02*
X182101500Y-76358000I-237500J0D01*
G01*
G37*
G36*
G01*
X182101500Y-78108000D02*
X181626500Y-78108000D01*
G75*
G02*
X181389000Y-77870500I0J237500D01*
G01*
X181389000Y-77295500D01*
G75*
G02*
X181626500Y-77058000I237500J0D01*
G01*
X182101500Y-77058000D01*
G75*
G02*
X182339000Y-77295500I0J-237500D01*
G01*
X182339000Y-77870500D01*
G75*
G02*
X182101500Y-78108000I-237500J0D01*
G01*
G37*
G36*
G01*
X182530000Y-85360500D02*
X182530000Y-85835500D01*
G75*
G02*
X182292500Y-86073000I-237500J0D01*
G01*
X181717500Y-86073000D01*
G75*
G02*
X181480000Y-85835500I0J237500D01*
G01*
X181480000Y-85360500D01*
G75*
G02*
X181717500Y-85123000I237500J0D01*
G01*
X182292500Y-85123000D01*
G75*
G02*
X182530000Y-85360500I0J-237500D01*
G01*
G37*
G36*
G01*
X184280000Y-85360500D02*
X184280000Y-85835500D01*
G75*
G02*
X184042500Y-86073000I-237500J0D01*
G01*
X183467500Y-86073000D01*
G75*
G02*
X183230000Y-85835500I0J237500D01*
G01*
X183230000Y-85360500D01*
G75*
G02*
X183467500Y-85123000I237500J0D01*
G01*
X184042500Y-85123000D01*
G75*
G02*
X184280000Y-85360500I0J-237500D01*
G01*
G37*
G36*
G01*
X196184000Y-74405500D02*
X196184000Y-73930500D01*
G75*
G02*
X196421500Y-73693000I237500J0D01*
G01*
X196996500Y-73693000D01*
G75*
G02*
X197234000Y-73930500I0J-237500D01*
G01*
X197234000Y-74405500D01*
G75*
G02*
X196996500Y-74643000I-237500J0D01*
G01*
X196421500Y-74643000D01*
G75*
G02*
X196184000Y-74405500I0J237500D01*
G01*
G37*
G36*
G01*
X194434000Y-74405500D02*
X194434000Y-73930500D01*
G75*
G02*
X194671500Y-73693000I237500J0D01*
G01*
X195246500Y-73693000D01*
G75*
G02*
X195484000Y-73930500I0J-237500D01*
G01*
X195484000Y-74405500D01*
G75*
G02*
X195246500Y-74643000I-237500J0D01*
G01*
X194671500Y-74643000D01*
G75*
G02*
X194434000Y-74405500I0J237500D01*
G01*
G37*
G36*
G01*
X165845500Y-70262000D02*
X165370500Y-70262000D01*
G75*
G02*
X165133000Y-70024500I0J237500D01*
G01*
X165133000Y-69449500D01*
G75*
G02*
X165370500Y-69212000I237500J0D01*
G01*
X165845500Y-69212000D01*
G75*
G02*
X166083000Y-69449500I0J-237500D01*
G01*
X166083000Y-70024500D01*
G75*
G02*
X165845500Y-70262000I-237500J0D01*
G01*
G37*
G36*
G01*
X165845500Y-72012000D02*
X165370500Y-72012000D01*
G75*
G02*
X165133000Y-71774500I0J237500D01*
G01*
X165133000Y-71199500D01*
G75*
G02*
X165370500Y-70962000I237500J0D01*
G01*
X165845500Y-70962000D01*
G75*
G02*
X166083000Y-71199500I0J-237500D01*
G01*
X166083000Y-71774500D01*
G75*
G02*
X165845500Y-72012000I-237500J0D01*
G01*
G37*
G36*
G01*
X205836000Y-74405500D02*
X205836000Y-73930500D01*
G75*
G02*
X206073500Y-73693000I237500J0D01*
G01*
X206648500Y-73693000D01*
G75*
G02*
X206886000Y-73930500I0J-237500D01*
G01*
X206886000Y-74405500D01*
G75*
G02*
X206648500Y-74643000I-237500J0D01*
G01*
X206073500Y-74643000D01*
G75*
G02*
X205836000Y-74405500I0J237500D01*
G01*
G37*
G36*
G01*
X204086000Y-74405500D02*
X204086000Y-73930500D01*
G75*
G02*
X204323500Y-73693000I237500J0D01*
G01*
X204898500Y-73693000D01*
G75*
G02*
X205136000Y-73930500I0J-237500D01*
G01*
X205136000Y-74405500D01*
G75*
G02*
X204898500Y-74643000I-237500J0D01*
G01*
X204323500Y-74643000D01*
G75*
G02*
X204086000Y-74405500I0J237500D01*
G01*
G37*
G36*
G01*
X158733500Y-70262000D02*
X158258500Y-70262000D01*
G75*
G02*
X158021000Y-70024500I0J237500D01*
G01*
X158021000Y-69449500D01*
G75*
G02*
X158258500Y-69212000I237500J0D01*
G01*
X158733500Y-69212000D01*
G75*
G02*
X158971000Y-69449500I0J-237500D01*
G01*
X158971000Y-70024500D01*
G75*
G02*
X158733500Y-70262000I-237500J0D01*
G01*
G37*
G36*
G01*
X158733500Y-72012000D02*
X158258500Y-72012000D01*
G75*
G02*
X158021000Y-71774500I0J237500D01*
G01*
X158021000Y-71199500D01*
G75*
G02*
X158258500Y-70962000I237500J0D01*
G01*
X158733500Y-70962000D01*
G75*
G02*
X158971000Y-71199500I0J-237500D01*
G01*
X158971000Y-71774500D01*
G75*
G02*
X158733500Y-72012000I-237500J0D01*
G01*
G37*
G36*
G01*
X167910500Y-71978000D02*
X168385500Y-71978000D01*
G75*
G02*
X168623000Y-72215500I0J-237500D01*
G01*
X168623000Y-72790500D01*
G75*
G02*
X168385500Y-73028000I-237500J0D01*
G01*
X167910500Y-73028000D01*
G75*
G02*
X167673000Y-72790500I0J237500D01*
G01*
X167673000Y-72215500D01*
G75*
G02*
X167910500Y-71978000I237500J0D01*
G01*
G37*
G36*
G01*
X167910500Y-70228000D02*
X168385500Y-70228000D01*
G75*
G02*
X168623000Y-70465500I0J-237500D01*
G01*
X168623000Y-71040500D01*
G75*
G02*
X168385500Y-71278000I-237500J0D01*
G01*
X167910500Y-71278000D01*
G75*
G02*
X167673000Y-71040500I0J237500D01*
G01*
X167673000Y-70465500D01*
G75*
G02*
X167910500Y-70228000I237500J0D01*
G01*
G37*
G36*
G01*
X156480500Y-70962000D02*
X156955500Y-70962000D01*
G75*
G02*
X157193000Y-71199500I0J-237500D01*
G01*
X157193000Y-71774500D01*
G75*
G02*
X156955500Y-72012000I-237500J0D01*
G01*
X156480500Y-72012000D01*
G75*
G02*
X156243000Y-71774500I0J237500D01*
G01*
X156243000Y-71199500D01*
G75*
G02*
X156480500Y-70962000I237500J0D01*
G01*
G37*
G36*
G01*
X156480500Y-69212000D02*
X156955500Y-69212000D01*
G75*
G02*
X157193000Y-69449500I0J-237500D01*
G01*
X157193000Y-70024500D01*
G75*
G02*
X156955500Y-70262000I-237500J0D01*
G01*
X156480500Y-70262000D01*
G75*
G02*
X156243000Y-70024500I0J237500D01*
G01*
X156243000Y-69449500D01*
G75*
G02*
X156480500Y-69212000I237500J0D01*
G01*
G37*
G36*
G01*
X163592500Y-70962000D02*
X164067500Y-70962000D01*
G75*
G02*
X164305000Y-71199500I0J-237500D01*
G01*
X164305000Y-71774500D01*
G75*
G02*
X164067500Y-72012000I-237500J0D01*
G01*
X163592500Y-72012000D01*
G75*
G02*
X163355000Y-71774500I0J237500D01*
G01*
X163355000Y-71199500D01*
G75*
G02*
X163592500Y-70962000I237500J0D01*
G01*
G37*
G36*
G01*
X163592500Y-69212000D02*
X164067500Y-69212000D01*
G75*
G02*
X164305000Y-69449500I0J-237500D01*
G01*
X164305000Y-70024500D01*
G75*
G02*
X164067500Y-70262000I-237500J0D01*
G01*
X163592500Y-70262000D01*
G75*
G02*
X163355000Y-70024500I0J237500D01*
G01*
X163355000Y-69449500D01*
G75*
G02*
X163592500Y-69212000I237500J0D01*
G01*
G37*
G36*
G01*
X181626500Y-73502000D02*
X182101500Y-73502000D01*
G75*
G02*
X182339000Y-73739500I0J-237500D01*
G01*
X182339000Y-74314500D01*
G75*
G02*
X182101500Y-74552000I-237500J0D01*
G01*
X181626500Y-74552000D01*
G75*
G02*
X181389000Y-74314500I0J237500D01*
G01*
X181389000Y-73739500D01*
G75*
G02*
X181626500Y-73502000I237500J0D01*
G01*
G37*
G36*
G01*
X181626500Y-71752000D02*
X182101500Y-71752000D01*
G75*
G02*
X182339000Y-71989500I0J-237500D01*
G01*
X182339000Y-72564500D01*
G75*
G02*
X182101500Y-72802000I-237500J0D01*
G01*
X181626500Y-72802000D01*
G75*
G02*
X181389000Y-72564500I0J237500D01*
G01*
X181389000Y-71989500D01*
G75*
G02*
X181626500Y-71752000I237500J0D01*
G01*
G37*
G36*
G01*
X206264500Y-71978000D02*
X206739500Y-71978000D01*
G75*
G02*
X206977000Y-72215500I0J-237500D01*
G01*
X206977000Y-72790500D01*
G75*
G02*
X206739500Y-73028000I-237500J0D01*
G01*
X206264500Y-73028000D01*
G75*
G02*
X206027000Y-72790500I0J237500D01*
G01*
X206027000Y-72215500D01*
G75*
G02*
X206264500Y-71978000I237500J0D01*
G01*
G37*
G36*
G01*
X206264500Y-70228000D02*
X206739500Y-70228000D01*
G75*
G02*
X206977000Y-70465500I0J-237500D01*
G01*
X206977000Y-71040500D01*
G75*
G02*
X206739500Y-71278000I-237500J0D01*
G01*
X206264500Y-71278000D01*
G75*
G02*
X206027000Y-71040500I0J237500D01*
G01*
X206027000Y-70465500D01*
G75*
G02*
X206264500Y-70228000I237500J0D01*
G01*
G37*
G36*
G01*
X196612500Y-71978000D02*
X197087500Y-71978000D01*
G75*
G02*
X197325000Y-72215500I0J-237500D01*
G01*
X197325000Y-72790500D01*
G75*
G02*
X197087500Y-73028000I-237500J0D01*
G01*
X196612500Y-73028000D01*
G75*
G02*
X196375000Y-72790500I0J237500D01*
G01*
X196375000Y-72215500D01*
G75*
G02*
X196612500Y-71978000I237500J0D01*
G01*
G37*
G36*
G01*
X196612500Y-70228000D02*
X197087500Y-70228000D01*
G75*
G02*
X197325000Y-70465500I0J-237500D01*
G01*
X197325000Y-71040500D01*
G75*
G02*
X197087500Y-71278000I-237500J0D01*
G01*
X196612500Y-71278000D01*
G75*
G02*
X196375000Y-71040500I0J237500D01*
G01*
X196375000Y-70465500D01*
G75*
G02*
X196612500Y-70228000I237500J0D01*
G01*
G37*
G36*
G01*
X174163000Y-79022000D02*
X176865000Y-79022000D01*
G75*
G02*
X177264000Y-79421000I0J-399000D01*
G01*
X177264000Y-82123000D01*
G75*
G02*
X176865000Y-82522000I-399000J0D01*
G01*
X174163000Y-82522000D01*
G75*
G02*
X173764000Y-82123000I0J399000D01*
G01*
X173764000Y-79421000D01*
G75*
G02*
X174163000Y-79022000I399000J0D01*
G01*
G37*
D15*
X173764000Y-83222000D03*
X174264000Y-83222000D03*
X174764000Y-83222000D03*
X175264000Y-83222000D03*
X175764000Y-83222000D03*
X176264000Y-83222000D03*
X176764000Y-83222000D03*
X177264000Y-83222000D03*
D16*
X177964000Y-82522000D03*
X177964000Y-82022000D03*
X177964000Y-81522000D03*
X177964000Y-81022000D03*
X177964000Y-80522000D03*
X177964000Y-80022000D03*
X177964000Y-79522000D03*
X177964000Y-79022000D03*
D15*
X177264000Y-78322000D03*
X176764000Y-78322000D03*
X176264000Y-78322000D03*
X175764000Y-78322000D03*
X175264000Y-78322000D03*
X174764000Y-78322000D03*
X174264000Y-78322000D03*
X173764000Y-78322000D03*
D16*
X173064000Y-79022000D03*
X173064000Y-79522000D03*
X173064000Y-80022000D03*
X173064000Y-80522000D03*
X173064000Y-81022000D03*
X173064000Y-81522000D03*
X173064000Y-82022000D03*
X173064000Y-82522000D03*
M02*
